M48
; DRILL file {KiCad 9.0.7} date 2026-05-02T00:19:29+0200
; FORMAT={-:-/ absolute / metric / decimal}
; #@! TF.CreationDate,2026-05-02T00:19:29+02:00
; #@! TF.GenerationSoftware,Kicad,Pcbnew,9.0.7
; #@! TF.FileFunction,Plated,1,2,PTH
FMAT,2
METRIC
; #@! TA.AperFunction,Plated,PTH,ComponentDrill
T1C0.800
; #@! TA.AperFunction,Plated,PTH,ComponentDrill
T2C1.000
%
G90
G05
T1
X138.76Y-102.88
X138.76Y-110.5
X141.3Y-102.88
X141.3Y-110.5
X143.84Y-102.88
X143.84Y-110.5
X146.38Y-102.88
X146.38Y-110.5
X148.0Y-115.0
X148.92Y-102.88
X148.92Y-110.5
X151.19Y-66.0
X151.19Y-69.5
X151.46Y-102.88
X151.46Y-110.5
X153.0Y-115.0
X154.0Y-102.88
X154.0Y-110.5
X156.54Y-102.88
X156.54Y-110.5
X158.81Y-66.0
X158.81Y-69.5
X159.08Y-102.88
X159.08Y-110.5
X161.62Y-102.88
X161.62Y-110.5
X164.16Y-102.88
X164.16Y-110.5
X166.7Y-102.88
X166.7Y-110.5
X169.24Y-102.88
X169.24Y-110.5
X171.78Y-102.88
X171.78Y-110.5
T2
X108.545Y-74.39
X108.545Y-76.93
X108.545Y-79.47
X108.545Y-82.01
X108.545Y-84.55
X108.545Y-87.09
X108.545Y-89.63
X108.545Y-92.17
X108.545Y-94.71
X108.545Y-97.25
X108.545Y-99.79
X108.545Y-102.33
X108.545Y-104.87
X108.545Y-107.41
X123.0Y-102.0
X123.0Y-104.54
X123.0Y-107.08
X123.0Y-109.62
X123.0Y-112.16
X133.5Y-102.42
X133.5Y-104.96
X133.5Y-107.5
X133.5Y-110.04
X147.545Y-73.76
X147.545Y-76.3
X147.545Y-78.84
X147.545Y-81.38
X147.545Y-83.92
X147.545Y-86.46
X147.545Y-89.0
X147.545Y-91.54
X147.545Y-94.08
X163.045Y-73.76
X163.045Y-76.3
X163.045Y-78.84
X163.045Y-81.38
X163.045Y-83.92
X163.045Y-86.46
X163.045Y-89.0
X163.045Y-91.54
X163.045Y-94.08
X177.5Y-102.19
X177.5Y-104.73
X177.5Y-107.27
X177.5Y-109.81
X188.0Y-102.46
X188.0Y-105.0
X188.0Y-107.54
X188.0Y-110.08
X188.0Y-112.62
M30
