%TF.GenerationSoftware,KiCad,Pcbnew,9.0.7*%
%TF.CreationDate,2026-05-02T00:19:31+02:00*%
%TF.ProjectId,controller,636f6e74-726f-46c6-9c65-722e6b696361,rev?*%
%TF.SameCoordinates,Original*%
%TF.FileFunction,Legend,Bot*%
%TF.FilePolarity,Positive*%
%FSLAX46Y46*%
G04 Gerber Fmt 4.6, Leading zero omitted, Abs format (unit mm)*
G04 Created by KiCad (PCBNEW 9.0.7) date 2026-05-02 00:19:31*
%MOMM*%
%LPD*%
G01*
G04 APERTURE LIST*
%ADD10C,0.150000*%
%ADD11C,0.120000*%
G04 APERTURE END LIST*
D10*
X177833333Y-111644819D02*
X177833333Y-112359104D01*
X177833333Y-112359104D02*
X177880952Y-112501961D01*
X177880952Y-112501961D02*
X177976190Y-112597200D01*
X177976190Y-112597200D02*
X178119047Y-112644819D01*
X178119047Y-112644819D02*
X178214285Y-112644819D01*
X177452380Y-111644819D02*
X176785714Y-111644819D01*
X176785714Y-111644819D02*
X177214285Y-112644819D01*
X123333333Y-113994819D02*
X123333333Y-114709104D01*
X123333333Y-114709104D02*
X123380952Y-114851961D01*
X123380952Y-114851961D02*
X123476190Y-114947200D01*
X123476190Y-114947200D02*
X123619047Y-114994819D01*
X123619047Y-114994819D02*
X123714285Y-114994819D01*
X122333333Y-114994819D02*
X122904761Y-114994819D01*
X122619047Y-114994819D02*
X122619047Y-113994819D01*
X122619047Y-113994819D02*
X122714285Y-114137676D01*
X122714285Y-114137676D02*
X122809523Y-114232914D01*
X122809523Y-114232914D02*
X122904761Y-114280533D01*
X188333333Y-99534819D02*
X188333333Y-100249104D01*
X188333333Y-100249104D02*
X188380952Y-100391961D01*
X188380952Y-100391961D02*
X188476190Y-100487200D01*
X188476190Y-100487200D02*
X188619047Y-100534819D01*
X188619047Y-100534819D02*
X188714285Y-100534819D01*
X187904761Y-99630057D02*
X187857142Y-99582438D01*
X187857142Y-99582438D02*
X187761904Y-99534819D01*
X187761904Y-99534819D02*
X187523809Y-99534819D01*
X187523809Y-99534819D02*
X187428571Y-99582438D01*
X187428571Y-99582438D02*
X187380952Y-99630057D01*
X187380952Y-99630057D02*
X187333333Y-99725295D01*
X187333333Y-99725295D02*
X187333333Y-99820533D01*
X187333333Y-99820533D02*
X187380952Y-99963390D01*
X187380952Y-99963390D02*
X187952380Y-100534819D01*
X187952380Y-100534819D02*
X187333333Y-100534819D01*
X150666666Y-112859580D02*
X150714285Y-112907200D01*
X150714285Y-112907200D02*
X150857142Y-112954819D01*
X150857142Y-112954819D02*
X150952380Y-112954819D01*
X150952380Y-112954819D02*
X151095237Y-112907200D01*
X151095237Y-112907200D02*
X151190475Y-112811961D01*
X151190475Y-112811961D02*
X151238094Y-112716723D01*
X151238094Y-112716723D02*
X151285713Y-112526247D01*
X151285713Y-112526247D02*
X151285713Y-112383390D01*
X151285713Y-112383390D02*
X151238094Y-112192914D01*
X151238094Y-112192914D02*
X151190475Y-112097676D01*
X151190475Y-112097676D02*
X151095237Y-112002438D01*
X151095237Y-112002438D02*
X150952380Y-111954819D01*
X150952380Y-111954819D02*
X150857142Y-111954819D01*
X150857142Y-111954819D02*
X150714285Y-112002438D01*
X150714285Y-112002438D02*
X150666666Y-112050057D01*
X149714285Y-112954819D02*
X150285713Y-112954819D01*
X149999999Y-112954819D02*
X149999999Y-111954819D01*
X149999999Y-111954819D02*
X150095237Y-112097676D01*
X150095237Y-112097676D02*
X150190475Y-112192914D01*
X150190475Y-112192914D02*
X150285713Y-112240533D01*
X133833333Y-99494819D02*
X133833333Y-100209104D01*
X133833333Y-100209104D02*
X133880952Y-100351961D01*
X133880952Y-100351961D02*
X133976190Y-100447200D01*
X133976190Y-100447200D02*
X134119047Y-100494819D01*
X134119047Y-100494819D02*
X134214285Y-100494819D01*
X132928571Y-99494819D02*
X133119047Y-99494819D01*
X133119047Y-99494819D02*
X133214285Y-99542438D01*
X133214285Y-99542438D02*
X133261904Y-99590057D01*
X133261904Y-99590057D02*
X133357142Y-99732914D01*
X133357142Y-99732914D02*
X133404761Y-99923390D01*
X133404761Y-99923390D02*
X133404761Y-100304342D01*
X133404761Y-100304342D02*
X133357142Y-100399580D01*
X133357142Y-100399580D02*
X133309523Y-100447200D01*
X133309523Y-100447200D02*
X133214285Y-100494819D01*
X133214285Y-100494819D02*
X133023809Y-100494819D01*
X133023809Y-100494819D02*
X132928571Y-100447200D01*
X132928571Y-100447200D02*
X132880952Y-100399580D01*
X132880952Y-100399580D02*
X132833333Y-100304342D01*
X132833333Y-100304342D02*
X132833333Y-100066247D01*
X132833333Y-100066247D02*
X132880952Y-99971009D01*
X132880952Y-99971009D02*
X132928571Y-99923390D01*
X132928571Y-99923390D02*
X133023809Y-99875771D01*
X133023809Y-99875771D02*
X133214285Y-99875771D01*
X133214285Y-99875771D02*
X133309523Y-99923390D01*
X133309523Y-99923390D02*
X133357142Y-99971009D01*
X133357142Y-99971009D02*
X133404761Y-100066247D01*
X173564819Y-105928095D02*
X174374342Y-105928095D01*
X174374342Y-105928095D02*
X174469580Y-105975714D01*
X174469580Y-105975714D02*
X174517200Y-106023333D01*
X174517200Y-106023333D02*
X174564819Y-106118571D01*
X174564819Y-106118571D02*
X174564819Y-106309047D01*
X174564819Y-106309047D02*
X174517200Y-106404285D01*
X174517200Y-106404285D02*
X174469580Y-106451904D01*
X174469580Y-106451904D02*
X174374342Y-106499523D01*
X174374342Y-106499523D02*
X173564819Y-106499523D01*
X173660057Y-106928095D02*
X173612438Y-106975714D01*
X173612438Y-106975714D02*
X173564819Y-107070952D01*
X173564819Y-107070952D02*
X173564819Y-107309047D01*
X173564819Y-107309047D02*
X173612438Y-107404285D01*
X173612438Y-107404285D02*
X173660057Y-107451904D01*
X173660057Y-107451904D02*
X173755295Y-107499523D01*
X173755295Y-107499523D02*
X173850533Y-107499523D01*
X173850533Y-107499523D02*
X173993390Y-107451904D01*
X173993390Y-107451904D02*
X174564819Y-106880476D01*
X174564819Y-106880476D02*
X174564819Y-107499523D01*
X165251190Y-71311009D02*
X164917857Y-71311009D01*
X164775000Y-71834819D02*
X165251190Y-71834819D01*
X165251190Y-71834819D02*
X165251190Y-70834819D01*
X165251190Y-70834819D02*
X164775000Y-70834819D01*
X164394047Y-71787200D02*
X164251190Y-71834819D01*
X164251190Y-71834819D02*
X164013095Y-71834819D01*
X164013095Y-71834819D02*
X163917857Y-71787200D01*
X163917857Y-71787200D02*
X163870238Y-71739580D01*
X163870238Y-71739580D02*
X163822619Y-71644342D01*
X163822619Y-71644342D02*
X163822619Y-71549104D01*
X163822619Y-71549104D02*
X163870238Y-71453866D01*
X163870238Y-71453866D02*
X163917857Y-71406247D01*
X163917857Y-71406247D02*
X164013095Y-71358628D01*
X164013095Y-71358628D02*
X164203571Y-71311009D01*
X164203571Y-71311009D02*
X164298809Y-71263390D01*
X164298809Y-71263390D02*
X164346428Y-71215771D01*
X164346428Y-71215771D02*
X164394047Y-71120533D01*
X164394047Y-71120533D02*
X164394047Y-71025295D01*
X164394047Y-71025295D02*
X164346428Y-70930057D01*
X164346428Y-70930057D02*
X164298809Y-70882438D01*
X164298809Y-70882438D02*
X164203571Y-70834819D01*
X164203571Y-70834819D02*
X163965476Y-70834819D01*
X163965476Y-70834819D02*
X163822619Y-70882438D01*
X163394047Y-71834819D02*
X163394047Y-70834819D01*
X163394047Y-70834819D02*
X163013095Y-70834819D01*
X163013095Y-70834819D02*
X162917857Y-70882438D01*
X162917857Y-70882438D02*
X162870238Y-70930057D01*
X162870238Y-70930057D02*
X162822619Y-71025295D01*
X162822619Y-71025295D02*
X162822619Y-71168152D01*
X162822619Y-71168152D02*
X162870238Y-71263390D01*
X162870238Y-71263390D02*
X162917857Y-71311009D01*
X162917857Y-71311009D02*
X163013095Y-71358628D01*
X163013095Y-71358628D02*
X163394047Y-71358628D01*
X162489285Y-70834819D02*
X161870238Y-70834819D01*
X161870238Y-70834819D02*
X162203571Y-71215771D01*
X162203571Y-71215771D02*
X162060714Y-71215771D01*
X162060714Y-71215771D02*
X161965476Y-71263390D01*
X161965476Y-71263390D02*
X161917857Y-71311009D01*
X161917857Y-71311009D02*
X161870238Y-71406247D01*
X161870238Y-71406247D02*
X161870238Y-71644342D01*
X161870238Y-71644342D02*
X161917857Y-71739580D01*
X161917857Y-71739580D02*
X161965476Y-71787200D01*
X161965476Y-71787200D02*
X162060714Y-71834819D01*
X162060714Y-71834819D02*
X162346428Y-71834819D01*
X162346428Y-71834819D02*
X162441666Y-71787200D01*
X162441666Y-71787200D02*
X162489285Y-71739580D01*
X161489285Y-70930057D02*
X161441666Y-70882438D01*
X161441666Y-70882438D02*
X161346428Y-70834819D01*
X161346428Y-70834819D02*
X161108333Y-70834819D01*
X161108333Y-70834819D02*
X161013095Y-70882438D01*
X161013095Y-70882438D02*
X160965476Y-70930057D01*
X160965476Y-70930057D02*
X160917857Y-71025295D01*
X160917857Y-71025295D02*
X160917857Y-71120533D01*
X160917857Y-71120533D02*
X160965476Y-71263390D01*
X160965476Y-71263390D02*
X161536904Y-71834819D01*
X161536904Y-71834819D02*
X160917857Y-71834819D01*
X160727381Y-71930057D02*
X159965476Y-71930057D01*
X159774999Y-71787200D02*
X159632142Y-71834819D01*
X159632142Y-71834819D02*
X159394047Y-71834819D01*
X159394047Y-71834819D02*
X159298809Y-71787200D01*
X159298809Y-71787200D02*
X159251190Y-71739580D01*
X159251190Y-71739580D02*
X159203571Y-71644342D01*
X159203571Y-71644342D02*
X159203571Y-71549104D01*
X159203571Y-71549104D02*
X159251190Y-71453866D01*
X159251190Y-71453866D02*
X159298809Y-71406247D01*
X159298809Y-71406247D02*
X159394047Y-71358628D01*
X159394047Y-71358628D02*
X159584523Y-71311009D01*
X159584523Y-71311009D02*
X159679761Y-71263390D01*
X159679761Y-71263390D02*
X159727380Y-71215771D01*
X159727380Y-71215771D02*
X159774999Y-71120533D01*
X159774999Y-71120533D02*
X159774999Y-71025295D01*
X159774999Y-71025295D02*
X159727380Y-70930057D01*
X159727380Y-70930057D02*
X159679761Y-70882438D01*
X159679761Y-70882438D02*
X159584523Y-70834819D01*
X159584523Y-70834819D02*
X159346428Y-70834819D01*
X159346428Y-70834819D02*
X159203571Y-70882438D01*
X158251190Y-71834819D02*
X158822618Y-71834819D01*
X158536904Y-71834819D02*
X158536904Y-70834819D01*
X158536904Y-70834819D02*
X158632142Y-70977676D01*
X158632142Y-70977676D02*
X158727380Y-71072914D01*
X158727380Y-71072914D02*
X158822618Y-71120533D01*
X155166666Y-68824819D02*
X155499999Y-68348628D01*
X155738094Y-68824819D02*
X155738094Y-67824819D01*
X155738094Y-67824819D02*
X155357142Y-67824819D01*
X155357142Y-67824819D02*
X155261904Y-67872438D01*
X155261904Y-67872438D02*
X155214285Y-67920057D01*
X155214285Y-67920057D02*
X155166666Y-68015295D01*
X155166666Y-68015295D02*
X155166666Y-68158152D01*
X155166666Y-68158152D02*
X155214285Y-68253390D01*
X155214285Y-68253390D02*
X155261904Y-68301009D01*
X155261904Y-68301009D02*
X155357142Y-68348628D01*
X155357142Y-68348628D02*
X155738094Y-68348628D01*
X154785713Y-67920057D02*
X154738094Y-67872438D01*
X154738094Y-67872438D02*
X154642856Y-67824819D01*
X154642856Y-67824819D02*
X154404761Y-67824819D01*
X154404761Y-67824819D02*
X154309523Y-67872438D01*
X154309523Y-67872438D02*
X154261904Y-67920057D01*
X154261904Y-67920057D02*
X154214285Y-68015295D01*
X154214285Y-68015295D02*
X154214285Y-68110533D01*
X154214285Y-68110533D02*
X154261904Y-68253390D01*
X154261904Y-68253390D02*
X154833332Y-68824819D01*
X154833332Y-68824819D02*
X154214285Y-68824819D01*
X155166666Y-72324819D02*
X155499999Y-71848628D01*
X155738094Y-72324819D02*
X155738094Y-71324819D01*
X155738094Y-71324819D02*
X155357142Y-71324819D01*
X155357142Y-71324819D02*
X155261904Y-71372438D01*
X155261904Y-71372438D02*
X155214285Y-71420057D01*
X155214285Y-71420057D02*
X155166666Y-71515295D01*
X155166666Y-71515295D02*
X155166666Y-71658152D01*
X155166666Y-71658152D02*
X155214285Y-71753390D01*
X155214285Y-71753390D02*
X155261904Y-71801009D01*
X155261904Y-71801009D02*
X155357142Y-71848628D01*
X155357142Y-71848628D02*
X155738094Y-71848628D01*
X154214285Y-72324819D02*
X154785713Y-72324819D01*
X154499999Y-72324819D02*
X154499999Y-71324819D01*
X154499999Y-71324819D02*
X154595237Y-71467676D01*
X154595237Y-71467676D02*
X154690475Y-71562914D01*
X154690475Y-71562914D02*
X154785713Y-71610533D01*
D11*
%TO.C,J7*%
X176120000Y-100810000D02*
X178880000Y-100810000D01*
X176120000Y-108540000D02*
X176120000Y-100810000D01*
X176120000Y-108540000D02*
X178880000Y-108540000D01*
X176120000Y-109810000D02*
X176120000Y-111190000D01*
X176120000Y-111190000D02*
X177500000Y-111190000D01*
X178880000Y-108540000D02*
X178880000Y-100810000D01*
%TO.C,J1*%
X121620000Y-100620000D02*
X124380000Y-100620000D01*
X121620000Y-110890000D02*
X121620000Y-100620000D01*
X121620000Y-110890000D02*
X124380000Y-110890000D01*
X121620000Y-112160000D02*
X121620000Y-113540000D01*
X121620000Y-113540000D02*
X123000000Y-113540000D01*
X124380000Y-110890000D02*
X124380000Y-100620000D01*
%TO.C,J2*%
X186620000Y-103730000D02*
X186620000Y-114000000D01*
X189380000Y-101080000D02*
X188000000Y-101080000D01*
X189380000Y-102460000D02*
X189380000Y-101080000D01*
X189380000Y-103730000D02*
X186620000Y-103730000D01*
X189380000Y-103730000D02*
X189380000Y-114000000D01*
X189380000Y-114000000D02*
X186620000Y-114000000D01*
%TO.C,C1*%
X147880000Y-113630000D02*
X147880000Y-113967000D01*
X147880000Y-116033000D02*
X147880000Y-116370000D01*
X147880000Y-116370000D02*
X153120000Y-116370000D01*
X153120000Y-113630000D02*
X147880000Y-113630000D01*
X153120000Y-113967000D02*
X153120000Y-113630000D01*
X153120000Y-116370000D02*
X153120000Y-116033000D01*
%TO.C,J6*%
X132120000Y-103690000D02*
X132120000Y-111420000D01*
X134880000Y-101040000D02*
X133500000Y-101040000D01*
X134880000Y-102420000D02*
X134880000Y-101040000D01*
X134880000Y-103690000D02*
X132120000Y-103690000D01*
X134880000Y-103690000D02*
X134880000Y-111420000D01*
X134880000Y-111420000D02*
X132120000Y-111420000D01*
%TO.C,U2*%
X137430000Y-104040000D02*
X173110000Y-104040000D01*
X137430000Y-109340000D02*
X137430000Y-104040000D01*
X173110000Y-104040000D02*
X173110000Y-105690000D01*
X173110000Y-107690000D02*
X173110000Y-109340000D01*
X173110000Y-109340000D02*
X137430000Y-109340000D01*
X173110000Y-107690000D02*
G75*
G02*
X173110000Y-105690000I0J1000000D01*
G01*
%TO.C,ESP32_S1*%
X146045000Y-72260000D02*
X146045000Y-95840000D01*
X161775000Y-72260000D02*
X146045000Y-72260000D01*
X161775000Y-75030000D02*
X161775000Y-72260000D01*
X164425000Y-72380000D02*
X163045000Y-72380000D01*
X164425000Y-73760000D02*
X164425000Y-72380000D01*
X164425000Y-75030000D02*
X161775000Y-75030000D01*
X164425000Y-75030000D02*
X164425000Y-95460000D01*
X164425000Y-95460000D02*
X146045000Y-95460000D01*
%TO.C,R2*%
X151730000Y-64630000D02*
X158270000Y-64630000D01*
X151730000Y-64960000D02*
X151730000Y-64630000D01*
X151730000Y-67040000D02*
X151730000Y-67370000D01*
X151730000Y-67370000D02*
X158270000Y-67370000D01*
X158270000Y-64630000D02*
X158270000Y-64960000D01*
X158270000Y-67370000D02*
X158270000Y-67040000D01*
%TO.C,R1*%
X151730000Y-68130000D02*
X158270000Y-68130000D01*
X151730000Y-68460000D02*
X151730000Y-68130000D01*
X151730000Y-70540000D02*
X151730000Y-70870000D01*
X151730000Y-70870000D02*
X158270000Y-70870000D01*
X158270000Y-68130000D02*
X158270000Y-68460000D01*
X158270000Y-70870000D02*
X158270000Y-70540000D01*
%TD*%
M02*
