%TF.GenerationSoftware,KiCad,Pcbnew,9.0.7*%
%TF.CreationDate,2026-05-02T00:19:31+02:00*%
%TF.ProjectId,controller,636f6e74-726f-46c6-9c65-722e6b696361,rev?*%
%TF.SameCoordinates,Original*%
%TF.FileFunction,Copper,L2,Bot*%
%TF.FilePolarity,Positive*%
%FSLAX46Y46*%
G04 Gerber Fmt 4.6, Leading zero omitted, Abs format (unit mm)*
G04 Created by KiCad (PCBNEW 9.0.7) date 2026-05-02 00:19:31*
%MOMM*%
%LPD*%
G01*
G04 APERTURE LIST*
G04 Aperture macros list*
%AMRoundRect*
0 Rectangle with rounded corners*
0 $1 Rounding radius*
0 $2 $3 $4 $5 $6 $7 $8 $9 X,Y pos of 4 corners*
0 Add a 4 corners polygon primitive as box body*
4,1,4,$2,$3,$4,$5,$6,$7,$8,$9,$2,$3,0*
0 Add four circle primitives for the rounded corners*
1,1,$1+$1,$2,$3*
1,1,$1+$1,$4,$5*
1,1,$1+$1,$6,$7*
1,1,$1+$1,$8,$9*
0 Add four rect primitives between the rounded corners*
20,1,$1+$1,$2,$3,$4,$5,0*
20,1,$1+$1,$4,$5,$6,$7,0*
20,1,$1+$1,$6,$7,$8,$9,0*
20,1,$1+$1,$8,$9,$2,$3,0*%
G04 Aperture macros list end*
%TA.AperFunction,ComponentPad*%
%ADD10R,1.700000X1.700000*%
%TD*%
%TA.AperFunction,ComponentPad*%
%ADD11C,1.700000*%
%TD*%
%TA.AperFunction,ComponentPad*%
%ADD12C,1.600000*%
%TD*%
%TA.AperFunction,ComponentPad*%
%ADD13RoundRect,0.250000X0.550000X-0.550000X0.550000X0.550000X-0.550000X0.550000X-0.550000X-0.550000X0*%
%TD*%
%TA.AperFunction,Conductor*%
%ADD14C,0.200000*%
%TD*%
G04 APERTURE END LIST*
D10*
%TO.P,J3,1,Pin_1*%
%TO.N,+3.3V*%
X108545000Y-74390000D03*
D11*
%TO.P,J3,2,Pin_2*%
%TO.N,GND*%
X108545000Y-76930000D03*
%TO.P,J3,3,Pin_3*%
%TO.N,CS*%
X108545000Y-79470000D03*
%TO.P,J3,4,Pin_4*%
%TO.N,RST*%
X108545000Y-82010000D03*
%TO.P,J3,5,Pin_5*%
%TO.N,DC*%
X108545000Y-84550000D03*
%TO.P,J3,6,Pin_6*%
%TO.N,MOSI*%
X108545000Y-87090000D03*
%TO.P,J3,7,Pin_7*%
%TO.N,SCK*%
X108545000Y-89630000D03*
%TO.P,J3,8,Pin_8*%
%TO.N,BACKLIGHT*%
X108545000Y-92170000D03*
%TO.P,J3,9,Pin_9*%
%TO.N,MISO*%
X108545000Y-94710000D03*
%TO.P,J3,10*%
%TO.N,N/C*%
X108545000Y-97250000D03*
%TO.P,J3,11*%
X108545000Y-99790000D03*
%TO.P,J3,12*%
X108545000Y-102330000D03*
%TO.P,J3,13*%
X108545000Y-104870000D03*
%TO.P,J3,14*%
X108545000Y-107410000D03*
%TD*%
D10*
%TO.P,J7,1,Pin_1*%
%TO.N,GND*%
X177500000Y-109810000D03*
D11*
%TO.P,J7,2,Pin_2*%
%TO.N,Net-(J7-Pin_2)*%
X177500000Y-107270000D03*
%TO.P,J7,3,Pin_3*%
%TO.N,Net-(J7-Pin_3)*%
X177500000Y-104730000D03*
%TO.P,J7,4,Pin_4*%
%TO.N,Net-(J7-Pin_4)*%
X177500000Y-102190000D03*
%TD*%
D10*
%TO.P,J1,1,Pin_1*%
%TO.N,SW2*%
X123000000Y-112160000D03*
D11*
%TO.P,J1,2,Pin_2*%
%TO.N,VRY2*%
X123000000Y-109620000D03*
%TO.P,J1,3,Pin_3*%
%TO.N,VRX2*%
X123000000Y-107080000D03*
%TO.P,J1,4,Pin_4*%
%TO.N,+3.3V*%
X123000000Y-104540000D03*
%TO.P,J1,5,Pin_5*%
%TO.N,GND*%
X123000000Y-102000000D03*
%TD*%
D10*
%TO.P,J2,1,Pin_1*%
%TO.N,SW1*%
X188000000Y-102460000D03*
D11*
%TO.P,J2,2,Pin_2*%
%TO.N,VRY1*%
X188000000Y-105000000D03*
%TO.P,J2,3,Pin_3*%
%TO.N,VRX1*%
X188000000Y-107540000D03*
%TO.P,J2,4,Pin_4*%
%TO.N,+3.3V*%
X188000000Y-110080000D03*
%TO.P,J2,5,Pin_5*%
%TO.N,GND*%
X188000000Y-112620000D03*
%TD*%
D12*
%TO.P,C1,1*%
%TO.N,+3.3V*%
X153000000Y-115000000D03*
%TO.P,C1,2*%
%TO.N,GND*%
X148000000Y-115000000D03*
%TD*%
D10*
%TO.P,J6,1,Pin_1*%
%TO.N,GND*%
X133500000Y-102420000D03*
D11*
%TO.P,J6,2,Pin_2*%
%TO.N,Net-(J6-Pin_2)*%
X133500000Y-104960000D03*
%TO.P,J6,3,Pin_3*%
%TO.N,Net-(J6-Pin_3)*%
X133500000Y-107500000D03*
%TO.P,J6,4,Pin_4*%
%TO.N,Net-(J6-Pin_4)*%
X133500000Y-110040000D03*
%TD*%
D13*
%TO.P,U2,1,GPB0*%
%TO.N,SW1*%
X171780000Y-110500000D03*
D12*
%TO.P,U2,2,GPB1*%
%TO.N,SW2*%
X169240000Y-110500000D03*
%TO.P,U2,3,GPB2*%
%TO.N,VRX1*%
X166700000Y-110500000D03*
%TO.P,U2,4,GPB3*%
%TO.N,VRX2*%
X164160000Y-110500000D03*
%TO.P,U2,5,GPB4*%
%TO.N,VRY1*%
X161620000Y-110500000D03*
%TO.P,U2,6,GPB5*%
%TO.N,VRY2*%
X159080000Y-110500000D03*
%TO.P,U2,7,GPB6*%
%TO.N,unconnected-(U2-GPB6-Pad7)*%
X156540000Y-110500000D03*
%TO.P,U2,8,GPB7*%
%TO.N,unconnected-(U2-GPB7-Pad8)*%
X154000000Y-110500000D03*
%TO.P,U2,9,VDD*%
%TO.N,+3.3V*%
X151460000Y-110500000D03*
%TO.P,U2,10,VSS*%
%TO.N,GND*%
X148920000Y-110500000D03*
%TO.P,U2,11,NC*%
%TO.N,unconnected-(U2-NC-Pad11)*%
X146380000Y-110500000D03*
%TO.P,U2,12,SCK*%
%TO.N,SCL*%
X143840000Y-110500000D03*
%TO.P,U2,13,SDA*%
%TO.N,SDA*%
X141300000Y-110500000D03*
%TO.P,U2,14,NC*%
%TO.N,unconnected-(U2-NC-Pad14)*%
X138760000Y-110500000D03*
%TO.P,U2,15,A0*%
%TO.N,GND*%
X138760000Y-102880000D03*
%TO.P,U2,16,A1*%
X141300000Y-102880000D03*
%TO.P,U2,17,A2*%
X143840000Y-102880000D03*
%TO.P,U2,18,~{RESET}*%
%TO.N,+3.3V*%
X146380000Y-102880000D03*
%TO.P,U2,19,INTB*%
%TO.N,unconnected-(U2-INTB-Pad19)*%
X148920000Y-102880000D03*
%TO.P,U2,20,INTA*%
%TO.N,unconnected-(U2-INTA-Pad20)*%
X151460000Y-102880000D03*
%TO.P,U2,21,GPA0*%
%TO.N,unconnected-(U2-GPA0-Pad21)*%
X154000000Y-102880000D03*
%TO.P,U2,22,GPA1*%
%TO.N,Net-(J6-Pin_4)*%
X156540000Y-102880000D03*
%TO.P,U2,23,GPA2*%
%TO.N,Net-(J6-Pin_3)*%
X159080000Y-102880000D03*
%TO.P,U2,24,GPA3*%
%TO.N,Net-(J6-Pin_2)*%
X161620000Y-102880000D03*
%TO.P,U2,25,GPA4*%
%TO.N,Net-(J7-Pin_4)*%
X164160000Y-102880000D03*
%TO.P,U2,26,GPA5*%
%TO.N,Net-(J7-Pin_3)*%
X166700000Y-102880000D03*
%TO.P,U2,27,GPA6*%
%TO.N,Net-(J7-Pin_2)*%
X169240000Y-102880000D03*
%TO.P,U2,28,GPA7*%
%TO.N,unconnected-(U2-GPA7-Pad28)*%
X171780000Y-102880000D03*
%TD*%
D10*
%TO.P,ESP32_S1,1,TX*%
%TO.N,unconnected-(ESP32_S1-TX-Pad1)*%
X163045000Y-73760000D03*
D11*
%TO.P,ESP32_S1,2,5V*%
%TO.N,unconnected-(ESP32_S1-5V-Pad2)*%
X147545000Y-73760000D03*
%TO.P,ESP32_S1,3,RX*%
%TO.N,unconnected-(ESP32_S1-RX-Pad3)*%
X163045000Y-76300000D03*
%TO.P,ESP32_S1,4,GND*%
%TO.N,unconnected-(ESP32_S1-GND-Pad4)*%
X147545000Y-76300000D03*
%TO.P,ESP32_S1,5,1*%
%TO.N,unconnected-(ESP32_S1-1-Pad5)*%
X163045000Y-78840000D03*
%TO.P,ESP32_S1,6,3.3V(OUT)*%
%TO.N,+3.3V*%
X147545000Y-78840000D03*
%TO.P,ESP32_S1,7,2*%
%TO.N,SDA*%
X163045000Y-81380000D03*
%TO.P,ESP32_S1,8,13*%
%TO.N,unconnected-(ESP32_S1-13-Pad8)*%
X147545000Y-81380000D03*
%TO.P,ESP32_S1,9,3*%
%TO.N,SCL*%
X163045000Y-83920000D03*
%TO.P,ESP32_S1,10,12*%
%TO.N,unconnected-(ESP32_S1-12-Pad10)*%
X147545000Y-83920000D03*
%TO.P,ESP32_S1,11,4*%
%TO.N,BAT*%
X163045000Y-86460000D03*
%TO.P,ESP32_S1,12,11*%
%TO.N,MISO*%
X147545000Y-86460000D03*
%TO.P,ESP32_S1,13,5*%
%TO.N,CS*%
X163045000Y-89000000D03*
%TO.P,ESP32_S1,14,10*%
%TO.N,MOSI*%
X147545000Y-89000000D03*
%TO.P,ESP32_S1,15,6*%
%TO.N,DC*%
X163045000Y-91540000D03*
%TO.P,ESP32_S1,16,9*%
%TO.N,SCK*%
X147545000Y-91540000D03*
%TO.P,ESP32_S1,17,7*%
%TO.N,RST*%
X163045000Y-94080000D03*
%TO.P,ESP32_S1,18,8*%
%TO.N,BACKLIGHT*%
X147545000Y-94080000D03*
%TD*%
D12*
%TO.P,R2,1*%
%TO.N,+3.3V*%
X151190000Y-66000000D03*
%TO.P,R2,2*%
%TO.N,SDA*%
X158810000Y-66000000D03*
%TD*%
%TO.P,R1,1*%
%TO.N,+3.3V*%
X151190000Y-69500000D03*
%TO.P,R1,2*%
%TO.N,SCL*%
X158810000Y-69500000D03*
%TD*%
D14*
%TO.N,DC*%
X164998000Y-79165240D02*
X164998000Y-93754760D01*
X161000000Y-93662760D02*
X161000000Y-93585000D01*
X106993000Y-82998000D02*
X106993000Y-76854240D01*
X106993000Y-76854240D02*
X108068240Y-75779000D01*
X110931760Y-77689000D02*
X163521760Y-77689000D01*
X163521760Y-95231000D02*
X162568240Y-95231000D01*
X164998000Y-93754760D02*
X163521760Y-95231000D01*
X109021760Y-75779000D02*
X110931760Y-77689000D01*
X108068240Y-75779000D02*
X109021760Y-75779000D01*
X108545000Y-84550000D02*
X106993000Y-82998000D01*
X163521760Y-77689000D02*
X164998000Y-79165240D01*
X162568240Y-95231000D02*
X161000000Y-93662760D01*
X161000000Y-93585000D02*
X163045000Y-91540000D01*
%TO.N,MISO*%
X108545000Y-94710000D02*
X107394000Y-93559000D01*
X107394000Y-93559000D02*
X107394000Y-86613240D01*
X107394000Y-86613240D02*
X108068240Y-85939000D01*
X108068240Y-85939000D02*
X147024000Y-85939000D01*
X147024000Y-85939000D02*
X147545000Y-86460000D01*
%TO.N,CS*%
X108545000Y-79470000D02*
X114384000Y-85309000D01*
X159354000Y-85309000D02*
X163045000Y-89000000D01*
X114384000Y-85309000D02*
X159354000Y-85309000D01*
%TO.N,BACKLIGHT*%
X110455000Y-94080000D02*
X147545000Y-94080000D01*
X108545000Y-92170000D02*
X110455000Y-94080000D01*
%TO.N,MOSI*%
X108545000Y-87090000D02*
X110455000Y-89000000D01*
X110455000Y-89000000D02*
X147545000Y-89000000D01*
%TO.N,RST*%
X163521760Y-80229000D02*
X164597000Y-81304240D01*
X110931760Y-80229000D02*
X163521760Y-80229000D01*
X108068240Y-78319000D02*
X109021760Y-78319000D01*
X107394000Y-80859000D02*
X107394000Y-78993240D01*
X107394000Y-78993240D02*
X108068240Y-78319000D01*
X108545000Y-82010000D02*
X107394000Y-80859000D01*
X164597000Y-81304240D02*
X164597000Y-92528000D01*
X109021760Y-78319000D02*
X110931760Y-80229000D01*
X164597000Y-92528000D02*
X163045000Y-94080000D01*
%TO.N,SDA*%
X147391950Y-95231000D02*
X157488240Y-95231000D01*
X164196000Y-89476760D02*
X164196000Y-82531000D01*
X132349000Y-110516760D02*
X132349000Y-104483240D01*
X140199000Y-111601000D02*
X133433240Y-111601000D01*
X132349000Y-104483240D02*
X133184715Y-103647525D01*
X139554050Y-103981000D02*
X140199000Y-103336050D01*
X157488240Y-95231000D02*
X162568240Y-90151000D01*
X163521760Y-90151000D02*
X164196000Y-89476760D01*
X133184715Y-103647525D02*
X137970475Y-103647525D01*
X137970475Y-103647525D02*
X138303950Y-103981000D01*
X138303950Y-103981000D02*
X139554050Y-103981000D01*
X141300000Y-110500000D02*
X140199000Y-111601000D01*
X164196000Y-82531000D02*
X163045000Y-81380000D01*
X162568240Y-90151000D02*
X163521760Y-90151000D01*
X140199000Y-103336050D02*
X140199000Y-102423950D01*
X133433240Y-111601000D02*
X132349000Y-110516760D01*
X140199000Y-102423950D02*
X147391950Y-95231000D01*
%TO.N,SCK*%
X110455000Y-91540000D02*
X147545000Y-91540000D01*
X108545000Y-89630000D02*
X110455000Y-91540000D01*
%TO.N,SW2*%
X123000000Y-112160000D02*
X123644000Y-112804000D01*
X166936000Y-112804000D02*
X169240000Y-110500000D01*
X123644000Y-112804000D02*
X166936000Y-112804000D01*
%TO.N,VRX2*%
X162658000Y-112002000D02*
X164160000Y-110500000D01*
X123000000Y-107080000D02*
X127922000Y-112002000D01*
X127922000Y-112002000D02*
X162658000Y-112002000D01*
%TO.N,VRY2*%
X125783000Y-112403000D02*
X163814050Y-112403000D01*
X123000000Y-109620000D02*
X125783000Y-112403000D01*
X160181000Y-109399000D02*
X159080000Y-110500000D01*
X163814050Y-112403000D02*
X165261000Y-110956050D01*
X165261000Y-110043950D02*
X164616050Y-109399000D01*
X164616050Y-109399000D02*
X160181000Y-109399000D01*
X165261000Y-110956050D02*
X165261000Y-110043950D01*
%TO.N,Net-(J6-Pin_2)*%
X159540000Y-104960000D02*
X133500000Y-104960000D01*
X161620000Y-102880000D02*
X159540000Y-104960000D01*
%TO.N,Net-(J6-Pin_4)*%
X159198050Y-109399000D02*
X134141000Y-109399000D01*
X164215050Y-101378000D02*
X165261000Y-102423950D01*
X134141000Y-109399000D02*
X133500000Y-110040000D01*
X156540000Y-102880000D02*
X158042000Y-101378000D01*
X165261000Y-102423950D02*
X165261000Y-103336050D01*
X165261000Y-103336050D02*
X159198050Y-109399000D01*
X158042000Y-101378000D02*
X164215050Y-101378000D01*
%TO.N,Net-(J6-Pin_3)*%
X158557050Y-107500000D02*
X133500000Y-107500000D01*
X162721000Y-102423950D02*
X162721000Y-103336050D01*
X162076050Y-101779000D02*
X162721000Y-102423950D01*
X162721000Y-103336050D02*
X158557050Y-107500000D01*
X160181000Y-101779000D02*
X162076050Y-101779000D01*
X159080000Y-102880000D02*
X160181000Y-101779000D01*
%TD*%
M02*
