%TF.GenerationSoftware,KiCad,Pcbnew,9.0.7*%
%TF.CreationDate,2026-05-02T00:19:31+02:00*%
%TF.ProjectId,controller,636f6e74-726f-46c6-9c65-722e6b696361,rev?*%
%TF.SameCoordinates,Original*%
%TF.FileFunction,Legend,Top*%
%TF.FilePolarity,Positive*%
%FSLAX46Y46*%
G04 Gerber Fmt 4.6, Leading zero omitted, Abs format (unit mm)*
G04 Created by KiCad (PCBNEW 9.0.7) date 2026-05-02 00:19:31*
%MOMM*%
%LPD*%
G01*
G04 APERTURE LIST*
%ADD10C,0.100000*%
%ADD11C,0.150000*%
%ADD12C,0.120000*%
G04 APERTURE END LIST*
D10*
X105545000Y-61630000D02*
X203545000Y-61630000D01*
X203545000Y-118130000D01*
X105545000Y-118130000D01*
X105545000Y-61630000D01*
D11*
X108211666Y-71464819D02*
X108211666Y-72179104D01*
X108211666Y-72179104D02*
X108164047Y-72321961D01*
X108164047Y-72321961D02*
X108068809Y-72417200D01*
X108068809Y-72417200D02*
X107925952Y-72464819D01*
X107925952Y-72464819D02*
X107830714Y-72464819D01*
X108592619Y-71464819D02*
X109211666Y-71464819D01*
X109211666Y-71464819D02*
X108878333Y-71845771D01*
X108878333Y-71845771D02*
X109021190Y-71845771D01*
X109021190Y-71845771D02*
X109116428Y-71893390D01*
X109116428Y-71893390D02*
X109164047Y-71941009D01*
X109164047Y-71941009D02*
X109211666Y-72036247D01*
X109211666Y-72036247D02*
X109211666Y-72274342D01*
X109211666Y-72274342D02*
X109164047Y-72369580D01*
X109164047Y-72369580D02*
X109116428Y-72417200D01*
X109116428Y-72417200D02*
X109021190Y-72464819D01*
X109021190Y-72464819D02*
X108735476Y-72464819D01*
X108735476Y-72464819D02*
X108640238Y-72417200D01*
X108640238Y-72417200D02*
X108592619Y-72369580D01*
D12*
%TO.C,J3*%
X107165000Y-73010000D02*
X108545000Y-73010000D01*
X107165000Y-74390000D02*
X107165000Y-73010000D01*
X107165000Y-75660000D02*
X107165000Y-108790000D01*
X107165000Y-75660000D02*
X109925000Y-75660000D01*
X107165000Y-108790000D02*
X109925000Y-108790000D01*
X109925000Y-75660000D02*
X109925000Y-108790000D01*
%TD*%
M02*
