ISO-10303-21;
HEADER;
FILE_DESCRIPTION (( 'STEP AP214' ),
    '1' );
FILE_NAME ('screen spacer x4.STEP',
    '2026-06-11T14:51:35',
    ( '' ),
    ( '' ),
    'SwSTEP 2.0',
    'SolidWorks 2025',
    '' );
FILE_SCHEMA (( 'AUTOMOTIVE_DESIGN' ));
ENDSEC;

DATA;
#1 = EDGE_LOOP ( 'NONE', ( #113, #16, #132, #52 ) ) ;
#2 =( GEOMETRIC_REPRESENTATION_CONTEXT ( 3 ) GLOBAL_UNCERTAINTY_ASSIGNED_CONTEXT ( ( #178 ) ) GLOBAL_UNIT_ASSIGNED_CONTEXT ( ( #136, #122, #3 ) ) REPRESENTATION_CONTEXT ( 'NONE', 'WORKASPACE' ) );
#3 =( NAMED_UNIT ( * ) SI_UNIT ( $, .STERADIAN. ) SOLID_ANGLE_UNIT ( ) );
#4 = EDGE_CURVE ( 'NONE', #66, #22, #139, .T. ) ;
#5 = SURFACE_SIDE_STYLE ('',( #53 ) ) ;
#6 = ORIENTED_EDGE ( 'NONE', *, *, #8, .T. ) ;
#7 = DIRECTION ( 'NONE',  ( 0.000000000000000000, 1.000000000000000000, 0.000000000000000000 ) ) ;
#8 = EDGE_CURVE ( 'NONE', #50, #197, #107, .T. ) ;
#9 = DIRECTION ( 'NONE',  ( 0.000000000000000000, 0.000000000000000000, 1.000000000000000000 ) ) ;
#10 = STYLED_ITEM ( 'NONE', ( #101 ), #76 ) ;
#11 = DIRECTION ( 'NONE',  ( -0.000000000000000000, -1.000000000000000000, -0.000000000000000000 ) ) ;
#12 = CARTESIAN_POINT ( 'NONE',  ( 0.000000000000000000, 5.000000000000000000, -3.000000000000000444 ) ) ;
#13 = LINE ( 'NONE', #62, #175 ) ;
#14 = ORIENTED_EDGE ( 'NONE', *, *, #125, .T. ) ;
#15 = DIRECTION ( 'NONE',  ( 1.000000000000000000, 0.000000000000000000, 0.000000000000000000 ) ) ;
#16 = ORIENTED_EDGE ( 'NONE', *, *, #131, .T. ) ;
#17 = APPLICATION_PROTOCOL_DEFINITION ( 'draft international standard', 'automotive_design', 1998, #129 ) ;
#18 = DIRECTION ( 'NONE',  ( 0.000000000000000000, 1.000000000000000000, 0.000000000000000000 ) ) ;
#19 = FACE_BOUND ( 'NONE', #63, .T. ) ;
#20 = ORIENTED_EDGE ( 'NONE', *, *, #140, .T. ) ;
#21 = VECTOR ( 'NONE', #168, 1000.000000000000000 ) ;
#22 = VERTEX_POINT ( 'NONE', #189 ) ;
#23 = APPLICATION_CONTEXT ( 'automotive_design' ) ;
#24 = DIRECTION ( 'NONE',  ( 0.000000000000000000, 0.000000000000000000, 1.000000000000000000 ) ) ;
#25 = FACE_BOUND ( 'NONE', #185, .T. ) ;
#26 = AXIS2_PLACEMENT_3D ( 'NONE', #157, #40, #24 ) ;
#27 = DIRECTION ( 'NONE',  ( 0.000000000000000000, 1.000000000000000000, 0.000000000000000000 ) ) ;
#28 = AXIS2_PLACEMENT_3D ( 'NONE', #110, #59, #44 ) ;
#29 = LINE ( 'NONE', #58, #87 ) ;
#30 = FACE_OUTER_BOUND ( 'NONE', #51, .T. ) ;
#31 =( GEOMETRIC_REPRESENTATION_CONTEXT ( 3 ) GLOBAL_UNCERTAINTY_ASSIGNED_CONTEXT ( ( #45 ) ) GLOBAL_UNIT_ASSIGNED_CONTEXT ( ( #179, #96, #145 ) ) REPRESENTATION_CONTEXT ( 'NONE', 'WORKASPACE' ) );
#32 = EDGE_CURVE ( 'NONE', #118, #197, #149, .T. ) ;
#33 = ORIENTED_EDGE ( 'NONE', *, *, #102, .T. ) ;
#34 = DIRECTION ( 'NONE',  ( -0.000000000000000000, -1.000000000000000000, -0.000000000000000000 ) ) ;
#35 = FILL_AREA_STYLE ('',( #150 ) ) ;
#36 = CARTESIAN_POINT ( 'NONE',  ( 3.673940397442060361E-16, 5.000000000000000000, 3.000000000000000444 ) ) ;
#37 = DIRECTION ( 'NONE',  ( 0.000000000000000000, -0.000000000000000000, 1.000000000000000000 ) ) ;
#38 = FACE_OUTER_BOUND ( 'NONE', #104, .T. ) ;
#39 = AXIS2_PLACEMENT_3D ( 'NONE', #182, #49, #92 ) ;
#40 = DIRECTION ( 'NONE',  ( 0.000000000000000000, 1.000000000000000000, 0.000000000000000000 ) ) ;
#41 = PRODUCT_DEFINITION_CONTEXT ( 'detailed design', #23, 'design' ) ;
#42 = VECTOR ( 'NONE', #34, 1000.000000000000000 ) ;
#43 = DIRECTION ( 'NONE',  ( -0.000000000000000000, -1.000000000000000000, -0.000000000000000000 ) ) ;
#44 = DIRECTION ( 'NONE',  ( 0.000000000000000000, 0.000000000000000000, 1.000000000000000000 ) ) ;
#45 = UNCERTAINTY_MEASURE_WITH_UNIT (LENGTH_MEASURE( 1.000000000000000082E-05 ), #179, 'distance_accuracy_value', 'NONE');
#46 = ADVANCED_FACE ( 'NONE', ( #106, #19 ), #81, .T. ) ;
#47 = CARTESIAN_POINT ( 'NONE',  ( 0.000000000000000000, 5.000000000000000000, 0.000000000000000000 ) ) ;
#48 = AXIS2_PLACEMENT_3D ( 'NONE', #194, #43, #180 ) ;
#49 = DIRECTION ( 'NONE',  ( 0.000000000000000000, 1.000000000000000000, 0.000000000000000000 ) ) ;
#50 = VERTEX_POINT ( 'NONE', #82 ) ;
#51 = EDGE_LOOP ( 'NONE', ( #79, #20, #135, #68 ) ) ;
#52 = ORIENTED_EDGE ( 'NONE', *, *, #8, .F. ) ;
#53 = SURFACE_STYLE_FILL_AREA ( #35 ) ;
#54 = CYLINDRICAL_SURFACE ( 'NONE', #164, 3.000000000000000444 ) ;
#55 = CIRCLE ( 'NONE', #26, 3.000000000000000444 ) ;
#56 = AXIS2_PLACEMENT_3D ( 'NONE', #155, #11, #176 ) ;
#57 = ADVANCED_FACE ( 'NONE', ( #38 ), #54, .T. ) ;
#58 = CARTESIAN_POINT ( 'NONE',  ( 0.000000000000000000, 5.000000000000000000, -3.000000000000000444 ) ) ;
#59 = DIRECTION ( 'NONE',  ( 0.000000000000000000, 1.000000000000000000, 0.000000000000000000 ) ) ;
#60 = PLANE ( 'NONE',  #181 ) ;
#61 = DIRECTION ( 'NONE',  ( 0.000000000000000000, 0.000000000000000000, 1.000000000000000000 ) ) ;
#62 = CARTESIAN_POINT ( 'NONE',  ( 1.959434878635765230E-16, 5.000000000000000000, 1.600000000000000089 ) ) ;
#63 = EDGE_LOOP ( 'NONE', ( #165, #67 ) ) ;
#64 = CIRCLE ( 'NONE', #198, 3.000000000000000444 ) ;
#65 = AXIS2_PLACEMENT_3D ( 'NONE', #138, #7, #37 ) ;
#66 = VERTEX_POINT ( 'NONE', #137 ) ;
#67 = ORIENTED_EDGE ( 'NONE', *, *, #131, .F. ) ;
#68 = ORIENTED_EDGE ( 'NONE', *, *, #32, .F. ) ;
#69 = ORIENTED_EDGE ( 'NONE', *, *, #4, .F. ) ;
#70 = CIRCLE ( 'NONE', #158, 3.000000000000000444 ) ;
#71 = DIRECTION ( 'NONE',  ( 0.000000000000000000, 0.000000000000000000, -1.000000000000000000 ) ) ;
#72 = DIRECTION ( 'NONE',  ( 0.000000000000000000, 1.000000000000000000, 0.000000000000000000 ) ) ;
#73 = CARTESIAN_POINT ( 'NONE',  ( 1.959434878635765230E-16, 5.000000000000000000, 1.600000000000000089 ) ) ;
#74 = DIRECTION ( 'NONE',  ( 0.000000000000000000, 0.000000000000000000, 1.000000000000000000 ) ) ;
#75 = VERTEX_POINT ( 'NONE', #105 ) ;
#76 = MANIFOLD_SOLID_BREP ( 'Boss.-Extru.1', #93 ) ;
#77 = CIRCLE ( 'NONE', #39, 3.000000000000000444 ) ;
#78 = DIRECTION ( 'NONE',  ( -0.000000000000000000, -1.000000000000000000, -0.000000000000000000 ) ) ;
#79 = ORIENTED_EDGE ( 'NONE', *, *, #160, .T. ) ;
#80 = COLOUR_RGB ( '',0.7921568627450980005, 0.8196078431372548767, 0.9333333333333333481 ) ;
#81 = PLANE ( 'NONE',  #65 ) ;
#82 = CARTESIAN_POINT ( 'NONE',  ( 1.959434878635765230E-16, 0.000000000000000000, 1.600000000000000089 ) ) ;
#83 = ADVANCED_FACE ( 'NONE', ( #127 ), #91, .F. ) ;
#84 = CARTESIAN_POINT ( 'NONE',  ( 0.000000000000000000, 5.000000000000000000, 0.000000000000000000 ) ) ;
#85 = CARTESIAN_POINT ( 'NONE',  ( 0.000000000000000000, 0.000000000000000000, 0.000000000000000000 ) ) ;
#86 = VERTEX_POINT ( 'NONE', #73 ) ;
#87 = VECTOR ( 'NONE', #112, 1000.000000000000000 ) ;
#88 = ORIENTED_EDGE ( 'NONE', *, *, #153, .T. ) ;
#89 = DIRECTION ( 'NONE',  ( 0.000000000000000000, 0.000000000000000000, 1.000000000000000000 ) ) ;
#90 = EDGE_LOOP ( 'NONE', ( #100, #33 ) ) ;
#91 = CYLINDRICAL_SURFACE ( 'NONE', #111, 1.600000000000000089 ) ;
#92 = DIRECTION ( 'NONE',  ( 0.000000000000000000, 0.000000000000000000, 1.000000000000000000 ) ) ;
#93 = CLOSED_SHELL ( 'NONE', ( #95, #57, #46, #166, #156, #83 ) ) ;
#94 = FACE_OUTER_BOUND ( 'NONE', #186, .T. ) ;
#95 = ADVANCED_FACE ( 'NONE', ( #30 ), #154, .F. ) ;
#96 =( NAMED_UNIT ( * ) PLANE_ANGLE_UNIT ( ) SI_UNIT ( $, .RADIAN. ) );
#97 = DIRECTION ( 'NONE',  ( 0.000000000000000000, -0.000000000000000000, 1.000000000000000000 ) ) ;
#98 = DIRECTION ( 'NONE',  ( 0.000000000000000000, 0.000000000000000000, 1.000000000000000000 ) ) ;
#99 = MECHANICAL_DESIGN_GEOMETRIC_PRESENTATION_REPRESENTATION (  '', ( #10 ), #2 ) ;
#100 = ORIENTED_EDGE ( 'NONE', *, *, #183, .T. ) ;
#101 = PRESENTATION_STYLE_ASSIGNMENT (( #151 ) ) ;
#102 = EDGE_CURVE ( 'NONE', #66, #130, #70, .T. ) ;
#103 = ORIENTED_EDGE ( 'NONE', *, *, #183, .F. ) ;
#104 = EDGE_LOOP ( 'NONE', ( #128, #114, #116, #169 ) ) ;
#105 = CARTESIAN_POINT ( 'NONE',  ( 0.000000000000000000, 0.000000000000000000, -3.000000000000000444 ) ) ;
#106 = FACE_OUTER_BOUND ( 'NONE', #90, .T. ) ;
#107 = CIRCLE ( 'NONE', #167, 1.600000000000000089 ) ;
#108 = CARTESIAN_POINT ( 'NONE',  ( 0.000000000000000000, 0.000000000000000000, -1.600000000000000089 ) ) ;
#109 = CARTESIAN_POINT ( 'NONE',  ( 0.000000000000000000, 5.000000000000000000, 0.000000000000000000 ) ) ;
#110 = CARTESIAN_POINT ( 'NONE',  ( 0.000000000000000000, 0.000000000000000000, 0.000000000000000000 ) ) ;
#111 = AXIS2_PLACEMENT_3D ( 'NONE', #109, #126, #71 ) ;
#112 = DIRECTION ( 'NONE',  ( -0.000000000000000000, -1.000000000000000000, -0.000000000000000000 ) ) ;
#113 = ORIENTED_EDGE ( 'NONE', *, *, #140, .F. ) ;
#114 = ORIENTED_EDGE ( 'NONE', *, *, #4, .T. ) ;
#115 = CARTESIAN_POINT ( 'NONE',  ( 0.000000000000000000, 0.000000000000000000, 0.000000000000000000 ) ) ;
#116 = ORIENTED_EDGE ( 'NONE', *, *, #199, .T. ) ;
#117 = DIRECTION ( 'NONE',  ( 0.000000000000000000, 0.000000000000000000, 1.000000000000000000 ) ) ;
#118 = VERTEX_POINT ( 'NONE', #146 ) ;
#119 = ORIENTED_EDGE ( 'NONE', *, *, #174, .T. ) ;
#120 = CARTESIAN_POINT ( 'NONE',  ( 0.000000000000000000, 5.000000000000000000, 0.000000000000000000 ) ) ;
#121 = ORIENTED_EDGE ( 'NONE', *, *, #125, .F. ) ;
#122 =( NAMED_UNIT ( * ) PLANE_ANGLE_UNIT ( ) SI_UNIT ( $, .RADIAN. ) );
#123 = AXIS2_PLACEMENT_3D ( 'NONE', #115, #117, #15 ) ;
#124 = CIRCLE ( 'NONE', #28, 1.600000000000000089 ) ;
#125 = EDGE_CURVE ( 'NONE', #75, #22, #77, .T. ) ;
#126 = DIRECTION ( 'NONE',  ( -0.000000000000000000, -1.000000000000000000, -0.000000000000000000 ) ) ;
#127 = FACE_OUTER_BOUND ( 'NONE', #1, .T. ) ;
#128 = ORIENTED_EDGE ( 'NONE', *, *, #102, .F. ) ;
#129 = APPLICATION_CONTEXT ( 'automotive_design' ) ;
#130 = VERTEX_POINT ( 'NONE', #12 ) ;
#131 = EDGE_CURVE ( 'NONE', #86, #118, #143, .T. ) ;
#132 = ORIENTED_EDGE ( 'NONE', *, *, #32, .T. ) ;
#133 = CIRCLE ( 'NONE', #148, 1.600000000000000089 ) ;
#134 = APPLICATION_PROTOCOL_DEFINITION ( 'draft international standard', 'automotive_design', 1998, #23 ) ;
#135 = ORIENTED_EDGE ( 'NONE', *, *, #153, .F. ) ;
#136 =( LENGTH_UNIT ( ) NAMED_UNIT ( * ) SI_UNIT ( .MILLI., .METRE. ) );
#137 = CARTESIAN_POINT ( 'NONE',  ( 3.673940397442060361E-16, 5.000000000000000000, 3.000000000000000444 ) ) ;
#138 = CARTESIAN_POINT ( 'NONE',  ( 0.000000000000000000, 5.000000000000000000, 0.000000000000000000 ) ) ;
#139 = LINE ( 'NONE', #36, #42 ) ;
#140 = EDGE_CURVE ( 'NONE', #86, #50, #13, .T. ) ;
#141 = AXIS2_PLACEMENT_3D ( 'NONE', #84, #196, #61 ) ;
#142 = CARTESIAN_POINT ( 'NONE',  ( 0.000000000000000000, 5.000000000000000000, 0.000000000000000000 ) ) ;
#143 = CIRCLE ( 'NONE', #141, 1.600000000000000089 ) ;
#144 = PRODUCT ( 'screen spacer x4', 'screen spacer x4', '', ( #184 ) ) ;
#145 =( NAMED_UNIT ( * ) SI_UNIT ( $, .STERADIAN. ) SOLID_ANGLE_UNIT ( ) );
#146 = CARTESIAN_POINT ( 'NONE',  ( 0.000000000000000000, 5.000000000000000000, -1.600000000000000089 ) ) ;
#147 = CYLINDRICAL_SURFACE ( 'NONE', #48, 3.000000000000000444 ) ;
#148 = AXIS2_PLACEMENT_3D ( 'NONE', #47, #177, #98 ) ;
#149 = LINE ( 'NONE', #190, #21 ) ;
#150 = FILL_AREA_STYLE_COLOUR ( '', #80 ) ;
#151 = SURFACE_STYLE_USAGE ( .BOTH. , #5 ) ;
#152 = PRODUCT_DEFINITION_FORMATION_WITH_SPECIFIED_SOURCE ( 'ANY', '', #144, .NOT_KNOWN. ) ;
#153 = EDGE_CURVE ( 'NONE', #197, #50, #124, .T. ) ;
#154 = CYLINDRICAL_SURFACE ( 'NONE', #56, 1.600000000000000089 ) ;
#155 = CARTESIAN_POINT ( 'NONE',  ( 0.000000000000000000, 5.000000000000000000, 0.000000000000000000 ) ) ;
#156 = ADVANCED_FACE ( 'NONE', ( #191 ), #147, .T. ) ;
#157 = CARTESIAN_POINT ( 'NONE',  ( 0.000000000000000000, 0.000000000000000000, 0.000000000000000000 ) ) ;
#158 = AXIS2_PLACEMENT_3D ( 'NONE', #161, #72, #74 ) ;
#159 = DIRECTION ( 'NONE',  ( 0.000000000000000000, 1.000000000000000000, 0.000000000000000000 ) ) ;
#160 = EDGE_CURVE ( 'NONE', #118, #86, #133, .T. ) ;
#161 = CARTESIAN_POINT ( 'NONE',  ( 0.000000000000000000, 5.000000000000000000, 0.000000000000000000 ) ) ;
#162 = ORIENTED_EDGE ( 'NONE', *, *, #199, .F. ) ;
#163 = PRODUCT_DEFINITION ( 'UNKNOWN', '', #152, #41 ) ;
#164 = AXIS2_PLACEMENT_3D ( 'NONE', #120, #78, #173 ) ;
#165 = ORIENTED_EDGE ( 'NONE', *, *, #160, .F. ) ;
#166 = ADVANCED_FACE ( 'NONE', ( #94, #25 ), #60, .F. ) ;
#167 = AXIS2_PLACEMENT_3D ( 'NONE', #188, #18, #89 ) ;
#168 = DIRECTION ( 'NONE',  ( -0.000000000000000000, -1.000000000000000000, -0.000000000000000000 ) ) ;
#169 = ORIENTED_EDGE ( 'NONE', *, *, #174, .F. ) ;
#170 = PRODUCT_DEFINITION_SHAPE ( 'NONE', 'NONE',  #163 ) ;
#171 = EDGE_LOOP ( 'NONE', ( #69, #103, #119, #14 ) ) ;
#172 = ADVANCED_BREP_SHAPE_REPRESENTATION ( 'screen spacer x4', ( #76, #123 ), #31 ) ;
#173 = DIRECTION ( 'NONE',  ( 0.000000000000000000, 0.000000000000000000, -1.000000000000000000 ) ) ;
#174 = EDGE_CURVE ( 'NONE', #130, #75, #29, .T. ) ;
#175 = VECTOR ( 'NONE', #192, 1000.000000000000000 ) ;
#176 = DIRECTION ( 'NONE',  ( 0.000000000000000000, 0.000000000000000000, -1.000000000000000000 ) ) ;
#177 = DIRECTION ( 'NONE',  ( 0.000000000000000000, 1.000000000000000000, 0.000000000000000000 ) ) ;
#178 = UNCERTAINTY_MEASURE_WITH_UNIT (LENGTH_MEASURE( 1.000000000000000082E-05 ), #136, 'distance_accuracy_value', 'NONE');
#179 =( LENGTH_UNIT ( ) NAMED_UNIT ( * ) SI_UNIT ( .MILLI., .METRE. ) );
#180 = DIRECTION ( 'NONE',  ( 0.000000000000000000, 0.000000000000000000, -1.000000000000000000 ) ) ;
#181 = AXIS2_PLACEMENT_3D ( 'NONE', #85, #27, #97 ) ;
#182 = CARTESIAN_POINT ( 'NONE',  ( 0.000000000000000000, 0.000000000000000000, 0.000000000000000000 ) ) ;
#183 = EDGE_CURVE ( 'NONE', #130, #66, #64, .T. ) ;
#184 = PRODUCT_CONTEXT ( 'NONE', #129, 'mechanical' ) ;
#185 = EDGE_LOOP ( 'NONE', ( #88, #6 ) ) ;
#186 = EDGE_LOOP ( 'NONE', ( #121, #162 ) ) ;
#187 = SHAPE_DEFINITION_REPRESENTATION ( #170, #172 ) ;
#188 = CARTESIAN_POINT ( 'NONE',  ( 0.000000000000000000, 0.000000000000000000, 0.000000000000000000 ) ) ;
#189 = CARTESIAN_POINT ( 'NONE',  ( 3.673940397442060361E-16, 0.000000000000000000, 3.000000000000000444 ) ) ;
#190 = CARTESIAN_POINT ( 'NONE',  ( 0.000000000000000000, 5.000000000000000000, -1.600000000000000089 ) ) ;
#191 = FACE_OUTER_BOUND ( 'NONE', #171, .T. ) ;
#192 = DIRECTION ( 'NONE',  ( -0.000000000000000000, -1.000000000000000000, -0.000000000000000000 ) ) ;
#193 = PRESENTATION_LAYER_ASSIGNMENT (  '', '', ( #10 ) ) ;
#194 = CARTESIAN_POINT ( 'NONE',  ( 0.000000000000000000, 5.000000000000000000, 0.000000000000000000 ) ) ;
#195 = PRODUCT_RELATED_PRODUCT_CATEGORY ( 'part', '', ( #144 ) ) ;
#196 = DIRECTION ( 'NONE',  ( 0.000000000000000000, 1.000000000000000000, 0.000000000000000000 ) ) ;
#197 = VERTEX_POINT ( 'NONE', #108 ) ;
#198 = AXIS2_PLACEMENT_3D ( 'NONE', #142, #159, #9 ) ;
#199 = EDGE_CURVE ( 'NONE', #22, #75, #55, .T. ) ;
ENDSEC;
END-ISO-10303-21;
