ISO-10303-21;
HEADER;
FILE_DESCRIPTION (( 'STEP AP214' ),
    '1' );
FILE_NAME ('Bearing holder x2.STEP',
    '2026-06-11T14:58:32',
    ( '' ),
    ( '' ),
    'SwSTEP 2.0',
    'SolidWorks 2025',
    '' );
FILE_SCHEMA (( 'AUTOMOTIVE_DESIGN' ));
ENDSEC;

DATA;
#1 = DIRECTION ( 'NONE',  ( -1.000000000000000000, 0.000000000000000000, 0.000000000000000000 ) ) ;
#2 = DIRECTION ( 'NONE',  ( -1.000000000000000000, 0.000000000000000000, 0.000000000000000000 ) ) ;
#3 = ADVANCED_FACE ( 'NONE', ( #479 ), #53, .T. ) ;
#4 = CARTESIAN_POINT ( 'NONE',  ( -14.00000000000000000, 0.000000000000000000, 2.000000000000000000 ) ) ;
#5 = FACE_OUTER_BOUND ( 'NONE', #37, .T. ) ;
#6 = EDGE_CURVE ( 'NONE', #670, #269, #184, .T. ) ;
#7 = ORIENTED_EDGE ( 'NONE', *, *, #247, .T. ) ;
#8 = FILL_AREA_STYLE_COLOUR ( '', #204 ) ;
#9 = CARTESIAN_POINT ( 'NONE',  ( -6.363961030678915165, -6.363961030678937369, 0.000000000000000000 ) ) ;
#10 =( NAMED_UNIT ( * ) SI_UNIT ( $, .STERADIAN. ) SOLID_ANGLE_UNIT ( ) );
#11 = SURFACE_STYLE_USAGE ( .BOTH. , #265 ) ;
#12 = CARTESIAN_POINT ( 'NONE',  ( 7.858402199327167992, 5.033966254320598743, 2.000000000000000000 ) ) ;
#13 = CIRCLE ( 'NONE', #410, 9.000000000000000000 ) ;
#14 = ORIENTED_EDGE ( 'NONE', *, *, #455, .T. ) ;
#15 = DIRECTION ( 'NONE',  ( 0.000000000000000000, -0.000000000000000000, -1.000000000000000000 ) ) ;
#16 = CARTESIAN_POINT ( 'NONE',  ( 6.363961030678916941, 6.363961030678939146, 0.000000000000000000 ) ) ;
#17 = CARTESIAN_POINT ( 'NONE',  ( 10.48985362732114623, -3.574740204678811040, 2.000000000000000000 ) ) ;
#18 = VERTEX_POINT ( 'NONE', #535 ) ;
#19 = VECTOR ( 'NONE', #607, 1000.000000000000000 ) ;
#20 = EDGE_CURVE ( 'NONE', #616, #652, #313, .T. ) ;
#21 = FACE_BOUND ( 'NONE', #407, .T. ) ;
#22 = CARTESIAN_POINT ( 'NONE',  ( 14.00000000000000355, -3.099999999999999201, 2.000000000000000000 ) ) ;
#23 = ORIENTED_EDGE ( 'NONE', *, *, #264, .T. ) ;
#24 = CARTESIAN_POINT ( 'NONE',  ( 6.363961030678916941, -6.363961030678939146, 2.000000000000000000 ) ) ;
#25 = B_SPLINE_SURFACE_WITH_KNOTS ( 'NONE', 3, 1, ( 
 ( #540, #55 ),
 ( #12, #111 ),
 ( #315, #65 ),
 ( #654, #267 ),
 ( #644, #432 ) ),
 .UNSPECIFIED., .F., .F., .F.,
 ( 4, 1, 4 ),
 ( 2, 2 ),
 ( 0.000000000000000000, 0.5401522000705701876, 1.000000000000000000 ),
 ( 0.000000000000000000, 1.000000000000000000 ),
 .UNSPECIFIED. ) ;
#26 = ORIENTED_EDGE ( 'NONE', *, *, #366, .F. ) ;
#27 = AXIS2_PLACEMENT_3D ( 'NONE', #186, #589, #421 ) ;
#28 = DIRECTION ( 'NONE',  ( -0.000000000000000000, -0.000000000000000000, -1.000000000000000000 ) ) ;
#29 = CARTESIAN_POINT ( 'NONE',  ( 6.363961030678916941, -6.363961030678939146, 0.000000000000000000 ) ) ;
#30 = ADVANCED_FACE ( 'NONE', ( #33 ), #311, .F. ) ;
#31 = ORIENTED_EDGE ( 'NONE', *, *, #296, .F. ) ;
#32 = B_SPLINE_CURVE_WITH_KNOTS ( 'NONE', 3,
 ( #92, #249, #525, #630, #477 ),
 .UNSPECIFIED., .F., .F.,
 ( 4, 1, 4 ),
 ( 0.000000000000000000, 0.5401522000705701876, 1.000000000000000000 ),
 .UNSPECIFIED. ) ;
#33 = FACE_OUTER_BOUND ( 'NONE', #78, .T. ) ;
#34 = EDGE_LOOP ( 'NONE', ( #299, #511 ) ) ;
#35 = AXIS2_PLACEMENT_3D ( 'NONE', #229, #386, #285 ) ;
#36 = CARTESIAN_POINT ( 'NONE',  ( 6.363961030678915165, -6.363961030678937369, 0.000000000000000000 ) ) ;
#37 = EDGE_LOOP ( 'NONE', ( #694, #302, #416, #343, #356, #471 ) ) ;
#38 = DIRECTION ( 'NONE',  ( -1.000000000000000000, 0.000000000000000000, 0.000000000000000000 ) ) ;
#39 = EDGE_CURVE ( 'NONE', #18, #166, #151, .T. ) ;
#40 = CYLINDRICAL_SURFACE ( 'NONE', #550, 3.100000000000000533 ) ;
#41 = ORIENTED_EDGE ( 'NONE', *, *, #250, .F. ) ;
#42 = CARTESIAN_POINT ( 'NONE',  ( -10.48985362732114623, 3.574740204678811484, 0.000000000000000000 ) ) ;
#43 = ORIENTED_EDGE ( 'NONE', *, *, #322, .F. ) ;
#44 = DIRECTION ( 'NONE',  ( -0.000000000000000000, 0.000000000000000000, 1.000000000000000000 ) ) ;
#45 = ADVANCED_BREP_SHAPE_REPRESENTATION ( 'Bearing holder x2', ( #658, #678 ), #591 ) ;
#46 = VERTEX_POINT ( 'NONE', #637 ) ;
#47 = CARTESIAN_POINT ( 'NONE',  ( -13.99999999999999289, -3.100000000000000089, 2.000000000000000000 ) ) ;
#48 = AXIS2_PLACEMENT_3D ( 'NONE', #200, #28, #188 ) ;
#49 =( GEOMETRIC_REPRESENTATION_CONTEXT ( 3 ) GLOBAL_UNCERTAINTY_ASSIGNED_CONTEXT ( ( #651 ) ) GLOBAL_UNIT_ASSIGNED_CONTEXT ( ( #392, #339, #10 ) ) REPRESENTATION_CONTEXT ( 'NONE', 'WORKASPACE' ) );
#50 = CARTESIAN_POINT ( 'NONE',  ( -12.20525918160356760, -3.379294411950442889, 2.000000000000000000 ) ) ;
#51 = AXIS2_PLACEMENT_3D ( 'NONE', #431, #556, #173 ) ;
#52 = CARTESIAN_POINT ( 'NONE',  ( 14.00000000000000000, 0.000000000000000000, 2.000000000000000000 ) ) ;
#53 = CYLINDRICAL_SURFACE ( 'NONE', #48, 9.000000000000000000 ) ;
#54 = FACE_BOUND ( 'NONE', #334, .T. ) ;
#55 = CARTESIAN_POINT ( 'NONE',  ( 6.363961030678915165, 6.363961030678937369, 0.000000000000000000 ) ) ;
#56 = VECTOR ( 'NONE', #326, 1000.000000000000000 ) ;
#57 = ADVANCED_FACE ( 'NONE', ( #292 ), #347, .T. ) ;
#58 = CARTESIAN_POINT ( 'NONE',  ( -11.90000000000000036, 2.571758278209439985E-16, 2.000000000000000000 ) ) ;
#59 = PLANE ( 'NONE',  #430 ) ;
#60 = EDGE_LOOP ( 'NONE', ( #211, #506 ) ) ;
#61 = FACE_OUTER_BOUND ( 'NONE', #84, .T. ) ;
#62 = CARTESIAN_POINT ( 'NONE',  ( -6.363961030678915165, -6.363961030678937369, 2.000000000000000000 ) ) ;
#63 = AXIS2_PLACEMENT_3D ( 'NONE', #669, #568, #176 ) ;
#64 = CARTESIAN_POINT ( 'NONE',  ( 11.90000000000000036, 0.000000000000000000, 2.000000000000000000 ) ) ;
#65 = CARTESIAN_POINT ( 'NONE',  ( 10.48985362732114623, 3.574740204678811040, 0.000000000000000000 ) ) ;
#66 = ADVANCED_FACE ( 'NONE', ( #590 ), #40, .T. ) ;
#67 = CIRCLE ( 'NONE', #464, 3.100000000000000533 ) ;
#68 = DIRECTION ( 'NONE',  ( 1.000000000000000000, 0.000000000000000000, 0.000000000000000000 ) ) ;
#69 = CYLINDRICAL_SURFACE ( 'NONE', #271, 2.099999999999999645 ) ;
#70 = CARTESIAN_POINT ( 'NONE',  ( 13.99999999999999289, -3.100000000000000089, 2.000000000000000000 ) ) ;
#71 = ORIENTED_EDGE ( 'NONE', *, *, #268, .F. ) ;
#72 = DIRECTION ( 'NONE',  ( -0.000000000000000000, -0.000000000000000000, -1.000000000000000000 ) ) ;
#73 = DIRECTION ( 'NONE',  ( -0.000000000000000000, -0.000000000000000000, -1.000000000000000000 ) ) ;
#74 = ORIENTED_EDGE ( 'NONE', *, *, #395, .T. ) ;
#75 = ORIENTED_EDGE ( 'NONE', *, *, #551, .T. ) ;
#76 = CARTESIAN_POINT ( 'NONE',  ( 12.20525918160356760, -3.379294411950442889, 2.000000000000000000 ) ) ;
#77 = VERTEX_POINT ( 'NONE', #507 ) ;
#78 = EDGE_LOOP ( 'NONE', ( #400, #185, #335, #139 ) ) ;
#79 = EDGE_CURVE ( 'NONE', #493, #454, #406, .T. ) ;
#80 = EDGE_CURVE ( 'NONE', #127, #126, #578, .T. ) ;
#81 = CARTESIAN_POINT ( 'NONE',  ( 8.000000000000000000, 9.797174393178825657E-16, 5.000000000000000000 ) ) ;
#82 = ORIENTED_EDGE ( 'NONE', *, *, #551, .F. ) ;
#83 = CIRCLE ( 'NONE', #641, 2.099999999999999645 ) ;
#84 = EDGE_LOOP ( 'NONE', ( #404, #501, #502, #523 ) ) ;
#85 = CARTESIAN_POINT ( 'NONE',  ( 6.363961030678916941, -6.363961030678939146, 2.000000000000000000 ) ) ;
#86 = ADVANCED_FACE ( 'NONE', ( #657, #263 ), #59, .T. ) ;
#87 = ORIENTED_EDGE ( 'NONE', *, *, #445, .F. ) ;
#88 = CARTESIAN_POINT ( 'NONE',  ( 16.10000000000000142, 2.571758278209439985E-16, 2.000000000000000000 ) ) ;
#89 = DIRECTION ( 'NONE',  ( 0.000000000000000000, -0.000000000000000000, -1.000000000000000000 ) ) ;
#90 = ORIENTED_EDGE ( 'NONE', *, *, #366, .T. ) ;
#91 = VECTOR ( 'NONE', #73, 1000.000000000000000 ) ;
#92 = CARTESIAN_POINT ( 'NONE',  ( 6.363961030678916941, 6.363961030678939146, 0.000000000000000000 ) ) ;
#93 = DIRECTION ( 'NONE',  ( -0.000000000000000000, -0.000000000000000000, -1.000000000000000000 ) ) ;
#94 = EDGE_LOOP ( 'NONE', ( #474, #460, #440, #137 ) ) ;
#95 = ORIENTED_EDGE ( 'NONE', *, *, #333, .T. ) ;
#96 = CARTESIAN_POINT ( 'NONE',  ( 0.000000000000000000, 0.000000000000000000, 5.000000000000000000 ) ) ;
#97 = CARTESIAN_POINT ( 'NONE',  ( -7.858402199327167992, 5.033966254320598743, 2.000000000000000000 ) ) ;
#98 = ORIENTED_EDGE ( 'NONE', *, *, #20, .F. ) ;
#99 = CARTESIAN_POINT ( 'NONE',  ( -7.858402199327167992, 5.033966254320598743, 0.000000000000000000 ) ) ;
#100 = ORIENTED_EDGE ( 'NONE', *, *, #198, .F. ) ;
#101 = ADVANCED_FACE ( 'NONE', ( #113, #117, #54, #547 ), #487, .F. ) ;
#102 = DIRECTION ( 'NONE',  ( -0.000000000000000000, 0.000000000000000000, 1.000000000000000000 ) ) ;
#103 = DIRECTION ( 'NONE',  ( 1.000000000000000000, 0.000000000000000000, 0.000000000000000000 ) ) ;
#104 = EDGE_CURVE ( 'NONE', #224, #18, #165, .T. ) ;
#105 = DIRECTION ( 'NONE',  ( -0.000000000000000000, 0.000000000000000000, 1.000000000000000000 ) ) ;
#106 = CARTESIAN_POINT ( 'NONE',  ( -6.363961030678915165, 6.363961030678937369, 0.000000000000000000 ) ) ;
#107 = CARTESIAN_POINT ( 'NONE',  ( -6.363961030678916941, 6.363961030678939146, 2.000000000000000000 ) ) ;
#108 = ADVANCED_FACE ( 'NONE', ( #602 ), #325, .T. ) ;
#109 = DIRECTION ( 'NONE',  ( -0.000000000000000000, 0.000000000000000000, 1.000000000000000000 ) ) ;
#110 = CARTESIAN_POINT ( 'NONE',  ( -14.00000000000000000, 0.000000000000000000, 2.000000000000000000 ) ) ;
#111 = CARTESIAN_POINT ( 'NONE',  ( 7.858402199327167992, 5.033966254320598743, 0.000000000000000000 ) ) ;
#112 = DIRECTION ( 'NONE',  ( -0.000000000000000000, -0.000000000000000000, -1.000000000000000000 ) ) ;
#113 = FACE_BOUND ( 'NONE', #60, .T. ) ;
#114 = VERTEX_POINT ( 'NONE', #600 ) ;
#115 = DIRECTION ( 'NONE',  ( 1.000000000000000000, 0.000000000000000000, 0.000000000000000000 ) ) ;
#116 = CARTESIAN_POINT ( 'NONE',  ( -16.10000000000000142, 0.000000000000000000, 0.000000000000000000 ) ) ;
#117 = FACE_OUTER_BOUND ( 'NONE', #664, .T. ) ;
#118 = VECTOR ( 'NONE', #227, 1000.000000000000000 ) ;
#119 = DIRECTION ( 'NONE',  ( -0.000000000000000000, 0.000000000000000000, 1.000000000000000000 ) ) ;
#120 = CARTESIAN_POINT ( 'NONE',  ( 10.48985362732114623, -3.574740204678811040, 2.000000000000000000 ) ) ;
#121 = ORIENTED_EDGE ( 'NONE', *, *, #512, .T. ) ;
#122 = ORIENTED_EDGE ( 'NONE', *, *, #319, .T. ) ;
#123 = B_SPLINE_SURFACE_WITH_KNOTS ( 'NONE', 3, 1, ( 
 ( #564, #36 ),
 ( #125, #604 ),
 ( #120, #332 ),
 ( #76, #557 ),
 ( #22, #273 ) ),
 .UNSPECIFIED., .F., .F., .F.,
 ( 4, 1, 4 ),
 ( 2, 2 ),
 ( 0.000000000000000000, 0.5401522000705701876, 1.000000000000000000 ),
 ( 0.000000000000000000, 1.000000000000000000 ),
 .UNSPECIFIED. ) ;
#124 = FACE_OUTER_BOUND ( 'NONE', #520, .T. ) ;
#125 = CARTESIAN_POINT ( 'NONE',  ( 7.858402199327167992, -5.033966254320598743, 2.000000000000000000 ) ) ;
#126 = VERTEX_POINT ( 'NONE', #207 ) ;
#127 = VERTEX_POINT ( 'NONE', #649 ) ;
#128 = CARTESIAN_POINT ( 'NONE',  ( 12.20525918160356760, -3.379294411950442889, 2.000000000000000000 ) ) ;
#129 = ORIENTED_EDGE ( 'NONE', *, *, #358, .F. ) ;
#130 = AXIS2_PLACEMENT_3D ( 'NONE', #154, #254, #489 ) ;
#131 = DIRECTION ( 'NONE',  ( 0.000000000000000000, -0.000000000000000000, -1.000000000000000000 ) ) ;
#132 = AXIS2_PLACEMENT_3D ( 'NONE', #640, #647, #115 ) ;
#133 = DIRECTION ( 'NONE',  ( -0.000000000000000000, 0.000000000000000000, 1.000000000000000000 ) ) ;
#134 = ADVANCED_FACE ( 'NONE', ( #378 ), #429, .T. ) ;
#135 = CARTESIAN_POINT ( 'NONE',  ( -11.90000000000000036, 2.571758278209440478E-16, 2.000000000000000000 ) ) ;
#136 = B_SPLINE_CURVE_WITH_KNOTS ( 'NONE', 3,
 ( #442, #497, #492, #614, #504 ),
 .UNSPECIFIED., .F., .F.,
 ( 4, 1, 4 ),
 ( 0.000000000000000000, 0.5401522000705701876, 1.000000000000000000 ),
 .UNSPECIFIED. ) ;
#137 = ORIENTED_EDGE ( 'NONE', *, *, #505, .T. ) ;
#138 = DIRECTION ( 'NONE',  ( -0.000000000000000000, -0.000000000000000000, -1.000000000000000000 ) ) ;
#139 = ORIENTED_EDGE ( 'NONE', *, *, #376, .T. ) ;
#140 = CARTESIAN_POINT ( 'NONE',  ( 11.90000000000000036, 0.000000000000000000, 2.000000000000000000 ) ) ;
#141 = ORIENTED_EDGE ( 'NONE', *, *, #358, .T. ) ;
#142 = ORIENTED_EDGE ( 'NONE', *, *, #144, .T. ) ;
#143 = DIRECTION ( 'NONE',  ( 1.000000000000000000, 0.000000000000000000, 0.000000000000000000 ) ) ;
#144 = EDGE_CURVE ( 'NONE', #269, #290, #613, .T. ) ;
#145 = ORIENTED_EDGE ( 'NONE', *, *, #104, .F. ) ;
#146 = DIRECTION ( 'NONE',  ( -0.000000000000000000, 0.000000000000000000, 1.000000000000000000 ) ) ;
#147 = AXIS2_PLACEMENT_3D ( 'NONE', #310, #475, #357 ) ;
#148 = ORIENTED_EDGE ( 'NONE', *, *, #258, .T. ) ;
#149 = CARTESIAN_POINT ( 'NONE',  ( -14.00000000000000000, 3.100000000000000089, 2.000000000000000000 ) ) ;
#150 = CARTESIAN_POINT ( 'NONE',  ( 0.000000000000000000, 0.000000000000000000, 5.000000000000000000 ) ) ;
#151 = CIRCLE ( 'NONE', #480, 8.000000000000000000 ) ;
#152 = CARTESIAN_POINT ( 'NONE',  ( -14.00000000000000000, 0.000000000000000000, 2.000000000000000000 ) ) ;
#153 = DIRECTION ( 'NONE',  ( -0.000000000000000000, -0.000000000000000000, -1.000000000000000000 ) ) ;
#154 = CARTESIAN_POINT ( 'NONE',  ( 0.000000000000000000, 0.000000000000000000, 0.000000000000000000 ) ) ;
#155 = APPLICATION_PROTOCOL_DEFINITION ( 'draft international standard', 'automotive_design', 1998, #615 ) ;
#156 = LINE ( 'NONE', #158, #655 ) ;
#157 = CARTESIAN_POINT ( 'NONE',  ( -12.20525918160356760, -3.379294411950442889, 2.000000000000000000 ) ) ;
#158 = CARTESIAN_POINT ( 'NONE',  ( -8.000000000000000000, 0.000000000000000000, 5.000000000000000000 ) ) ;
#159 = AXIS2_PLACEMENT_3D ( 'NONE', #427, #15, #261 ) ;
#160 = DIRECTION ( 'NONE',  ( 1.000000000000000000, 0.000000000000000000, 0.000000000000000000 ) ) ;
#161 = ADVANCED_FACE ( 'NONE', ( #318 ), #25, .T. ) ;
#162 = B_SPLINE_CURVE_WITH_KNOTS ( 'NONE', 3,
 ( #636, #99, #42, #679, #516 ),
 .UNSPECIFIED., .F., .F.,
 ( 4, 1, 4 ),
 ( 0.000000000000000000, 0.5401522000705701876, 1.000000000000000000 ),
 .UNSPECIFIED. ) ;
#163 = VECTOR ( 'NONE', #419, 1000.000000000000000 ) ;
#164 = CARTESIAN_POINT ( 'NONE',  ( 14.00000000000000000, 0.000000000000000000, 2.000000000000000000 ) ) ;
#165 = LINE ( 'NONE', #553, #527 ) ;
#166 = VERTEX_POINT ( 'NONE', #260 ) ;
#167 = EDGE_CURVE ( 'NONE', #245, #127, #205, .T. ) ;
#168 = CARTESIAN_POINT ( 'NONE',  ( -13.99999999999999289, -3.100000000000000089, 0.000000000000000000 ) ) ;
#169 = DIRECTION ( 'NONE',  ( -0.000000000000000000, 0.000000000000000000, 1.000000000000000000 ) ) ;
#170 = VERTEX_POINT ( 'NONE', #107 ) ;
#171 = VECTOR ( 'NONE', #138, 1000.000000000000000 ) ;
#172 = EDGE_LOOP ( 'NONE', ( #499, #121, #7, #412, #346, #396, #608, #350 ) ) ;
#173 = DIRECTION ( 'NONE',  ( 1.000000000000000000, 0.000000000000000000, 0.000000000000000000 ) ) ;
#174 = CYLINDRICAL_SURFACE ( 'NONE', #660, 8.000000000000000000 ) ;
#175 = EDGE_LOOP ( 'NONE', ( #573, #626, #388, #75 ) ) ;
#176 = DIRECTION ( 'NONE',  ( 1.000000000000000000, 0.000000000000000000, 0.000000000000000000 ) ) ;
#177 = ORIENTED_EDGE ( 'NONE', *, *, #380, .F. ) ;
#178 = CARTESIAN_POINT ( 'NONE',  ( 7.858402199327167992, -5.033966254320598743, 2.000000000000000000 ) ) ;
#179 = ORIENTED_EDGE ( 'NONE', *, *, #409, .F. ) ;
#180 = ADVANCED_FACE ( 'NONE', ( #642 ), #321, .F. ) ;
#181 = DIRECTION ( 'NONE',  ( -0.000000000000000000, -0.000000000000000000, -1.000000000000000000 ) ) ;
#182 = CARTESIAN_POINT ( 'NONE',  ( 7.858402199327167992, -5.033966254320598743, 0.000000000000000000 ) ) ;
#183 = ORIENTED_EDGE ( 'NONE', *, *, #312, .F. ) ;
#184 = LINE ( 'NONE', #368, #365 ) ;
#185 = ORIENTED_EDGE ( 'NONE', *, *, #453, .F. ) ;
#186 = CARTESIAN_POINT ( 'NONE',  ( 0.000000000000000000, 0.000000000000000000, 0.000000000000000000 ) ) ;
#187 = CYLINDRICAL_SURFACE ( 'NONE', #478, 9.000000000000000000 ) ;
#188 = DIRECTION ( 'NONE',  ( -1.000000000000000000, 0.000000000000000000, 0.000000000000000000 ) ) ;
#189 = ORIENTED_EDGE ( 'NONE', *, *, #453, .T. ) ;
#190 = DIRECTION ( 'NONE',  ( 0.000000000000000000, -0.000000000000000000, -1.000000000000000000 ) ) ;
#191 = VERTEX_POINT ( 'NONE', #543 ) ;
#192 = CARTESIAN_POINT ( 'NONE',  ( -6.363961030678916941, -6.363961030678939146, 2.000000000000000000 ) ) ;
#193 = ADVANCED_FACE ( 'NONE', ( #484, #5 ), #345, .T. ) ;
#194 = VERTEX_POINT ( 'NONE', #349 ) ;
#195 = DIRECTION ( 'NONE',  ( -0.000000000000000000, -0.000000000000000000, -1.000000000000000000 ) ) ;
#196 = EDGE_CURVE ( 'NONE', #616, #622, #673, .T. ) ;
#197 = AXIS2_PLACEMENT_3D ( 'NONE', #244, #105, #531 ) ;
#198 = EDGE_CURVE ( 'NONE', #622, #46, #452, .T. ) ;
#199 = CARTESIAN_POINT ( 'NONE',  ( -14.00000000000000000, 0.000000000000000000, 0.000000000000000000 ) ) ;
#200 = CARTESIAN_POINT ( 'NONE',  ( 0.000000000000000000, 0.000000000000000000, 5.000000000000000000 ) ) ;
#201 = EDGE_CURVE ( 'NONE', #652, #46, #526, .T. ) ;
#202 = AXIS2_PLACEMENT_3D ( 'NONE', #627, #691, #143 ) ;
#203 = CARTESIAN_POINT ( 'NONE',  ( -12.20525918160356760, 3.379294411950442889, 2.000000000000000000 ) ) ;
#204 = COLOUR_RGB ( '',0.7921568627450980005, 0.8196078431372548767, 0.9333333333333333481 ) ;
#205 = LINE ( 'NONE', #217, #398 ) ;
#206 = CARTESIAN_POINT ( 'NONE',  ( -7.858402199327167992, -5.033966254320598743, 0.000000000000000000 ) ) ;
#207 = CARTESIAN_POINT ( 'NONE',  ( -14.00000000000000000, 3.100000000000000089, 0.000000000000000000 ) ) ;
#208 = PRODUCT ( 'Bearing holder x2', 'Bearing holder x2', '', ( #555 ) ) ;
#209 = DIRECTION ( 'NONE',  ( -1.000000000000000000, 0.000000000000000000, 0.000000000000000000 ) ) ;
#210 = DIRECTION ( 'NONE',  ( -0.000000000000000000, -0.000000000000000000, -1.000000000000000000 ) ) ;
#211 = ORIENTED_EDGE ( 'NONE', *, *, #420, .T. ) ;
#212 = FILL_AREA_STYLE ('',( #8 ) ) ;
#213 = CARTESIAN_POINT ( 'NONE',  ( -7.858402199327167992, -5.033966254320598743, 0.000000000000000000 ) ) ;
#214 = CARTESIAN_POINT ( 'NONE',  ( -6.363961030678916941, -6.363961030678939146, 0.000000000000000000 ) ) ;
#215 = AXIS2_PLACEMENT_3D ( 'NONE', #582, #411, #239 ) ;
#216 = PRESENTATION_STYLE_ASSIGNMENT (( #11 ) ) ;
#217 = CARTESIAN_POINT ( 'NONE',  ( -17.10000000000000142, 0.000000000000000000, 2.000000000000000000 ) ) ;
#218 = CARTESIAN_POINT ( 'NONE',  ( -14.00000000000000000, 0.000000000000000000, 2.000000000000000000 ) ) ;
#219 = CARTESIAN_POINT ( 'NONE',  ( -6.363961030678916941, -6.363961030678939146, 2.000000000000000000 ) ) ;
#220 = ORIENTED_EDGE ( 'NONE', *, *, #635, .T. ) ;
#221 = ORIENTED_EDGE ( 'NONE', *, *, #521, .F. ) ;
#222 = DIRECTION ( 'NONE',  ( -0.000000000000000000, 0.000000000000000000, 1.000000000000000000 ) ) ;
#223 = DIRECTION ( 'NONE',  ( -0.000000000000000000, -0.000000000000000000, -1.000000000000000000 ) ) ;
#224 = VERTEX_POINT ( 'NONE', #81 ) ;
#225 = CIRCLE ( 'NONE', #297, 2.099999999999999645 ) ;
#226 = AXIS2_PLACEMENT_3D ( 'NONE', #620, #579, #103 ) ;
#227 = DIRECTION ( 'NONE',  ( -0.000000000000000000, -0.000000000000000000, -1.000000000000000000 ) ) ;
#228 = CARTESIAN_POINT ( 'NONE',  ( -6.363961030678915165, 6.363961030678937369, 2.000000000000000000 ) ) ;
#229 = CARTESIAN_POINT ( 'NONE',  ( -14.00000000000000000, 0.000000000000000000, 0.000000000000000000 ) ) ;
#230 = ORIENTED_EDGE ( 'NONE', *, *, #645, .T. ) ;
#231 = AXIS2_PLACEMENT_3D ( 'NONE', #150, #585, #252 ) ;
#232 = DIRECTION ( 'NONE',  ( 1.000000000000000000, 0.000000000000000000, 0.000000000000000000 ) ) ;
#233 = ORIENTED_EDGE ( 'NONE', *, *, #79, .T. ) ;
#234 = DIRECTION ( 'NONE',  ( 1.000000000000000000, 0.000000000000000000, 0.000000000000000000 ) ) ;
#235 = CARTESIAN_POINT ( 'NONE',  ( 13.99999999999999289, -3.100000000000000089, 2.000000000000000000 ) ) ;
#236 = EDGE_LOOP ( 'NONE', ( #90, #619 ) ) ;
#237 = VERTEX_POINT ( 'NONE', #572 ) ;
#238 = EDGE_CURVE ( 'NONE', #114, #549, #463, .T. ) ;
#239 = DIRECTION ( 'NONE',  ( 1.000000000000000000, 0.000000000000000000, 0.000000000000000000 ) ) ;
#240 = AXIS2_PLACEMENT_3D ( 'NONE', #294, #308, #248 ) ;
#241 = CARTESIAN_POINT ( 'NONE',  ( -6.363961030678916941, 6.363961030678939146, 2.000000000000000000 ) ) ;
#242 = EDGE_LOOP ( 'NONE', ( #87, #183 ) ) ;
#243 = ORIENTED_EDGE ( 'NONE', *, *, #307, .T. ) ;
#244 = CARTESIAN_POINT ( 'NONE',  ( 0.000000000000000000, 0.000000000000000000, 2.000000000000000000 ) ) ;
#245 = VERTEX_POINT ( 'NONE', #674 ) ;
#246 = PRODUCT_DEFINITION_CONTEXT ( 'detailed design', #615, 'design' ) ;
#247 = EDGE_CURVE ( 'NONE', #584, #114, #548, .T. ) ;
#248 = DIRECTION ( 'NONE',  ( 1.000000000000000000, 0.000000000000000000, 0.000000000000000000 ) ) ;
#249 = CARTESIAN_POINT ( 'NONE',  ( 7.858402199327167992, 5.033966254320598743, 0.000000000000000000 ) ) ;
#250 = EDGE_CURVE ( 'NONE', #605, #127, #495, .T. ) ;
#251 = VECTOR ( 'NONE', #518, 1000.000000000000000 ) ;
#252 = DIRECTION ( 'NONE',  ( 1.000000000000000000, 0.000000000000000000, 0.000000000000000000 ) ) ;
#253 = DIRECTION ( 'NONE',  ( -0.000000000000000000, -0.000000000000000000, -1.000000000000000000 ) ) ;
#254 = DIRECTION ( 'NONE',  ( -0.000000000000000000, 0.000000000000000000, 1.000000000000000000 ) ) ;
#255 = CARTESIAN_POINT ( 'NONE',  ( -12.20525918160356760, -3.379294411950442889, 0.000000000000000000 ) ) ;
#256 = CARTESIAN_POINT ( 'NONE',  ( 0.000000000000000000, 0.000000000000000000, 5.000000000000000000 ) ) ;
#257 = CARTESIAN_POINT ( 'NONE',  ( -10.48985362732114623, -3.574740204678811928, 0.000000000000000000 ) ) ;
#258 = EDGE_CURVE ( 'NONE', #114, #362, #136, .T. ) ;
#259 = DIRECTION ( 'NONE',  ( -0.000000000000000000, 0.000000000000000000, 1.000000000000000000 ) ) ;
#260 = CARTESIAN_POINT ( 'NONE',  ( -8.000000000000000000, 0.000000000000000000, 0.000000000000000000 ) ) ;
#261 = DIRECTION ( 'NONE',  ( 1.000000000000000000, 0.000000000000000000, 0.000000000000000000 ) ) ;
#262 = DIRECTION ( 'NONE',  ( -0.000000000000000000, 0.000000000000000000, 1.000000000000000000 ) ) ;
#263 = FACE_OUTER_BOUND ( 'NONE', #236, .T. ) ;
#264 = EDGE_CURVE ( 'NONE', #461, #191, #316, .T. ) ;
#265 = SURFACE_SIDE_STYLE ('',( #433 ) ) ;
#266 = PRODUCT_DEFINITION_FORMATION_WITH_SPECIFIED_SOURCE ( 'ANY', '', #208, .NOT_KNOWN. ) ;
#267 = CARTESIAN_POINT ( 'NONE',  ( 12.20525918160356760, 3.379294411950442889, 0.000000000000000000 ) ) ;
#268 = EDGE_CURVE ( 'NONE', #576, #282, #646, .T. ) ;
#269 = VERTEX_POINT ( 'NONE', #337 ) ;
#270 = APPLICATION_PROTOCOL_DEFINITION ( 'draft international standard', 'automotive_design', 1998, #387 ) ;
#271 = AXIS2_PLACEMENT_3D ( 'NONE', #164, #606, #437 ) ;
#272 = CARTESIAN_POINT ( 'NONE',  ( 0.000000000000000000, 0.000000000000000000, 2.000000000000000000 ) ) ;
#273 = CARTESIAN_POINT ( 'NONE',  ( 14.00000000000000355, -3.099999999999999201, 0.000000000000000000 ) ) ;
#274 = ORIENTED_EDGE ( 'NONE', *, *, #395, .F. ) ;
#275 = CARTESIAN_POINT ( 'NONE',  ( 0.000000000000000000, 0.000000000000000000, 5.000000000000000000 ) ) ;
#276 = DIRECTION ( 'NONE',  ( -0.000000000000000000, 0.000000000000000000, 1.000000000000000000 ) ) ;
#277 = AXIS2_PLACEMENT_3D ( 'NONE', #52, #102, #469 ) ;
#278 = ORIENTED_EDGE ( 'NONE', *, *, #322, .T. ) ;
#279 = EDGE_LOOP ( 'NONE', ( #23, #439, #71, #661 ) ) ;
#280 = LINE ( 'NONE', #24, #118 ) ;
#281 = ORIENTED_EDGE ( 'NONE', *, *, #671, .F. ) ;
#282 = VERTEX_POINT ( 'NONE', #397 ) ;
#283 = PRODUCT_DEFINITION_SHAPE ( 'NONE', 'NONE',  #530 ) ;
#284 = CIRCLE ( 'NONE', #147, 3.100000000000000533 ) ;
#285 = DIRECTION ( 'NONE',  ( 1.000000000000000000, 0.000000000000000000, 0.000000000000000000 ) ) ;
#286 = VERTEX_POINT ( 'NONE', #500 ) ;
#287 = DIRECTION ( 'NONE',  ( -1.000000000000000000, 0.000000000000000000, 0.000000000000000000 ) ) ;
#288 = DIRECTION ( 'NONE',  ( 1.000000000000000000, 0.000000000000000000, 0.000000000000000000 ) ) ;
#289 = ADVANCED_FACE ( 'NONE', ( #340 ), #123, .F. ) ;
#290 = VERTEX_POINT ( 'NONE', #219 ) ;
#291 = ADVANCED_FACE ( 'NONE', ( #663 ), #174, .F. ) ;
#292 = FACE_OUTER_BOUND ( 'NONE', #567, .T. ) ;
#293 = ORIENTED_EDGE ( 'NONE', *, *, #39, .F. ) ;
#294 = CARTESIAN_POINT ( 'NONE',  ( 0.000000000000000000, 0.000000000000000000, 5.000000000000000000 ) ) ;
#295 = CARTESIAN_POINT ( 'NONE',  ( 9.000000000000000000, 1.102182119232617714E-15, 5.000000000000000000 ) ) ;
#296 = EDGE_CURVE ( 'NONE', #576, #461, #280, .T. ) ;
#297 = AXIS2_PLACEMENT_3D ( 'NONE', #546, #262, #486 ) ;
#298 = ORIENTED_EDGE ( 'NONE', *, *, #312, .T. ) ;
#299 = ORIENTED_EDGE ( 'NONE', *, *, #196, .T. ) ;
#300 = CARTESIAN_POINT ( 'NONE',  ( 14.00000000000000000, 3.100000000000000089, 2.000000000000000000 ) ) ;
#301 = CARTESIAN_POINT ( 'NONE',  ( -10.48985362732114623, 3.574740204678811484, 2.000000000000000000 ) ) ;
#302 = ORIENTED_EDGE ( 'NONE', *, *, #467, .T. ) ;
#303 = DIRECTION ( 'NONE',  ( -0.000000000000000000, -0.000000000000000000, -1.000000000000000000 ) ) ;
#304 = DIRECTION ( 'NONE',  ( -0.000000000000000000, -0.000000000000000000, -1.000000000000000000 ) ) ;
#305 = CIRCLE ( 'NONE', #231, 8.000000000000000000 ) ;
#306 = ORIENTED_EDGE ( 'NONE', *, *, #264, .F. ) ;
#307 = EDGE_CURVE ( 'NONE', #290, #194, #685, .T. ) ;
#308 = DIRECTION ( 'NONE',  ( -0.000000000000000000, 0.000000000000000000, 1.000000000000000000 ) ) ;
#309 = CIRCLE ( 'NONE', #159, 3.100000000000000533 ) ;
#310 = CARTESIAN_POINT ( 'NONE',  ( 14.00000000000000000, 0.000000000000000000, 2.000000000000000000 ) ) ;
#311 = B_SPLINE_SURFACE_WITH_KNOTS ( 'NONE', 3, 1, ( 
 ( #228, #106 ),
 ( #575, #456 ),
 ( #625, #514 ),
 ( #203, #402 ),
 ( #423, #422 ) ),
 .UNSPECIFIED., .F., .F., .F.,
 ( 4, 1, 4 ),
 ( 2, 2 ),
 ( 0.000000000000000000, 0.5401522000705701876, 1.000000000000000000 ),
 ( 0.000000000000000000, 1.000000000000000000 ),
 .UNSPECIFIED. ) ;
#312 = EDGE_CURVE ( 'NONE', #224, #77, #305, .T. ) ;
#313 = LINE ( 'NONE', #355, #459 ) ;
#314 = VECTOR ( 'NONE', #72, 1000.000000000000000 ) ;
#315 = CARTESIAN_POINT ( 'NONE',  ( 10.48985362732114623, 3.574740204678811040, 2.000000000000000000 ) ) ;
#316 = B_SPLINE_CURVE_WITH_KNOTS ( 'NONE', 3,
 ( #29, #182, #610, #403, #618 ),
 .UNSPECIFIED., .F., .F.,
 ( 4, 1, 4 ),
 ( 0.000000000000000000, 0.5401522000705701876, 1.000000000000000000 ),
 .UNSPECIFIED. ) ;
#317 = AXIS2_PLACEMENT_3D ( 'NONE', #509, #169, #234 ) ;
#318 = FACE_OUTER_BOUND ( 'NONE', #359, .T. ) ;
#319 = EDGE_CURVE ( 'NONE', #362, #237, #472, .T. ) ;
#320 = CARTESIAN_POINT ( 'NONE',  ( -16.10000000000000142, 0.000000000000000000, 2.000000000000000000 ) ) ;
#321 = CYLINDRICAL_SURFACE ( 'NONE', #373, 8.000000000000000000 ) ;
#322 = EDGE_CURVE ( 'NONE', #549, #237, #32, .T. ) ;
#323 = B_SPLINE_CURVE_WITH_KNOTS ( 'NONE', 3,
 ( #241, #97, #301, #539, #574 ),
 .UNSPECIFIED., .F., .F.,
 ( 4, 1, 4 ),
 ( 0.000000000000000000, 0.5401522000705701876, 1.000000000000000000 ),
 .UNSPECIFIED. ) ;
#324 = DIRECTION ( 'NONE',  ( -1.000000000000000000, 0.000000000000000000, 0.000000000000000000 ) ) ;
#325 = CYLINDRICAL_SURFACE ( 'NONE', #563, 3.100000000000000533 ) ;
#326 = DIRECTION ( 'NONE',  ( -0.000000000000000000, -0.000000000000000000, -1.000000000000000000 ) ) ;
#327 = VECTOR ( 'NONE', #195, 1000.000000000000000 ) ;
#328 = CARTESIAN_POINT ( 'NONE',  ( 9.000000000000000000, 1.102182119232617714E-15, 2.000000000000000000 ) ) ;
#329 = AXIS2_PLACEMENT_3D ( 'NONE', #152, #681, #287 ) ;
#330 = CARTESIAN_POINT ( 'NONE',  ( -7.858402199327167992, -5.033966254320598743, 2.000000000000000000 ) ) ;
#331 = CARTESIAN_POINT ( 'NONE',  ( 6.363961030678916941, -6.363961030678939146, 2.000000000000000000 ) ) ;
#332 = CARTESIAN_POINT ( 'NONE',  ( 10.48985362732114623, -3.574740204678811040, 0.000000000000000000 ) ) ;
#333 = EDGE_CURVE ( 'NONE', #629, #493, #415, .T. ) ;
#334 = EDGE_LOOP ( 'NONE', ( #141, #230 ) ) ;
#335 = ORIENTED_EDGE ( 'NONE', *, *, #467, .F. ) ;
#336 = DIRECTION ( 'NONE',  ( -0.000000000000000000, -0.000000000000000000, -1.000000000000000000 ) ) ;
#337 = CARTESIAN_POINT ( 'NONE',  ( -9.000000000000000000, 0.000000000000000000, 2.000000000000000000 ) ) ;
#338 = ORIENTED_EDGE ( 'NONE', *, *, #693, .T. ) ;
#339 =( NAMED_UNIT ( * ) PLANE_ANGLE_UNIT ( ) SI_UNIT ( $, .RADIAN. ) );
#340 = FACE_OUTER_BOUND ( 'NONE', #279, .T. ) ;
#341 = AXIS2_PLACEMENT_3D ( 'NONE', #352, #89, #160 ) ;
#342 = ORIENTED_EDGE ( 'NONE', *, *, #196, .F. ) ;
#343 = ORIENTED_EDGE ( 'NONE', *, *, #693, .F. ) ;
#344 = EDGE_CURVE ( 'NONE', #290, #443, #408, .T. ) ;
#345 = PLANE ( 'NONE',  #317 ) ;
#346 = ORIENTED_EDGE ( 'NONE', *, *, #363, .T. ) ;
#347 = CYLINDRICAL_SURFACE ( 'NONE', #329, 3.100000000000000533 ) ;
#348 = CIRCLE ( 'NONE', #51, 9.000000000000000000 ) ;
#349 = CARTESIAN_POINT ( 'NONE',  ( -6.363961030678916941, -6.363961030678939146, 0.000000000000000000 ) ) ;
#350 = ORIENTED_EDGE ( 'NONE', *, *, #6, .F. ) ;
#351 = CARTESIAN_POINT ( 'NONE',  ( 9.000000000000000000, 1.102182119232617714E-15, 5.000000000000000000 ) ) ;
#352 = CARTESIAN_POINT ( 'NONE',  ( -14.00000000000000000, 0.000000000000000000, 0.000000000000000000 ) ) ;
#353 = ORIENTED_EDGE ( 'NONE', *, *, #623, .F. ) ;
#354 = CARTESIAN_POINT ( 'NONE',  ( -6.363961030678916941, -6.363961030678939146, 2.000000000000000000 ) ) ;
#355 = CARTESIAN_POINT ( 'NONE',  ( -16.10000000000000142, 0.000000000000000000, 2.000000000000000000 ) ) ;
#356 = ORIENTED_EDGE ( 'NONE', *, *, #344, .F. ) ;
#357 = DIRECTION ( 'NONE',  ( 1.000000000000000000, 0.000000000000000000, 0.000000000000000000 ) ) ;
#358 = EDGE_CURVE ( 'NONE', #491, #454, #510, .T. ) ;
#359 = EDGE_LOOP ( 'NONE', ( #43, #384, #148, #122 ) ) ;
#360 = DIRECTION ( 'NONE',  ( 1.000000000000000000, 0.000000000000000000, 0.000000000000000000 ) ) ;
#361 = CARTESIAN_POINT ( 'NONE',  ( 11.90000000000000036, 0.000000000000000000, 0.000000000000000000 ) ) ;
#362 = VERTEX_POINT ( 'NONE', #300 ) ;
#363 = EDGE_CURVE ( 'NONE', #549, #611, #473, .T. ) ;
#364 = CARTESIAN_POINT ( 'NONE',  ( -6.363961030678916941, 6.363961030678939146, 2.000000000000000000 ) ) ;
#365 = VECTOR ( 'NONE', #181, 1000.000000000000000 ) ;
#366 = EDGE_CURVE ( 'NONE', #670, #466, #426, .T. ) ;
#367 = CARTESIAN_POINT ( 'NONE',  ( 14.00000000000000000, 3.100000000000000089, 2.000000000000000000 ) ) ;
#368 = CARTESIAN_POINT ( 'NONE',  ( -9.000000000000000000, 0.000000000000000000, 5.000000000000000000 ) ) ;
#369 = DIRECTION ( 'NONE',  ( 1.000000000000000000, 0.000000000000000000, 0.000000000000000000 ) ) ;
#370 = DIRECTION ( 'NONE',  ( 0.000000000000000000, 0.000000000000000000, 1.000000000000000000 ) ) ;
#371 = CARTESIAN_POINT ( 'NONE',  ( -10.48985362732114623, -3.574740204678811928, 0.000000000000000000 ) ) ;
#372 = EDGE_CURVE ( 'NONE', #46, #652, #559, .T. ) ;
#373 = AXIS2_PLACEMENT_3D ( 'NONE', #256, #482, #2 ) ;
#374 = CYLINDRICAL_SURFACE ( 'NONE', #468, 2.099999999999999645 ) ;
#375 = CARTESIAN_POINT ( 'NONE',  ( 0.000000000000000000, 0.000000000000000000, 2.000000000000000000 ) ) ;
#376 = EDGE_CURVE ( 'NONE', #170, #611, #522, .T. ) ;
#377 = FACE_OUTER_BOUND ( 'NONE', #470, .T. ) ;
#378 = FACE_OUTER_BOUND ( 'NONE', #175, .T. ) ;
#379 = CIRCLE ( 'NONE', #226, 9.000000000000000000 ) ;
#380 = EDGE_CURVE ( 'NONE', #611, #126, #162, .T. ) ;
#381 = CARTESIAN_POINT ( 'NONE',  ( -13.99999999999999289, -3.100000000000000089, 0.000000000000000000 ) ) ;
#382 = DIRECTION ( 'NONE',  ( -1.000000000000000000, 0.000000000000000000, 0.000000000000000000 ) ) ;
#383 = DIRECTION ( 'NONE',  ( -0.000000000000000000, -0.000000000000000000, -1.000000000000000000 ) ) ;
#384 = ORIENTED_EDGE ( 'NONE', *, *, #238, .F. ) ;
#385 = DIRECTION ( 'NONE',  ( 1.000000000000000000, 0.000000000000000000, 0.000000000000000000 ) ) ;
#386 = DIRECTION ( 'NONE',  ( 0.000000000000000000, -0.000000000000000000, -1.000000000000000000 ) ) ;
#387 = APPLICATION_CONTEXT ( 'automotive_design' ) ;
#388 = ORIENTED_EDGE ( 'NONE', *, *, #344, .T. ) ;
#389 = DIRECTION ( 'NONE',  ( -0.000000000000000000, -0.000000000000000000, -1.000000000000000000 ) ) ;
#390 = MECHANICAL_DESIGN_GEOMETRIC_PRESENTATION_REPRESENTATION (  '', ( #617 ), #49 ) ;
#391 = CARTESIAN_POINT ( 'NONE',  ( 0.000000000000000000, 0.000000000000000000, 5.000000000000000000 ) ) ;
#392 =( LENGTH_UNIT ( ) NAMED_UNIT ( * ) SI_UNIT ( .MILLI., .METRE. ) );
#393 = DIRECTION ( 'NONE',  ( 1.000000000000000000, 0.000000000000000000, 0.000000000000000000 ) ) ;
#394 = ORIENTED_EDGE ( 'NONE', *, *, #250, .T. ) ;
#395 = EDGE_CURVE ( 'NONE', #576, #584, #668, .T. ) ;
#396 = ORIENTED_EDGE ( 'NONE', *, *, #376, .F. ) ;
#397 = CARTESIAN_POINT ( 'NONE',  ( 13.99999999999999289, -3.100000000000000089, 2.000000000000000000 ) ) ;
#398 = VECTOR ( 'NONE', #593, 1000.000000000000000 ) ;
#399 = CLOSED_SHELL ( 'NONE', ( #583, #57, #545, #291, #494, #3, #180, #86, #101, #289, #66, #536, #161, #612, #30, #108, #638, #134, #193 ) ) ;
#400 = ORIENTED_EDGE ( 'NONE', *, *, #380, .T. ) ;
#401 = EDGE_CURVE ( 'NONE', #282, #362, #284, .T. ) ;
#402 = CARTESIAN_POINT ( 'NONE',  ( -12.20525918160356760, 3.379294411950442889, 0.000000000000000000 ) ) ;
#403 = CARTESIAN_POINT ( 'NONE',  ( 12.20525918160356760, -3.379294411950442889, 0.000000000000000000 ) ) ;
#404 = ORIENTED_EDGE ( 'NONE', *, *, #79, .F. ) ;
#405 = CARTESIAN_POINT ( 'NONE',  ( 16.10000000000000142, 2.571758278209439985E-16, 0.000000000000000000 ) ) ;
#406 = LINE ( 'NONE', #621, #171 ) ;
#407 = EDGE_LOOP ( 'NONE', ( #444, #179 ) ) ;
#408 = B_SPLINE_CURVE_WITH_KNOTS ( 'NONE', 3,
 ( #192, #417, #588, #50, #414 ),
 .UNSPECIFIED., .F., .F.,
 ( 4, 1, 4 ),
 ( 0.000000000000000000, 0.5401522000705701876, 1.000000000000000000 ),
 .UNSPECIFIED. ) ;
#409 = EDGE_CURVE ( 'NONE', #493, #629, #83, .T. ) ;
#410 = AXIS2_PLACEMENT_3D ( 'NONE', #275, #119, #385 ) ;
#411 = DIRECTION ( 'NONE',  ( -0.000000000000000000, 0.000000000000000000, 1.000000000000000000 ) ) ;
#412 = ORIENTED_EDGE ( 'NONE', *, *, #238, .T. ) ;
#413 = EDGE_LOOP ( 'NONE', ( #281, #566, #449, #98 ) ) ;
#414 = CARTESIAN_POINT ( 'NONE',  ( -13.99999999999999289, -3.100000000000000089, 2.000000000000000000 ) ) ;
#415 = CIRCLE ( 'NONE', #277, 2.099999999999999645 ) ;
#416 = ORIENTED_EDGE ( 'NONE', *, *, #635, .F. ) ;
#417 = CARTESIAN_POINT ( 'NONE',  ( -7.858402199327167992, -5.033966254320598743, 2.000000000000000000 ) ) ;
#418 = ORIENTED_EDGE ( 'NONE', *, *, #247, .F. ) ;
#419 = DIRECTION ( 'NONE',  ( -0.000000000000000000, -0.000000000000000000, -1.000000000000000000 ) ) ;
#420 = EDGE_CURVE ( 'NONE', #166, #18, #592, .T. ) ;
#421 = DIRECTION ( 'NONE',  ( 1.000000000000000000, 0.000000000000000000, 0.000000000000000000 ) ) ;
#422 = CARTESIAN_POINT ( 'NONE',  ( -14.00000000000000355, 3.099999999999999201, 0.000000000000000000 ) ) ;
#423 = CARTESIAN_POINT ( 'NONE',  ( -14.00000000000000355, 3.099999999999999201, 2.000000000000000000 ) ) ;
#424 = EDGE_CURVE ( 'NONE', #629, #491, #624, .T. ) ;
#425 = DIRECTION ( 'NONE',  ( -0.000000000000000000, 0.000000000000000000, 1.000000000000000000 ) ) ;
#426 = CIRCLE ( 'NONE', #240, 9.000000000000000000 ) ;
#427 = CARTESIAN_POINT ( 'NONE',  ( -14.00000000000000000, 0.000000000000000000, 2.000000000000000000 ) ) ;
#428 = CARTESIAN_POINT ( 'NONE',  ( -14.00000000000000355, -3.099999999999999201, 0.000000000000000000 ) ) ;
#429 = B_SPLINE_SURFACE_WITH_KNOTS ( 'NONE', 3, 1, ( 
 ( #62, #9 ),
 ( #330, #213 ),
 ( #434, #371 ),
 ( #157, #594 ),
 ( #438, #428 ) ),
 .UNSPECIFIED., .F., .F., .F.,
 ( 4, 1, 4 ),
 ( 2, 2 ),
 ( 0.000000000000000000, 0.5401522000705701876, 1.000000000000000000 ),
 ( 0.000000000000000000, 1.000000000000000000 ),
 .UNSPECIFIED. ) ;
#430 = AXIS2_PLACEMENT_3D ( 'NONE', #597, #425, #537 ) ;
#431 = CARTESIAN_POINT ( 'NONE',  ( 0.000000000000000000, 0.000000000000000000, 2.000000000000000000 ) ) ;
#432 = CARTESIAN_POINT ( 'NONE',  ( 14.00000000000000355, 3.099999999999999201, 0.000000000000000000 ) ) ;
#433 = SURFACE_STYLE_FILL_AREA ( #212 ) ;
#434 = CARTESIAN_POINT ( 'NONE',  ( -10.48985362732114623, -3.574740204678811928, 2.000000000000000000 ) ) ;
#435 = ORIENTED_EDGE ( 'NONE', *, *, #512, .F. ) ;
#436 =( NAMED_UNIT ( * ) PLANE_ANGLE_UNIT ( ) SI_UNIT ( $, .RADIAN. ) );
#437 = DIRECTION ( 'NONE',  ( -1.000000000000000000, 0.000000000000000000, 0.000000000000000000 ) ) ;
#438 = CARTESIAN_POINT ( 'NONE',  ( -14.00000000000000355, -3.099999999999999201, 2.000000000000000000 ) ) ;
#439 = ORIENTED_EDGE ( 'NONE', *, *, #505, .F. ) ;
#440 = ORIENTED_EDGE ( 'NONE', *, *, #401, .F. ) ;
#441 = DIRECTION ( 'NONE',  ( 0.000000000000000000, -0.000000000000000000, -1.000000000000000000 ) ) ;
#442 = CARTESIAN_POINT ( 'NONE',  ( 6.363961030678916941, 6.363961030678939146, 2.000000000000000000 ) ) ;
#443 = VERTEX_POINT ( 'NONE', #47 ) ;
#444 = ORIENTED_EDGE ( 'NONE', *, *, #333, .F. ) ;
#445 = EDGE_CURVE ( 'NONE', #77, #224, #544, .T. ) ;
#446 = DIRECTION ( 'NONE',  ( 1.000000000000000000, 0.000000000000000000, 0.000000000000000000 ) ) ;
#447 = CIRCLE ( 'NONE', #533, 3.100000000000000533 ) ;
#448 = DIRECTION ( 'NONE',  ( -1.000000000000000000, 0.000000000000000000, 0.000000000000000000 ) ) ;
#449 = ORIENTED_EDGE ( 'NONE', *, *, #372, .T. ) ;
#450 = ORIENTED_EDGE ( 'NONE', *, *, #6, .T. ) ;
#451 = VECTOR ( 'NONE', #303, 1000.000000000000000 ) ;
#452 = LINE ( 'NONE', #135, #19 ) ;
#453 = EDGE_CURVE ( 'NONE', #286, #126, #633, .T. ) ;
#454 = VERTEX_POINT ( 'NONE', #405 ) ;
#455 = EDGE_CURVE ( 'NONE', #194, #461, #379, .T. ) ;
#456 = CARTESIAN_POINT ( 'NONE',  ( -7.858402199327167992, 5.033966254320598743, 0.000000000000000000 ) ) ;
#457 = CARTESIAN_POINT ( 'NONE',  ( 6.363961030678916941, 6.363961030678939146, 2.000000000000000000 ) ) ;
#458 = AXIS2_PLACEMENT_3D ( 'NONE', #561, #276, #393 ) ;
#459 = VECTOR ( 'NONE', #253, 1000.000000000000000 ) ;
#460 = ORIENTED_EDGE ( 'NONE', *, *, #319, .F. ) ;
#461 = VERTEX_POINT ( 'NONE', #634 ) ;
#462 = ORIENTED_EDGE ( 'NONE', *, *, #684, .T. ) ;
#463 = LINE ( 'NONE', #457, #91 ) ;
#464 = AXIS2_PLACEMENT_3D ( 'NONE', #110, #441, #603 ) ;
#465 = ORIENTED_EDGE ( 'NONE', *, *, #268, .T. ) ;
#466 = VERTEX_POINT ( 'NONE', #351 ) ;
#467 = EDGE_CURVE ( 'NONE', #170, #286, #323, .T. ) ;
#468 = AXIS2_PLACEMENT_3D ( 'NONE', #542, #336, #209 ) ;
#469 = DIRECTION ( 'NONE',  ( 1.000000000000000000, 0.000000000000000000, 0.000000000000000000 ) ) ;
#470 = EDGE_LOOP ( 'NONE', ( #274, #465, #558, #692, #418 ) ) ;
#471 = ORIENTED_EDGE ( 'NONE', *, *, #144, .F. ) ;
#472 = LINE ( 'NONE', #367, #327 ) ;
#473 = CIRCLE ( 'NONE', #27, 9.000000000000000000 ) ;
#474 = ORIENTED_EDGE ( 'NONE', *, *, #623, .T. ) ;
#475 = DIRECTION ( 'NONE',  ( -0.000000000000000000, 0.000000000000000000, 1.000000000000000000 ) ) ;
#476 = PRESENTATION_LAYER_ASSIGNMENT (  '', '', ( #617 ) ) ;
#477 = CARTESIAN_POINT ( 'NONE',  ( 14.00000000000000000, 3.100000000000000089, 0.000000000000000000 ) ) ;
#478 = AXIS2_PLACEMENT_3D ( 'NONE', #513, #304, #38 ) ;
#479 = FACE_OUTER_BOUND ( 'NONE', #562, .T. ) ;
#480 = AXIS2_PLACEMENT_3D ( 'NONE', #580, #133, #232 ) ;
#481 = CARTESIAN_POINT ( 'NONE',  ( -14.00000000000000000, 0.000000000000000000, 2.000000000000000000 ) ) ;
#482 = DIRECTION ( 'NONE',  ( -0.000000000000000000, -0.000000000000000000, -1.000000000000000000 ) ) ;
#483 = DIRECTION ( 'NONE',  ( 1.000000000000000000, 0.000000000000000000, 0.000000000000000000 ) ) ;
#484 = FACE_BOUND ( 'NONE', #34, .T. ) ;
#485 = CARTESIAN_POINT ( 'NONE',  ( 0.000000000000000000, 0.000000000000000000, 0.000000000000000000 ) ) ;
#486 = DIRECTION ( 'NONE',  ( 1.000000000000000000, 0.000000000000000000, 0.000000000000000000 ) ) ;
#487 = PLANE ( 'NONE',  #130 ) ;
#488 = CARTESIAN_POINT ( 'NONE',  ( -9.000000000000000000, 0.000000000000000000, 5.000000000000000000 ) ) ;
#489 = DIRECTION ( 'NONE',  ( 1.000000000000000000, 0.000000000000000000, 0.000000000000000000 ) ) ;
#490 = AXIS2_PLACEMENT_3D ( 'NONE', #272, #222, #483 ) ;
#491 = VERTEX_POINT ( 'NONE', #361 ) ;
#492 = CARTESIAN_POINT ( 'NONE',  ( 10.48985362732114623, 3.574740204678811040, 2.000000000000000000 ) ) ;
#493 = VERTEX_POINT ( 'NONE', #88 ) ;
#494 = ADVANCED_FACE ( 'NONE', ( #586 ), #187, .T. ) ;
#495 = CIRCLE ( 'NONE', #35, 3.100000000000000533 ) ;
#496 = CYLINDRICAL_SURFACE ( 'NONE', #683, 2.099999999999999645 ) ;
#497 = CARTESIAN_POINT ( 'NONE',  ( 7.858402199327167992, 5.033966254320598743, 2.000000000000000000 ) ) ;
#498 = ORIENTED_EDGE ( 'NONE', *, *, #372, .F. ) ;
#499 = ORIENTED_EDGE ( 'NONE', *, *, #554, .F. ) ;
#500 = CARTESIAN_POINT ( 'NONE',  ( -14.00000000000000000, 3.100000000000000089, 2.000000000000000000 ) ) ;
#501 = ORIENTED_EDGE ( 'NONE', *, *, #409, .T. ) ;
#502 = ORIENTED_EDGE ( 'NONE', *, *, #424, .T. ) ;
#503 = AXIS2_PLACEMENT_3D ( 'NONE', #199, #190, #534 ) ;
#504 = CARTESIAN_POINT ( 'NONE',  ( 14.00000000000000000, 3.100000000000000089, 2.000000000000000000 ) ) ;
#505 = EDGE_CURVE ( 'NONE', #282, #191, #528, .T. ) ;
#506 = ORIENTED_EDGE ( 'NONE', *, *, #39, .T. ) ;
#507 = CARTESIAN_POINT ( 'NONE',  ( -8.000000000000000000, 0.000000000000000000, 5.000000000000000000 ) ) ;
#508 = ORIENTED_EDGE ( 'NONE', *, *, #104, .T. ) ;
#509 = CARTESIAN_POINT ( 'NONE',  ( 0.000000000000000000, 0.000000000000000000, 2.000000000000000000 ) ) ;
#510 = CIRCLE ( 'NONE', #202, 2.099999999999999645 ) ;
#511 = ORIENTED_EDGE ( 'NONE', *, *, #671, .T. ) ;
#512 = EDGE_CURVE ( 'NONE', #466, #584, #680, .T. ) ;
#513 = CARTESIAN_POINT ( 'NONE',  ( 0.000000000000000000, 0.000000000000000000, 5.000000000000000000 ) ) ;
#514 = CARTESIAN_POINT ( 'NONE',  ( -10.48985362732114623, 3.574740204678811484, 0.000000000000000000 ) ) ;
#515 = ORIENTED_EDGE ( 'NONE', *, *, #201, .T. ) ;
#516 = CARTESIAN_POINT ( 'NONE',  ( -14.00000000000000000, 3.100000000000000089, 0.000000000000000000 ) ) ;
#517 = AXIS2_PLACEMENT_3D ( 'NONE', #4, #112, #324 ) ;
#518 = DIRECTION ( 'NONE',  ( -0.000000000000000000, -0.000000000000000000, -1.000000000000000000 ) ) ;
#519 = ORIENTED_EDGE ( 'NONE', *, *, #455, .F. ) ;
#520 = EDGE_LOOP ( 'NONE', ( #95, #233, #129, #587 ) ) ;
#521 = EDGE_CURVE ( 'NONE', #77, #166, #156, .T. ) ;
#522 = LINE ( 'NONE', #364, #163 ) ;
#523 = ORIENTED_EDGE ( 'NONE', *, *, #645, .F. ) ;
#524 = UNCERTAINTY_MEASURE_WITH_UNIT (LENGTH_MEASURE( 1.000000000000000082E-05 ), #598, 'distance_accuracy_value', 'NONE');
#525 = CARTESIAN_POINT ( 'NONE',  ( 10.48985362732114623, 3.574740204678811040, 0.000000000000000000 ) ) ;
#526 = CIRCLE ( 'NONE', #63, 2.099999999999999645 ) ;
#527 = VECTOR ( 'NONE', #383, 1000.000000000000000 ) ;
#528 = LINE ( 'NONE', #235, #571 ) ;
#529 = ORIENTED_EDGE ( 'NONE', *, *, #80, .T. ) ;
#530 = PRODUCT_DEFINITION ( 'UNKNOWN', '', #266, #246 ) ;
#531 = DIRECTION ( 'NONE',  ( 1.000000000000000000, 0.000000000000000000, 0.000000000000000000 ) ) ;
#532 = EDGE_CURVE ( 'NONE', #170, #269, #348, .T. ) ;
#533 = AXIS2_PLACEMENT_3D ( 'NONE', #599, #259, #446 ) ;
#534 = DIRECTION ( 'NONE',  ( 1.000000000000000000, 0.000000000000000000, 0.000000000000000000 ) ) ;
#535 = CARTESIAN_POINT ( 'NONE',  ( 8.000000000000000000, 9.797174393178825657E-16, 0.000000000000000000 ) ) ;
#536 = ADVANCED_FACE ( 'NONE', ( #61 ), #69, .F. ) ;
#537 = DIRECTION ( 'NONE',  ( 1.000000000000000000, 0.000000000000000000, 0.000000000000000000 ) ) ;
#538 = PRODUCT_RELATED_PRODUCT_CATEGORY ( 'part', '', ( #208 ) ) ;
#539 = CARTESIAN_POINT ( 'NONE',  ( -12.20525918160356760, 3.379294411950442889, 2.000000000000000000 ) ) ;
#540 = CARTESIAN_POINT ( 'NONE',  ( 6.363961030678915165, 6.363961030678937369, 2.000000000000000000 ) ) ;
#541 = SHAPE_DEFINITION_REPRESENTATION ( #283, #45 ) ;
#542 = CARTESIAN_POINT ( 'NONE',  ( 14.00000000000000000, 0.000000000000000000, 2.000000000000000000 ) ) ;
#543 = CARTESIAN_POINT ( 'NONE',  ( 13.99999999999999289, -3.100000000000000089, 0.000000000000000000 ) ) ;
#544 = CIRCLE ( 'NONE', #632, 8.000000000000000000 ) ;
#545 = ADVANCED_FACE ( 'NONE', ( #124 ), #374, .F. ) ;
#546 = CARTESIAN_POINT ( 'NONE',  ( 14.00000000000000000, 0.000000000000000000, 0.000000000000000000 ) ) ;
#547 = FACE_BOUND ( 'NONE', #686, .T. ) ;
#548 = CIRCLE ( 'NONE', #458, 9.000000000000000000 ) ;
#549 = VERTEX_POINT ( 'NONE', #16 ) ;
#550 = AXIS2_PLACEMENT_3D ( 'NONE', #639, #153, #570 ) ;
#551 = EDGE_CURVE ( 'NONE', #443, #605, #560, .T. ) ;
#552 = DIRECTION ( 'NONE',  ( -0.000000000000000000, -0.000000000000000000, -1.000000000000000000 ) ) ;
#553 = CARTESIAN_POINT ( 'NONE',  ( 8.000000000000000000, 9.797174393178825657E-16, 5.000000000000000000 ) ) ;
#554 = EDGE_CURVE ( 'NONE', #466, #670, #13, .T. ) ;
#555 = PRODUCT_CONTEXT ( 'NONE', #387, 'mechanical' ) ;
#556 = DIRECTION ( 'NONE',  ( -0.000000000000000000, 0.000000000000000000, 1.000000000000000000 ) ) ;
#557 = CARTESIAN_POINT ( 'NONE',  ( 12.20525918160356760, -3.379294411950442889, 0.000000000000000000 ) ) ;
#558 = ORIENTED_EDGE ( 'NONE', *, *, #401, .T. ) ;
#559 = CIRCLE ( 'NONE', #503, 2.099999999999999645 ) ;
#560 = LINE ( 'NONE', #656, #314 ) ;
#561 = CARTESIAN_POINT ( 'NONE',  ( 0.000000000000000000, 0.000000000000000000, 2.000000000000000000 ) ) ;
#562 = EDGE_LOOP ( 'NONE', ( #435, #26, #450, #142, #243, #14, #31, #74 ) ) ;
#563 = AXIS2_PLACEMENT_3D ( 'NONE', #481, #210, #1 ) ;
#564 = CARTESIAN_POINT ( 'NONE',  ( 6.363961030678915165, -6.363961030678937369, 2.000000000000000000 ) ) ;
#565 = B_SPLINE_CURVE_WITH_KNOTS ( 'NONE', 3,
 ( #214, #206, #257, #255, #381 ),
 .UNSPECIFIED., .F., .F.,
 ( 4, 1, 4 ),
 ( 0.000000000000000000, 0.5401522000705701876, 1.000000000000000000 ),
 .UNSPECIFIED. ) ;
#566 = ORIENTED_EDGE ( 'NONE', *, *, #198, .T. ) ;
#567 = EDGE_LOOP ( 'NONE', ( #338, #581, #41, #82 ) ) ;
#568 = DIRECTION ( 'NONE',  ( 0.000000000000000000, -0.000000000000000000, -1.000000000000000000 ) ) ;
#569 = EDGE_LOOP ( 'NONE', ( #145, #298, #667, #293 ) ) ;
#570 = DIRECTION ( 'NONE',  ( -1.000000000000000000, 0.000000000000000000, 0.000000000000000000 ) ) ;
#571 = VECTOR ( 'NONE', #93, 1000.000000000000000 ) ;
#572 = CARTESIAN_POINT ( 'NONE',  ( 14.00000000000000000, 3.100000000000000089, 0.000000000000000000 ) ) ;
#573 = ORIENTED_EDGE ( 'NONE', *, *, #684, .F. ) ;
#574 = CARTESIAN_POINT ( 'NONE',  ( -14.00000000000000000, 3.100000000000000089, 2.000000000000000000 ) ) ;
#575 = CARTESIAN_POINT ( 'NONE',  ( -7.858402199327167992, 5.033966254320598743, 2.000000000000000000 ) ) ;
#576 = VERTEX_POINT ( 'NONE', #331 ) ;
#577 = DIRECTION ( 'NONE',  ( -0.000000000000000000, -0.000000000000000000, -1.000000000000000000 ) ) ;
#578 = CIRCLE ( 'NONE', #341, 3.100000000000000533 ) ;
#579 = DIRECTION ( 'NONE',  ( -0.000000000000000000, 0.000000000000000000, 1.000000000000000000 ) ) ;
#580 = CARTESIAN_POINT ( 'NONE',  ( 0.000000000000000000, 0.000000000000000000, 0.000000000000000000 ) ) ;
#581 = ORIENTED_EDGE ( 'NONE', *, *, #167, .T. ) ;
#582 = CARTESIAN_POINT ( 'NONE',  ( 0.000000000000000000, 0.000000000000000000, 0.000000000000000000 ) ) ;
#583 = ADVANCED_FACE ( 'NONE', ( #596 ), #496, .F. ) ;
#584 = VERTEX_POINT ( 'NONE', #328 ) ;
#585 = DIRECTION ( 'NONE',  ( -0.000000000000000000, 0.000000000000000000, 1.000000000000000000 ) ) ;
#586 = FACE_OUTER_BOUND ( 'NONE', #172, .T. ) ;
#587 = ORIENTED_EDGE ( 'NONE', *, *, #424, .F. ) ;
#588 = CARTESIAN_POINT ( 'NONE',  ( -10.48985362732114623, -3.574740204678811928, 2.000000000000000000 ) ) ;
#589 = DIRECTION ( 'NONE',  ( -0.000000000000000000, 0.000000000000000000, 1.000000000000000000 ) ) ;
#590 = FACE_OUTER_BOUND ( 'NONE', #94, .T. ) ;
#591 =( GEOMETRIC_REPRESENTATION_CONTEXT ( 3 ) GLOBAL_UNCERTAINTY_ASSIGNED_CONTEXT ( ( #524 ) ) GLOBAL_UNIT_ASSIGNED_CONTEXT ( ( #598, #436, #643 ) ) REPRESENTATION_CONTEXT ( 'NONE', 'WORKASPACE' ) );
#592 = CIRCLE ( 'NONE', #215, 8.000000000000000000 ) ;
#593 = DIRECTION ( 'NONE',  ( -0.000000000000000000, -0.000000000000000000, -1.000000000000000000 ) ) ;
#594 = CARTESIAN_POINT ( 'NONE',  ( -12.20525918160356760, -3.379294411950442889, 0.000000000000000000 ) ) ;
#595 = VECTOR ( 'NONE', #577, 1000.000000000000000 ) ;
#596 = FACE_OUTER_BOUND ( 'NONE', #413, .T. ) ;
#597 = CARTESIAN_POINT ( 'NONE',  ( 0.000000000000000000, 0.000000000000000000, 5.000000000000000000 ) ) ;
#598 =( LENGTH_UNIT ( ) NAMED_UNIT ( * ) SI_UNIT ( .MILLI., .METRE. ) );
#599 = CARTESIAN_POINT ( 'NONE',  ( 14.00000000000000000, 0.000000000000000000, 0.000000000000000000 ) ) ;
#600 = CARTESIAN_POINT ( 'NONE',  ( 6.363961030678916941, 6.363961030678939146, 2.000000000000000000 ) ) ;
#601 = CYLINDRICAL_SURFACE ( 'NONE', #517, 2.099999999999999645 ) ;
#602 = FACE_OUTER_BOUND ( 'NONE', #689, .T. ) ;
#603 = DIRECTION ( 'NONE',  ( 1.000000000000000000, 0.000000000000000000, 0.000000000000000000 ) ) ;
#604 = CARTESIAN_POINT ( 'NONE',  ( 7.858402199327167992, -5.033966254320598743, 0.000000000000000000 ) ) ;
#605 = VERTEX_POINT ( 'NONE', #168 ) ;
#606 = DIRECTION ( 'NONE',  ( -0.000000000000000000, -0.000000000000000000, -1.000000000000000000 ) ) ;
#607 = DIRECTION ( 'NONE',  ( -0.000000000000000000, -0.000000000000000000, -1.000000000000000000 ) ) ;
#608 = ORIENTED_EDGE ( 'NONE', *, *, #532, .T. ) ;
#609 = ORIENTED_EDGE ( 'NONE', *, *, #363, .F. ) ;
#610 = CARTESIAN_POINT ( 'NONE',  ( 10.48985362732114623, -3.574740204678811040, 0.000000000000000000 ) ) ;
#611 = VERTEX_POINT ( 'NONE', #648 ) ;
#612 = ADVANCED_FACE ( 'NONE', ( #21, #377 ), #653, .T. ) ;
#613 = CIRCLE ( 'NONE', #628, 9.000000000000000000 ) ;
#614 = CARTESIAN_POINT ( 'NONE',  ( 12.20525918160356760, 3.379294411950442889, 2.000000000000000000 ) ) ;
#615 = APPLICATION_CONTEXT ( 'automotive_design' ) ;
#616 = VERTEX_POINT ( 'NONE', #320 ) ;
#617 = STYLED_ITEM ( 'NONE', ( #216 ), #658 ) ;
#618 = CARTESIAN_POINT ( 'NONE',  ( 13.99999999999999289, -3.100000000000000089, 0.000000000000000000 ) ) ;
#619 = ORIENTED_EDGE ( 'NONE', *, *, #554, .T. ) ;
#620 = CARTESIAN_POINT ( 'NONE',  ( 0.000000000000000000, 0.000000000000000000, 0.000000000000000000 ) ) ;
#621 = CARTESIAN_POINT ( 'NONE',  ( 16.10000000000000142, 2.571758278209440478E-16, 2.000000000000000000 ) ) ;
#622 = VERTEX_POINT ( 'NONE', #58 ) ;
#623 = EDGE_CURVE ( 'NONE', #191, #237, #447, .T. ) ;
#624 = LINE ( 'NONE', #140, #451 ) ;
#625 = CARTESIAN_POINT ( 'NONE',  ( -10.48985362732114623, 3.574740204678811484, 2.000000000000000000 ) ) ;
#626 = ORIENTED_EDGE ( 'NONE', *, *, #307, .F. ) ;
#627 = CARTESIAN_POINT ( 'NONE',  ( 14.00000000000000000, 0.000000000000000000, 0.000000000000000000 ) ) ;
#628 = AXIS2_PLACEMENT_3D ( 'NONE', #375, #109, #369 ) ;
#629 = VERTEX_POINT ( 'NONE', #64 ) ;
#630 = CARTESIAN_POINT ( 'NONE',  ( 12.20525918160356760, 3.379294411950442889, 0.000000000000000000 ) ) ;
#631 = EDGE_LOOP ( 'NONE', ( #100, #342, #665, #515 ) ) ;
#632 = AXIS2_PLACEMENT_3D ( 'NONE', #96, #44, #690 ) ;
#633 = LINE ( 'NONE', #149, #56 ) ;
#634 = CARTESIAN_POINT ( 'NONE',  ( 6.363961030678916941, -6.363961030678939146, 0.000000000000000000 ) ) ;
#635 = EDGE_CURVE ( 'NONE', #245, #286, #67, .T. ) ;
#636 = CARTESIAN_POINT ( 'NONE',  ( -6.363961030678916941, 6.363961030678939146, 0.000000000000000000 ) ) ;
#637 = CARTESIAN_POINT ( 'NONE',  ( -11.90000000000000036, 2.571758278209439985E-16, 0.000000000000000000 ) ) ;
#638 = ADVANCED_FACE ( 'NONE', ( #662 ), #601, .F. ) ;
#639 = CARTESIAN_POINT ( 'NONE',  ( 14.00000000000000000, 0.000000000000000000, 2.000000000000000000 ) ) ;
#640 = CARTESIAN_POINT ( 'NONE',  ( -14.00000000000000000, 0.000000000000000000, 2.000000000000000000 ) ) ;
#641 = AXIS2_PLACEMENT_3D ( 'NONE', #687, #146, #360 ) ;
#642 = FACE_OUTER_BOUND ( 'NONE', #569, .T. ) ;
#643 =( NAMED_UNIT ( * ) SI_UNIT ( $, .STERADIAN. ) SOLID_ANGLE_UNIT ( ) );
#644 = CARTESIAN_POINT ( 'NONE',  ( 14.00000000000000355, 3.099999999999999201, 2.000000000000000000 ) ) ;
#645 = EDGE_CURVE ( 'NONE', #454, #491, #225, .T. ) ;
#646 = B_SPLINE_CURVE_WITH_KNOTS ( 'NONE', 3,
 ( #85, #178, #17, #128, #70 ),
 .UNSPECIFIED., .F., .F.,
 ( 4, 1, 4 ),
 ( 0.000000000000000000, 0.5401522000705701876, 1.000000000000000000 ),
 .UNSPECIFIED. ) ;
#647 = DIRECTION ( 'NONE',  ( 0.000000000000000000, -0.000000000000000000, -1.000000000000000000 ) ) ;
#648 = CARTESIAN_POINT ( 'NONE',  ( -6.363961030678916941, 6.363961030678939146, 0.000000000000000000 ) ) ;
#649 = CARTESIAN_POINT ( 'NONE',  ( -17.10000000000000142, 0.000000000000000000, 0.000000000000000000 ) ) ;
#650 = CIRCLE ( 'NONE', #132, 2.099999999999999645 ) ;
#651 = UNCERTAINTY_MEASURE_WITH_UNIT (LENGTH_MEASURE( 1.000000000000000082E-05 ), #392, 'distance_accuracy_value', 'NONE');
#652 = VERTEX_POINT ( 'NONE', #116 ) ;
#653 = PLANE ( 'NONE',  #490 ) ;
#654 = CARTESIAN_POINT ( 'NONE',  ( 12.20525918160356760, 3.379294411950442889, 2.000000000000000000 ) ) ;
#655 = VECTOR ( 'NONE', #389, 1000.000000000000000 ) ;
#656 = CARTESIAN_POINT ( 'NONE',  ( -13.99999999999999289, -3.100000000000000089, 2.000000000000000000 ) ) ;
#657 = FACE_BOUND ( 'NONE', #242, .T. ) ;
#658 = MANIFOLD_SOLID_BREP ( 'Boss.-Extru.2', #399 ) ;
#659 = ORIENTED_EDGE ( 'NONE', *, *, #445, .T. ) ;
#660 = AXIS2_PLACEMENT_3D ( 'NONE', #391, #223, #448 ) ;
#661 = ORIENTED_EDGE ( 'NONE', *, *, #296, .T. ) ;
#662 = FACE_OUTER_BOUND ( 'NONE', #631, .T. ) ;
#663 = FACE_OUTER_BOUND ( 'NONE', #682, .T. ) ;
#664 = EDGE_LOOP ( 'NONE', ( #609, #278, #353, #306, #519, #462, #394, #529, #177 ) ) ;
#665 = ORIENTED_EDGE ( 'NONE', *, *, #20, .T. ) ;
#666 = CARTESIAN_POINT ( 'NONE',  ( -14.00000000000000000, 0.000000000000000000, 2.000000000000000000 ) ) ;
#667 = ORIENTED_EDGE ( 'NONE', *, *, #521, .T. ) ;
#668 = CIRCLE ( 'NONE', #197, 9.000000000000000000 ) ;
#669 = CARTESIAN_POINT ( 'NONE',  ( -14.00000000000000000, 0.000000000000000000, 0.000000000000000000 ) ) ;
#670 = VERTEX_POINT ( 'NONE', #488 ) ;
#671 = EDGE_CURVE ( 'NONE', #622, #616, #650, .T. ) ;
#672 = ORIENTED_EDGE ( 'NONE', *, *, #420, .F. ) ;
#673 = CIRCLE ( 'NONE', #688, 2.099999999999999645 ) ;
#674 = CARTESIAN_POINT ( 'NONE',  ( -17.10000000000000142, 0.000000000000000000, 2.000000000000000000 ) ) ;
#675 = ORIENTED_EDGE ( 'NONE', *, *, #167, .F. ) ;
#676 = ORIENTED_EDGE ( 'NONE', *, *, #80, .F. ) ;
#677 = ORIENTED_EDGE ( 'NONE', *, *, #201, .F. ) ;
#678 = AXIS2_PLACEMENT_3D ( 'NONE', #485, #370, #68 ) ;
#679 = CARTESIAN_POINT ( 'NONE',  ( -12.20525918160356760, 3.379294411950442889, 0.000000000000000000 ) ) ;
#680 = LINE ( 'NONE', #295, #251 ) ;
#681 = DIRECTION ( 'NONE',  ( -0.000000000000000000, -0.000000000000000000, -1.000000000000000000 ) ) ;
#682 = EDGE_LOOP ( 'NONE', ( #659, #508, #672, #221 ) ) ;
#683 = AXIS2_PLACEMENT_3D ( 'NONE', #218, #552, #382 ) ;
#684 = EDGE_CURVE ( 'NONE', #194, #605, #565, .T. ) ;
#685 = LINE ( 'NONE', #354, #595 ) ;
#686 = EDGE_LOOP ( 'NONE', ( #677, #498 ) ) ;
#687 = CARTESIAN_POINT ( 'NONE',  ( 14.00000000000000000, 0.000000000000000000, 2.000000000000000000 ) ) ;
#688 = AXIS2_PLACEMENT_3D ( 'NONE', #666, #131, #288 ) ;
#689 = EDGE_LOOP ( 'NONE', ( #675, #220, #189, #676 ) ) ;
#690 = DIRECTION ( 'NONE',  ( 1.000000000000000000, 0.000000000000000000, 0.000000000000000000 ) ) ;
#691 = DIRECTION ( 'NONE',  ( -0.000000000000000000, 0.000000000000000000, 1.000000000000000000 ) ) ;
#692 = ORIENTED_EDGE ( 'NONE', *, *, #258, .F. ) ;
#693 = EDGE_CURVE ( 'NONE', #443, #245, #309, .T. ) ;
#694 = ORIENTED_EDGE ( 'NONE', *, *, #532, .F. ) ;
ENDSEC;
END-ISO-10303-21;
