ISO-10303-21;
HEADER;
FILE_DESCRIPTION (( 'STEP AP214' ),
    '1' );
FILE_NAME ('Bearing holder little x3.STEP',
    '2026-06-11T14:59:32',
    ( '' ),
    ( '' ),
    'SwSTEP 2.0',
    'SolidWorks 2025',
    '' );
FILE_SCHEMA (( 'AUTOMOTIVE_DESIGN' ));
ENDSEC;

DATA;
#1 = DIRECTION ( 'NONE',  ( -1.000000000000000000, 0.000000000000000000, 0.000000000000000000 ) ) ;
#2 = DIRECTION ( 'NONE',  ( -1.000000000000000000, 0.000000000000000000, 0.000000000000000000 ) ) ;
#3 = CARTESIAN_POINT ( 'NONE',  ( 2.500000000000000000, 3.061616997868383141E-16, 13.50000000000000000 ) ) ;
#4 = STYLED_ITEM ( 'NONE', ( #41 ), #8 ) ;
#5 = CARTESIAN_POINT ( 'NONE',  ( 0.000000000000000000, 0.000000000000000000, 0.000000000000000000 ) ) ;
#6 = CIRCLE ( 'NONE', #69, 2.500000000000000000 ) ;
#7 =( GEOMETRIC_REPRESENTATION_CONTEXT ( 3 ) GLOBAL_UNCERTAINTY_ASSIGNED_CONTEXT ( ( #60 ) ) GLOBAL_UNIT_ASSIGNED_CONTEXT ( ( #108, #62, #22 ) ) REPRESENTATION_CONTEXT ( 'NONE', 'WORKASPACE' ) );
#8 = MANIFOLD_SOLID_BREP ( 'Boss.-Extru.1', #118 ) ;
#9 = SURFACE_SIDE_STYLE ('',( #113 ) ) ;
#10 = DIRECTION ( 'NONE',  ( 0.000000000000000000, 0.000000000000000000, 1.000000000000000000 ) ) ;
#11 = LINE ( 'NONE', #116, #104 ) ;
#12 = ADVANCED_FACE ( 'NONE', ( #38 ), #82, .T. ) ;
#13 = DIRECTION ( 'NONE',  ( 0.000000000000000000, 0.000000000000000000, 1.000000000000000000 ) ) ;
#14 =( GEOMETRIC_REPRESENTATION_CONTEXT ( 3 ) GLOBAL_UNCERTAINTY_ASSIGNED_CONTEXT ( ( #98 ) ) GLOBAL_UNIT_ASSIGNED_CONTEXT ( ( #57, #30, #107 ) ) REPRESENTATION_CONTEXT ( 'NONE', 'WORKASPACE' ) );
#15 = ORIENTED_EDGE ( 'NONE', *, *, #109, .F. ) ;
#16 = ORIENTED_EDGE ( 'NONE', *, *, #99, .F. ) ;
#17 = CIRCLE ( 'NONE', #23, 2.500000000000000000 ) ;
#18 = EDGE_LOOP ( 'NONE', ( #64, #15, #37, #110 ) ) ;
#19 = AXIS2_PLACEMENT_3D ( 'NONE', #73, #117, #93 ) ;
#20 = CARTESIAN_POINT ( 'NONE',  ( 0.000000000000000000, 0.000000000000000000, 13.50000000000000000 ) ) ;
#21 = DIRECTION ( 'NONE',  ( -0.000000000000000000, -0.000000000000000000, -1.000000000000000000 ) ) ;
#22 =( NAMED_UNIT ( * ) SI_UNIT ( $, .STERADIAN. ) SOLID_ANGLE_UNIT ( ) );
#23 = AXIS2_PLACEMENT_3D ( 'NONE', #46, #26, #53 ) ;
#24 = DIRECTION ( 'NONE',  ( 1.000000000000000000, 0.000000000000000000, 0.000000000000000000 ) ) ;
#25 = EDGE_CURVE ( 'NONE', #40, #122, #77, .T. ) ;
#26 = DIRECTION ( 'NONE',  ( 0.000000000000000000, 0.000000000000000000, 1.000000000000000000 ) ) ;
#27 = ORIENTED_EDGE ( 'NONE', *, *, #25, .F. ) ;
#28 = DIRECTION ( 'NONE',  ( 0.000000000000000000, 0.000000000000000000, 1.000000000000000000 ) ) ;
#29 = CARTESIAN_POINT ( 'NONE',  ( -2.500000000000000000, 0.000000000000000000, 13.50000000000000000 ) ) ;
#30 =( NAMED_UNIT ( * ) PLANE_ANGLE_UNIT ( ) SI_UNIT ( $, .RADIAN. ) );
#31 = VERTEX_POINT ( 'NONE', #29 ) ;
#32 = CARTESIAN_POINT ( 'NONE',  ( -2.500000000000000000, 0.000000000000000000, 0.000000000000000000 ) ) ;
#33 = SHAPE_DEFINITION_REPRESENTATION ( #89, #114 ) ;
#34 = PRODUCT_CONTEXT ( 'NONE', #100, 'mechanical' ) ;
#35 = APPLICATION_PROTOCOL_DEFINITION ( 'draft international standard', 'automotive_design', 1998, #103 ) ;
#36 = AXIS2_PLACEMENT_3D ( 'NONE', #76, #10, #52 ) ;
#37 = ORIENTED_EDGE ( 'NONE', *, *, #99, .T. ) ;
#38 = FACE_OUTER_BOUND ( 'NONE', #86, .T. ) ;
#39 = DIRECTION ( 'NONE',  ( 0.000000000000000000, 0.000000000000000000, 1.000000000000000000 ) ) ;
#40 = VERTEX_POINT ( 'NONE', #91 ) ;
#41 = PRESENTATION_STYLE_ASSIGNMENT (( #58 ) ) ;
#42 = FACE_OUTER_BOUND ( 'NONE', #18, .T. ) ;
#43 = CARTESIAN_POINT ( 'NONE',  ( 0.000000000000000000, 0.000000000000000000, 13.50000000000000000 ) ) ;
#44 = PRODUCT_RELATED_PRODUCT_CATEGORY ( 'part', '', ( #95 ) ) ;
#45 = CYLINDRICAL_SURFACE ( 'NONE', #50, 2.500000000000000000 ) ;
#46 = CARTESIAN_POINT ( 'NONE',  ( 0.000000000000000000, 0.000000000000000000, 13.50000000000000000 ) ) ;
#47 = VERTEX_POINT ( 'NONE', #3 ) ;
#48 = FILL_AREA_STYLE ('',( #81 ) ) ;
#49 = EDGE_CURVE ( 'NONE', #122, #40, #6, .T. ) ;
#50 = AXIS2_PLACEMENT_3D ( 'NONE', #20, #72, #1 ) ;
#51 = FACE_OUTER_BOUND ( 'NONE', #105, .T. ) ;
#52 = DIRECTION ( 'NONE',  ( 1.000000000000000000, 0.000000000000000000, 0.000000000000000000 ) ) ;
#53 = DIRECTION ( 'NONE',  ( 1.000000000000000000, 0.000000000000000000, 0.000000000000000000 ) ) ;
#54 = ORIENTED_EDGE ( 'NONE', *, *, #124, .T. ) ;
#55 = ORIENTED_EDGE ( 'NONE', *, *, #109, .T. ) ;
#56 = ORIENTED_EDGE ( 'NONE', *, *, #25, .T. ) ;
#57 =( LENGTH_UNIT ( ) NAMED_UNIT ( * ) SI_UNIT ( .MILLI., .METRE. ) );
#58 = SURFACE_STYLE_USAGE ( .BOTH. , #9 ) ;
#59 = APPLICATION_PROTOCOL_DEFINITION ( 'draft international standard', 'automotive_design', 1998, #100 ) ;
#60 = UNCERTAINTY_MEASURE_WITH_UNIT (LENGTH_MEASURE( 1.000000000000000082E-05 ), #108, 'distance_accuracy_value', 'NONE');
#61 = AXIS2_PLACEMENT_3D ( 'NONE', #78, #28, #90 ) ;
#62 =( NAMED_UNIT ( * ) PLANE_ANGLE_UNIT ( ) SI_UNIT ( $, .RADIAN. ) );
#63 = DIRECTION ( 'NONE',  ( 0.000000000000000000, 0.000000000000000000, 1.000000000000000000 ) ) ;
#64 = ORIENTED_EDGE ( 'NONE', *, *, #70, .F. ) ;
#65 = ORIENTED_EDGE ( 'NONE', *, *, #49, .F. ) ;
#66 = ADVANCED_FACE ( 'NONE', ( #42 ), #119, .T. ) ;
#67 = EDGE_LOOP ( 'NONE', ( #65, #27 ) ) ;
#68 = CIRCLE ( 'NONE', #121, 2.500000000000000000 ) ;
#69 = AXIS2_PLACEMENT_3D ( 'NONE', #5, #63, #83 ) ;
#70 = EDGE_CURVE ( 'NONE', #47, #40, #92, .T. ) ;
#71 = PRESENTATION_LAYER_ASSIGNMENT (  '', '', ( #4 ) ) ;
#72 = DIRECTION ( 'NONE',  ( -0.000000000000000000, -0.000000000000000000, -1.000000000000000000 ) ) ;
#73 = CARTESIAN_POINT ( 'NONE',  ( 0.000000000000000000, 0.000000000000000000, 0.000000000000000000 ) ) ;
#74 = PLANE ( 'NONE',  #19 ) ;
#75 = ADVANCED_FACE ( 'NONE', ( #84 ), #74, .F. ) ;
#76 = CARTESIAN_POINT ( 'NONE',  ( 0.000000000000000000, 0.000000000000000000, 0.000000000000000000 ) ) ;
#77 = CIRCLE ( 'NONE', #112, 2.500000000000000000 ) ;
#78 = CARTESIAN_POINT ( 'NONE',  ( 0.000000000000000000, 0.000000000000000000, 13.50000000000000000 ) ) ;
#79 = DIRECTION ( 'NONE',  ( 1.000000000000000000, 0.000000000000000000, 0.000000000000000000 ) ) ;
#80 = AXIS2_PLACEMENT_3D ( 'NONE', #43, #21, #2 ) ;
#81 = FILL_AREA_STYLE_COLOUR ( '', #123 ) ;
#82 = PLANE ( 'NONE',  #61 ) ;
#83 = DIRECTION ( 'NONE',  ( 1.000000000000000000, 0.000000000000000000, 0.000000000000000000 ) ) ;
#84 = FACE_OUTER_BOUND ( 'NONE', #67, .T. ) ;
#85 = VECTOR ( 'NONE', #94, 1000.000000000000000 ) ;
#86 = EDGE_LOOP ( 'NONE', ( #55, #54 ) ) ;
#87 = PRODUCT_DEFINITION_FORMATION_WITH_SPECIFIED_SOURCE ( 'ANY', '', #95, .NOT_KNOWN. ) ;
#88 = ORIENTED_EDGE ( 'NONE', *, *, #124, .F. ) ;
#89 = PRODUCT_DEFINITION_SHAPE ( 'NONE', 'NONE',  #96 ) ;
#90 = DIRECTION ( 'NONE',  ( 1.000000000000000000, 0.000000000000000000, -0.000000000000000000 ) ) ;
#91 = CARTESIAN_POINT ( 'NONE',  ( 2.500000000000000000, 3.061616997868383141E-16, 0.000000000000000000 ) ) ;
#92 = LINE ( 'NONE', #101, #85 ) ;
#93 = DIRECTION ( 'NONE',  ( 1.000000000000000000, 0.000000000000000000, -0.000000000000000000 ) ) ;
#94 = DIRECTION ( 'NONE',  ( -0.000000000000000000, -0.000000000000000000, -1.000000000000000000 ) ) ;
#95 = PRODUCT ( 'Bearing holder little x3', 'Bearing holder little x3', '', ( #34 ) ) ;
#96 = PRODUCT_DEFINITION ( 'UNKNOWN', '', #87, #111 ) ;
#97 = MECHANICAL_DESIGN_GEOMETRIC_PRESENTATION_REPRESENTATION (  '', ( #4 ), #14 ) ;
#98 = UNCERTAINTY_MEASURE_WITH_UNIT (LENGTH_MEASURE( 1.000000000000000082E-05 ), #57, 'distance_accuracy_value', 'NONE');
#99 = EDGE_CURVE ( 'NONE', #31, #122, #11, .T. ) ;
#100 = APPLICATION_CONTEXT ( 'automotive_design' ) ;
#101 = CARTESIAN_POINT ( 'NONE',  ( 2.500000000000000000, 3.061616997868383141E-16, 13.50000000000000000 ) ) ;
#102 = CARTESIAN_POINT ( 'NONE',  ( 0.000000000000000000, 0.000000000000000000, 13.50000000000000000 ) ) ;
#103 = APPLICATION_CONTEXT ( 'automotive_design' ) ;
#104 = VECTOR ( 'NONE', #115, 1000.000000000000000 ) ;
#105 = EDGE_LOOP ( 'NONE', ( #88, #120, #56, #16 ) ) ;
#106 = ADVANCED_FACE ( 'NONE', ( #51 ), #45, .T. ) ;
#107 =( NAMED_UNIT ( * ) SI_UNIT ( $, .STERADIAN. ) SOLID_ANGLE_UNIT ( ) );
#108 =( LENGTH_UNIT ( ) NAMED_UNIT ( * ) SI_UNIT ( .MILLI., .METRE. ) );
#109 = EDGE_CURVE ( 'NONE', #31, #47, #68, .T. ) ;
#110 = ORIENTED_EDGE ( 'NONE', *, *, #49, .T. ) ;
#111 = PRODUCT_DEFINITION_CONTEXT ( 'detailed design', #103, 'design' ) ;
#112 = AXIS2_PLACEMENT_3D ( 'NONE', #125, #39, #79 ) ;
#113 = SURFACE_STYLE_FILL_AREA ( #48 ) ;
#114 = ADVANCED_BREP_SHAPE_REPRESENTATION ( 'Bearing holder little x3', ( #8, #36 ), #7 ) ;
#115 = DIRECTION ( 'NONE',  ( -0.000000000000000000, -0.000000000000000000, -1.000000000000000000 ) ) ;
#116 = CARTESIAN_POINT ( 'NONE',  ( -2.500000000000000000, 0.000000000000000000, 13.50000000000000000 ) ) ;
#117 = DIRECTION ( 'NONE',  ( 0.000000000000000000, 0.000000000000000000, 1.000000000000000000 ) ) ;
#118 = CLOSED_SHELL ( 'NONE', ( #106, #66, #12, #75 ) ) ;
#119 = CYLINDRICAL_SURFACE ( 'NONE', #80, 2.500000000000000000 ) ;
#120 = ORIENTED_EDGE ( 'NONE', *, *, #70, .T. ) ;
#121 = AXIS2_PLACEMENT_3D ( 'NONE', #102, #13, #24 ) ;
#122 = VERTEX_POINT ( 'NONE', #32 ) ;
#123 = COLOUR_RGB ( '',0.7921568627450980005, 0.8196078431372548767, 0.9333333333333333481 ) ;
#124 = EDGE_CURVE ( 'NONE', #47, #31, #17, .T. ) ;
#125 = CARTESIAN_POINT ( 'NONE',  ( 0.000000000000000000, 0.000000000000000000, 0.000000000000000000 ) ) ;
ENDSEC;
END-ISO-10303-21;
