ISO-10303-21;
HEADER;
FILE_DESCRIPTION (( 'STEP AP214' ),
    '1' );
FILE_NAME ('Camera mount.STEP',
    '2026-06-11T14:53:36',
    ( '' ),
    ( '' ),
    'SwSTEP 2.0',
    'SolidWorks 2025',
    '' );
FILE_SCHEMA (( 'AUTOMOTIVE_DESIGN' ));
ENDSEC;

DATA;
#1 = CARTESIAN_POINT ( 'NONE',  ( 10.25042303353499307, -7.416964299791431792, 50.00000000000000000 ) ) ;
#2 = AXIS2_PLACEMENT_3D ( 'NONE', #888, #254, #397 ) ;
#3 = AXIS2_PLACEMENT_3D ( 'NONE', #211, #137, #450 ) ;
#4 = ORIENTED_EDGE ( 'NONE', *, *, #75, .T. ) ;
#5 = LINE ( 'NONE', #572, #298 ) ;
#6 = ORIENTED_EDGE ( 'NONE', *, *, #440, .T. ) ;
#7 = CARTESIAN_POINT ( 'NONE',  ( -3.745424685559647383E-16, 6.899999999999999467, 25.00000000000000355 ) ) ;
#8 = FACE_OUTER_BOUND ( 'NONE', #318, .T. ) ;
#9 = ORIENTED_EDGE ( 'NONE', *, *, #943, .T. ) ;
#10 = VERTEX_POINT ( 'NONE', #1005 ) ;
#11 = CARTESIAN_POINT ( 'NONE',  ( 5.000000000000000888, 0.4999999999999994449, 25.00000000000000355 ) ) ;
#12 = FACE_OUTER_BOUND ( 'NONE', #979, .T. ) ;
#13 = VERTEX_POINT ( 'NONE', #279 ) ;
#14 = ORIENTED_EDGE ( 'NONE', *, *, #95, .T. ) ;
#15 = DIRECTION ( 'NONE',  ( 5.428151718202388360E-17, -1.000000000000000000, -0.000000000000000000 ) ) ;
#16 = LINE ( 'NONE', #922, #718 ) ;
#17 = LINE ( 'NONE', #937, #616 ) ;
#18 = CIRCLE ( 'NONE', #652, 5.000000000000000888 ) ;
#19 = VECTOR ( 'NONE', #666, 1000.000000000000227 ) ;
#20 = EDGE_LOOP ( 'NONE', ( #558, #289, #883, #801 ) ) ;
#21 = PLANE ( 'NONE',  #550 ) ;
#22 = PRESENTATION_STYLE_ASSIGNMENT (( #840 ) ) ;
#23 = EDGE_CURVE ( 'NONE', #430, #363, #288, .T. ) ;
#24 = CARTESIAN_POINT ( 'NONE',  ( -14.59458303373391352, -10.56029599728780966, 50.00000000000000000 ) ) ;
#25 = VERTEX_POINT ( 'NONE', #769 ) ;
#26 = LINE ( 'NONE', #590, #958 ) ;
#27 = DIRECTION ( 'NONE',  ( 1.000000000000000000, 0.000000000000000000, 0.000000000000000000 ) ) ;
#28 = EDGE_CURVE ( 'NONE', #1017, #1018, #17, .T. ) ;
#29 = DIRECTION ( 'NONE',  ( -0.9617957426347228944, -0.2737680577600717369, 0.000000000000000000 ) ) ;
#30 = ORIENTED_EDGE ( 'NONE', *, *, #23, .T. ) ;
#31 = FACE_OUTER_BOUND ( 'NONE', #895, .T. ) ;
#32 = CARTESIAN_POINT ( 'NONE',  ( -6.466323014923812451, 8.899999999999998579, 25.00000000000000711 ) ) ;
#33 = CARTESIAN_POINT ( 'NONE',  ( 20.00000000000000000, 8.900000000000002132, 50.00000000000000000 ) ) ;
#34 = PRODUCT_RELATED_PRODUCT_CATEGORY ( 'part', '', ( #301 ) ) ;
#35 = ADVANCED_FACE ( 'NONE', ( #274 ), #849, .F. ) ;
#36 = ORIENTED_EDGE ( 'NONE', *, *, #893, .T. ) ;
#37 = AXIS2_PLACEMENT_3D ( 'NONE', #132, #869, #366 ) ;
#38 = LINE ( 'NONE', #54, #429 ) ;
#39 = CARTESIAN_POINT ( 'NONE',  ( 6.466323014923808010, 14.59999999999999787, 25.00000000000000355 ) ) ;
#40 = LINE ( 'NONE', #519, #772 ) ;
#41 = EDGE_CURVE ( 'NONE', #724, #613, #18, .T. ) ;
#42 = EDGE_CURVE ( 'NONE', #952, #347, #1026, .T. ) ;
#43 = ORIENTED_EDGE ( 'NONE', *, *, #263, .F. ) ;
#44 = FACE_OUTER_BOUND ( 'NONE', #582, .T. ) ;
#45 = EDGE_CURVE ( 'NONE', #221, #675, #99, .T. ) ;
#46 = DIRECTION ( 'NONE',  ( 0.5862113414299793268, 0.8101581717040593489, -0.000000000000000000 ) ) ;
#47 = CARTESIAN_POINT ( 'NONE',  ( 3.233161507461901785, 8.899999999999998579, 30.60000000000000853 ) ) ;
#48 = ORIENTED_EDGE ( 'NONE', *, *, #698, .T. ) ;
#49 = DIRECTION ( 'NONE',  ( 0.5862113414299794378, 0.8101581717040595709, 0.000000000000000000 ) ) ;
#50 = CARTESIAN_POINT ( 'NONE',  ( 20.00000000000000000, 8.450000000000008171, 20.91274382929035980 ) ) ;
#51 = EDGE_CURVE ( 'NONE', #621, #356, #607, .T. ) ;
#52 = PLANE ( 'NONE',  #294 ) ;
#53 = EDGE_LOOP ( 'NONE', ( #319, #475, #126, #715 ) ) ;
#54 = CARTESIAN_POINT ( 'NONE',  ( -2.714075859101189250E-17, 0.4999999999999991673, 0.000000000000000000 ) ) ;
#55 = AXIS2_PLACEMENT_3D ( 'NONE', #713, #1020, #876 ) ;
#56 = CARTESIAN_POINT ( 'NONE',  ( -20.00000000000000000, 0.000000000000000000, 50.00000000000000000 ) ) ;
#57 = AXIS2_PLACEMENT_3D ( 'NONE', #782, #131, #628 ) ;
#58 = ADVANCED_FACE ( 'NONE', ( #104 ), #194, .T. ) ;
#59 = DIRECTION ( 'NONE',  ( -0.8101581717040593489, 0.5862113414299793268, 0.000000000000000000 ) ) ;
#60 = CARTESIAN_POINT ( 'NONE',  ( 15.79110149122305451, 0.5000000000000037748, 24.73655095716669194 ) ) ;
#61 = DIRECTION ( 'NONE',  ( 5.428151718202388360E-17, -1.000000000000000000, -0.000000000000000000 ) ) ;
#62 = CARTESIAN_POINT ( 'NONE',  ( 20.00000000000000000, 0.000000000000000000, 0.000000000000000000 ) ) ;
#63 = EDGE_CURVE ( 'NONE', #400, #13, #40, .T. ) ;
#64 = VERTEX_POINT ( 'NONE', #367 ) ;
#65 = CARTESIAN_POINT ( 'NONE',  ( 10.25042303353499307, -7.416964299791431792, 50.00000000000000000 ) ) ;
#66 = LINE ( 'NONE', #862, #264 ) ;
#67 = ORIENTED_EDGE ( 'NONE', *, *, #28, .F. ) ;
#68 = DIRECTION ( 'NONE',  ( -1.000000000000000000, 0.000000000000000000, 0.000000000000000000 ) ) ;
#69 = VECTOR ( 'NONE', #416, 1000.000000000000000 ) ;
#70 = CARTESIAN_POINT ( 'NONE',  ( -1.371971253604273633, -4.819978347840211619, 50.00000000000000000 ) ) ;
#71 = VECTOR ( 'NONE', #556, 1000.000000000000000 ) ;
#72 = VECTOR ( 'NONE', #670, 1000.000000000000114 ) ;
#73 = ORIENTED_EDGE ( 'NONE', *, *, #150, .T. ) ;
#74 = LINE ( 'NONE', #1051, #465 ) ;
#75 = EDGE_CURVE ( 'NONE', #745, #259, #434, .T. ) ;
#76 = FACE_OUTER_BOUND ( 'NONE', #470, .T. ) ;
#77 = CARTESIAN_POINT ( 'NONE',  ( -3.233161507461908446, 14.59999999999999787, 30.60000000000000853 ) ) ;
#78 = ORIENTED_EDGE ( 'NONE', *, *, #1054, .T. ) ;
#79 = ORIENTED_EDGE ( 'NONE', *, *, #152, .F. ) ;
#80 = CARTESIAN_POINT ( 'NONE',  ( 10.25042303353499307, -7.416964299791431792, 0.000000000000000000 ) ) ;
#81 = DIRECTION ( 'NONE',  ( 0.9617957426347228944, -0.2737680577600717369, 0.000000000000000000 ) ) ;
#82 = EDGE_CURVE ( 'NONE', #561, #209, #284, .T. ) ;
#83 = ORIENTED_EDGE ( 'NONE', *, *, #119, .F. ) ;
#84 = ORIENTED_EDGE ( 'NONE', *, *, #42, .T. ) ;
#85 = CARTESIAN_POINT ( 'NONE',  ( -3.233161507461908446, 14.59999999999999787, 30.60000000000000853 ) ) ;
#86 = CARTESIAN_POINT ( 'NONE',  ( 3.233161507461901341, 14.59999999999999787, 30.60000000000000853 ) ) ;
#87 = CIRCLE ( 'NONE', #806, 2.000000000000007550 ) ;
#88 = EDGE_CURVE ( 'NONE', #13, #25, #355, .T. ) ;
#89 = CIRCLE ( 'NONE', #136, 19.99999999999999645 ) ;
#90 = ORIENTED_EDGE ( 'NONE', *, *, #100, .F. ) ;
#91 = ORIENTED_EDGE ( 'NONE', *, *, #205, .T. ) ;
#92 = DIRECTION ( 'NONE',  ( -0.000000000000000000, -0.000000000000000000, -1.000000000000000000 ) ) ;
#93 = LINE ( 'NONE', #747, #445 ) ;
#94 = ORIENTED_EDGE ( 'NONE', *, *, #673, .F. ) ;
#95 = EDGE_CURVE ( 'NONE', #728, #1017, #389, .T. ) ;
#96 = ORIENTED_EDGE ( 'NONE', *, *, #599, .T. ) ;
#97 = CARTESIAN_POINT ( 'NONE',  ( 15.97895163983448263, 0.5000000000000004441, 24.23476014013490243 ) ) ;
#98 = DIRECTION ( 'NONE',  ( 5.428151718202388360E-17, -1.000000000000000000, -0.000000000000000000 ) ) ;
#99 = LINE ( 'NONE', #753, #154 ) ;
#100 = EDGE_CURVE ( 'NONE', #25, #207, #304, .T. ) ;
#101 = ORIENTED_EDGE ( 'NONE', *, *, #433, .T. ) ;
#102 = DIRECTION ( 'NONE',  ( 0.4999999999999998890, 0.000000000000000000, 0.8660254037844385966 ) ) ;
#103 = DIRECTION ( 'NONE',  ( -0.5862113414299794378, -0.8101581717040595709, -0.000000000000000000 ) ) ;
#104 = FACE_OUTER_BOUND ( 'NONE', #20, .T. ) ;
#105 = VECTOR ( 'NONE', #835, 1000.000000000000000 ) ;
#106 = AXIS2_PLACEMENT_3D ( 'NONE', #887, #638, #961 ) ;
#107 = VERTEX_POINT ( 'NONE', #383 ) ;
#108 = CARTESIAN_POINT ( 'NONE',  ( -1.371971253604273633, -4.819978347840211619, 50.00000000000000000 ) ) ;
#109 = CARTESIAN_POINT ( 'NONE',  ( 20.00000000000000355, -3.089879754562633085, 50.00000000000000000 ) ) ;
#110 = ORIENTED_EDGE ( 'NONE', *, *, #440, .F. ) ;
#111 = ORIENTED_EDGE ( 'NONE', *, *, #536, .F. ) ;
#112 = CARTESIAN_POINT ( 'NONE',  ( 15.97895163983447553, 0.5000000000000000000, 50.00000000000000000 ) ) ;
#113 = ORIENTED_EDGE ( 'NONE', *, *, #418, .T. ) ;
#114 = EDGE_LOOP ( 'NONE', ( #812, #84 ) ) ;
#115 = CARTESIAN_POINT ( 'NONE',  ( -9.823677365248451920, -8.006737076207333104, 50.00000000000000000 ) ) ;
#116 = CARTESIAN_POINT ( 'NONE',  ( 9.823677365248455473, -8.006737076207331327, 50.00000000000000000 ) ) ;
#117 = CARTESIAN_POINT ( 'NONE',  ( -2.714075859101189250E-17, 0.4999999999999991673, 25.00000000000000355 ) ) ;
#118 = EDGE_CURVE ( 'NONE', #107, #1018, #717, .T. ) ;
#119 = EDGE_CURVE ( 'NONE', #588, #527, #195, .T. ) ;
#120 = AXIS2_PLACEMENT_3D ( 'NONE', #1029, #1033, #300 ) ;
#121 = ORIENTED_EDGE ( 'NONE', *, *, #151, .F. ) ;
#122 =( GEOMETRIC_REPRESENTATION_CONTEXT ( 3 ) GLOBAL_UNCERTAINTY_ASSIGNED_CONTEXT ( ( #865 ) ) GLOBAL_UNIT_ASSIGNED_CONTEXT ( ( #343, #270, #349 ) ) REPRESENTATION_CONTEXT ( 'NONE', 'WORKASPACE' ) );
#123 = CARTESIAN_POINT ( 'NONE',  ( 1.371971253604273855, -4.819978347840212507, 50.00000000000000000 ) ) ;
#124 = CARTESIAN_POINT ( 'NONE',  ( 15.79110149122305096, 0.5000000000000004441, 25.00000000000000000 ) ) ;
#125 = CARTESIAN_POINT ( 'NONE',  ( -20.00000000000000000, 0.000000000000000000, 50.00000000000000000 ) ) ;
#126 = ORIENTED_EDGE ( 'NONE', *, *, #749, .F. ) ;
#127 = ADVANCED_FACE ( 'NONE', ( #212, #714 ), #699, .F. ) ;
#128 = LINE ( 'NONE', #222, #928 ) ;
#129 = CARTESIAN_POINT ( 'NONE',  ( -3.233161507461908446, 8.899999999999998579, 19.40000000000000924 ) ) ;
#130 = EDGE_LOOP ( 'NONE', ( #14, #750, #690, #828, #101 ) ) ;
#131 = DIRECTION ( 'NONE',  ( 1.301042606982605321E-16, -1.000000000000000000, 0.000000000000000000 ) ) ;
#132 = CARTESIAN_POINT ( 'NONE',  ( -1.492433457802043446E-15, 14.59999999999999787, 25.00000000000000355 ) ) ;
#133 = DIRECTION ( 'NONE',  ( -1.000000000000000000, 0.000000000000000000, 0.000000000000000000 ) ) ;
#134 = DIRECTION ( 'NONE',  ( 0.2737680577600717369, -0.9617957426347228944, 0.000000000000000000 ) ) ;
#135 = VECTOR ( 'NONE', #985, 999.9999999999998863 ) ;
#136 = AXIS2_PLACEMENT_3D ( 'NONE', #843, #1010, #1003 ) ;
#137 = DIRECTION ( 'NONE',  ( 0.8660254037844387076, 3.755786496842898811E-17, -0.5000000000000000000 ) ) ;
#138 = ADVANCED_FACE ( 'NONE', ( #549 ), #1036, .T. ) ;
#139 = AXIS2_PLACEMENT_3D ( 'NONE', #474, #880, #145 ) ;
#140 = DIRECTION ( 'NONE',  ( 0.5862113414299794378, 0.8101581717040594599, 0.000000000000000000 ) ) ;
#141 = DIRECTION ( 'NONE',  ( -0.000000000000000000, -0.000000000000000000, -1.000000000000000000 ) ) ;
#142 = ORIENTED_EDGE ( 'NONE', *, *, #280, .T. ) ;
#143 = CARTESIAN_POINT ( 'NONE',  ( -5.000000000000000888, 6.899999999999999467, 25.00000000000000355 ) ) ;
#144 = DIRECTION ( 'NONE',  ( -0.4999999999999999445, 0.000000000000000000, -0.8660254037844385966 ) ) ;
#145 = DIRECTION ( 'NONE',  ( 1.000000000000000000, 0.000000000000000000, 0.000000000000000000 ) ) ;
#146 = ORIENTED_EDGE ( 'NONE', *, *, #858, .F. ) ;
#147 = CARTESIAN_POINT ( 'NONE',  ( 20.00000000000000000, -1.852168613934148667, 26.66994449770803399 ) ) ;
#148 = LINE ( 'NONE', #317, #69 ) ;
#149 = ORIENTED_EDGE ( 'NONE', *, *, #88, .T. ) ;
#150 = EDGE_CURVE ( 'NONE', #660, #732, #1043, .T. ) ;
#151 = EDGE_CURVE ( 'NONE', #10, #668, #542, .T. ) ;
#152 = EDGE_CURVE ( 'NONE', #64, #938, #66, .T. ) ;
#153 = EDGE_LOOP ( 'NONE', ( #94, #142, #390, #781, #605, #48, #611, #805, #79, #203 ) ) ;
#154 = VECTOR ( 'NONE', #1001, 1000.000000000000000 ) ;
#155 = CARTESIAN_POINT ( 'NONE',  ( -1.245235362475348238E-15, 8.899999999999998579, 25.00000000000000355 ) ) ;
#156 = AXIS2_PLACEMENT_3D ( 'NONE', #844, #761, #831 ) ;
#157 = CARTESIAN_POINT ( 'NONE',  ( -15.31191653976153155, -9.568923840741407005, 0.000000000000000000 ) ) ;
#158 = VECTOR ( 'NONE', #218, 1000.000000000000000 ) ;
#159 = AXIS2_PLACEMENT_3D ( 'NONE', #459, #442, #771 ) ;
#160 = ORIENTED_EDGE ( 'NONE', *, *, #1022, .T. ) ;
#161 =( BOUNDED_CURVE ( )  B_SPLINE_CURVE ( 3, ( #950, #528, #60, #792 ),
 .UNSPECIFIED., .F., .F. ) 
 B_SPLINE_CURVE_WITH_KNOTS ( ( 4, 4 ),
 ( 2.748962305450370014, 3.141592653589793116 ),
 .UNSPECIFIED. ) 
 CURVE ( )  GEOMETRIC_REPRESENTATION_ITEM ( )  RATIONAL_B_SPLINE_CURVE ( ( 1.000000000000000000, 0.9871946563000980612, 0.9871946563000980612, 1.000000000000000000 ) ) 
 REPRESENTATION_ITEM ( '' )  );
#162 = ORIENTED_EDGE ( 'NONE', *, *, #538, .F. ) ;
#163 = DIRECTION ( 'NONE',  ( -0.000000000000000000, 0.000000000000000000, 1.000000000000000000 ) ) ;
#164 = CARTESIAN_POINT ( 'NONE',  ( 9.823677365248455473, -8.006737076207331327, 50.00000000000000000 ) ) ;
#165 = ORIENTED_EDGE ( 'NONE', *, *, #75, .F. ) ;
#166 = CARTESIAN_POINT ( 'NONE',  ( 20.00000000000000000, 8.900000000000002132, 0.000000000000000000 ) ) ;
#167 = ORIENTED_EDGE ( 'NONE', *, *, #1037, .F. ) ;
#168 = CARTESIAN_POINT ( 'NONE',  ( -20.00000000000000000, -3.089879754562637526, 50.00000000000000000 ) ) ;
#169 = ADVANCED_FACE ( 'NONE', ( #534 ), #857, .T. ) ;
#170 = FACE_OUTER_BOUND ( 'NONE', #998, .T. ) ;
#171 = ORIENTED_EDGE ( 'NONE', *, *, #538, .T. ) ;
#172 = ORIENTED_EDGE ( 'NONE', *, *, #907, .T. ) ;
#173 = DIRECTION ( 'NONE',  ( -0.4999999999999998890, 0.000000000000000000, 0.8660254037844385966 ) ) ;
#174 = EDGE_CURVE ( 'NONE', #1014, #448, #780, .T. ) ;
#175 = CARTESIAN_POINT ( 'NONE',  ( 3.089999999999999414, 6.899999999999999467, 25.00000000000000355 ) ) ;
#176 = AXIS2_PLACEMENT_3D ( 'NONE', #202, #346, #923 ) ;
#177 = VECTOR ( 'NONE', #548, 1000.000000000000000 ) ;
#178 = EDGE_CURVE ( 'NONE', #435, #356, #794, .T. ) ;
#179 = ORIENTED_EDGE ( 'NONE', *, *, #322, .F. ) ;
#180 = ORIENTED_EDGE ( 'NONE', *, *, #629, .F. ) ;
#181 = DIRECTION ( 'NONE',  ( -0.9617957426347228944, -0.2737680577600717369, 0.000000000000000000 ) ) ;
#182 = DIRECTION ( 'NONE',  ( 4.336808689942017736E-17, -1.000000000000000000, -0.000000000000000000 ) ) ;
#183 = ORIENTED_EDGE ( 'NONE', *, *, #726, .T. ) ;
#184 = ADVANCED_FACE ( 'NONE', ( #784 ), #52, .F. ) ;
#185 = ORIENTED_EDGE ( 'NONE', *, *, #795, .F. ) ;
#186 = CARTESIAN_POINT ( 'NONE',  ( -3.745424685559647383E-16, 6.899999999999999467, 25.00000000000000355 ) ) ;
#187 = CARTESIAN_POINT ( 'NONE',  ( 17.74067833426035534, -0.2173767539578770613, 25.00000000000000000 ) ) ;
#188 = CARTESIAN_POINT ( 'NONE',  ( 9.823677365248455473, -8.006737076207331327, 50.00000000000000000 ) ) ;
#189 = EDGE_CURVE ( 'NONE', #347, #952, #325, .T. ) ;
#190 = ORIENTED_EDGE ( 'NONE', *, *, #692, .T. ) ;
#191 = ADVANCED_FACE ( 'NONE', ( #627, #624 ), #546, .T. ) ;
#192 = DIRECTION ( 'NONE',  ( -0.8101581717040594599, 0.5862113414299794378, 0.000000000000000000 ) ) ;
#193 = DIRECTION ( 'NONE',  ( 1.000000000000000000, 0.000000000000000000, 0.000000000000000000 ) ) ;
#194 = PLANE ( 'NONE',  #247 ) ;
#195 = CIRCLE ( 'NONE', #392, 19.99999999999999645 ) ;
#196 = VECTOR ( 'NONE', #881, 1000.000000000000114 ) ;
#197 = CIRCLE ( 'NONE', #620, 3.250506643609669233 ) ;
#198 = EDGE_LOOP ( 'NONE', ( #807, #827, #664, #495 ) ) ;
#199 = CARTESIAN_POINT ( 'NONE',  ( -2.190507274358946432, -27.76275459189590222, 25.00000000000000000 ) ) ;
#200 = ADVANCED_FACE ( 'NONE', ( #946, #462 ), #380, .F. ) ;
#201 = DIRECTION ( 'NONE',  ( -0.000000000000000000, -0.000000000000000000, -1.000000000000000000 ) ) ;
#202 = CARTESIAN_POINT ( 'NONE',  ( -4.831055029200124192E-16, 8.899999999999998579, 25.00000000000000355 ) ) ;
#203 = ORIENTED_EDGE ( 'NONE', *, *, #821, .F. ) ;
#204 = DIRECTION ( 'NONE',  ( 0.4999999999999998890, 0.000000000000000000, 0.8660254037844385966 ) ) ;
#205 = EDGE_CURVE ( 'NONE', #613, #724, #535, .T. ) ;
#206 = EDGE_CURVE ( 'NONE', #588, #209, #148, .T. ) ;
#207 = VERTEX_POINT ( 'NONE', #727 ) ;
#208 = ADVANCED_FACE ( 'NONE', ( #8 ), #662, .T. ) ;
#209 = VERTEX_POINT ( 'NONE', #333 ) ;
#210 = FACE_OUTER_BOUND ( 'NONE', #695, .T. ) ;
#211 = CARTESIAN_POINT ( 'NONE',  ( -6.466323014923812451, 14.59999999999999787, 25.00000000000000711 ) ) ;
#212 = FACE_BOUND ( 'NONE', #543, .T. ) ;
#213 = EDGE_CURVE ( 'NONE', #260, #246, #463, .T. ) ;
#214 = ORIENTED_EDGE ( 'NONE', *, *, #1039, .F. ) ;
#215 = AXIS2_PLACEMENT_3D ( 'NONE', #7, #236, #1047 ) ;
#216 = PLANE ( 'NONE',  #686 ) ;
#217 = VECTOR ( 'NONE', #102, 1000.000000000000227 ) ;
#218 = DIRECTION ( 'NONE',  ( 4.336808689942017736E-17, -1.000000000000000000, -0.000000000000000000 ) ) ;
#219 = CARTESIAN_POINT ( 'NONE',  ( -3.233161507461908446, 14.59999999999999787, 30.60000000000000853 ) ) ;
#220 = EDGE_CURVE ( 'NONE', #259, #508, #243, .T. ) ;
#221 = VERTEX_POINT ( 'NONE', #249 ) ;
#222 = CARTESIAN_POINT ( 'NONE',  ( 3.089999999999998970, 15.49999999999996980, 25.00000000000000355 ) ) ;
#223 = CARTESIAN_POINT ( 'NONE',  ( 20.00000000000000000, 8.450000000000009948, 25.00000000000000000 ) ) ;
#224 = DIRECTION ( 'NONE',  ( 0.5862113414299793268, 0.8101581717040593489, 0.000000000000000000 ) ) ;
#225 = CARTESIAN_POINT ( 'NONE',  ( 15.97895163983447553, 0.5000000000000000000, 50.00000000000000000 ) ) ;
#226 = EDGE_CURVE ( 'NONE', #430, #1056, #736, .T. ) ;
#227 = FACE_OUTER_BOUND ( 'NONE', #1045, .T. ) ;
#228 = DIRECTION ( 'NONE',  ( -1.000000000000000000, 0.000000000000000000, 0.000000000000000000 ) ) ;
#229 = DIRECTION ( 'NONE',  ( 5.428151718202388360E-17, -1.000000000000000000, -0.000000000000000000 ) ) ;
#230 = VECTOR ( 'NONE', #902, 1000.000000000000000 ) ;
#231 = ORIENTED_EDGE ( 'NONE', *, *, #364, .F. ) ;
#232 = DIRECTION ( 'NONE',  ( 0.000000000000000000, 1.000000000000000000, -0.000000000000000000 ) ) ;
#233 = ADVANCED_FACE ( 'NONE', ( #826 ), #339, .T. ) ;
#234 = DIRECTION ( 'NONE',  ( -5.428151718202388360E-17, 1.000000000000000000, 0.000000000000000000 ) ) ;
#235 = EDGE_LOOP ( 'NONE', ( #983, #96 ) ) ;
#236 = DIRECTION ( 'NONE',  ( 5.428151718202388360E-17, -1.000000000000000000, -0.000000000000000000 ) ) ;
#237 = ADVANCED_FACE ( 'NONE', ( #12 ), #580, .F. ) ;
#238 = LINE ( 'NONE', #576, #230 ) ;
#239 = EDGE_CURVE ( 'NONE', #513, #435, #238, .T. ) ;
#240 = ORIENTED_EDGE ( 'NONE', *, *, #790, .F. ) ;
#241 = ORIENTED_EDGE ( 'NONE', *, *, #45, .T. ) ;
#242 = CARTESIAN_POINT ( 'NONE',  ( -10.25042303353498596, -7.416964299791434456, 50.00000000000000000 ) ) ;
#243 = LINE ( 'NONE', #477, #135 ) ;
#244 = VERTEX_POINT ( 'NONE', #560 ) ;
#245 = DIRECTION ( 'NONE',  ( -0.5862113414299796599, 0.8101581717040591268, 0.000000000000000000 ) ) ;
#246 = VERTEX_POINT ( 'NONE', #175 ) ;
#247 = AXIS2_PLACEMENT_3D ( 'NONE', #24, #775, #351 ) ;
#248 = DIRECTION ( 'NONE',  ( 1.000000000000000000, 0.000000000000000000, 0.000000000000000000 ) ) ;
#249 = CARTESIAN_POINT ( 'NONE',  ( -15.97895163983447553, 0.4999999999999982792, 50.00000000000000000 ) ) ;
#250 = ORIENTED_EDGE ( 'NONE', *, *, #41, .F. ) ;
#251 = DIRECTION ( 'NONE',  ( -0.8101581717040593489, 0.5862113414299792158, 0.000000000000000000 ) ) ;
#252 = EDGE_LOOP ( 'NONE', ( #776, #359, #903 ) ) ;
#253 = PLANE ( 'NONE',  #361 ) ;
#254 = DIRECTION ( 'NONE',  ( -5.428151718202388360E-17, 1.000000000000000000, -0.000000000000000000 ) ) ;
#255 = ORIENTED_EDGE ( 'NONE', *, *, #726, .F. ) ;
#256 = EDGE_LOOP ( 'NONE', ( #478, #313, #748, #491 ) ) ;
#257 = CARTESIAN_POINT ( 'NONE',  ( -3.687526996186879735, -26.67954643584652885, 25.76523985986510112 ) ) ;
#258 = DIRECTION ( 'NONE',  ( -1.000000000000000000, 0.000000000000000000, -0.000000000000000000 ) ) ;
#259 = VERTEX_POINT ( 'NONE', #157 ) ;
#260 = VERTEX_POINT ( 'NONE', #962 ) ;
#261 = DIRECTION ( 'NONE',  ( 0.5862113414299795489, 0.8101581717040592379, 0.000000000000000000 ) ) ;
#262 = CARTESIAN_POINT ( 'NONE',  ( -15.31191653976153155, -9.568923840741407005, 50.00000000000000000 ) ) ;
#263 = EDGE_CURVE ( 'NONE', #400, #1014, #570, .T. ) ;
#264 = VECTOR ( 'NONE', #312, 999.9999999999998863 ) ;
#265 = AXIS2_PLACEMENT_3D ( 'NONE', #900, #476, #248 ) ;
#266 = ORIENTED_EDGE ( 'NONE', *, *, #901, .T. ) ;
#267 = VERTEX_POINT ( 'NONE', #483 ) ;
#268 = CARTESIAN_POINT ( 'NONE',  ( 1.371971253604273855, -4.819978347840212507, 50.00000000000000000 ) ) ;
#269 =( BOUNDED_CURVE ( )  B_SPLINE_CURVE ( 3, ( #124, #793, #935, #797 ),
 .UNSPECIFIED., .F., .T. ) 
 B_SPLINE_CURVE_WITH_KNOTS ( ( 4, 4 ),
 ( 3.141592653589793116, 3.534223001729216218 ),
 .UNSPECIFIED. ) 
 CURVE ( )  GEOMETRIC_REPRESENTATION_ITEM ( )  RATIONAL_B_SPLINE_CURVE ( ( 1.000000000000000000, 0.9871946563000980612, 0.9871946563000980612, 1.000000000000000000 ) ) 
 REPRESENTATION_ITEM ( '' )  );
#270 =( NAMED_UNIT ( * ) PLANE_ANGLE_UNIT ( ) SI_UNIT ( $, .RADIAN. ) );
#271 = ORIENTED_EDGE ( 'NONE', *, *, #362, .T. ) ;
#272 = ORIENTED_EDGE ( 'NONE', *, *, #997, .T. ) ;
#273 = FACE_OUTER_BOUND ( 'NONE', #1052, .T. ) ;
#274 = FACE_OUTER_BOUND ( 'NONE', #252, .T. ) ;
#275 = ADVANCED_FACE ( 'NONE', ( #170 ), #809, .F. ) ;
#276 = ORIENTED_EDGE ( 'NONE', *, *, #688, .F. ) ;
#277 = FACE_OUTER_BOUND ( 'NONE', #663, .T. ) ;
#278 = LINE ( 'NONE', #913, #377 ) ;
#279 = CARTESIAN_POINT ( 'NONE',  ( 6.466323014923808010, 14.59999999999999787, 25.00000000000000355 ) ) ;
#280 = EDGE_CURVE ( 'NONE', #221, #891, #93, .T. ) ;
#281 = VERTEX_POINT ( 'NONE', #557 ) ;
#282 = CARTESIAN_POINT ( 'NONE',  ( 20.00000000000000355, -3.089879754562633085, 0.000000000000000000 ) ) ;
#283 = CARTESIAN_POINT ( 'NONE',  ( 9.823677365248455473, -8.006737076207331327, 24.23476014013491309 ) ) ;
#284 = LINE ( 'NONE', #33, #1007 ) ;
#285 = FACE_OUTER_BOUND ( 'NONE', #863, .T. ) ;
#286 = CARTESIAN_POINT ( 'NONE',  ( -9.823677365248451920, -8.006737076207333104, 50.00000000000000000 ) ) ;
#287 = ADVANCED_FACE ( 'NONE', ( #882 ), #803, .F. ) ;
#288 = LINE ( 'NONE', #188, #515 ) ;
#289 = ORIENTED_EDGE ( 'NONE', *, *, #370, .F. ) ;
#290 = DIRECTION ( 'NONE',  ( 1.301042606982605321E-16, -1.000000000000000000, 0.000000000000000000 ) ) ;
#291 = DIRECTION ( 'NONE',  ( 5.428151718202388360E-17, -1.000000000000000000, -0.000000000000000000 ) ) ;
#292 = EDGE_CURVE ( 'NONE', #403, #281, #971, .T. ) ;
#293 = DIRECTION ( 'NONE',  ( -0.000000000000000000, -0.000000000000000000, -1.000000000000000000 ) ) ;
#294 = AXIS2_PLACEMENT_3D ( 'NONE', #375, #705, #224 ) ;
#295 = CIRCLE ( 'NONE', #603, 3.089999999999999858 ) ;
#296 = ORIENTED_EDGE ( 'NONE', *, *, #452, .F. ) ;
#297 = DIRECTION ( 'NONE',  ( 4.336808689942017736E-17, -1.000000000000000000, -0.000000000000000000 ) ) ;
#298 = VECTOR ( 'NONE', #141, 1000.000000000000000 ) ;
#299 = LINE ( 'NONE', #945, #177 ) ;
#300 = DIRECTION ( 'NONE',  ( 1.000000000000000000, 0.000000000000000000, 0.000000000000000000 ) ) ;
#301 = PRODUCT ( 'Camera mount', 'Camera mount', '', ( #959 ) ) ;
#302 = DIRECTION ( 'NONE',  ( -0.8101581717040594599, 0.5862113414299794378, 0.000000000000000000 ) ) ;
#303 = LINE ( 'NONE', #56, #720 ) ;
#304 = LINE ( 'NONE', #305, #360 ) ;
#305 = CARTESIAN_POINT ( 'NONE',  ( 3.233161507461904893, 14.59999999999999787, 19.40000000000000924 ) ) ;
#306 = LINE ( 'NONE', #811, #892 ) ;
#307 = AXIS2_PLACEMENT_3D ( 'NONE', #77, #820, #258 ) ;
#308 = CIRCLE ( 'NONE', #634, 19.99999999999999645 ) ;
#309 = PLANE ( 'NONE',  #106 ) ;
#310 = AXIS2_PLACEMENT_3D ( 'NONE', #874, #1057, #251 ) ;
#311 = ADVANCED_FACE ( 'NONE', ( #814 ), #591, .F. ) ;
#312 = DIRECTION ( 'NONE',  ( -0.5862113414299799929, 0.8101581717040590158, 0.000000000000000000 ) ) ;
#313 = ORIENTED_EDGE ( 'NONE', *, *, #150, .F. ) ;
#314 = APPLICATION_PROTOCOL_DEFINITION ( 'draft international standard', 'automotive_design', 1998, #399 ) ;
#315 = ORIENTED_EDGE ( 'NONE', *, *, #536, .T. ) ;
#316 = FACE_OUTER_BOUND ( 'NONE', #153, .T. ) ;
#317 = CARTESIAN_POINT ( 'NONE',  ( 19.99999999999999645, 14.59999999999999787, 25.00000000000000355 ) ) ;
#318 = EDGE_LOOP ( 'NONE', ( #394, #83, #968, #824 ) ) ;
#319 = ORIENTED_EDGE ( 'NONE', *, *, #573, .T. ) ;
#320 = LINE ( 'NONE', #965, #464 ) ;
#321 = DIRECTION ( 'NONE',  ( 5.428151718202388360E-17, -1.000000000000000000, -0.000000000000000000 ) ) ;
#322 = EDGE_CURVE ( 'NONE', #660, #400, #996, .T. ) ;
#323 = EDGE_LOOP ( 'NONE', ( #589, #417, #539 ) ) ;
#324 = CARTESIAN_POINT ( 'NONE',  ( 13.76199591534043165, -9.127750377166202966, 22.17780692213709770 ) ) ;
#325 = CIRCLE ( 'NONE', #120, 3.089999999999999858 ) ;
#326 = CARTESIAN_POINT ( 'NONE',  ( 15.10725381476164308, 1.688107105919607109, 25.00000000000000000 ) ) ;
#327 = AXIS2_PLACEMENT_3D ( 'NONE', #575, #487, #68 ) ;
#328 = DIRECTION ( 'NONE',  ( 0.8101581717040594599, -0.5862113414299794378, 0.000000000000000000 ) ) ;
#329 = VECTOR ( 'NONE', #622, 1000.000000000000114 ) ;
#330 = ORIENTED_EDGE ( 'NONE', *, *, #41, .T. ) ;
#331 = EDGE_LOOP ( 'NONE', ( #231, #531, #681, #73 ) ) ;
#332 = DIRECTION ( 'NONE',  ( -0.000000000000000000, -0.000000000000000000, -1.000000000000000000 ) ) ;
#333 = CARTESIAN_POINT ( 'NONE',  ( 20.00000000000000000, 8.899999999999998579, 25.00000000000000355 ) ) ;
#334 = ORIENTED_EDGE ( 'NONE', *, *, #178, .T. ) ;
#335 = EDGE_CURVE ( 'NONE', #403, #817, #16, .T. ) ;
#336 = ORIENTED_EDGE ( 'NONE', *, *, #689, .F. ) ;
#337 = FACE_BOUND ( 'NONE', #114, .T. ) ;
#338 =( BOUNDED_CURVE ( )  B_SPLINE_CURVE ( 3, ( #223, #50, #374, #1028 ),
 .UNSPECIFIED., .F., .F. ) 
 B_SPLINE_CURVE_WITH_KNOTS ( ( 4, 4 ),
 ( 0.000000000000000000, 2.602043799346165365 ),
 .UNSPECIFIED. ) 
 CURVE ( )  GEOMETRIC_REPRESENTATION_ITEM ( )  RATIONAL_B_SPLINE_CURVE ( ( 1.000000000000000000, 0.5110093528864034784, 0.5110093528864034784, 1.000000000000000000 ) ) 
 REPRESENTATION_ITEM ( '' )  );
#339 = PLANE ( 'NONE',  #307 ) ;
#340 = ORIENTED_EDGE ( 'NONE', *, *, #494, .F. ) ;
#341 = ORIENTED_EDGE ( 'NONE', *, *, #760, .T. ) ;
#342 = DIRECTION ( 'NONE',  ( 1.000000000000000000, 0.000000000000000000, 0.000000000000000000 ) ) ;
#343 =( LENGTH_UNIT ( ) NAMED_UNIT ( * ) SI_UNIT ( .MILLI., .METRE. ) );
#344 = VECTOR ( 'NONE', #144, 1000.000000000000114 ) ;
#345 = PRESENTATION_LAYER_ASSIGNMENT (  '', '', ( #838 ) ) ;
#346 = DIRECTION ( 'NONE',  ( 1.301042606982605321E-16, -1.000000000000000000, 0.000000000000000000 ) ) ;
#347 = VERTEX_POINT ( 'NONE', #834 ) ;
#348 = FACE_OUTER_BOUND ( 'NONE', #419, .T. ) ;
#349 =( NAMED_UNIT ( * ) SI_UNIT ( $, .STERADIAN. ) SOLID_ANGLE_UNIT ( ) );
#350 = EDGE_CURVE ( 'NONE', #281, #960, #764, .T. ) ;
#351 = DIRECTION ( 'NONE',  ( 0.5862113414299799929, -0.8101581717040590158, 0.000000000000000000 ) ) ;
#352 = EDGE_LOOP ( 'NONE', ( #404, #185, #785, #171 ) ) ;
#353 = LINE ( 'NONE', #934, #655 ) ;
#354 = DIRECTION ( 'NONE',  ( 1.000000000000000000, 0.000000000000000000, 0.000000000000000000 ) ) ;
#355 = LINE ( 'NONE', #372, #344 ) ;
#356 = VERTEX_POINT ( 'NONE', #848 ) ;
#357 = FACE_OUTER_BOUND ( 'NONE', #578, .T. ) ;
#358 = CARTESIAN_POINT ( 'NONE',  ( -3.233161507461908446, 14.59999999999999787, 30.60000000000000853 ) ) ;
#359 = ORIENTED_EDGE ( 'NONE', *, *, #1048, .T. ) ;
#360 = VECTOR ( 'NONE', #956, 1000.000000000000000 ) ;
#361 = AXIS2_PLACEMENT_3D ( 'NONE', #661, #656, #173 ) ;
#362 = EDGE_CURVE ( 'NONE', #668, #428, #87, .T. ) ;
#363 = VERTEX_POINT ( 'NONE', #989 ) ;
#364 = EDGE_CURVE ( 'NONE', #356, #732, #443, .T. ) ;
#365 = CARTESIAN_POINT ( 'NONE',  ( -19.99999999999999645, 14.59999999999999787, 25.00000000000000711 ) ) ;
#366 = DIRECTION ( 'NONE',  ( -1.000000000000000000, -4.336808689942017736E-17, 0.000000000000000000 ) ) ;
#367 = CARTESIAN_POINT ( 'NONE',  ( -15.31191653976153155, -9.568923840741407005, 50.00000000000000000 ) ) ;
#368 = ORIENTED_EDGE ( 'NONE', *, *, #63, .T. ) ;
#369 = PLANE ( 'NONE',  #518 ) ;
#370 = EDGE_CURVE ( 'NONE', #64, #259, #426, .T. ) ;
#371 = FACE_OUTER_BOUND ( 'NONE', #525, .T. ) ;
#372 = CARTESIAN_POINT ( 'NONE',  ( 6.466323014923808010, 14.59999999999999787, 25.00000000000000355 ) ) ;
#373 = VERTEX_POINT ( 'NONE', #109 ) ;
#374 = CARTESIAN_POINT ( 'NONE',  ( 20.00000000000000000, 1.729856454196644355, 19.82343271833223852 ) ) ;
#375 = CARTESIAN_POINT ( 'NONE',  ( 10.25042303353499307, -7.416964299791431792, 50.00000000000000000 ) ) ;
#376 = AXIS2_PLACEMENT_3D ( 'NONE', #657, #1049, #500 ) ;
#377 = VECTOR ( 'NONE', #201, 1000.000000000000000 ) ;
#378 = CARTESIAN_POINT ( 'NONE',  ( 20.00000000000000000, -1.852168613934148667, 26.66994449770803399 ) ) ;
#379 = CARTESIAN_POINT ( 'NONE',  ( 17.74067833426035179, -0.2173767539578770613, 25.00000000000000000 ) ) ;
#380 = PLANE ( 'NONE',  #871 ) ;
#381 = CARTESIAN_POINT ( 'NONE',  ( 17.74067833426035179, -0.2173767539578770613, 25.00000000000000000 ) ) ;
#382 = FACE_OUTER_BOUND ( 'NONE', #352, .T. ) ;
#383 = CARTESIAN_POINT ( 'NONE',  ( -19.99999999999999645, 8.899999999999998579, 25.00000000000000355 ) ) ;
#384 = MANIFOLD_SOLID_BREP ( 'Boss.-Extru.2', #703 ) ;
#385 = ADVANCED_FACE ( 'NONE', ( #432 ), #596, .F. ) ;
#386 =( NAMED_UNIT ( * ) SI_UNIT ( $, .STERADIAN. ) SOLID_ANGLE_UNIT ( ) );
#387 = ORIENTED_EDGE ( 'NONE', *, *, #118, .F. ) ;
#388 = CARTESIAN_POINT ( 'NONE',  ( 16.12036199085223132, 0.9550459289020852838, 25.00000000000000000 ) ) ;
#389 = LINE ( 'NONE', #62, #564 ) ;
#390 = ORIENTED_EDGE ( 'NONE', *, *, #566, .T. ) ;
#391 = DIRECTION ( 'NONE',  ( 0.5862113414299793268, 0.8101581717040593489, -0.000000000000000000 ) ) ;
#392 = AXIS2_PLACEMENT_3D ( 'NONE', #617, #789, #133 ) ;
#393 = CIRCLE ( 'NONE', #327, 19.99999999999999645 ) ;
#394 = ORIENTED_EDGE ( 'NONE', *, *, #951, .F. ) ;
#395 = PLANE ( 'NONE',  #537 ) ;
#396 = PRODUCT_DEFINITION_FORMATION_WITH_SPECIFIED_SOURCE ( 'ANY', '', #301, .NOT_KNOWN. ) ;
#397 = DIRECTION ( 'NONE',  ( 1.000000000000000000, 0.000000000000000000, 0.000000000000000000 ) ) ;
#398 = ORIENTED_EDGE ( 'NONE', *, *, #877, .F. ) ;
#399 = APPLICATION_CONTEXT ( 'automotive_design' ) ;
#400 = VERTEX_POINT ( 'NONE', #516 ) ;
#401 = FACE_OUTER_BOUND ( 'NONE', #235, .T. ) ;
#402 = CARTESIAN_POINT ( 'NONE',  ( 0.000000000000000000, 0.000000000000000000, 0.000000000000000000 ) ) ;
#403 = VERTEX_POINT ( 'NONE', #283 ) ;
#404 = ORIENTED_EDGE ( 'NONE', *, *, #239, .F. ) ;
#405 = LINE ( 'NONE', #735, #1027 ) ;
#406 = DIRECTION ( 'NONE',  ( 0.5862113414299793268, 0.8101581717040593489, 0.000000000000000000 ) ) ;
#407 = EDGE_LOOP ( 'NONE', ( #146, #645, #674, #755, #837, #555 ) ) ;
#408 =( LENGTH_UNIT ( ) NAMED_UNIT ( * ) SI_UNIT ( .MILLI., .METRE. ) );
#409 = ORIENTED_EDGE ( 'NONE', *, *, #599, .F. ) ;
#410 = VECTOR ( 'NONE', #293, 1000.000000000000000 ) ;
#411 = CARTESIAN_POINT ( 'NONE',  ( -15.97895163983447553, 0.4999999999999982792, 0.000000000000000000 ) ) ;
#412 = AXIS2_PLACEMENT_3D ( 'NONE', #606, #425, #825 ) ;
#413 = DIRECTION ( 'NONE',  ( 4.336808689942017736E-17, -1.000000000000000000, -0.000000000000000000 ) ) ;
#414 = ORIENTED_EDGE ( 'NONE', *, *, #95, .F. ) ;
#415 = DIRECTION ( 'NONE',  ( 0.2737680577600717369, 0.9617957426347228944, -0.000000000000000000 ) ) ;
#416 = DIRECTION ( 'NONE',  ( 4.336808689942017736E-17, -1.000000000000000000, -0.000000000000000000 ) ) ;
#417 = ORIENTED_EDGE ( 'NONE', *, *, #914, .T. ) ;
#418 = EDGE_CURVE ( 'NONE', #246, #260, #295, .T. ) ;
#419 = EDGE_LOOP ( 'NONE', ( #30, #272, #744, #530, #925, #180, #640 ) ) ;
#420 = LINE ( 'NONE', #112, #1009 ) ;
#421 = ADVANCED_BREP_SHAPE_REPRESENTATION ( 'Camera mount', ( #384, #139 ), #856 ) ;
#422 = DIRECTION ( 'NONE',  ( 0.5862113414299794378, 0.8101581717040593489, -0.000000000000000000 ) ) ;
#423 = ORIENTED_EDGE ( 'NONE', *, *, #760, .F. ) ;
#424 = ORIENTED_EDGE ( 'NONE', *, *, #28, .T. ) ;
#425 = DIRECTION ( 'NONE',  ( 0.5862113414299794378, 0.8101581717040595709, 0.000000000000000000 ) ) ;
#426 = LINE ( 'NONE', #262, #855 ) ;
#427 = MECHANICAL_DESIGN_GEOMETRIC_PRESENTATION_REPRESENTATION (  '', ( #838 ), #122 ) ;
#428 = VERTEX_POINT ( 'NONE', #529 ) ;
#429 = VECTOR ( 'NONE', #707, 1000.000000000000000 ) ;
#430 = VERTEX_POINT ( 'NONE', #116 ) ;
#431 = LINE ( 'NONE', #763, #72 ) ;
#432 = FACE_OUTER_BOUND ( 'NONE', #198, .T. ) ;
#433 = EDGE_CURVE ( 'NONE', #373, #728, #278, .T. ) ;
#434 = LINE ( 'NONE', #765, #836 ) ;
#435 = VERTEX_POINT ( 'NONE', #602 ) ;
#436 = LINE ( 'NONE', #746, #1044 ) ;
#437 = CARTESIAN_POINT ( 'NONE',  ( -3.745424685559646890E-16, 6.899999999999999467, 25.00000000000000355 ) ) ;
#438 = EDGE_CURVE ( 'NONE', #13, #448, #773, .T. ) ;
#439 = ORIENTED_EDGE ( 'NONE', *, *, #119, .T. ) ;
#440 = EDGE_CURVE ( 'NONE', #931, #745, #507, .T. ) ;
#441 = EDGE_LOOP ( 'NONE', ( #999, #766, #453, #6 ) ) ;
#442 = DIRECTION ( 'NONE',  ( 0.8660254037844387076, 3.755786496842898811E-17, 0.4999999999999998890 ) ) ;
#443 = LINE ( 'NONE', #32, #19 ) ;
#444 = DIRECTION ( 'NONE',  ( 5.428151718202388360E-17, -1.000000000000000000, 0.000000000000000000 ) ) ;
#445 = VECTOR ( 'NONE', #493, 1000.000000000000000 ) ;
#446 = PRODUCT_DEFINITION ( 'UNKNOWN', '', #396, #708 ) ;
#447 = ADVANCED_FACE ( 'NONE', ( #227 ), #471, .F. ) ;
#448 = VERTEX_POINT ( 'NONE', #545 ) ;
#449 = CARTESIAN_POINT ( 'NONE',  ( 5.000000000000000888, 6.899999999999999467, 25.00000000000000355 ) ) ;
#450 = DIRECTION ( 'NONE',  ( -0.4999999999999999445, 0.000000000000000000, -0.8660254037844385966 ) ) ;
#451 = DIRECTION ( 'NONE',  ( 0.000000000000000000, 0.000000000000000000, 1.000000000000000000 ) ) ;
#452 = EDGE_CURVE ( 'NONE', #207, #621, #299, .T. ) ;
#453 = ORIENTED_EDGE ( 'NONE', *, *, #673, .T. ) ;
#454 = CARTESIAN_POINT ( 'NONE',  ( -20.00000000000000000, -3.089879754562637526, 50.00000000000000000 ) ) ;
#455 = EDGE_CURVE ( 'NONE', #10, #267, #269, .T. ) ;
#456 = CARTESIAN_POINT ( 'NONE',  ( 5.000000000000000888, 6.899999999999999467, 25.00000000000000355 ) ) ;
#457 = DIRECTION ( 'NONE',  ( -0.4999999999999999445, 0.000000000000000000, 0.8660254037844387076 ) ) ;
#458 = VERTEX_POINT ( 'NONE', #702 ) ;
#459 = CARTESIAN_POINT ( 'NONE',  ( -3.233161507461908890, 14.59999999999999787, 19.40000000000000924 ) ) ;
#460 = UNCERTAINTY_MEASURE_WITH_UNIT (LENGTH_MEASURE( 1.000000000000000082E-05 ), #408, 'distance_accuracy_value', 'NONE');
#461 = PLANE ( 'NONE',  #55 ) ;
#462 = FACE_OUTER_BOUND ( 'NONE', #130, .T. ) ;
#463 = CIRCLE ( 'NONE', #2, 3.089999999999999858 ) ;
#464 = VECTOR ( 'NONE', #579, 1000.000000000000000 ) ;
#465 = VECTOR ( 'NONE', #885, 1000.000000000000000 ) ;
#466 = PLANE ( 'NONE',  #57 ) ;
#467 = DIRECTION ( 'NONE',  ( -0.8101581717040594599, 0.5862113414299794378, 0.000000000000000000 ) ) ;
#468 = DIRECTION ( 'NONE',  ( 4.336808689942017736E-17, -1.000000000000000000, -0.000000000000000000 ) ) ;
#469 = CARTESIAN_POINT ( 'NONE',  ( 15.31191653976153511, -9.568923840741408782, 50.00000000000000000 ) ) ;
#470 = EDGE_LOOP ( 'NONE', ( #409, #315, #91, #974 ) ) ;
#471 = CYLINDRICAL_SURFACE ( 'NONE', #873, 3.250506643609669233 ) ;
#472 = DIRECTION ( 'NONE',  ( 0.5862113414299794378, 0.8101581717040593489, -0.000000000000000000 ) ) ;
#473 = EDGE_CURVE ( 'NONE', #986, #724, #866, .T. ) ;
#474 = CARTESIAN_POINT ( 'NONE',  ( 0.000000000000000000, 0.000000000000000000, 0.000000000000000000 ) ) ;
#475 = ORIENTED_EDGE ( 'NONE', *, *, #433, .F. ) ;
#476 = DIRECTION ( 'NONE',  ( 5.428151718202388360E-17, -1.000000000000000000, 0.000000000000000000 ) ) ;
#477 = CARTESIAN_POINT ( 'NONE',  ( -14.59458303373391352, -10.56029599728780966, 0.000000000000000000 ) ) ;
#478 = ORIENTED_EDGE ( 'NONE', *, *, #1030, .F. ) ;
#479 = VECTOR ( 'NONE', #472, 1000.000000000000114 ) ;
#480 = VECTOR ( 'NONE', #61, 1000.000000000000000 ) ;
#481 = VERTEX_POINT ( 'NONE', #709 ) ;
#482 = CYLINDRICAL_SURFACE ( 'NONE', #215, 5.000000000000000888 ) ;
#483 = CARTESIAN_POINT ( 'NONE',  ( 15.97895163983448263, 0.5000000000000004441, 25.76523985986510112 ) ) ;
#484 = ORIENTED_EDGE ( 'NONE', *, *, #51, .T. ) ;
#485 = DIRECTION ( 'NONE',  ( 0.8101581717040591268, 0.5862113414299796599, -0.000000000000000000 ) ) ;
#486 = ORIENTED_EDGE ( 'NONE', *, *, #821, .T. ) ;
#487 = DIRECTION ( 'NONE',  ( -4.336808689942017736E-17, 1.000000000000000000, 0.000000000000000000 ) ) ;
#488 = ADVANCED_FACE ( 'NONE', ( #371, #783 ), #1032, .T. ) ;
#489 = DIRECTION ( 'NONE',  ( -0.000000000000000000, -0.000000000000000000, -1.000000000000000000 ) ) ;
#490 = ORIENTED_EDGE ( 'NONE', *, *, #292, .F. ) ;
#491 = ORIENTED_EDGE ( 'NONE', *, *, #263, .T. ) ;
#492 = LINE ( 'NONE', #818, #71 ) ;
#493 = DIRECTION ( 'NONE',  ( 1.000000000000000000, 5.428151718202387744E-17, 0.000000000000000000 ) ) ;
#494 = EDGE_CURVE ( 'NONE', #561, #244, #631, .T. ) ;
#495 = ORIENTED_EDGE ( 'NONE', *, *, #213, .F. ) ;
#496 = ORIENTED_EDGE ( 'NONE', *, *, #858, .T. ) ;
#497 = AXIS2_PLACEMENT_3D ( 'NONE', #906, #321, #743 ) ;
#498 = LINE ( 'NONE', #65, #890 ) ;
#499 = VECTOR ( 'NONE', #742, 999.9999999999998863 ) ;
#500 = DIRECTION ( 'NONE',  ( 1.000000000000000000, 6.505213034913025371E-17, 0.000000000000000000 ) ) ;
#501 = VECTOR ( 'NONE', #297, 1000.000000000000000 ) ;
#502 = ADVANCED_FACE ( 'NONE', ( #854 ), #1016, .T. ) ;
#503 = ORIENTED_EDGE ( 'NONE', *, *, #418, .F. ) ;
#504 = ADVANCED_FACE ( 'NONE', ( #382 ), #461, .T. ) ;
#505 = ORIENTED_EDGE ( 'NONE', *, *, #118, .T. ) ;
#506 = CYLINDRICAL_SURFACE ( 'NONE', #823, 3.089999999999999858 ) ;
#507 = LINE ( 'NONE', #286, #973 ) ;
#508 = VERTEX_POINT ( 'NONE', #1035 ) ;
#509 = EDGE_LOOP ( 'NONE', ( #832, #43, #368, #571 ) ) ;
#510 = DIRECTION ( 'NONE',  ( 5.428151718202388360E-17, -1.000000000000000000, 0.000000000000000000 ) ) ;
#511 = DIRECTION ( 'NONE',  ( -0.000000000000000000, -0.000000000000000000, -1.000000000000000000 ) ) ;
#512 = CARTESIAN_POINT ( 'NONE',  ( -6.466323014923812451, 14.59999999999999787, 25.00000000000000711 ) ) ;
#513 = VERTEX_POINT ( 'NONE', #779 ) ;
#514 = DIRECTION ( 'NONE',  ( 4.336808689942017736E-17, -1.000000000000000000, -0.000000000000000000 ) ) ;
#515 = VECTOR ( 'NONE', #687, 1000.000000000000000 ) ;
#516 = CARTESIAN_POINT ( 'NONE',  ( 3.233161507461901341, 14.59999999999999787, 30.60000000000000853 ) ) ;
#517 = VECTOR ( 'NONE', #533, 1000.000000000000000 ) ;
#518 = AXIS2_PLACEMENT_3D ( 'NONE', #540, #290, #696 ) ;
#519 = CARTESIAN_POINT ( 'NONE',  ( 3.233161507461901341, 14.59999999999999787, 30.60000000000000853 ) ) ;
#520 = ORIENTED_EDGE ( 'NONE', *, *, #562, .F. ) ;
#521 = DIRECTION ( 'NONE',  ( -0.8660254037844387076, -3.755786496842898811E-17, 0.4999999999999999445 ) ) ;
#522 = ADVANCED_FACE ( 'NONE', ( #697 ), #787, .F. ) ;
#523 = FILL_AREA_STYLE_COLOUR ( '', #671 ) ;
#524 = EDGE_CURVE ( 'NONE', #938, #244, #303, .T. ) ;
#525 = EDGE_LOOP ( 'NONE', ( #439, #183 ) ) ;
#526 =( BOUNDED_CURVE ( )  B_SPLINE_CURVE ( 3, ( #378, #701, #544, #778 ),
 .UNSPECIFIED., .F., .T. ) 
 B_SPLINE_CURVE_WITH_KNOTS ( ( 4, 4 ),
 ( 3.681141507833420867, 6.283185307179586232 ),
 .UNSPECIFIED. ) 
 CURVE ( )  GEOMETRIC_REPRESENTATION_ITEM ( )  RATIONAL_B_SPLINE_CURVE ( ( 1.000000000000000000, 0.5110093528864034784, 0.5110093528864034784, 1.000000000000000000 ) ) 
 REPRESENTATION_ITEM ( '' )  );
#527 = VERTEX_POINT ( 'NONE', #626 ) ;
#528 = CARTESIAN_POINT ( 'NONE',  ( 15.85453043687647501, 0.5000000000000037748, 24.47816224764472537 ) ) ;
#529 = CARTESIAN_POINT ( 'NONE',  ( 19.36099467766847937, -1.389799436817839462, 25.00000000000000000 ) ) ;
#530 = ORIENTED_EDGE ( 'NONE', *, *, #292, .T. ) ;
#531 = ORIENTED_EDGE ( 'NONE', *, *, #51, .F. ) ;
#532 = CARTESIAN_POINT ( 'NONE',  ( -3.090000000000000746, 15.49999999999996980, 25.00000000000000355 ) ) ;
#533 = DIRECTION ( 'NONE',  ( -1.000000000000000000, -1.301042606982605321E-16, 0.000000000000000000 ) ) ;
#534 = FACE_OUTER_BOUND ( 'NONE', #1058, .T. ) ;
#535 = CIRCLE ( 'NONE', #376, 5.000000000000000888 ) ;
#536 = EDGE_CURVE ( 'NONE', #810, #613, #948, .T. ) ;
#537 = AXIS2_PLACEMENT_3D ( 'NONE', #802, #163, #1053 ) ;
#538 = EDGE_CURVE ( 'NONE', #207, #435, #615, .T. ) ;
#539 = ORIENTED_EDGE ( 'NONE', *, *, #562, .T. ) ;
#540 = CARTESIAN_POINT ( 'NONE',  ( -1.157927920214518538E-15, 8.899999999999998579, 50.00000000000000000 ) ) ;
#541 = CARTESIAN_POINT ( 'NONE',  ( 20.00000000000000000, 8.900000000000002132, 50.00000000000000000 ) ) ;
#542 = LINE ( 'NONE', #872, #479 ) ;
#543 = EDGE_LOOP ( 'NONE', ( #250, #770 ) ) ;
#544 = CARTESIAN_POINT ( 'NONE',  ( 20.00000000000000000, 8.450000000000008171, 29.08725617070964375 ) ) ;
#545 = CARTESIAN_POINT ( 'NONE',  ( 6.466323014923809787, 8.899999999999998579, 25.00000000000000355 ) ) ;
#546 = PLANE ( 'NONE',  #738 ) ;
#547 = LINE ( 'NONE', #365, #501 ) ;
#548 = DIRECTION ( 'NONE',  ( -0.4999999999999999445, 0.000000000000000000, 0.8660254037844387076 ) ) ;
#549 = FACE_OUTER_BOUND ( 'NONE', #911, .T. ) ;
#550 = AXIS2_PLACEMENT_3D ( 'NONE', #108, #415, #676 ) ;
#551 = CARTESIAN_POINT ( 'NONE',  ( -20.00000000000000000, 8.899999999999995026, 0.000000000000000000 ) ) ;
#552 = ORIENTED_EDGE ( 'NONE', *, *, #967, .T. ) ;
#553 = DIRECTION ( 'NONE',  ( -0.8101581717040594599, 0.5862113414299794378, 0.000000000000000000 ) ) ;
#554 = CARTESIAN_POINT ( 'NONE',  ( -1.492433457802043446E-15, 14.59999999999999787, 25.00000000000000355 ) ) ;
#555 = ORIENTED_EDGE ( 'NONE', *, *, #1022, .F. ) ;
#556 = DIRECTION ( 'NONE',  ( -0.000000000000000000, -0.000000000000000000, -1.000000000000000000 ) ) ;
#557 = CARTESIAN_POINT ( 'NONE',  ( 9.823677365248455473, -8.006737076207331327, 0.000000000000000000 ) ) ;
#558 = ORIENTED_EDGE ( 'NONE', *, *, #220, .F. ) ;
#559 = DIRECTION ( 'NONE',  ( -0.5862113414299794378, -0.8101581717040594599, 0.000000000000000000 ) ) ;
#560 = CARTESIAN_POINT ( 'NONE',  ( -20.00000000000000000, 8.899999999999995026, 50.00000000000000000 ) ) ;
#561 = VERTEX_POINT ( 'NONE', #541 ) ;
#562 = EDGE_CURVE ( 'NONE', #964, #719, #338, .T. ) ;
#563 = EDGE_CURVE ( 'NONE', #938, #508, #861, .T. ) ;
#564 = VECTOR ( 'NONE', #1023, 1000.000000000000000 ) ;
#565 = VECTOR ( 'NONE', #1059, 1000.000000000000114 ) ;
#566 = EDGE_CURVE ( 'NONE', #891, #430, #498, .T. ) ;
#567 = VECTOR ( 'NONE', #800, 1000.000000000000000 ) ;
#568 = ORIENTED_EDGE ( 'NONE', *, *, #1039, .T. ) ;
#569 = DIRECTION ( 'NONE',  ( -0.000000000000000000, -0.000000000000000000, -1.000000000000000000 ) ) ;
#570 = LINE ( 'NONE', #86, #804 ) ;
#571 = ORIENTED_EDGE ( 'NONE', *, *, #438, .T. ) ;
#572 = CARTESIAN_POINT ( 'NONE',  ( 15.97895163983447553, 0.5000000000000000000, 50.00000000000000000 ) ) ;
#573 = EDGE_CURVE ( 'NONE', #960, #728, #896, .T. ) ;
#574 = ORIENTED_EDGE ( 'NONE', *, *, #1048, .F. ) ;
#575 = CARTESIAN_POINT ( 'NONE',  ( -1.245235362475348238E-15, 8.899999999999998579, 25.00000000000000355 ) ) ;
#576 = CARTESIAN_POINT ( 'NONE',  ( 3.233161507461905337, 8.899999999999998579, 19.40000000000000924 ) ) ;
#577 = ORIENTED_EDGE ( 'NONE', *, *, #901, .F. ) ;
#578 = EDGE_LOOP ( 'NONE', ( #167, #496, #846, #121, #577, #899 ) ) ;
#579 = DIRECTION ( 'NONE',  ( 0.000000000000000000, 1.000000000000000000, -0.000000000000000000 ) ) ;
#580 = PLANE ( 'NONE',  #853 ) ;
#581 = VERTEX_POINT ( 'NONE', #147 ) ;
#582 = EDGE_LOOP ( 'NONE', ( #1046, #336, #340, #598 ) ) ;
#583 = VECTOR ( 'NONE', #489, 1000.000000000000000 ) ;
#584 = CARTESIAN_POINT ( 'NONE',  ( -1.157927920214518538E-15, 8.899999999999998579, 50.00000000000000000 ) ) ;
#585 = VECTOR ( 'NONE', #261, 1000.000000000000114 ) ;
#586 = DIRECTION ( 'NONE',  ( -5.428151718202388360E-17, 1.000000000000000000, -0.000000000000000000 ) ) ;
#587 = ADVANCED_FACE ( 'NONE', ( #970 ), #253, .T. ) ;
#588 = VERTEX_POINT ( 'NONE', #648 ) ;
#589 = ORIENTED_EDGE ( 'NONE', *, *, #893, .F. ) ;
#590 = CARTESIAN_POINT ( 'NONE',  ( -10.25042303353498596, -7.416964299791434456, 0.000000000000000000 ) ) ;
#591 = PLANE ( 'NONE',  #601 ) ;
#592 = ORIENTED_EDGE ( 'NONE', *, *, #688, .T. ) ;
#593 = EDGE_CURVE ( 'NONE', #107, #209, #393, .T. ) ;
#594 = ORIENTED_EDGE ( 'NONE', *, *, #452, .T. ) ;
#595 = CYLINDRICAL_SURFACE ( 'NONE', #739, 2.000000000000006217 ) ;
#596 = CYLINDRICAL_SURFACE ( 'NONE', #619, 3.089999999999999858 ) ;
#597 = EDGE_LOOP ( 'NONE', ( #490, #762, #1012, #592 ) ) ;
#598 = ORIENTED_EDGE ( 'NONE', *, *, #82, .T. ) ;
#599 = EDGE_CURVE ( 'NONE', #810, #986, #757, .T. ) ;
#600 = LINE ( 'NONE', #751, #585 ) ;
#601 = AXIS2_PLACEMENT_3D ( 'NONE', #684, #680, #918 ) ;
#602 = CARTESIAN_POINT ( 'NONE',  ( -3.233161507461908446, 8.899999999999998579, 19.40000000000000924 ) ) ;
#603 = AXIS2_PLACEMENT_3D ( 'NONE', #437, #586, #354 ) ;
#604 = ORIENTED_EDGE ( 'NONE', *, *, #884, .T. ) ;
#605 = ORIENTED_EDGE ( 'NONE', *, *, #749, .T. ) ;
#606 = CARTESIAN_POINT ( 'NONE',  ( 17.74067833426035179, -0.2173767539578770613, 25.00000000000000000 ) ) ;
#607 = LINE ( 'NONE', #512, #105 ) ;
#608 = ORIENTED_EDGE ( 'NONE', *, *, #943, .F. ) ;
#609 = CARTESIAN_POINT ( 'NONE',  ( 15.31191653976153511, -9.568923840741408782, 0.000000000000000000 ) ) ;
#610 = DIRECTION ( 'NONE',  ( -0.000000000000000000, -0.000000000000000000, -1.000000000000000000 ) ) ;
#611 = ORIENTED_EDGE ( 'NONE', *, *, #494, .T. ) ;
#612 = ADVANCED_FACE ( 'NONE', ( #316 ), #395, .T. ) ;
#613 = VERTEX_POINT ( 'NONE', #984 ) ;
#614 = CARTESIAN_POINT ( 'NONE',  ( 10.92890400423561381, -8.321331679746888810, 28.37268050783175610 ) ) ;
#615 = LINE ( 'NONE', #941, #158 ) ;
#616 = VECTOR ( 'NONE', #677, 1000.000000000000000 ) ;
#617 = CARTESIAN_POINT ( 'NONE',  ( -1.492433457802043446E-15, 14.59999999999999787, 25.00000000000000355 ) ) ;
#618 = VECTOR ( 'NONE', #1011, 1000.000000000000000 ) ;
#619 = AXIS2_PLACEMENT_3D ( 'NONE', #1004, #98, #27 ) ;
#620 = AXIS2_PLACEMENT_3D ( 'NONE', #381, #49, #302 ) ;
#621 = VERTEX_POINT ( 'NONE', #725 ) ;
#622 = DIRECTION ( 'NONE',  ( -0.4999999999999999445, 0.000000000000000000, -0.8660254037844385966 ) ) ;
#623 = CARTESIAN_POINT ( 'NONE',  ( -2.190507274358946432, -27.76275459189590222, 25.00000000000000000 ) ) ;
#624 = FACE_OUTER_BOUND ( 'NONE', #741, .T. ) ;
#625 = LINE ( 'NONE', #532, #976 ) ;
#626 = CARTESIAN_POINT ( 'NONE',  ( -19.99999999999999645, 14.59999999999999787, 25.00000000000000711 ) ) ;
#627 = FACE_BOUND ( 'NONE', #642, .T. ) ;
#628 = DIRECTION ( 'NONE',  ( 1.000000000000000000, 1.301042606982605321E-16, 0.000000000000000000 ) ) ;
#629 = EDGE_CURVE ( 'NONE', #1056, #960, #492, .T. ) ;
#630 = ORIENTED_EDGE ( 'NONE', *, *, #1030, .T. ) ;
#631 = LINE ( 'NONE', #693, #517 ) ;
#632 = APPLICATION_CONTEXT ( 'automotive_design' ) ;
#633 = DIRECTION ( 'NONE',  ( 1.000000000000000000, 0.000000000000000000, 0.000000000000000000 ) ) ;
#634 = AXIS2_PLACEMENT_3D ( 'NONE', #155, #808, #730 ) ;
#635 = VECTOR ( 'NONE', #1025, 1000.000000000000000 ) ;
#636 = APPLICATION_PROTOCOL_DEFINITION ( 'draft international standard', 'automotive_design', 1998, #632 ) ;
#637 = ORIENTED_EDGE ( 'NONE', *, *, #438, .F. ) ;
#638 = DIRECTION ( 'NONE',  ( 5.428151718202388360E-17, -1.000000000000000000, 0.000000000000000000 ) ) ;
#639 = DIRECTION ( 'NONE',  ( -1.000000000000000000, -5.428151718202388360E-17, 0.000000000000000000 ) ) ;
#640 = ORIENTED_EDGE ( 'NONE', *, *, #226, .F. ) ;
#641 = SHAPE_DEFINITION_REPRESENTATION ( #1013, #421 ) ;
#642 = EDGE_LOOP ( 'NONE', ( #271, #160 ) ) ;
#643 = LINE ( 'NONE', #257, #565 ) ;
#644 = DIRECTION ( 'NONE',  ( 0.000000000000000000, 0.000000000000000000, 1.000000000000000000 ) ) ;
#645 = ORIENTED_EDGE ( 'NONE', *, *, #997, .F. ) ;
#646 = CARTESIAN_POINT ( 'NONE',  ( -20.00000000000000000, 0.000000000000000000, 0.000000000000000000 ) ) ;
#647 = ORIENTED_EDGE ( 'NONE', *, *, #1054, .F. ) ;
#648 = CARTESIAN_POINT ( 'NONE',  ( 19.99999999999999645, 14.59999999999999787, 25.00000000000000355 ) ) ;
#649 = DIRECTION ( 'NONE',  ( 1.000000000000000000, 0.000000000000000000, 0.000000000000000000 ) ) ;
#650 = ORIENTED_EDGE ( 'NONE', *, *, #524, .T. ) ;
#651 = ADVANCED_FACE ( 'NONE', ( #76 ), #482, .F. ) ;
#652 = AXIS2_PLACEMENT_3D ( 'NONE', #117, #444, #930 ) ;
#653 = CARTESIAN_POINT ( 'NONE',  ( 10.92890400423561381, -8.321331679746888810, 21.62731949216824745 ) ) ;
#654 = VECTOR ( 'NONE', #569, 1000.000000000000000 ) ;
#655 = VECTOR ( 'NONE', #864, 1000.000000000000000 ) ;
#656 = DIRECTION ( 'NONE',  ( -0.8660254037844387076, -3.755786496842899427E-17, -0.4999999999999999445 ) ) ;
#657 = CARTESIAN_POINT ( 'NONE',  ( -2.714075859101189250E-17, 0.4999999999999991673, 25.00000000000000355 ) ) ;
#658 = VERTEX_POINT ( 'NONE', #326 ) ;
#659 = CARTESIAN_POINT ( 'NONE',  ( -10.25042303353498596, -7.416964299791434456, 50.00000000000000000 ) ) ;
#660 = VERTEX_POINT ( 'NONE', #85 ) ;
#661 = CARTESIAN_POINT ( 'NONE',  ( 3.233161507461901341, 14.59999999999999787, 30.60000000000000853 ) ) ;
#662 = CYLINDRICAL_SURFACE ( 'NONE', #972, 19.99999999999999645 ) ;
#663 = EDGE_LOOP ( 'NONE', ( #822, #963, #667, #334, #908, #630 ) ) ;
#664 = ORIENTED_EDGE ( 'NONE', *, *, #1006, .T. ) ;
#665 = PLANE ( 'NONE',  #685 ) ;
#666 = DIRECTION ( 'NONE',  ( 0.4999999999999998890, 0.000000000000000000, 0.8660254037844385966 ) ) ;
#667 = ORIENTED_EDGE ( 'NONE', *, *, #239, .T. ) ;
#668 = VERTEX_POINT ( 'NONE', #388 ) ;
#669 = VECTOR ( 'NONE', #193, 1000.000000000000000 ) ;
#670 = DIRECTION ( 'NONE',  ( 0.5862113414299794378, 0.8101581717040593489, -0.000000000000000000 ) ) ;
#671 = COLOUR_RGB ( '',0.7921568627450980005, 0.8196078431372548767, 0.9333333333333333481 ) ;
#672 = CIRCLE ( 'NONE', #791, 5.000000000000000888 ) ;
#673 = EDGE_CURVE ( 'NONE', #221, #931, #905, .T. ) ;
#674 = ORIENTED_EDGE ( 'NONE', *, *, #692, .F. ) ;
#675 = VERTEX_POINT ( 'NONE', #411 ) ;
#676 = DIRECTION ( 'NONE',  ( -0.9617957426347228944, 0.2737680577600717369, 0.000000000000000000 ) ) ;
#677 = DIRECTION ( 'NONE',  ( -1.000000000000000000, -1.301042606982605321E-16, 0.000000000000000000 ) ) ;
#678 = EDGE_LOOP ( 'NONE', ( #240, #266, #729, #647, #916, #241, #9 ) ) ;
#679 = CARTESIAN_POINT ( 'NONE',  ( 20.00000000000000000, -1.852168613934148667, 23.33005550229196601 ) ) ;
#680 = DIRECTION ( 'NONE',  ( -0.8101581717040593489, 0.5862113414299795489, 0.000000000000000000 ) ) ;
#681 = ORIENTED_EDGE ( 'NONE', *, *, #879, .T. ) ;
#682 = ORIENTED_EDGE ( 'NONE', *, *, #23, .F. ) ;
#683 = CARTESIAN_POINT ( 'NONE',  ( -9.823677365248451920, -8.006737076207333104, 0.000000000000000000 ) ) ;
#684 = CARTESIAN_POINT ( 'NONE',  ( 14.59458303373392241, -10.56029599728780433, 50.00000000000000000 ) ) ;
#685 = AXIS2_PLACEMENT_3D ( 'NONE', #584, #988, #995 ) ;
#686 = AXIS2_PLACEMENT_3D ( 'NONE', #123, #134, #712 ) ;
#687 = DIRECTION ( 'NONE',  ( -0.000000000000000000, -0.000000000000000000, -1.000000000000000000 ) ) ;
#688 = EDGE_CURVE ( 'NONE', #481, #281, #813, .T. ) ;
#689 = EDGE_CURVE ( 'NONE', #244, #107, #405, .T. ) ;
#690 = ORIENTED_EDGE ( 'NONE', *, *, #82, .F. ) ;
#691 = CARTESIAN_POINT ( 'NONE',  ( 20.00000000000000000, -1.852168613934148889, 50.00000000000000000 ) ) ;
#692 = EDGE_CURVE ( 'NONE', #267, #363, #643, .T. ) ;
#693 = CARTESIAN_POINT ( 'NONE',  ( -1.157927920214518538E-15, 8.899999999999998579, 50.00000000000000000 ) ) ;
#694 = ORIENTED_EDGE ( 'NONE', *, *, #563, .F. ) ;
#695 = EDGE_LOOP ( 'NONE', ( #165, #110, #486, #920 ) ) ;
#696 = DIRECTION ( 'NONE',  ( 1.000000000000000000, 1.301042606982605321E-16, 0.000000000000000000 ) ) ;
#697 = FACE_OUTER_BOUND ( 'NONE', #407, .T. ) ;
#698 = EDGE_CURVE ( 'NONE', #373, #561, #320, .T. ) ;
#699 = PLANE ( 'NONE',  #889 ) ;
#700 = EDGE_LOOP ( 'NONE', ( #987, #604, #424, #387 ) ) ;
#701 = CARTESIAN_POINT ( 'NONE',  ( 20.00000000000000000, 1.729856454196642135, 30.17656728166776503 ) ) ;
#702 = CARTESIAN_POINT ( 'NONE',  ( 13.76199591534043165, -9.127750377166201190, 25.00000000000000000 ) ) ;
#703 = CLOSED_SHELL ( 'NONE', ( #138, #651, #35, #723, #850, #990, #924, #385, #522, #184, #1021, #127, #237, #799, #311, #200, #819, #169, #58, #978, #612, #287, #447, #191, #704, #275, #488, #208, #777, #504, #936, #502, #233, #587 ) ) ;
#704 = ADVANCED_FACE ( 'NONE', ( #401, #716 ), #309, .T. ) ;
#705 = DIRECTION ( 'NONE',  ( 0.8101581717040594599, -0.5862113414299794378, 0.000000000000000000 ) ) ;
#706 = VECTOR ( 'NONE', #182, 1000.000000000000000 ) ;
#707 = DIRECTION ( 'NONE',  ( 1.000000000000000000, 5.428151718202387744E-17, 0.000000000000000000 ) ) ;
#708 = PRODUCT_DEFINITION_CONTEXT ( 'detailed design', #399, 'design' ) ;
#709 = CARTESIAN_POINT ( 'NONE',  ( 15.97895163983447553, 0.5000000000000000000, 0.000000000000000000 ) ) ;
#710 = DIRECTION ( 'NONE',  ( 0.4999999999999999445, 0.000000000000000000, -0.8660254037844387076 ) ) ;
#711 = EDGE_CURVE ( 'NONE', #209, #107, #308, .T. ) ;
#712 = DIRECTION ( 'NONE',  ( 0.9617957426347228944, 0.2737680577600717369, 0.000000000000000000 ) ) ;
#713 = CARTESIAN_POINT ( 'NONE',  ( 3.233161507461904893, 14.59999999999999787, 19.40000000000000924 ) ) ;
#714 = FACE_OUTER_BOUND ( 'NONE', #678, .T. ) ;
#715 = ORIENTED_EDGE ( 'NONE', *, *, #629, .T. ) ;
#716 = FACE_BOUND ( 'NONE', #734, .T. ) ;
#717 = LINE ( 'NONE', #798, #410 ) ;
#718 = VECTOR ( 'NONE', #422, 1000.000000000000114 ) ;
#719 = VERTEX_POINT ( 'NONE', #679 ) ;
#720 = VECTOR ( 'NONE', #232, 1000.000000000000000 ) ;
#721 = CIRCLE ( 'NONE', #310, 2.000000000000007550 ) ;
#722 =( NAMED_UNIT ( * ) PLANE_ANGLE_UNIT ( ) SI_UNIT ( $, .RADIAN. ) );
#723 = ADVANCED_FACE ( 'NONE', ( #357 ), #595, .F. ) ;
#724 = VERTEX_POINT ( 'NONE', #11 ) ;
#725 = CARTESIAN_POINT ( 'NONE',  ( -6.466323014923812451, 14.59999999999999787, 25.00000000000000711 ) ) ;
#726 = EDGE_CURVE ( 'NONE', #527, #588, #89, .T. ) ;
#727 = CARTESIAN_POINT ( 'NONE',  ( -3.233161507461908890, 14.59999999999999787, 19.40000000000000924 ) ) ;
#728 = VERTEX_POINT ( 'NONE', #282 ) ;
#729 = ORIENTED_EDGE ( 'NONE', *, *, #455, .T. ) ;
#730 = DIRECTION ( 'NONE',  ( -1.000000000000000000, 0.000000000000000000, 0.000000000000000000 ) ) ;
#731 = DIRECTION ( 'NONE',  ( -0.000000000000000000, 0.000000000000000000, 1.000000000000000000 ) ) ;
#732 = VERTEX_POINT ( 'NONE', #767 ) ;
#733 = FACE_OUTER_BOUND ( 'NONE', #441, .T. ) ;
#734 = EDGE_LOOP ( 'NONE', ( #113, #904 ) ) ;
#735 = CARTESIAN_POINT ( 'NONE',  ( -20.00000000000000000, 8.899999999999995026, 50.00000000000000000 ) ) ;
#736 = LINE ( 'NONE', #70, #954 ) ;
#737 = ORIENTED_EDGE ( 'NONE', *, *, #88, .F. ) ;
#738 = AXIS2_PLACEMENT_3D ( 'NONE', #867, #140, #59 ) ;
#739 = AXIS2_PLACEMENT_3D ( 'NONE', #199, #921, #192 ) ;
#740 = VECTOR ( 'NONE', #181, 1000.000000000000000 ) ;
#741 = EDGE_LOOP ( 'NONE', ( #36, #341, #552 ) ) ;
#742 = DIRECTION ( 'NONE',  ( -0.5862113414299794378, -0.8101581717040594599, 0.000000000000000000 ) ) ;
#743 = DIRECTION ( 'NONE',  ( 1.000000000000000000, 0.000000000000000000, 0.000000000000000000 ) ) ;
#744 = ORIENTED_EDGE ( 'NONE', *, *, #1037, .T. ) ;
#745 = VERTEX_POINT ( 'NONE', #683 ) ;
#746 = CARTESIAN_POINT ( 'NONE',  ( 3.233161507461904893, 14.59999999999999787, 19.40000000000000924 ) ) ;
#747 = CARTESIAN_POINT ( 'NONE',  ( -2.714075859101189250E-17, 0.4999999999999991673, 50.00000000000000000 ) ) ;
#748 = ORIENTED_EDGE ( 'NONE', *, *, #322, .T. ) ;
#749 = EDGE_CURVE ( 'NONE', #1056, #373, #600, .T. ) ;
#750 = ORIENTED_EDGE ( 'NONE', *, *, #884, .F. ) ;
#751 = CARTESIAN_POINT ( 'NONE',  ( 14.59458303373392241, -10.56029599728780433, 50.00000000000000000 ) ) ;
#752 = SURFACE_STYLE_FILL_AREA ( #830 ) ;
#753 = CARTESIAN_POINT ( 'NONE',  ( -15.97895163983447553, 0.4999999999999982792, 50.00000000000000000 ) ) ;
#754 = AXIS2_PLACEMENT_3D ( 'NONE', #554, #468, #633 ) ;
#755 = ORIENTED_EDGE ( 'NONE', *, *, #455, .F. ) ;
#756 = LINE ( 'NONE', #833, #217 ) ;
#757 = CIRCLE ( 'NONE', #265, 5.000000000000000888 ) ;
#758 = SURFACE_SIDE_STYLE ('',( #752 ) ) ;
#759 = AXIS2_PLACEMENT_3D ( 'NONE', #659, #485, #245 ) ;
#760 = EDGE_CURVE ( 'NONE', #719, #658, #774, .T. ) ;
#761 = DIRECTION ( 'NONE',  ( 0.5862113414299793268, 0.8101581717040593489, -0.000000000000000000 ) ) ;
#762 = ORIENTED_EDGE ( 'NONE', *, *, #335, .T. ) ;
#763 = CARTESIAN_POINT ( 'NONE',  ( -0.5701909309508221835, -28.93517727475586199, 25.00000000000000000 ) ) ;
#764 = LINE ( 'NONE', #768, #618 ) ;
#765 = CARTESIAN_POINT ( 'NONE',  ( 1.371971253604273855, -4.819978347840212507, 0.000000000000000000 ) ) ;
#766 = ORIENTED_EDGE ( 'NONE', *, *, #45, .F. ) ;
#767 = CARTESIAN_POINT ( 'NONE',  ( -3.233161507461908002, 8.899999999999998579, 30.60000000000000853 ) ) ;
#768 = CARTESIAN_POINT ( 'NONE',  ( -1.371971253604273633, -4.819978347840211619, 0.000000000000000000 ) ) ;
#769 = CARTESIAN_POINT ( 'NONE',  ( 3.233161507461904893, 14.59999999999999787, 19.40000000000000924 ) ) ;
#770 = ORIENTED_EDGE ( 'NONE', *, *, #205, .F. ) ;
#771 = DIRECTION ( 'NONE',  ( 0.4999999999999998890, 0.000000000000000000, -0.8660254037844387076 ) ) ;
#772 = VECTOR ( 'NONE', #841, 999.9999999999998863 ) ;
#773 = LINE ( 'NONE', #39, #706 ) ;
#774 = CIRCLE ( 'NONE', #412, 3.250506643609669233 ) ;
#775 = DIRECTION ( 'NONE',  ( -0.8101581717040590158, -0.5862113414299799929, 0.000000000000000000 ) ) ;
#776 = ORIENTED_EDGE ( 'NONE', *, *, #967, .F. ) ;
#777 = ADVANCED_FACE ( 'NONE', ( #31 ), #932, .T. ) ;
#778 = CARTESIAN_POINT ( 'NONE',  ( 20.00000000000000000, 8.450000000000009948, 25.00000000000000000 ) ) ;
#779 = CARTESIAN_POINT ( 'NONE',  ( 3.233161507461905337, 8.899999999999998579, 19.40000000000000924 ) ) ;
#780 = LINE ( 'NONE', #47, #992 ) ;
#781 = ORIENTED_EDGE ( 'NONE', *, *, #226, .T. ) ;
#782 = CARTESIAN_POINT ( 'NONE',  ( -1.157927920214518538E-15, 8.899999999999998579, 50.00000000000000000 ) ) ;
#783 = FACE_BOUND ( 'NONE', #969, .T. ) ;
#784 = FACE_OUTER_BOUND ( 'NONE', #597, .T. ) ;
#785 = ORIENTED_EDGE ( 'NONE', *, *, #100, .T. ) ;
#786 = PLANE ( 'NONE',  #159 ) ;
#787 = CYLINDRICAL_SURFACE ( 'NONE', #957, 2.000000000000006217 ) ;
#788 = VECTOR ( 'NONE', #878, 1000.000000000000000 ) ;
#789 = DIRECTION ( 'NONE',  ( -4.336808689942017736E-17, 1.000000000000000000, 0.000000000000000000 ) ) ;
#790 = EDGE_CURVE ( 'NONE', #817, #481, #420, .T. ) ;
#791 = AXIS2_PLACEMENT_3D ( 'NONE', #186, #510, #1000 ) ;
#792 = CARTESIAN_POINT ( 'NONE',  ( 15.79110149122305096, 0.5000000000000004441, 25.00000000000000000 ) ) ;
#793 = CARTESIAN_POINT ( 'NONE',  ( 15.79110149122305451, 0.5000000000000037748, 25.26344904283330806 ) ) ;
#794 = LINE ( 'NONE', #129, #940 ) ;
#795 = EDGE_CURVE ( 'NONE', #25, #513, #436, .T. ) ;
#796 = CARTESIAN_POINT ( 'NONE',  ( 3.233161507461901785, 8.899999999999998579, 30.60000000000000853 ) ) ;
#797 = CARTESIAN_POINT ( 'NONE',  ( 15.97895163983448263, 0.5000000000000004441, 25.76523985986510112 ) ) ;
#798 = CARTESIAN_POINT ( 'NONE',  ( -20.00000000000000000, 8.899999999999995026, 50.00000000000000000 ) ) ;
#799 = ADVANCED_FACE ( 'NONE', ( #348 ), #21, .F. ) ;
#800 = DIRECTION ( 'NONE',  ( 0.000000000000000000, 1.000000000000000000, -0.000000000000000000 ) ) ;
#801 = ORIENTED_EDGE ( 'NONE', *, *, #563, .T. ) ;
#802 = CARTESIAN_POINT ( 'NONE',  ( 0.000000000000000000, 0.000000000000000000, 50.00000000000000000 ) ) ;
#803 = PLANE ( 'NONE',  #1042 ) ;
#804 = VECTOR ( 'NONE', #897, 1000.000000000000000 ) ;
#805 = ORIENTED_EDGE ( 'NONE', *, *, #524, .F. ) ;
#806 = AXIS2_PLACEMENT_3D ( 'NONE', #187, #103, #929 ) ;
#807 = ORIENTED_EDGE ( 'NONE', *, *, #907, .F. ) ;
#808 = DIRECTION ( 'NONE',  ( -4.336808689942017736E-17, 1.000000000000000000, 0.000000000000000000 ) ) ;
#809 = CYLINDRICAL_SURFACE ( 'NONE', #497, 5.000000000000000888 ) ;
#810 = VERTEX_POINT ( 'NONE', #927 ) ;
#811 = CARTESIAN_POINT ( 'NONE',  ( 15.10725381476164308, 1.688107105919607109, 25.00000000000000000 ) ) ;
#812 = ORIENTED_EDGE ( 'NONE', *, *, #189, .T. ) ;
#813 = LINE ( 'NONE', #80, #499 ) ;
#814 = FACE_OUTER_BOUND ( 'NONE', #53, .T. ) ;
#815 = EDGE_LOOP ( 'NONE', ( #991, #4, #915, #568, #67, #414, #1002, #982, #276, #608 ) ) ;
#816 = LINE ( 'NONE', #646, #567 ) ;
#817 = VERTEX_POINT ( 'NONE', #97 ) ;
#818 = CARTESIAN_POINT ( 'NONE',  ( 15.31191653976153511, -9.568923840741408782, 50.00000000000000000 ) ) ;
#819 = ADVANCED_FACE ( 'NONE', ( #277, #337 ), #665, .F. ) ;
#820 = DIRECTION ( 'NONE',  ( 0.000000000000000000, 0.000000000000000000, -1.000000000000000000 ) ) ;
#821 = EDGE_CURVE ( 'NONE', #931, #64, #912, .T. ) ;
#822 = ORIENTED_EDGE ( 'NONE', *, *, #174, .T. ) ;
#823 = AXIS2_PLACEMENT_3D ( 'NONE', #829, #15, #342 ) ;
#824 = ORIENTED_EDGE ( 'NONE', *, *, #711, .T. ) ;
#825 = DIRECTION ( 'NONE',  ( -0.8101581717040594599, 0.5862113414299794378, 0.000000000000000000 ) ) ;
#826 = FACE_OUTER_BOUND ( 'NONE', #256, .T. ) ;
#827 = ORIENTED_EDGE ( 'NONE', *, *, #189, .F. ) ;
#828 = ORIENTED_EDGE ( 'NONE', *, *, #698, .F. ) ;
#829 = CARTESIAN_POINT ( 'NONE',  ( -8.413635163213685287E-16, 15.49999999999996980, 25.00000000000000355 ) ) ;
#830 = FILL_AREA_STYLE ('',( #523 ) ) ;
#831 = DIRECTION ( 'NONE',  ( -0.8101581717040594599, 0.5862113414299794378, 0.000000000000000000 ) ) ;
#832 = ORIENTED_EDGE ( 'NONE', *, *, #174, .F. ) ;
#833 = CARTESIAN_POINT ( 'NONE',  ( -6.466323014923812451, 14.59999999999999787, 25.00000000000000711 ) ) ;
#834 = CARTESIAN_POINT ( 'NONE',  ( 3.089999999999999414, 8.899999999999998579, 25.00000000000000355 ) ) ;
#835 = DIRECTION ( 'NONE',  ( 4.336808689942017736E-17, -1.000000000000000000, -0.000000000000000000 ) ) ;
#836 = VECTOR ( 'NONE', #29, 1000.000000000000000 ) ;
#837 = ORIENTED_EDGE ( 'NONE', *, *, #151, .T. ) ;
#838 = STYLED_ITEM ( 'NONE', ( #22 ), #384 ) ;
#839 = CARTESIAN_POINT ( 'NONE',  ( 6.466323014923808010, 14.59999999999999787, 25.00000000000000355 ) ) ;
#840 = SURFACE_STYLE_USAGE ( .BOTH. , #758 ) ;
#841 = DIRECTION ( 'NONE',  ( 0.4999999999999999445, 0.000000000000000000, -0.8660254037844387076 ) ) ;
#842 = ORIENTED_EDGE ( 'NONE', *, *, #879, .F. ) ;
#843 = CARTESIAN_POINT ( 'NONE',  ( -1.492433457802043446E-15, 14.59999999999999787, 25.00000000000000355 ) ) ;
#844 = CARTESIAN_POINT ( 'NONE',  ( 17.74067833426035179, -0.2173767539578770613, 25.00000000000000000 ) ) ;
#845 =( BOUNDED_CURVE ( )  B_SPLINE_CURVE ( 3, ( #1019, #614, #939, #860 ),
 .UNSPECIFIED., .F., .T. ) 
 B_SPLINE_CURVE_WITH_KNOTS ( ( 4, 4 ),
 ( 3.534223001729210445, 6.283185307179586232 ),
 .UNSPECIFIED. ) 
 CURVE ( )  GEOMETRIC_REPRESENTATION_ITEM ( )  RATIONAL_B_SPLINE_CURVE ( ( 1.000000000000000000, 0.4633710769795385542, 0.4633710769795385542, 1.000000000000000000 ) ) 
 REPRESENTATION_ITEM ( '' )  );
#846 = ORIENTED_EDGE ( 'NONE', *, *, #362, .F. ) ;
#847 = DIRECTION ( 'NONE',  ( 5.428151718202388360E-17, -1.000000000000000000, -0.000000000000000000 ) ) ;
#848 = CARTESIAN_POINT ( 'NONE',  ( -6.466323014923812451, 8.899999999999998579, 25.00000000000000711 ) ) ;
#849 = CYLINDRICAL_SURFACE ( 'NONE', #156, 3.250506643609669233 ) ;
#850 = ADVANCED_FACE ( 'NONE', ( #273 ), #506, .F. ) ;
#851 = ORIENTED_EDGE ( 'NONE', *, *, #473, .T. ) ;
#852 = CARTESIAN_POINT ( 'NONE',  ( 20.00000000000000000, 8.450000000000009948, 25.00000000000000000 ) ) ;
#853 = AXIS2_PLACEMENT_3D ( 'NONE', #1, #328, #406 ) ;
#854 = FACE_OUTER_BOUND ( 'NONE', #331, .T. ) ;
#855 = VECTOR ( 'NONE', #511, 1000.000000000000000 ) ;
#856 =( GEOMETRIC_REPRESENTATION_CONTEXT ( 3 ) GLOBAL_UNCERTAINTY_ASSIGNED_CONTEXT ( ( #460 ) ) GLOBAL_UNIT_ASSIGNED_CONTEXT ( ( #408, #722, #386 ) ) REPRESENTATION_CONTEXT ( 'NONE', 'WORKASPACE' ) );
#857 = PLANE ( 'NONE',  #909 ) ;
#858 = EDGE_CURVE ( 'NONE', #458, #428, #431, .T. ) ;
#859 = ORIENTED_EDGE ( 'NONE', *, *, #566, .F. ) ;
#860 = CARTESIAN_POINT ( 'NONE',  ( 13.76199591534043165, -9.127750377166201190, 25.00000000000000000 ) ) ;
#861 = LINE ( 'NONE', #168, #654 ) ;
#862 = CARTESIAN_POINT ( 'NONE',  ( -14.59458303373391352, -10.56029599728780966, 50.00000000000000000 ) ) ;
#863 = EDGE_LOOP ( 'NONE', ( #1008, #162, #594, #484 ) ) ;
#864 = DIRECTION ( 'NONE',  ( -0.000000000000000000, -0.000000000000000000, -1.000000000000000000 ) ) ;
#865 = UNCERTAINTY_MEASURE_WITH_UNIT (LENGTH_MEASURE( 1.000000000000000082E-05 ), #343, 'distance_accuracy_value', 'NONE');
#866 = LINE ( 'NONE', #456, #480 ) ;
#867 = CARTESIAN_POINT ( 'NONE',  ( 17.74067833426035179, -0.2173767539578770613, 25.00000000000000000 ) ) ;
#868 = CARTESIAN_POINT ( 'NONE',  ( 6.466323014923808010, 8.899999999999998579, 25.00000000000000355 ) ) ;
#869 = DIRECTION ( 'NONE',  ( -4.336808689942017736E-17, 1.000000000000000000, 0.000000000000000000 ) ) ;
#870 = EDGE_CURVE ( 'NONE', #675, #745, #26, .T. ) ;
#871 = AXIS2_PLACEMENT_3D ( 'NONE', #949, #981, #644 ) ;
#872 = CARTESIAN_POINT ( 'NONE',  ( -3.810823617767070459, -26.59033190903593891, 25.00000000000000000 ) ) ;
#873 = AXIS2_PLACEMENT_3D ( 'NONE', #379, #46, #467 ) ;
#874 = CARTESIAN_POINT ( 'NONE',  ( 17.74067833426035534, -0.2173767539578770613, 25.00000000000000000 ) ) ;
#875 = ORIENTED_EDGE ( 'NONE', *, *, #206, .F. ) ;
#876 = DIRECTION ( 'NONE',  ( 1.000000000000000000, 0.000000000000000000, -0.000000000000000000 ) ) ;
#877 = EDGE_CURVE ( 'NONE', #986, #810, #672, .T. ) ;
#878 = DIRECTION ( 'NONE',  ( 4.336808689942017736E-17, -1.000000000000000000, -0.000000000000000000 ) ) ;
#879 = EDGE_CURVE ( 'NONE', #621, #660, #756, .T. ) ;
#880 = DIRECTION ( 'NONE',  ( 0.000000000000000000, 0.000000000000000000, 1.000000000000000000 ) ) ;
#881 = DIRECTION ( 'NONE',  ( 0.5862113414299795489, 0.8101581717040592379, 0.000000000000000000 ) ) ;
#882 = FACE_OUTER_BOUND ( 'NONE', #815, .T. ) ;
#883 = ORIENTED_EDGE ( 'NONE', *, *, #152, .T. ) ;
#884 = EDGE_CURVE ( 'NONE', #209, #1017, #353, .T. ) ;
#885 = DIRECTION ( 'NONE',  ( 1.000000000000000000, 0.000000000000000000, 0.000000000000000000 ) ) ;
#886 = ORIENTED_EDGE ( 'NONE', *, *, #63, .F. ) ;
#887 = CARTESIAN_POINT ( 'NONE',  ( -3.745424685559647383E-16, 6.899999999999999467, 25.00000000000000355 ) ) ;
#888 = CARTESIAN_POINT ( 'NONE',  ( -3.745424685559646890E-16, 6.899999999999999467, 25.00000000000000355 ) ) ;
#889 = AXIS2_PLACEMENT_3D ( 'NONE', #942, #234, #639 ) ;
#890 = VECTOR ( 'NONE', #559, 999.9999999999998863 ) ;
#891 = VERTEX_POINT ( 'NONE', #225 ) ;
#892 = VECTOR ( 'NONE', #391, 1000.000000000000227 ) ;
#893 = EDGE_CURVE ( 'NONE', #581, #719, #1034, .T. ) ;
#894 = CARTESIAN_POINT ( 'NONE',  ( 9.823677365248455473, -8.006737076207331327, 24.23476014013491309 ) ) ;
#895 = EDGE_LOOP ( 'NONE', ( #994, #637, #149, #919 ) ) ;
#896 = LINE ( 'NONE', #980, #196 ) ;
#897 = DIRECTION ( 'NONE',  ( 4.336808689942017736E-17, -1.000000000000000000, -0.000000000000000000 ) ) ;
#898 = ORIENTED_EDGE ( 'NONE', *, *, #951, .T. ) ;
#899 = ORIENTED_EDGE ( 'NONE', *, *, #335, .F. ) ;
#900 = CARTESIAN_POINT ( 'NONE',  ( -3.745424685559647383E-16, 6.899999999999999467, 25.00000000000000355 ) ) ;
#901 = EDGE_CURVE ( 'NONE', #817, #10, #161, .T. ) ;
#902 = DIRECTION ( 'NONE',  ( -1.000000000000000000, 0.000000000000000000, 0.000000000000000000 ) ) ;
#903 = ORIENTED_EDGE ( 'NONE', *, *, #914, .F. ) ;
#904 = ORIENTED_EDGE ( 'NONE', *, *, #213, .T. ) ;
#905 = LINE ( 'NONE', #242, #926 ) ;
#906 = CARTESIAN_POINT ( 'NONE',  ( -3.745424685559647383E-16, 6.899999999999999467, 25.00000000000000355 ) ) ;
#907 = EDGE_CURVE ( 'NONE', #952, #260, #625, .T. ) ;
#908 = ORIENTED_EDGE ( 'NONE', *, *, #364, .T. ) ;
#909 = AXIS2_PLACEMENT_3D ( 'NONE', #125, #228, #451 ) ;
#910 = AXIS2_PLACEMENT_3D ( 'NONE', #839, #521, #204 ) ;
#911 = EDGE_LOOP ( 'NONE', ( #255, #898, #1024, #875 ) ) ;
#912 = LINE ( 'NONE', #268, #740 ) ;
#913 = CARTESIAN_POINT ( 'NONE',  ( 20.00000000000000355, -3.089879754562633085, 50.00000000000000000 ) ) ;
#914 = EDGE_CURVE ( 'NONE', #581, #964, #526, .T. ) ;
#915 = ORIENTED_EDGE ( 'NONE', *, *, #220, .T. ) ;
#916 = ORIENTED_EDGE ( 'NONE', *, *, #280, .F. ) ;
#917 = DIRECTION ( 'NONE',  ( 0.5862113414299797709, -0.8101581717040591268, 0.000000000000000000 ) ) ;
#918 = DIRECTION ( 'NONE',  ( -0.5862113414299794378, -0.8101581717040592379, 0.000000000000000000 ) ) ;
#919 = ORIENTED_EDGE ( 'NONE', *, *, #795, .T. ) ;
#920 = ORIENTED_EDGE ( 'NONE', *, *, #370, .T. ) ;
#921 = DIRECTION ( 'NONE',  ( 0.5862113414299794378, 0.8101581717040594599, -0.000000000000000000 ) ) ;
#922 = CARTESIAN_POINT ( 'NONE',  ( -3.687526996186879735, -26.67954643584652885, 24.23476014013490243 ) ) ;
#923 = DIRECTION ( 'NONE',  ( 1.000000000000000000, 0.000000000000000000, 0.000000000000000000 ) ) ;
#924 = ADVANCED_FACE ( 'NONE', ( #1015 ), #466, .F. ) ;
#925 = ORIENTED_EDGE ( 'NONE', *, *, #350, .T. ) ;
#926 = VECTOR ( 'NONE', #1041, 1000.000000000000114 ) ;
#927 = CARTESIAN_POINT ( 'NONE',  ( -5.000000000000000888, 6.899999999999999467, 25.00000000000000355 ) ) ;
#928 = VECTOR ( 'NONE', #229, 1000.000000000000000 ) ;
#929 = DIRECTION ( 'NONE',  ( -0.8101581717040593489, 0.5862113414299792158, 0.000000000000000000 ) ) ;
#930 = DIRECTION ( 'NONE',  ( 1.000000000000000000, 6.505213034913025371E-17, 0.000000000000000000 ) ) ;
#931 = VERTEX_POINT ( 'NONE', #115 ) ;
#932 = PLANE ( 'NONE',  #910 ) ;
#933 = DIRECTION ( 'NONE',  ( -0.000000000000000000, -0.000000000000000000, -1.000000000000000000 ) ) ;
#934 = CARTESIAN_POINT ( 'NONE',  ( 20.00000000000000000, 8.900000000000002132, 50.00000000000000000 ) ) ;
#935 = CARTESIAN_POINT ( 'NONE',  ( 15.85453043687647501, 0.5000000000000037748, 25.52183775235527108 ) ) ;
#936 = ADVANCED_FACE ( 'NONE', ( #285 ), #786, .T. ) ;
#937 = CARTESIAN_POINT ( 'NONE',  ( -1.157927920214518538E-15, 8.899999999999998579, 0.000000000000000000 ) ) ;
#938 = VERTEX_POINT ( 'NONE', #454 ) ;
#939 = CARTESIAN_POINT ( 'NONE',  ( 13.76199591534043165, -9.127750377166202966, 27.82219307786290940 ) ) ;
#940 = VECTOR ( 'NONE', #457, 1000.000000000000000 ) ;
#941 = CARTESIAN_POINT ( 'NONE',  ( -3.233161507461908890, 14.59999999999999787, 19.40000000000000924 ) ) ;
#942 = CARTESIAN_POINT ( 'NONE',  ( -2.714075859101189250E-17, 0.4999999999999991673, 50.00000000000000000 ) ) ;
#943 = EDGE_CURVE ( 'NONE', #675, #481, #38, .T. ) ;
#944 = ORIENTED_EDGE ( 'NONE', *, *, #1006, .F. ) ;
#945 = CARTESIAN_POINT ( 'NONE',  ( -3.233161507461908890, 14.59999999999999787, 19.40000000000000924 ) ) ;
#946 = FACE_BOUND ( 'NONE', #323, .T. ) ;
#947 = LINE ( 'NONE', #868, #329 ) ;
#948 = LINE ( 'NONE', #143, #993 ) ;
#949 = CARTESIAN_POINT ( 'NONE',  ( 20.00000000000000000, 0.000000000000000000, 50.00000000000000000 ) ) ;
#950 = CARTESIAN_POINT ( 'NONE',  ( 15.97895163983448263, 0.5000000000000004441, 24.23476014013490243 ) ) ;
#951 = EDGE_CURVE ( 'NONE', #527, #107, #547, .T. ) ;
#952 = VERTEX_POINT ( 'NONE', #1031 ) ;
#953 = DIRECTION ( 'NONE',  ( 0.5862113414299794378, 0.8101581717040594599, -0.000000000000000000 ) ) ;
#954 = VECTOR ( 'NONE', #81, 1000.000000000000000 ) ;
#955 =( BOUNDED_CURVE ( )  B_SPLINE_CURVE ( 3, ( #1038, #324, #653, #894 ),
 .UNSPECIFIED., .F., .T. ) 
 B_SPLINE_CURVE_WITH_KNOTS ( ( 4, 4 ),
 ( 0.000000000000000000, 2.748962305450375787 ),
 .UNSPECIFIED. ) 
 CURVE ( )  GEOMETRIC_REPRESENTATION_ITEM ( )  RATIONAL_B_SPLINE_CURVE ( ( 1.000000000000000000, 0.4633710769795385542, 0.4633710769795385542, 1.000000000000000000 ) ) 
 REPRESENTATION_ITEM ( '' )  );
#956 = DIRECTION ( 'NONE',  ( -1.000000000000000000, 0.000000000000000000, 0.000000000000000000 ) ) ;
#957 = AXIS2_PLACEMENT_3D ( 'NONE', #623, #953, #553 ) ;
#958 = VECTOR ( 'NONE', #917, 1000.000000000000114 ) ;
#959 = PRODUCT_CONTEXT ( 'NONE', #632, 'mechanical' ) ;
#960 = VERTEX_POINT ( 'NONE', #609 ) ;
#961 = DIRECTION ( 'NONE',  ( 1.000000000000000000, 5.428151718202388360E-17, 0.000000000000000000 ) ) ;
#962 = CARTESIAN_POINT ( 'NONE',  ( -3.090000000000000302, 6.899999999999999467, 25.00000000000000355 ) ) ;
#963 = ORIENTED_EDGE ( 'NONE', *, *, #975, .T. ) ;
#964 = VERTEX_POINT ( 'NONE', #852 ) ;
#965 = CARTESIAN_POINT ( 'NONE',  ( 20.00000000000000000, 0.000000000000000000, 50.00000000000000000 ) ) ;
#966 = DIRECTION ( 'NONE',  ( 1.000000000000000000, 0.000000000000000000, 0.000000000000000000 ) ) ;
#967 = EDGE_CURVE ( 'NONE', #658, #581, #197, .T. ) ;
#968 = ORIENTED_EDGE ( 'NONE', *, *, #206, .T. ) ;
#969 = EDGE_LOOP ( 'NONE', ( #90, #737, #886, #179, #842, #296 ) ) ;
#970 = FACE_OUTER_BOUND ( 'NONE', #509, .T. ) ;
#971 = LINE ( 'NONE', #164, #583 ) ;
#972 = AXIS2_PLACEMENT_3D ( 'NONE', #1055, #413, #966 ) ;
#973 = VECTOR ( 'NONE', #610, 1000.000000000000000 ) ;
#974 = ORIENTED_EDGE ( 'NONE', *, *, #473, .F. ) ;
#975 = EDGE_CURVE ( 'NONE', #448, #513, #947, .T. ) ;
#976 = VECTOR ( 'NONE', #847, 1000.000000000000000 ) ;
#977 = PLANE ( 'NONE',  #759 ) ;
#978 = ADVANCED_FACE ( 'NONE', ( #210 ), #216, .T. ) ;
#979 = EDGE_LOOP ( 'NONE', ( #78, #190, #682, #859 ) ) ;
#980 = CARTESIAN_POINT ( 'NONE',  ( 14.59458303373392241, -10.56029599728780433, 0.000000000000000000 ) ) ;
#981 = DIRECTION ( 'NONE',  ( -1.000000000000000000, 0.000000000000000000, 0.000000000000000000 ) ) ;
#982 = ORIENTED_EDGE ( 'NONE', *, *, #350, .F. ) ;
#983 = ORIENTED_EDGE ( 'NONE', *, *, #877, .T. ) ;
#984 = CARTESIAN_POINT ( 'NONE',  ( -5.000000000000000888, 0.4999999999999988343, 25.00000000000000355 ) ) ;
#985 = DIRECTION ( 'NONE',  ( -0.5862113414299799929, 0.8101581717040590158, 0.000000000000000000 ) ) ;
#986 = VERTEX_POINT ( 'NONE', #449 ) ;
#987 = ORIENTED_EDGE ( 'NONE', *, *, #711, .F. ) ;
#988 = DIRECTION ( 'NONE',  ( 1.301042606982605321E-16, -1.000000000000000000, 0.000000000000000000 ) ) ;
#989 = CARTESIAN_POINT ( 'NONE',  ( 9.823677365248455473, -8.006737076207331327, 25.76523985986509047 ) ) ;
#990 = ADVANCED_FACE ( 'NONE', ( #44 ), #369, .F. ) ;
#991 = ORIENTED_EDGE ( 'NONE', *, *, #870, .T. ) ;
#992 = VECTOR ( 'NONE', #710, 999.9999999999998863 ) ;
#993 = VECTOR ( 'NONE', #291, 1000.000000000000000 ) ;
#994 = ORIENTED_EDGE ( 'NONE', *, *, #975, .F. ) ;
#995 = DIRECTION ( 'NONE',  ( 1.000000000000000000, 1.301042606982605321E-16, 0.000000000000000000 ) ) ;
#996 = LINE ( 'NONE', #358, #669 ) ;
#997 = EDGE_CURVE ( 'NONE', #363, #458, #845, .T. ) ;
#998 = EDGE_LOOP ( 'NONE', ( #111, #398, #851, #330 ) ) ;
#999 = ORIENTED_EDGE ( 'NONE', *, *, #870, .F. ) ;
#1000 = DIRECTION ( 'NONE',  ( 1.000000000000000000, 0.000000000000000000, 0.000000000000000000 ) ) ;
#1001 = DIRECTION ( 'NONE',  ( -0.000000000000000000, -0.000000000000000000, -1.000000000000000000 ) ) ;
#1002 = ORIENTED_EDGE ( 'NONE', *, *, #573, .F. ) ;
#1003 = DIRECTION ( 'NONE',  ( -1.000000000000000000, 0.000000000000000000, 0.000000000000000000 ) ) ;
#1004 = CARTESIAN_POINT ( 'NONE',  ( -8.413635163213685287E-16, 15.49999999999996980, 25.00000000000000355 ) ) ;
#1005 = CARTESIAN_POINT ( 'NONE',  ( 15.79110149122305096, 0.5000000000000004441, 25.00000000000000000 ) ) ;
#1006 = EDGE_CURVE ( 'NONE', #347, #246, #128, .T. ) ;
#1007 = VECTOR ( 'NONE', #933, 1000.000000000000000 ) ;
#1008 = ORIENTED_EDGE ( 'NONE', *, *, #178, .F. ) ;
#1009 = VECTOR ( 'NONE', #92, 1000.000000000000000 ) ;
#1010 = DIRECTION ( 'NONE',  ( -4.336808689942017736E-17, 1.000000000000000000, 0.000000000000000000 ) ) ;
#1011 = DIRECTION ( 'NONE',  ( 0.9617957426347228944, -0.2737680577600717369, 0.000000000000000000 ) ) ;
#1012 = ORIENTED_EDGE ( 'NONE', *, *, #790, .T. ) ;
#1013 = PRODUCT_DEFINITION_SHAPE ( 'NONE', 'NONE',  #446 ) ;
#1014 = VERTEX_POINT ( 'NONE', #796 ) ;
#1015 = FACE_OUTER_BOUND ( 'NONE', #700, .T. ) ;
#1016 = PLANE ( 'NONE',  #3 ) ;
#1017 = VERTEX_POINT ( 'NONE', #166 ) ;
#1018 = VERTEX_POINT ( 'NONE', #551 ) ;
#1019 = CARTESIAN_POINT ( 'NONE',  ( 9.823677365248455473, -8.006737076207331327, 25.76523985986509047 ) ) ;
#1020 = DIRECTION ( 'NONE',  ( 0.000000000000000000, 0.000000000000000000, 1.000000000000000000 ) ) ;
#1021 = ADVANCED_FACE ( 'NONE', ( #733 ), #977, .T. ) ;
#1022 = EDGE_CURVE ( 'NONE', #428, #668, #721, .T. ) ;
#1023 = DIRECTION ( 'NONE',  ( 0.000000000000000000, 1.000000000000000000, -0.000000000000000000 ) ) ;
#1024 = ORIENTED_EDGE ( 'NONE', *, *, #593, .T. ) ;
#1025 = DIRECTION ( 'NONE',  ( 0.000000000000000000, 0.000000000000000000, -1.000000000000000000 ) ) ;
#1026 = CIRCLE ( 'NONE', #176, 3.089999999999999858 ) ;
#1027 = VECTOR ( 'NONE', #332, 1000.000000000000000 ) ;
#1028 = CARTESIAN_POINT ( 'NONE',  ( 20.00000000000000000, -1.852168613934148667, 23.33005550229196601 ) ) ;
#1029 = CARTESIAN_POINT ( 'NONE',  ( -4.831055029200124192E-16, 8.899999999999998579, 25.00000000000000355 ) ) ;
#1030 = EDGE_CURVE ( 'NONE', #732, #1014, #74, .T. ) ;
#1031 = CARTESIAN_POINT ( 'NONE',  ( -3.090000000000000302, 8.899999999999998579, 25.00000000000000355 ) ) ;
#1032 = PLANE ( 'NONE',  #37 ) ;
#1033 = DIRECTION ( 'NONE',  ( 1.301042606982605321E-16, -1.000000000000000000, 0.000000000000000000 ) ) ;
#1034 = LINE ( 'NONE', #691, #635 ) ;
#1035 = CARTESIAN_POINT ( 'NONE',  ( -20.00000000000000000, -3.089879754562637526, 0.000000000000000000 ) ) ;
#1036 = CYLINDRICAL_SURFACE ( 'NONE', #754, 19.99999999999999645 ) ;
#1037 = EDGE_CURVE ( 'NONE', #458, #403, #955, .T. ) ;
#1038 = CARTESIAN_POINT ( 'NONE',  ( 13.76199591534043165, -9.127750377166201190, 25.00000000000000000 ) ) ;
#1039 = EDGE_CURVE ( 'NONE', #508, #1018, #816, .T. ) ;
#1040 = ORIENTED_EDGE ( 'NONE', *, *, #689, .T. ) ;
#1041 = DIRECTION ( 'NONE',  ( 0.5862113414299797709, -0.8101581717040591268, 0.000000000000000000 ) ) ;
#1042 = AXIS2_PLACEMENT_3D ( 'NONE', #402, #731, #649 ) ;
#1043 = LINE ( 'NONE', #219, #788 ) ;
#1044 = VECTOR ( 'NONE', #514, 1000.000000000000000 ) ;
#1045 = EDGE_LOOP ( 'NONE', ( #574, #423, #520 ) ) ;
#1046 = ORIENTED_EDGE ( 'NONE', *, *, #593, .F. ) ;
#1047 = DIRECTION ( 'NONE',  ( 1.000000000000000000, 0.000000000000000000, 0.000000000000000000 ) ) ;
#1048 = EDGE_CURVE ( 'NONE', #658, #964, #306, .T. ) ;
#1049 = DIRECTION ( 'NONE',  ( 5.428151718202388360E-17, -1.000000000000000000, 0.000000000000000000 ) ) ;
#1050 = ORIENTED_EDGE ( 'NONE', *, *, #42, .F. ) ;
#1051 = CARTESIAN_POINT ( 'NONE',  ( -3.233161507461908002, 8.899999999999998579, 30.60000000000000853 ) ) ;
#1052 = EDGE_LOOP ( 'NONE', ( #1050, #172, #503, #944 ) ) ;
#1053 = DIRECTION ( 'NONE',  ( 1.000000000000000000, 0.000000000000000000, 0.000000000000000000 ) ) ;
#1054 = EDGE_CURVE ( 'NONE', #891, #267, #5, .T. ) ;
#1055 = CARTESIAN_POINT ( 'NONE',  ( -1.492433457802043446E-15, 14.59999999999999787, 25.00000000000000355 ) ) ;
#1056 = VERTEX_POINT ( 'NONE', #469 ) ;
#1057 = DIRECTION ( 'NONE',  ( -0.5862113414299794378, -0.8101581717040595709, -0.000000000000000000 ) ) ;
#1058 = EDGE_LOOP ( 'NONE', ( #214, #694, #650, #1040, #505 ) ) ;
#1059 = DIRECTION ( 'NONE',  ( -0.5862113414299794378, -0.8101581717040593489, 0.000000000000000000 ) ) ;
ENDSEC;
END-ISO-10303-21;
