ISO-10303-21;
HEADER;
FILE_DESCRIPTION (( 'STEP AP214' ),
    '1' );
FILE_NAME ('feets x4.STEP',
    '2026-06-11T14:54:29',
    ( '' ),
    ( '' ),
    'SwSTEP 2.0',
    'SolidWorks 2025',
    '' );
FILE_SCHEMA (( 'AUTOMOTIVE_DESIGN' ));
ENDSEC;

DATA;
#1 = CARTESIAN_POINT ( 'NONE',  ( 2.339281554346638980, 10.70000000000000107, -3.982599043693314300 ) ) ;
#2 = CARTESIAN_POINT ( 'NONE',  ( 14.95916706503582816, -3.000000000000000444, 1.831969606410663296E-15 ) ) ;
#3 = ORIENTED_EDGE ( 'NONE', *, *, #601, .T. ) ;
#4 = DIRECTION ( 'NONE',  ( -0.4935026641089290678, 0.000000000000000000, -0.8697442845557477042 ) ) ;
#5 = DIRECTION ( 'NONE',  ( -5.421010862427522170E-17, -1.000000000000000000, -0.000000000000000000 ) ) ;
#6 = ORIENTED_EDGE ( 'NONE', *, *, #650, .F. ) ;
#7 = ADVANCED_FACE ( 'NONE', ( #347, #143 ), #547, .T. ) ;
#8 = DIRECTION ( 'NONE',  ( -1.855525453253564055E-17, 1.000000000000000000, -0.000000000000000000 ) ) ;
#9 = VECTOR ( 'NONE', #527, 1000.000000000000000 ) ;
#10 = PRESENTATION_LAYER_ASSIGNMENT (  '', '', ( #412 ) ) ;
#11 = CARTESIAN_POINT ( 'NONE',  ( 5.421010862427522170E-17, 6.500000000000001776, 0.000000000000000000 ) ) ;
#12 = VERTEX_POINT ( 'NONE', #44 ) ;
#13 = CARTESIAN_POINT ( 'NONE',  ( 12.50000000000000000, -1.000000000000000666, 1.530808498934191521E-15 ) ) ;
#14 = CARTESIAN_POINT ( 'NONE',  ( 4.618672722099341321, 10.70000000000000107, 0.03457773082188295155 ) ) ;
#15 = EDGE_LOOP ( 'NONE', ( #3, #646, #31, #648 ) ) ;
#16 = CARTESIAN_POINT ( 'NONE',  ( -12.50000000000000000, 15.50000000000000000, 0.000000000000000000 ) ) ;
#17 = DIRECTION ( 'NONE',  ( 0.8622579862315055133, -4.674309909575872620E-17, 0.5064693131671343940 ) ) ;
#18 = EDGE_CURVE ( 'NONE', #639, #224, #460, .T. ) ;
#19 = ORIENTED_EDGE ( 'NONE', *, *, #154, .F. ) ;
#20 = FACE_OUTER_BOUND ( 'NONE', #422, .T. ) ;
#21 = VECTOR ( 'NONE', #281, 1000.000000000000114 ) ;
#22 = DIRECTION ( 'NONE',  ( 0.000000000000000000, -1.000000000000000000, 0.000000000000000000 ) ) ;
#23 = CIRCLE ( 'NONE', #296, 2.499999999999999112 ) ;
#24 = EDGE_CURVE ( 'NONE', #607, #80, #395, .T. ) ;
#25 = ORIENTED_EDGE ( 'NONE', *, *, #534, .F. ) ;
#26 = PRODUCT_DEFINITION_FORMATION_WITH_SPECIFIED_SOURCE ( 'ANY', '', #102, .NOT_KNOWN. ) ;
#27 = CARTESIAN_POINT ( 'NONE',  ( 2.499999999999997780, 5.500000000000001776, 0.000000000000000000 ) ) ;
#28 = DIRECTION ( 'NONE',  ( -5.421010862427522170E-17, -1.000000000000000000, -0.000000000000000000 ) ) ;
#29 = VERTEX_POINT ( 'NONE', #613 ) ;
#30 = DIRECTION ( 'NONE',  ( -0.9999719772760635728, 0.000000000000000000, -0.007486298324242169309 ) ) ;
#31 = ORIENTED_EDGE ( 'NONE', *, *, #131, .T. ) ;
#32 = SHAPE_DEFINITION_REPRESENTATION ( #346, #127 ) ;
#33 = EDGE_CURVE ( 'NONE', #561, #322, #344, .T. ) ;
#34 = DIRECTION ( 'NONE',  ( -1.000000000000000000, -1.734723475976807094E-17, 0.000000000000000000 ) ) ;
#35 = ORIENTED_EDGE ( 'NONE', *, *, #290, .F. ) ;
#36 = VECTOR ( 'NONE', #629, 1000.000000000000000 ) ;
#37 = DIRECTION ( 'NONE',  ( -0.4935026641089291233, 0.000000000000000000, -0.8697442845557477042 ) ) ;
#38 = EDGE_CURVE ( 'NONE', #12, #244, #454, .T. ) ;
#39 = VERTEX_POINT ( 'NONE', #97 ) ;
#40 = FACE_OUTER_BOUND ( 'NONE', #614, .T. ) ;
#41 = ADVANCED_FACE ( 'NONE', ( #291 ), #602, .F. ) ;
#42 = VERTEX_POINT ( 'NONE', #500 ) ;
#43 = DIRECTION ( 'NONE',  ( -1.000000000000000000, 2.891205793294678696E-17, 0.000000000000000000 ) ) ;
#44 = CARTESIAN_POINT ( 'NONE',  ( 2.499999999999998224, 10.70000000000000107, 0.000000000000000000 ) ) ;
#45 = ADVANCED_FACE ( 'NONE', ( #611 ), #360, .T. ) ;
#46 = ORIENTED_EDGE ( 'NONE', *, *, #354, .F. ) ;
#47 = CIRCLE ( 'NONE', #487, 2.499999999999998668 ) ;
#48 = DIRECTION ( 'NONE',  ( -2.891205793294678696E-17, -1.000000000000000000, -0.000000000000000000 ) ) ;
#49 = CARTESIAN_POINT ( 'NONE',  ( -11.56866381292676138, 7.888096830861839770, 0.000000000000000000 ) ) ;
#50 = CARTESIAN_POINT ( 'NONE',  ( 11.56866381292676493, 7.888096830861839770, -23.13732762585351921 ) ) ;
#51 = LINE ( 'NONE', #249, #597 ) ;
#52 = EDGE_LOOP ( 'NONE', ( #538, #514, #260, #269 ) ) ;
#53 = LINE ( 'NONE', #504, #243 ) ;
#54 = ADVANCED_FACE ( 'NONE', ( #307, #310 ), #164, .T. ) ;
#55 = DIRECTION ( 'NONE',  ( 0.000000000000000000, 0.000000000000000000, -1.000000000000000000 ) ) ;
#56 = VECTOR ( 'NONE', #30, 1000.000000000000114 ) ;
#57 = CARTESIAN_POINT ( 'NONE',  ( 2.339281554346638980, 10.70000000000000107, -3.982599043693314300 ) ) ;
#58 = AXIS2_PLACEMENT_3D ( 'NONE', #220, #81, #526 ) ;
#59 = CARTESIAN_POINT ( 'NONE',  ( -15.03346208601250567, -2.337268057669226184, -3.682136244747660947E-15 ) ) ;
#60 = CARTESIAN_POINT ( 'NONE',  ( 1.224646799147353207E-16, -1.000000000000000888, 0.000000000000000000 ) ) ;
#61 = LINE ( 'NONE', #463, #433 ) ;
#62 = EDGE_CURVE ( 'NONE', #308, #80, #115, .T. ) ;
#63 = FACE_OUTER_BOUND ( 'NONE', #165, .T. ) ;
#64 = CARTESIAN_POINT ( 'NONE',  ( 15.03346208601250567, -2.337268057669225740, 1.841068122373830474E-15 ) ) ;
#65 = VERTEX_POINT ( 'NONE', #207 ) ;
#66 = FACE_OUTER_BOUND ( 'NONE', #186, .T. ) ;
#67 = VECTOR ( 'NONE', #247, 1000.000000000000000 ) ;
#68 = VECTOR ( 'NONE', #108, 999.9999999999998863 ) ;
#69 = CARTESIAN_POINT ( 'NONE',  ( 14.95916706503582816, -2.999999999999998668, 1.831969606410663296E-15 ) ) ;
#70 = ORIENTED_EDGE ( 'NONE', *, *, #168, .T. ) ;
#71 = SURFACE_STYLE_FILL_AREA ( #520 ) ;
#72 = CARTESIAN_POINT ( 'NONE',  ( -8.673617379884035472E-16, 5.500000000000001776, 0.000000000000000000 ) ) ;
#73 = ORIENTED_EDGE ( 'NONE', *, *, #402, .F. ) ;
#74 = DIRECTION ( 'NONE',  ( -1.000000000000000000, -1.734723475976807094E-17, 0.000000000000000000 ) ) ;
#75 = CARTESIAN_POINT ( 'NONE',  ( -4.618672722099341321, 6.500000000000001776, -0.03457773082188005109 ) ) ;
#76 = ORIENTED_EDGE ( 'NONE', *, *, #601, .F. ) ;
#77 = CARTESIAN_POINT ( 'NONE',  ( -8.673617379884035472E-16, 5.500000000000001776, 0.000000000000000000 ) ) ;
#78 = LINE ( 'NONE', #398, #9 ) ;
#79 = AXIS2_PLACEMENT_3D ( 'NONE', #280, #48, #385 ) ;
#80 = VERTEX_POINT ( 'NONE', #259 ) ;
#81 = DIRECTION ( 'NONE',  ( -0.8622579862315056243, 4.674309909575873236E-17, -0.5064693131671342829 ) ) ;
#82 = CARTESIAN_POINT ( 'NONE',  ( -15.13237644567857032, 0.3906879273376129280, 0.000000000000000000 ) ) ;
#83 = VERTEX_POINT ( 'NONE', #466 ) ;
#84 =( NAMED_UNIT ( * ) PLANE_ANGLE_UNIT ( ) SI_UNIT ( $, .RADIAN. ) );
#85 = CYLINDRICAL_SURFACE ( 'NONE', #455, 2.499999999999999112 ) ;
#86 = ORIENTED_EDGE ( 'NONE', *, *, #633, .F. ) ;
#87 = AXIS2_PLACEMENT_3D ( 'NONE', #223, #231, #481 ) ;
#88 = ORIENTED_EDGE ( 'NONE', *, *, #100, .F. ) ;
#89 = AXIS2_PLACEMENT_3D ( 'NONE', #230, #371, #329 ) ;
#90 = DIRECTION ( 'NONE',  ( -1.855525453253564055E-17, 1.000000000000000000, -0.000000000000000000 ) ) ;
#91 = ADVANCED_FACE ( 'NONE', ( #417, #365 ), #415, .F. ) ;
#92 = EDGE_LOOP ( 'NONE', ( #76, #474 ) ) ;
#93 = PLANE ( 'NONE',  #424 ) ;
#94 = DIRECTION ( 'NONE',  ( 0.000000000000000000, 1.000000000000000000, -0.000000000000000000 ) ) ;
#95 = APPLICATION_PROTOCOL_DEFINITION ( 'draft international standard', 'automotive_design', 1998, #655 ) ;
#96 = CARTESIAN_POINT ( 'NONE',  ( -12.50000000000000000, -1.000000000000001110, 0.000000000000000000 ) ) ;
#97 = CARTESIAN_POINT ( 'NONE',  ( 14.95916706503582816, -2.999999999999998668, 1.831969606410663296E-15 ) ) ;
#98 = CARTESIAN_POINT ( 'NONE',  ( -8.673617379884035472E-16, 5.500000000000001776, 0.000000000000000000 ) ) ;
#99 = ORIENTED_EDGE ( 'NONE', *, *, #264, .T. ) ;
#100 = EDGE_CURVE ( 'NONE', #298, #12, #61, .T. ) ;
#101 = DIRECTION ( 'NONE',  ( 0.9999719772760635728, 0.000000000000000000, 0.007486298324242169309 ) ) ;
#102 = PRODUCT ( 'feets x4', 'feets x4', '', ( #545 ) ) ;
#103 = CARTESIAN_POINT ( 'NONE',  ( 11.56866381292676138, 7.888096830861839770, 1.416752710891257320E-15 ) ) ;
#104 = VERTEX_POINT ( 'NONE', #623 ) ;
#105 = CARTESIAN_POINT ( 'NONE',  ( -14.95916706503582816, -2.999999999999999556, 0.000000000000000000 ) ) ;
#106 = ORIENTED_EDGE ( 'NONE', *, *, #543, .T. ) ;
#107 = AXIS2_PLACEMENT_3D ( 'NONE', #400, #114, #313 ) ;
#108 = DIRECTION ( 'NONE',  ( -0.5064693131671343940, 0.000000000000000000, 0.8622579862315055133 ) ) ;
#109 = VECTOR ( 'NONE', #647, 1000.000000000000114 ) ;
#110 = CARTESIAN_POINT ( 'NONE',  ( 2.499999999999998224, 5.500000000000001776, 0.000000000000000000 ) ) ;
#111 = CARTESIAN_POINT ( 'NONE',  ( -2.339281554346638980, 6.500000000000001776, 3.982599043693315188 ) ) ;
#112 = CARTESIAN_POINT ( 'NONE',  ( -2.500000000000000000, 5.500000000000001776, 3.061616997868382155E-16 ) ) ;
#113 = ORIENTED_EDGE ( 'NONE', *, *, #168, .F. ) ;
#114 = DIRECTION ( 'NONE',  ( -0.8697442845557477042, 4.714893214110961766E-17, 0.4935026641089291788 ) ) ;
#115 = LINE ( 'NONE', #580, #234 ) ;
#116 = ORIENTED_EDGE ( 'NONE', *, *, #441, .T. ) ;
#117 = DIRECTION ( 'NONE',  ( -5.421010862427522170E-17, -1.000000000000000000, -0.000000000000000000 ) ) ;
#118 = VECTOR ( 'NONE', #476, 1000.000000000000000 ) ;
#119 =( GEOMETRIC_REPRESENTATION_CONTEXT ( 3 ) GLOBAL_UNCERTAINTY_ASSIGNED_CONTEXT ( ( #174 ) ) GLOBAL_UNIT_ASSIGNED_CONTEXT ( ( #515, #480, #471 ) ) REPRESENTATION_CONTEXT ( 'NONE', 'WORKASPACE' ) );
#120 = CYLINDRICAL_SURFACE ( 'NONE', #609, 5.499999999999999112 ) ;
#121 = EDGE_LOOP ( 'NONE', ( #369, #644 ) ) ;
#122 = EDGE_CURVE ( 'NONE', #42, #244, #123, .T. ) ;
#123 = LINE ( 'NONE', #112, #517 ) ;
#124 = ADVANCED_FACE ( 'NONE', ( #161 ), #120, .F. ) ;
#125 = CARTESIAN_POINT ( 'NONE',  ( -2.500000000000000000, 10.70000000000000107, 3.061616997868382648E-16 ) ) ;
#126 = EDGE_LOOP ( 'NONE', ( #438, #331 ) ) ;
#127 = ADVANCED_BREP_SHAPE_REPRESENTATION ( 'feets x4', ( #539, #642 ), #509 ) ;
#128 = CARTESIAN_POINT ( 'NONE',  ( 1.595751889798065217E-16, -2.999999999999999112, 0.000000000000000000 ) ) ;
#129 = AXIS2_PLACEMENT_3D ( 'NONE', #615, #453, #101 ) ;
#130 = CARTESIAN_POINT ( 'NONE',  ( 11.56866381292676138, 7.888096830861839770, 1.416752710891257320E-15 ) ) ;
#131 = EDGE_CURVE ( 'NONE', #470, #464, #305, .T. ) ;
#132 = MECHANICAL_DESIGN_GEOMETRIC_PRESENTATION_REPRESENTATION (  '', ( #412 ), #119 ) ;
#133 = ORIENTED_EDGE ( 'NONE', *, *, #148, .F. ) ;
#134 = FILL_AREA_STYLE_COLOUR ( '', #320 ) ;
#135 = CARTESIAN_POINT ( 'NONE',  ( -3.905380892413307325, 9.937924431792739099, 0.000000000000000000 ) ) ;
#136 = EDGE_CURVE ( 'NONE', #298, #39, #314, .T. ) ;
#137 = ORIENTED_EDGE ( 'NONE', *, *, #572, .F. ) ;
#138 =( LENGTH_UNIT ( ) NAMED_UNIT ( * ) SI_UNIT ( .MILLI., .METRE. ) );
#139 = ORIENTED_EDGE ( 'NONE', *, *, #335, .F. ) ;
#140 = ADVANCED_FACE ( 'NONE', ( #266 ), #469, .F. ) ;
#141 = EDGE_LOOP ( 'NONE', ( #544, #396, #35, #236 ) ) ;
#142 = CIRCLE ( 'NONE', #531, 12.50000000000000000 ) ;
#143 = FACE_OUTER_BOUND ( 'NONE', #232, .T. ) ;
#144 = DIRECTION ( 'NONE',  ( 0.000000000000000000, 0.000000000000000000, -1.000000000000000000 ) ) ;
#145 = CARTESIAN_POINT ( 'NONE',  ( 2.499999999999998668, 15.50000000000000000, 0.000000000000000000 ) ) ;
#146 = CARTESIAN_POINT ( 'NONE',  ( 2.499999999999997335, 15.50000000000000000, -4.999999999999992895 ) ) ;
#147 = CARTESIAN_POINT ( 'NONE',  ( 2.499999999999996447, 15.50000000000000000, 4.999999999999992895 ) ) ;
#148 = EDGE_CURVE ( 'NONE', #363, #176, #321, .T. ) ;
#149 = CARTESIAN_POINT ( 'NONE',  ( 15.03346208601250922, -2.337268057669226184, -30.06692417202500067 ) ) ;
#150 = AXIS2_PLACEMENT_3D ( 'NONE', #503, #295, #659 ) ;
#151 = AXIS2_PLACEMENT_3D ( 'NONE', #660, #155, #559 ) ;
#152 = CARTESIAN_POINT ( 'NONE',  ( 2.279391167752703229, 10.70000000000000107, 4.017176774515196058 ) ) ;
#153 = ORIENTED_EDGE ( 'NONE', *, *, #534, .T. ) ;
#154 = EDGE_CURVE ( 'NONE', #224, #573, #318, .T. ) ;
#155 = DIRECTION ( 'NONE',  ( -2.891205793294678696E-17, -1.000000000000000000, -0.000000000000000000 ) ) ;
#156 = CARTESIAN_POINT ( 'NONE',  ( 15.03346208601250567, -2.337268057669225740, 1.841068122373830474E-15 ) ) ;
#157 = LINE ( 'NONE', #658, #563 ) ;
#158 = CARTESIAN_POINT ( 'NONE',  ( 2.499999999999998668, 15.50000000000000000, 0.000000000000000000 ) ) ;
#159 = AXIS2_PLACEMENT_3D ( 'NONE', #172, #372, #525 ) ;
#160 = PLANE ( 'NONE',  #390 ) ;
#161 = FACE_OUTER_BOUND ( 'NONE', #535, .T. ) ;
#162 = ORIENTED_EDGE ( 'NONE', *, *, #154, .T. ) ;
#163 = FACE_OUTER_BOUND ( 'NONE', #15, .T. ) ;
#164 = PLANE ( 'NONE',  #357 ) ;
#165 = EDGE_LOOP ( 'NONE', ( #452, #653, #73, #70 ) ) ;
#166 = DIRECTION ( 'NONE',  ( -2.891205793294678696E-17, -1.000000000000000000, -0.000000000000000000 ) ) ;
#167 = DIRECTION ( 'NONE',  ( -0.4935026641089291233, 0.000000000000000000, -0.8697442845557477042 ) ) ;
#168 = EDGE_CURVE ( 'NONE', #288, #607, #473, .T. ) ;
#169 = EDGE_LOOP ( 'NONE', ( #99, #279, #215, #88 ) ) ;
#170 = SURFACE_STYLE_USAGE ( .BOTH. , #177 ) ;
#171 = CIRCLE ( 'NONE', #370, 14.95916706503582816 ) ;
#172 = CARTESIAN_POINT ( 'NONE',  ( -1.055290114552557715E-15, -1.000000000000000000, 0.000000000000000000 ) ) ;
#173 = EDGE_CURVE ( 'NONE', #573, #224, #401, .T. ) ;
#174 = UNCERTAINTY_MEASURE_WITH_UNIT (LENGTH_MEASURE( 1.000000000000000082E-05 ), #515, 'distance_accuracy_value', 'NONE');
#175 = CARTESIAN_POINT ( 'NONE',  ( 2.279391167752703229, 10.70000000000000107, 4.017176774515196058 ) ) ;
#176 = VERTEX_POINT ( 'NONE', #75 ) ;
#177 = SURFACE_SIDE_STYLE ('',( #71 ) ) ;
#178 = CARTESIAN_POINT ( 'NONE',  ( -2.499999999999997335, 15.50000000000000000, 4.999999999999993783 ) ) ;
#179 = ORIENTED_EDGE ( 'NONE', *, *, #284, .T. ) ;
#180 = PLANE ( 'NONE',  #348 ) ;
#181 = CARTESIAN_POINT ( 'NONE',  ( -15.13237644567857032, 0.3906879273376129280, 0.000000000000000000 ) ) ;
#182 = AXIS2_PLACEMENT_3D ( 'NONE', #128, #532, #582 ) ;
#183 = ORIENTED_EDGE ( 'NONE', *, *, #217, .T. ) ;
#184 = CARTESIAN_POINT ( 'NONE',  ( 2.339281554346638536, 6.500000000000001776, -3.982599043693314300 ) ) ;
#185 = ORIENTED_EDGE ( 'NONE', *, *, #572, .T. ) ;
#186 = EDGE_LOOP ( 'NONE', ( #630, #301, #282, #569 ) ) ;
#187 = CARTESIAN_POINT ( 'NONE',  ( 5.499999999999998224, 5.500000000000001776, 0.000000000000000000 ) ) ;
#188 = VECTOR ( 'NONE', #617, 1000.000000000000000 ) ;
#189 = ORIENTED_EDGE ( 'NONE', *, *, #402, .T. ) ;
#190 = CARTESIAN_POINT ( 'NONE',  ( -4.618672722099341321, 6.500000000000001776, -0.03457773082188005109 ) ) ;
#191 = CARTESIAN_POINT ( 'NONE',  ( 1.595751889798065217E-16, -2.999999999999999112, 0.000000000000000000 ) ) ;
#192 = CARTESIAN_POINT ( 'NONE',  ( 5.499999999999998224, 5.500000000000001776, 0.000000000000000000 ) ) ;
#193 = EDGE_LOOP ( 'NONE', ( #596, #113, #25, #418 ) ) ;
#194 = CARTESIAN_POINT ( 'NONE',  ( -5.500000000000000000, 5.500000000000001776, 6.735557395310441037E-16 ) ) ;
#195 = CARTESIAN_POINT ( 'NONE',  ( -11.56866381292676138, 7.888096830861839770, 0.000000000000000000 ) ) ;
#196 = EDGE_CURVE ( 'NONE', #65, #464, #271, .T. ) ;
#197 = B_SPLINE_CURVE_WITH_KNOTS ( 'NONE', 3,
 ( #536, #135, #49, #181, #631, #378 ),
 .UNSPECIFIED., .F., .F.,
 ( 4, 1, 1, 4 ),
 ( 0.000000000000000000, 0.6469421354461462048, 0.9131470036174141880, 1.000000000000000000 ),
 .UNSPECIFIED. ) ;
#198 = CARTESIAN_POINT ( 'NONE',  ( 15.13237644567857032, 0.3906879273376134831, 1.853181637769306435E-15 ) ) ;
#199 = CARTESIAN_POINT ( 'NONE',  ( 15.03346208601250034, -2.337268057669226184, 30.06692417202500778 ) ) ;
#200 = CARTESIAN_POINT ( 'NONE',  ( 3.905380892413306881, 9.937924431792739099, 4.782712209345190982E-16 ) ) ;
#201 = VECTOR ( 'NONE', #375, 1000.000000000000000 ) ;
#202 = CARTESIAN_POINT ( 'NONE',  ( -15.13237644567857032, 0.3906879273376128725, 30.26475289135713709 ) ) ;
#203 = CARTESIAN_POINT ( 'NONE',  ( -2.499999999999997335, 15.49999999999999822, -6.123233995736759380E-16 ) ) ;
#204 = DIRECTION ( 'NONE',  ( 0.9999719772760635728, 0.000000000000000000, 0.007486298324241981959 ) ) ;
#205 = CARTESIAN_POINT ( 'NONE',  ( -7.170190367370802328E-16, 10.70000000000000107, 0.000000000000000000 ) ) ;
#206 = PLANE ( 'NONE',  #107 ) ;
#207 = CARTESIAN_POINT ( 'NONE',  ( 2.499999999999998224, 6.500000000000001776, 0.000000000000000000 ) ) ;
#208 = ORIENTED_EDGE ( 'NONE', *, *, #633, .T. ) ;
#209 = CARTESIAN_POINT ( 'NONE',  ( 14.95916706503582816, -3.000000000000000444, 1.831969606410663296E-15 ) ) ;
#210 = CIRCLE ( 'NONE', #285, 12.50000000000000000 ) ;
#211 = CARTESIAN_POINT ( 'NONE',  ( 11.56866381292676138, 7.888096830861839770, 1.416752710891257320E-15 ) ) ;
#212 = FACE_BOUND ( 'NONE', #121, .T. ) ;
#213 = EDGE_CURVE ( 'NONE', #464, #470, #47, .T. ) ;
#214 = DIRECTION ( 'NONE',  ( 0.5064693131671343940, 0.000000000000000000, -0.8622579862315055133 ) ) ;
#215 = ORIENTED_EDGE ( 'NONE', *, *, #38, .F. ) ;
#216 = DIRECTION ( 'NONE',  ( -1.855525453253564055E-17, 1.000000000000000000, -0.000000000000000000 ) ) ;
#217 = EDGE_CURVE ( 'NONE', #42, #429, #197, .T. ) ;
#218 = CARTESIAN_POINT ( 'NONE',  ( 15.13237644567857032, 0.3906879273376134831, 1.853181637769306435E-15 ) ) ;
#219 = EDGE_LOOP ( 'NONE', ( #577, #388, #46, #86, #133, #518 ) ) ;
#220 = CARTESIAN_POINT ( 'NONE',  ( -4.618672722099341321, 10.70000000000000107, -0.03457773082188005109 ) ) ;
#221 = AXIS2_PLACEMENT_3D ( 'NONE', #349, #510, #413 ) ;
#222 = CIRCLE ( 'NONE', #565, 2.499999999999999112 ) ;
#223 = CARTESIAN_POINT ( 'NONE',  ( -1.836970198721027962E-16, 15.50000000000000000, 0.000000000000000000 ) ) ;
#224 = VERTEX_POINT ( 'NONE', #591 ) ;
#225 = EDGE_CURVE ( 'NONE', #392, #501, #242, .T. ) ;
#226 = DIRECTION ( 'NONE',  ( 1.000000000000000000, 0.000000000000000000, 0.000000000000000000 ) ) ;
#227 = DIRECTION ( 'NONE',  ( -1.000000000000000000, 0.000000000000000000, 0.000000000000000000 ) ) ;
#228 = VERTEX_POINT ( 'NONE', #382 ) ;
#229 = PRODUCT_RELATED_PRODUCT_CATEGORY ( 'part', '', ( #102 ) ) ;
#230 = CARTESIAN_POINT ( 'NONE',  ( -7.170190367370802328E-16, 10.70000000000000107, 0.000000000000000000 ) ) ;
#231 = DIRECTION ( 'NONE',  ( -1.855525453253564055E-17, 1.000000000000000000, -0.000000000000000000 ) ) ;
#232 = EDGE_LOOP ( 'NONE', ( #557, #238 ) ) ;
#233 = CARTESIAN_POINT ( 'NONE',  ( -5.782411586589357639E-16, 15.50000000000000000, 0.000000000000000000 ) ) ;
#234 = VECTOR ( 'NONE', #5, 1000.000000000000000 ) ;
#235 = AXIS2_PLACEMENT_3D ( 'NONE', #77, #574, #270 ) ;
#236 = ORIENTED_EDGE ( 'NONE', *, *, #225, .T. ) ;
#237 = ADVANCED_FACE ( 'NONE', ( #443 ), #484, .F. ) ;
#238 = ORIENTED_EDGE ( 'NONE', *, *, #326, .F. ) ;
#239 = EDGE_CURVE ( 'NONE', #334, #470, #78, .T. ) ;
#240 = EDGE_LOOP ( 'NONE', ( #432, #350 ) ) ;
#241 = DIRECTION ( 'NONE',  ( 1.000000000000000000, 0.000000000000000000, 0.000000000000000000 ) ) ;
#242 = LINE ( 'NONE', #175, #201 ) ;
#243 = VECTOR ( 'NONE', #204, 1000.000000000000114 ) ;
#244 = VERTEX_POINT ( 'NONE', #125 ) ;
#245 = EDGE_CURVE ( 'NONE', #429, #39, #171, .T. ) ;
#246 = CARTESIAN_POINT ( 'NONE',  ( 1.224646799147353207E-16, -1.000000000000000888, 0.000000000000000000 ) ) ;
#247 = DIRECTION ( 'NONE',  ( -2.891205793294678696E-17, -1.000000000000000000, -0.000000000000000000 ) ) ;
#248 = VERTEX_POINT ( 'NONE', #428 ) ;
#249 = CARTESIAN_POINT ( 'NONE',  ( 12.50000000000000000, 15.50000000000000000, 1.530808498934191521E-15 ) ) ;
#250 = EDGE_LOOP ( 'NONE', ( #208, #594, #587, #606 ) ) ;
#251 = CARTESIAN_POINT ( 'NONE',  ( 14.95916706503582283, -3.000000000000000444, 29.91833413007165277 ) ) ;
#252 = ADVANCED_FACE ( 'NONE', ( #652 ), #85, .F. ) ;
#253 = CARTESIAN_POINT ( 'NONE',  ( -11.56866381292675428, 7.888096830861839770, -23.13732762585351921 ) ) ;
#254 = AXIS2_PLACEMENT_3D ( 'NONE', #11, #568, #513 ) ;
#255 = CIRCLE ( 'NONE', #89, 2.499999999999999112 ) ;
#256 = CARTESIAN_POINT ( 'NONE',  ( 15.03346208601250567, -2.337268057669225740, 1.841068122373830474E-15 ) ) ;
#257 = CARTESIAN_POINT ( 'NONE',  ( 2.499999999999996891, 15.49999999999999822, 3.061616997868379690E-16 ) ) ;
#258 = CARTESIAN_POINT ( 'NONE',  ( -2.500000000000000000, 6.500000000000001776, 3.061616997868382155E-16 ) ) ;
#259 = CARTESIAN_POINT ( 'NONE',  ( 4.618672722099341321, 6.500000000000001776, 0.03457773082188295155 ) ) ;
#260 = ORIENTED_EDGE ( 'NONE', *, *, #383, .F. ) ;
#261 = PLANE ( 'NONE',  #129 ) ;
#262 = CARTESIAN_POINT ( 'NONE',  ( 2.818925648462311528E-16, 10.70000000000000107, 0.000000000000000000 ) ) ;
#263 = ORIENTED_EDGE ( 'NONE', *, *, #136, .T. ) ;
#264 = EDGE_CURVE ( 'NONE', #298, #42, #628, .T. ) ;
#265 = CARTESIAN_POINT ( 'NONE',  ( -12.50000000000000000, -1.000000000000000222, 0.000000000000000000 ) ) ;
#266 = FACE_OUTER_BOUND ( 'NONE', #52, .T. ) ;
#267 = ORIENTED_EDGE ( 'NONE', *, *, #441, .F. ) ;
#268 = DIRECTION ( 'NONE',  ( -2.891205793294678696E-17, -1.000000000000000000, -0.000000000000000000 ) ) ;
#269 = ORIENTED_EDGE ( 'NONE', *, *, #62, .T. ) ;
#270 = DIRECTION ( 'NONE',  ( 1.000000000000000000, 0.000000000000000000, 0.000000000000000000 ) ) ;
#271 = LINE ( 'NONE', #110, #118 ) ;
#272 = CARTESIAN_POINT ( 'NONE',  ( -8.673617379884035472E-16, 5.500000000000001776, 0.000000000000000000 ) ) ;
#273 = AXIS2_PLACEMENT_3D ( 'NONE', #465, #8, #567 ) ;
#274 = AXIS2_PLACEMENT_3D ( 'NONE', #627, #166, #226 ) ;
#275 = LINE ( 'NONE', #551, #21 ) ;
#276 = EDGE_CURVE ( 'NONE', #501, #363, #275, .T. ) ;
#277 = ORIENTED_EDGE ( 'NONE', *, *, #643, .F. ) ;
#278 = DIRECTION ( 'NONE',  ( -1.855525453253564055E-17, 1.000000000000000000, -0.000000000000000000 ) ) ;
#279 = ORIENTED_EDGE ( 'NONE', *, *, #122, .T. ) ;
#280 = CARTESIAN_POINT ( 'NONE',  ( -8.673617379884035472E-16, 5.500000000000001776, 0.000000000000000000 ) ) ;
#281 = DIRECTION ( 'NONE',  ( -0.9999719772760635728, 0.000000000000000000, -0.007486298324242169309 ) ) ;
#282 = ORIENTED_EDGE ( 'NONE', *, *, #100, .T. ) ;
#283 = DIRECTION ( 'NONE',  ( -2.891205793294678696E-17, -1.000000000000000000, -0.000000000000000000 ) ) ;
#284 = EDGE_CURVE ( 'NONE', #286, #488, #530, .T. ) ;
#285 = AXIS2_PLACEMENT_3D ( 'NONE', #60, #306, #74 ) ;
#286 = VERTEX_POINT ( 'NONE', #96 ) ;
#287 = DIRECTION ( 'NONE',  ( -1.000000000000000000, 0.000000000000000000, 0.000000000000000000 ) ) ;
#288 = VERTEX_POINT ( 'NONE', #600 ) ;
#289 = DIRECTION ( 'NONE',  ( 0.000000000000000000, 0.000000000000000000, 1.000000000000000000 ) ) ;
#290 = EDGE_CURVE ( 'NONE', #392, #83, #447, .T. ) ;
#291 = FACE_OUTER_BOUND ( 'NONE', #193, .T. ) ;
#292 = DIRECTION ( 'NONE',  ( -2.891205793294678696E-17, -1.000000000000000000, -0.000000000000000000 ) ) ;
#293 = LINE ( 'NONE', #499, #423 ) ;
#294 = VECTOR ( 'NONE', #167, 1000.000000000000114 ) ;
#295 = DIRECTION ( 'NONE',  ( 0.007486298324241982827, -4.058330453508874713E-19, -0.9999719772760636838 ) ) ;
#296 = AXIS2_PLACEMENT_3D ( 'NONE', #389, #595, #593 ) ;
#297 = CARTESIAN_POINT ( 'NONE',  ( -11.56866381292675960, 7.888096830861839770, 23.13732762585351921 ) ) ;
#298 = VERTEX_POINT ( 'NONE', #145 ) ;
#299 = DIRECTION ( 'NONE',  ( 0.4935026641089290123, 0.000000000000000000, 0.8697442845557477042 ) ) ;
#300 = DIRECTION ( 'NONE',  ( 0.4935026641089290123, 0.000000000000000000, 0.8697442845557477042 ) ) ;
#301 = ORIENTED_EDGE ( 'NONE', *, *, #578, .T. ) ;
#302 = LINE ( 'NONE', #355, #68 ) ;
#303 = EDGE_CURVE ( 'NONE', #83, #363, #293, .T. ) ;
#304 = CARTESIAN_POINT ( 'NONE',  ( -14.95916706503582816, -3.000000000000000000, 0.000000000000000000 ) ) ;
#305 = CIRCLE ( 'NONE', #576, 2.499999999999998668 ) ;
#306 = DIRECTION ( 'NONE',  ( -1.855525453253564055E-17, 1.000000000000000000, -0.000000000000000000 ) ) ;
#307 = FACE_OUTER_BOUND ( 'NONE', #467, .T. ) ;
#308 = VERTEX_POINT ( 'NONE', #327 ) ;
#309 = LINE ( 'NONE', #57, #618 ) ;
#310 = FACE_BOUND ( 'NONE', #240, .T. ) ;
#311 = ADVANCED_FACE ( 'NONE', ( #342 ), #564, .T. ) ;
#312 = ORIENTED_EDGE ( 'NONE', *, *, #383, .T. ) ;
#313 = DIRECTION ( 'NONE',  ( 0.4935026641089291788, 0.000000000000000000, 0.8697442845557477042 ) ) ;
#314 = B_SPLINE_CURVE_WITH_KNOTS ( 'NONE', 3,
 ( #158, #324, #211, #218, #64, #69 ),
 .UNSPECIFIED., .F., .F.,
 ( 4, 1, 1, 4 ),
 ( 0.000000000000000000, 0.6469421354461462048, 0.9131470036174141880, 1.000000000000000000 ),
 .UNSPECIFIED. ) ;
#315 = DIRECTION ( 'NONE',  ( 1.000000000000000000, 0.000000000000000000, 0.000000000000000000 ) ) ;
#316 = ORIENTED_EDGE ( 'NONE', *, *, #543, .F. ) ;
#317 = ADVANCED_FACE ( 'NONE', ( #63 ), #160, .F. ) ;
#318 = CIRCLE ( 'NONE', #444, 5.499999999999999112 ) ;
#319 = FACE_OUTER_BOUND ( 'NONE', #376, .T. ) ;
#320 = COLOUR_RGB ( '',0.7921568627450980005, 0.8196078431372548767, 0.9333333333333333481 ) ;
#321 = LINE ( 'NONE', #511, #294 ) ;
#322 = VERTEX_POINT ( 'NONE', #458 ) ;
#323 = CARTESIAN_POINT ( 'NONE',  ( -4.618672722099341321, 10.70000000000000107, -0.03457773082188005109 ) ) ;
#324 = CARTESIAN_POINT ( 'NONE',  ( 3.905380892413306881, 9.937924431792739099, 4.782712209345190982E-16 ) ) ;
#325 = LINE ( 'NONE', #16, #640 ) ;
#326 = EDGE_CURVE ( 'NONE', #39, #429, #505, .T. ) ;
#327 = CARTESIAN_POINT ( 'NONE',  ( 4.618672722099341321, 10.70000000000000107, 0.03457773082188295155 ) ) ;
#328 = ORIENTED_EDGE ( 'NONE', *, *, #578, .F. ) ;
#329 = DIRECTION ( 'NONE',  ( 0.000000000000000000, 0.000000000000000000, -1.000000000000000000 ) ) ;
#330 = CARTESIAN_POINT ( 'NONE',  ( 3.905380892413306881, 9.937924431792739099, 4.782712209345190982E-16 ) ) ;
#331 = ORIENTED_EDGE ( 'NONE', *, *, #598, .T. ) ;
#332 = CARTESIAN_POINT ( 'NONE',  ( -8.673617379884035472E-16, 5.500000000000001776, 0.000000000000000000 ) ) ;
#333 = DIRECTION ( 'NONE',  ( -1.855525453253564055E-17, 1.000000000000000000, -0.000000000000000000 ) ) ;
#334 = VERTEX_POINT ( 'NONE', #258 ) ;
#335 = EDGE_CURVE ( 'NONE', #104, #488, #51, .T. ) ;
#336 = EDGE_LOOP ( 'NONE', ( #636, #553, #277, #411 ) ) ;
#337 = DIRECTION ( 'NONE',  ( -1.855525453253564055E-17, 1.000000000000000000, -0.000000000000000000 ) ) ;
#338 = AXIS2_PLACEMENT_3D ( 'NONE', #583, #278, #227 ) ;
#339 = CIRCLE ( 'NONE', #182, 12.50000000000000000 ) ;
#340 = EDGE_LOOP ( 'NONE', ( #19, #386 ) ) ;
#341 = EDGE_LOOP ( 'NONE', ( #379, #554, #116, #316 ) ) ;
#342 = FACE_OUTER_BOUND ( 'NONE', #479, .T. ) ;
#343 = ADVANCED_FACE ( 'NONE', ( #352 ), #206, .F. ) ;
#344 = LINE ( 'NONE', #556, #588 ) ;
#345 = CARTESIAN_POINT ( 'NONE',  ( -3.905380892413307770, 9.937924431792739099, 7.810761784826613763 ) ) ;
#346 = PRODUCT_DEFINITION_SHAPE ( 'NONE', 'NONE',  #434 ) ;
#347 = FACE_BOUND ( 'NONE', #529, .T. ) ;
#348 = AXIS2_PLACEMENT_3D ( 'NONE', #265, #523, #380 ) ;
#349 = CARTESIAN_POINT ( 'NONE',  ( 1.595751889798065217E-16, -2.999999999999999112, 0.000000000000000000 ) ) ;
#350 = ORIENTED_EDGE ( 'NONE', *, *, #451, .T. ) ;
#351 = EDGE_CURVE ( 'NONE', #322, #228, #622, .T. ) ;
#352 = FACE_OUTER_BOUND ( 'NONE', #336, .T. ) ;
#353 = CARTESIAN_POINT ( 'NONE',  ( -15.13237644567857032, 0.3906879273376129280, -3.706363275538612870E-15 ) ) ;
#354 = EDGE_CURVE ( 'NONE', #228, #607, #53, .T. ) ;
#355 = CARTESIAN_POINT ( 'NONE',  ( 4.618672722099341321, 6.500000000000001776, 0.03457773082188295155 ) ) ;
#356 = CARTESIAN_POINT ( 'NONE',  ( -8.673617379884035472E-16, 5.500000000000001776, 0.000000000000000000 ) ) ;
#357 = AXIS2_PLACEMENT_3D ( 'NONE', #262, #22, #575 ) ;
#358 = VECTOR ( 'NONE', #579, 1000.000000000000114 ) ;
#359 = FACE_OUTER_BOUND ( 'NONE', #341, .T. ) ;
#360 =( BOUNDED_SURFACE ( )  B_SPLINE_SURFACE ( 3, 3, ( 
 ( #257, #146, #508, #203 ),
 ( #200, #657, #550, #497 ),
 ( #103, #50, #253, #456 ),
 ( #198, #663, #399, #353 ),
 ( #156, #149, #560, #59 ),
 ( #2, #599, #625, #516 ) ),
 .UNSPECIFIED., .F., .F., .T. ) 
 B_SPLINE_SURFACE_WITH_KNOTS ( ( 4, 1, 1, 4 ),
 ( 4, 4 ),
 ( 0.000000000000000000, 0.6469421354461462048, 0.9131470036174141880, 1.000000000000000000 ),
 ( 0.000000000000000000, 1.000000000000000000 ),
 .UNSPECIFIED. ) 
 GEOMETRIC_REPRESENTATION_ITEM ( )  RATIONAL_B_SPLINE_SURFACE ( (
 ( 1.000000000000000000, 0.3333333333333334259, 0.3333333333333334259, 1.000000000000000000),
 ( 1.000000000000000000, 0.3333333333333334259, 0.3333333333333334259, 1.000000000000000000),
 ( 1.000000000000000000, 0.3333333333333334259, 0.3333333333333334259, 1.000000000000000000),
 ( 1.000000000000000000, 0.3333333333333334259, 0.3333333333333334259, 1.000000000000000000),
 ( 1.000000000000000000, 0.3333333333333334259, 0.3333333333333334259, 1.000000000000000000),
 ( 1.000000000000000000, 0.3333333333333334259, 0.3333333333333334259, 1.000000000000000000) ) ) 
 REPRESENTATION_ITEM ( '' )  SURFACE ( )  );
#361 = ADVANCED_FACE ( 'NONE', ( #359 ), #608, .F. ) ;
#362 = DIRECTION ( 'NONE',  ( 1.000000000000000000, 0.000000000000000000, 0.000000000000000000 ) ) ;
#363 = VERTEX_POINT ( 'NONE', #111 ) ;
#364 = CARTESIAN_POINT ( 'NONE',  ( -14.95916706503582816, -3.000000000000001332, 29.91833413007164566 ) ) ;
#365 = FACE_BOUND ( 'NONE', #92, .T. ) ;
#366 = ORIENTED_EDGE ( 'NONE', *, *, #264, .F. ) ;
#367 = CYLINDRICAL_SURFACE ( 'NONE', #610, 5.499999999999999112 ) ;
#368 = DIRECTION ( 'NONE',  ( 1.855525453253564055E-17, -1.000000000000000000, 0.000000000000000000 ) ) ;
#369 = ORIENTED_EDGE ( 'NONE', *, *, #213, .F. ) ;
#370 = AXIS2_PLACEMENT_3D ( 'NONE', #191, #333, #635 ) ;
#371 = DIRECTION ( 'NONE',  ( 0.000000000000000000, 1.000000000000000000, -0.000000000000000000 ) ) ;
#372 = DIRECTION ( 'NONE',  ( 1.855525453253564055E-17, -1.000000000000000000, 0.000000000000000000 ) ) ;
#373 = ORIENTED_EDGE ( 'NONE', *, *, #136, .F. ) ;
#374 = CYLINDRICAL_SURFACE ( 'NONE', #235, 2.499999999999999112 ) ;
#375 = DIRECTION ( 'NONE',  ( -5.421010862427522170E-17, -1.000000000000000000, -0.000000000000000000 ) ) ;
#376 = EDGE_LOOP ( 'NONE', ( #449, #267 ) ) ;
#377 = FACE_BOUND ( 'NONE', #340, .T. ) ;
#378 = CARTESIAN_POINT ( 'NONE',  ( -14.95916706503582816, -2.999999999999999556, 0.000000000000000000 ) ) ;
#379 = ORIENTED_EDGE ( 'NONE', *, *, #506, .F. ) ;
#380 = DIRECTION ( 'NONE',  ( 1.000000000000000000, 1.855525453253564055E-17, 0.000000000000000000 ) ) ;
#381 = VECTOR ( 'NONE', #300, 1000.000000000000341 ) ;
#382 = CARTESIAN_POINT ( 'NONE',  ( -2.279391167752703229, 6.500000000000001776, -4.017176774515194282 ) ) ;
#383 = EDGE_CURVE ( 'NONE', #308, #392, #157, .T. ) ;
#384 = ORIENTED_EDGE ( 'NONE', *, *, #650, .T. ) ;
#385 = DIRECTION ( 'NONE',  ( 1.000000000000000000, 0.000000000000000000, 0.000000000000000000 ) ) ;
#386 = ORIENTED_EDGE ( 'NONE', *, *, #173, .F. ) ;
#387 = DIRECTION ( 'NONE',  ( -1.000000000000000000, -3.469446951953614189E-17, 0.000000000000000000 ) ) ;
#388 = ORIENTED_EDGE ( 'NONE', *, *, #24, .F. ) ;
#389 = CARTESIAN_POINT ( 'NONE',  ( -8.384496800554567294E-16, 6.500000000000001776, 0.000000000000000000 ) ) ;
#390 = AXIS2_PLACEMENT_3D ( 'NONE', #1, #570, #4 ) ;
#391 = CIRCLE ( 'NONE', #79, 5.499999999999999112 ) ;
#392 = VERTEX_POINT ( 'NONE', #152 ) ;
#393 = DIRECTION ( 'NONE',  ( 0.000000000000000000, 1.000000000000000000, -0.000000000000000000 ) ) ;
#394 = DIRECTION ( 'NONE',  ( -2.891205793294678696E-17, -1.000000000000000000, -0.000000000000000000 ) ) ;
#395 = LINE ( 'NONE', #446, #381 ) ;
#396 = ORIENTED_EDGE ( 'NONE', *, *, #303, .F. ) ;
#397 = CARTESIAN_POINT ( 'NONE',  ( -4.618672722099341321, 10.70000000000000107, -0.03457773082188005109 ) ) ;
#398 = CARTESIAN_POINT ( 'NONE',  ( -2.500000000000000000, 5.500000000000001776, 3.061616997868382155E-16 ) ) ;
#399 = CARTESIAN_POINT ( 'NONE',  ( -15.13237644567856321, 0.3906879273376128725, -30.26475289135713709 ) ) ;
#400 = CARTESIAN_POINT ( 'NONE',  ( -2.339281554346638536, 10.70000000000000107, 3.982599043693315188 ) ) ;
#401 = CIRCLE ( 'NONE', #159, 5.499999999999999112 ) ;
#402 = EDGE_CURVE ( 'NONE', #288, #308, #309, .T. ) ;
#403 = DIRECTION ( 'NONE',  ( 0.5064693131671341719, 0.000000000000000000, -0.8622579862315056243 ) ) ;
#404 = CARTESIAN_POINT ( 'NONE',  ( -15.03346208601250567, -2.337268057669226184, 0.000000000000000000 ) ) ;
#405 = DIRECTION ( 'NONE',  ( 1.000000000000000000, 1.855525453253564055E-17, 0.000000000000000000 ) ) ;
#406 = DIRECTION ( 'NONE',  ( -1.855525453253564055E-17, 1.000000000000000000, -0.000000000000000000 ) ) ;
#407 = DIRECTION ( 'NONE',  ( -2.891205793294678696E-17, -1.000000000000000000, -0.000000000000000000 ) ) ;
#408 = CARTESIAN_POINT ( 'NONE',  ( -15.03346208601250567, -2.337268057669226184, 30.06692417202500067 ) ) ;
#409 = CARTESIAN_POINT ( 'NONE',  ( -8.673617379884035472E-16, 5.500000000000001776, 0.000000000000000000 ) ) ;
#410 = AXIS2_PLACEMENT_3D ( 'NONE', #246, #533, #34 ) ;
#411 = ORIENTED_EDGE ( 'NONE', *, *, #303, .T. ) ;
#412 = STYLED_ITEM ( 'NONE', ( #585 ), #539 ) ;
#413 = DIRECTION ( 'NONE',  ( -1.000000000000000000, -2.899097704496176488E-17, 0.000000000000000000 ) ) ;
#414 = ADVANCED_FACE ( 'NONE', ( #555 ), #261, .F. ) ;
#415 = PLANE ( 'NONE',  #254 ) ;
#416 = ORIENTED_EDGE ( 'NONE', *, *, #33, .T. ) ;
#417 = FACE_OUTER_BOUND ( 'NONE', #219, .T. ) ;
#418 = ORIENTED_EDGE ( 'NONE', *, *, #351, .T. ) ;
#419 = FACE_OUTER_BOUND ( 'NONE', #126, .T. ) ;
#420 = CARTESIAN_POINT ( 'NONE',  ( 2.339281554346638980, 10.70000000000000107, -3.982599043693314300 ) ) ;
#421 = ADVANCED_FACE ( 'NONE', ( #163 ), #502, .F. ) ;
#422 = EDGE_LOOP ( 'NONE', ( #6, #435, #632, #162 ) ) ;
#423 = VECTOR ( 'NONE', #28, 1000.000000000000000 ) ;
#424 = AXIS2_PLACEMENT_3D ( 'NONE', #654, #486, #43 ) ;
#425 = DIRECTION ( 'NONE',  ( 1.000000000000000000, 0.000000000000000000, 0.000000000000000000 ) ) ;
#426 = ORIENTED_EDGE ( 'NONE', *, *, #173, .T. ) ;
#427 = LINE ( 'NONE', #323, #457 ) ;
#428 = CARTESIAN_POINT ( 'NONE',  ( -12.50000000000000000, -2.999999999999999556, 0.000000000000000000 ) ) ;
#429 = VERTEX_POINT ( 'NONE', #105 ) ;
#430 = PLANE ( 'NONE',  #58 ) ;
#431 = CARTESIAN_POINT ( 'NONE',  ( 2.279391167752703229, 10.70000000000000107, 4.017176774515196058 ) ) ;
#432 = ORIENTED_EDGE ( 'NONE', *, *, #38, .T. ) ;
#433 = VECTOR ( 'NONE', #268, 1000.000000000000000 ) ;
#434 = PRODUCT_DEFINITION ( 'UNKNOWN', '', #26, #590 ) ;
#435 = ORIENTED_EDGE ( 'NONE', *, *, #498, .F. ) ;
#436 = CARTESIAN_POINT ( 'NONE',  ( 0.000000000000000000, 0.000000000000000000, 0.000000000000000000 ) ) ;
#437 = EDGE_CURVE ( 'NONE', #80, #501, #302, .T. ) ;
#438 = ORIENTED_EDGE ( 'NONE', *, *, #498, .T. ) ;
#439 =( NAMED_UNIT ( * ) SI_UNIT ( $, .STERADIAN. ) SOLID_ANGLE_UNIT ( ) );
#440 = ORIENTED_EDGE ( 'NONE', *, *, #662, .T. ) ;
#441 = EDGE_CURVE ( 'NONE', #488, #286, #210, .T. ) ;
#442 = CARTESIAN_POINT ( 'NONE',  ( 1.595751889798065217E-16, -2.999999999999999112, 0.000000000000000000 ) ) ;
#443 = FACE_OUTER_BOUND ( 'NONE', #482, .T. ) ;
#444 = AXIS2_PLACEMENT_3D ( 'NONE', #616, #368, #521 ) ;
#445 = VECTOR ( 'NONE', #292, 1000.000000000000000 ) ;
#446 = CARTESIAN_POINT ( 'NONE',  ( 2.339281554346638536, 6.500000000000001776, -3.982599043693314300 ) ) ;
#447 = LINE ( 'NONE', #431, #56 ) ;
#448 = DIRECTION ( 'NONE',  ( 1.855525453253564055E-17, -1.000000000000000000, 0.000000000000000000 ) ) ;
#449 = ORIENTED_EDGE ( 'NONE', *, *, #284, .F. ) ;
#450 = CARTESIAN_POINT ( 'NONE',  ( -2.279391167752702785, 10.70000000000000107, -4.017176774515194282 ) ) ;
#451 = EDGE_CURVE ( 'NONE', #244, #12, #255, .T. ) ;
#452 = ORIENTED_EDGE ( 'NONE', *, *, #24, .T. ) ;
#453 = DIRECTION ( 'NONE',  ( -0.007486298324242170177, 4.058330453508975343E-19, 0.9999719772760636838 ) ) ;
#454 = CIRCLE ( 'NONE', #477, 2.499999999999999112 ) ;
#455 = AXIS2_PLACEMENT_3D ( 'NONE', #98, #394, #605 ) ;
#456 = CARTESIAN_POINT ( 'NONE',  ( -11.56866381292676138, 7.888096830861839770, -2.833505421782514640E-15 ) ) ;
#457 = VECTOR ( 'NONE', #117, 1000.000000000000000 ) ;
#458 = CARTESIAN_POINT ( 'NONE',  ( -2.279391167752702785, 10.70000000000000107, -4.017176774515194282 ) ) ;
#459 = APPLICATION_CONTEXT ( 'automotive_design' ) ;
#460 = LINE ( 'NONE', #192, #67 ) ;
#461 = EDGE_CURVE ( 'NONE', #561, #176, #427, .T. ) ;
#462 = CARTESIAN_POINT ( 'NONE',  ( 15.13237644567857032, 0.3906879273376134831, 1.853181637769306435E-15 ) ) ;
#463 = CARTESIAN_POINT ( 'NONE',  ( 2.499999999999998224, 5.500000000000001776, 0.000000000000000000 ) ) ;
#464 = VERTEX_POINT ( 'NONE', #27 ) ;
#465 = CARTESIAN_POINT ( 'NONE',  ( -1.836970198721027962E-16, 15.50000000000000000, 0.000000000000000000 ) ) ;
#466 = CARTESIAN_POINT ( 'NONE',  ( -2.339281554346638536, 10.70000000000000107, 3.982599043693315188 ) ) ;
#467 = EDGE_LOOP ( 'NONE', ( #312, #626, #537, #416, #153, #189 ) ) ;
#468 = LINE ( 'NONE', #589, #358 ) ;
#469 = PLANE ( 'NONE',  #540 ) ;
#470 = VERTEX_POINT ( 'NONE', #478 ) ;
#471 =( NAMED_UNIT ( * ) SI_UNIT ( $, .STERADIAN. ) SOLID_ANGLE_UNIT ( ) );
#472 = ADVANCED_FACE ( 'NONE', ( #66 ), #374, .F. ) ;
#473 = LINE ( 'NONE', #420, #36 ) ;
#474 = ORIENTED_EDGE ( 'NONE', *, *, #662, .F. ) ;
#475 = CARTESIAN_POINT ( 'NONE',  ( 2.279391167752702785, 6.500000000000001776, 4.017176774515196058 ) ) ;
#476 = DIRECTION ( 'NONE',  ( -2.891205793294678696E-17, -1.000000000000000000, -0.000000000000000000 ) ) ;
#477 = AXIS2_PLACEMENT_3D ( 'NONE', #205, #94, #55 ) ;
#478 = CARTESIAN_POINT ( 'NONE',  ( -2.499999999999999556, 5.500000000000001776, 3.061616997868382155E-16 ) ) ;
#479 = EDGE_LOOP ( 'NONE', ( #373, #328, #183, #492 ) ) ;
#480 =( NAMED_UNIT ( * ) PLANE_ANGLE_UNIT ( ) SI_UNIT ( $, .RADIAN. ) );
#481 = DIRECTION ( 'NONE',  ( -1.000000000000000000, 0.000000000000000000, 0.000000000000000000 ) ) ;
#482 = EDGE_LOOP ( 'NONE', ( #139, #137, #106, #179 ) ) ;
#483 = CARTESIAN_POINT ( 'NONE',  ( -2.339281554346638536, 10.70000000000000107, 3.982599043693315188 ) ) ;
#484 = CYLINDRICAL_SURFACE ( 'NONE', #87, 12.50000000000000000 ) ;
#485 = ORIENTED_EDGE ( 'NONE', *, *, #598, .F. ) ;
#486 = DIRECTION ( 'NONE',  ( 2.891205793294678696E-17, 1.000000000000000000, 0.000000000000000000 ) ) ;
#487 = AXIS2_PLACEMENT_3D ( 'NONE', #356, #566, #425 ) ;
#488 = VERTEX_POINT ( 'NONE', #13 ) ;
#489 = LINE ( 'NONE', #190, #109 ) ;
#490 = ORIENTED_EDGE ( 'NONE', *, *, #239, .F. ) ;
#491 = LINE ( 'NONE', #194, #445 ) ;
#492 = ORIENTED_EDGE ( 'NONE', *, *, #245, .T. ) ;
#493 = ORIENTED_EDGE ( 'NONE', *, *, #326, .T. ) ;
#494 = APPLICATION_PROTOCOL_DEFINITION ( 'draft international standard', 'automotive_design', 1998, #459 ) ;
#495 = CARTESIAN_POINT ( 'NONE',  ( 2.499999999999996891, 15.49999999999999822, 3.061616997868379690E-16 ) ) ;
#496 = AXIS2_PLACEMENT_3D ( 'NONE', #541, #393, #144 ) ;
#497 = CARTESIAN_POINT ( 'NONE',  ( -3.905380892413307325, 9.937924431792739099, -9.565424418690381963E-16 ) ) ;
#498 = EDGE_CURVE ( 'NONE', #639, #29, #542, .T. ) ;
#499 = CARTESIAN_POINT ( 'NONE',  ( -2.339281554346638536, 10.70000000000000107, 3.982599043693315188 ) ) ;
#500 = CARTESIAN_POINT ( 'NONE',  ( -2.499999999999999556, 15.50000000000000000, 3.061616997868382155E-16 ) ) ;
#501 = VERTEX_POINT ( 'NONE', #475 ) ;
#502 = CYLINDRICAL_SURFACE ( 'NONE', #151, 2.499999999999999112 ) ;
#503 = CARTESIAN_POINT ( 'NONE',  ( -2.279391167752702785, 10.70000000000000107, -4.017176774515194282 ) ) ;
#504 = CARTESIAN_POINT ( 'NONE',  ( -2.279391167752703229, 6.500000000000001776, -4.017176774515194282 ) ) ;
#505 = CIRCLE ( 'NONE', #221, 14.95916706503582816 ) ;
#506 = EDGE_CURVE ( 'NONE', #104, #248, #339, .T. ) ;
#507 = AXIS2_PLACEMENT_3D ( 'NONE', #332, #283, #241 ) ;
#508 = CARTESIAN_POINT ( 'NONE',  ( -2.499999999999996003, 15.50000000000000000, -4.999999999999994671 ) ) ;
#509 =( GEOMETRIC_REPRESENTATION_CONTEXT ( 3 ) GLOBAL_UNCERTAINTY_ASSIGNED_CONTEXT ( ( #546 ) ) GLOBAL_UNIT_ASSIGNED_CONTEXT ( ( #138, #84, #439 ) ) REPRESENTATION_CONTEXT ( 'NONE', 'WORKASPACE' ) );
#510 = DIRECTION ( 'NONE',  ( -1.855525453253564055E-17, 1.000000000000000000, -0.000000000000000000 ) ) ;
#511 = CARTESIAN_POINT ( 'NONE',  ( -2.339281554346638980, 6.500000000000001776, 3.982599043693315188 ) ) ;
#512 = CARTESIAN_POINT ( 'NONE',  ( -14.95916706503582816, -3.000000000000000888, 0.000000000000000000 ) ) ;
#513 = DIRECTION ( 'NONE',  ( 0.000000000000000000, -0.000000000000000000, -1.000000000000000000 ) ) ;
#514 = ORIENTED_EDGE ( 'NONE', *, *, #225, .F. ) ;
#515 =( LENGTH_UNIT ( ) NAMED_UNIT ( * ) SI_UNIT ( .MILLI., .METRE. ) );
#516 = CARTESIAN_POINT ( 'NONE',  ( -14.95916706503582816, -3.000000000000000888, -3.663939212821326591E-15 ) ) ;
#517 = VECTOR ( 'NONE', #571, 1000.000000000000000 ) ;
#518 = ORIENTED_EDGE ( 'NONE', *, *, #276, .F. ) ;
#519 = ADVANCED_FACE ( 'NONE', ( #377, #319 ), #180, .T. ) ;
#520 = FILL_AREA_STYLE ('',( #134 ) ) ;
#521 = DIRECTION ( 'NONE',  ( 1.000000000000000000, 0.000000000000000000, 0.000000000000000000 ) ) ;
#522 = ORIENTED_EDGE ( 'NONE', *, *, #506, .T. ) ;
#523 = DIRECTION ( 'NONE',  ( 1.855525453253564055E-17, -1.000000000000000000, 0.000000000000000000 ) ) ;
#524 = ADVANCED_FACE ( 'NONE', ( #20 ), #367, .F. ) ;
#525 = DIRECTION ( 'NONE',  ( 1.000000000000000000, 0.000000000000000000, 0.000000000000000000 ) ) ;
#526 = DIRECTION ( 'NONE',  ( -0.5064693131671342829, 0.000000000000000000, 0.8622579862315056243 ) ) ;
#527 = DIRECTION ( 'NONE',  ( -2.891205793294678696E-17, -1.000000000000000000, -0.000000000000000000 ) ) ;
#528 = ADVANCED_FACE ( 'NONE', ( #634 ), #430, .F. ) ;
#529 = EDGE_LOOP ( 'NONE', ( #185, #522 ) ) ;
#530 = CIRCLE ( 'NONE', #410, 12.50000000000000000 ) ;
#531 = AXIS2_PLACEMENT_3D ( 'NONE', #442, #90, #387 ) ;
#532 = DIRECTION ( 'NONE',  ( -1.855525453253564055E-17, 1.000000000000000000, -0.000000000000000000 ) ) ;
#533 = DIRECTION ( 'NONE',  ( -1.855525453253564055E-17, 1.000000000000000000, -0.000000000000000000 ) ) ;
#534 = EDGE_CURVE ( 'NONE', #322, #288, #468, .T. ) ;
#535 = EDGE_LOOP ( 'NONE', ( #485, #384, #426, #584 ) ) ;
#536 = CARTESIAN_POINT ( 'NONE',  ( -2.499999999999999556, 15.50000000000000000, 3.061616997868382155E-16 ) ) ;
#537 = ORIENTED_EDGE ( 'NONE', *, *, #643, .T. ) ;
#538 = ORIENTED_EDGE ( 'NONE', *, *, #437, .T. ) ;
#539 = MANIFOLD_SOLID_BREP ( 'Enl\X2\00e8\X0\v. mat.-Extru.1', #552 ) ;
#540 = AXIS2_PLACEMENT_3D ( 'NONE', #14, #17, #214 ) ;
#541 = CARTESIAN_POINT ( 'NONE',  ( -8.384496800554567294E-16, 6.500000000000001776, 0.000000000000000000 ) ) ;
#542 = CIRCLE ( 'NONE', #274, 5.499999999999999112 ) ;
#543 = EDGE_CURVE ( 'NONE', #248, #286, #325, .T. ) ;
#544 = ORIENTED_EDGE ( 'NONE', *, *, #276, .T. ) ;
#545 = PRODUCT_CONTEXT ( 'NONE', #655, 'mechanical' ) ;
#546 = UNCERTAINTY_MEASURE_WITH_UNIT (LENGTH_MEASURE( 1.000000000000000082E-05 ), #138, 'distance_accuracy_value', 'NONE');
#547 = PLANE ( 'NONE',  #661 ) ;
#548 = CARTESIAN_POINT ( 'NONE',  ( -2.499999999999997335, 15.49999999999999822, 0.000000000000000000 ) ) ;
#549 = ADVANCED_FACE ( 'NONE', ( #212, #419 ), #93, .F. ) ;
#550 = CARTESIAN_POINT ( 'NONE',  ( -3.905380892413305549, 9.937924431792739099, -7.810761784826613763 ) ) ;
#551 = CARTESIAN_POINT ( 'NONE',  ( 2.279391167752702785, 6.500000000000001776, 4.017176774515196058 ) ) ;
#552 = CLOSED_SHELL ( 'NONE', ( #45, #124, #421, #361, #252, #472, #311, #7, #237, #519, #558, #549, #524, #54, #91, #140, #317, #41, #528, #343, #414 ) ) ;
#553 = ORIENTED_EDGE ( 'NONE', *, *, #461, .F. ) ;
#554 = ORIENTED_EDGE ( 'NONE', *, *, #335, .T. ) ;
#555 = FACE_OUTER_BOUND ( 'NONE', #141, .T. ) ;
#556 = CARTESIAN_POINT ( 'NONE',  ( -4.618672722099341321, 10.70000000000000107, -0.03457773082188005109 ) ) ;
#557 = ORIENTED_EDGE ( 'NONE', *, *, #245, .F. ) ;
#558 = ADVANCED_FACE ( 'NONE', ( #40 ), #641, .F. ) ;
#559 = DIRECTION ( 'NONE',  ( 1.000000000000000000, 0.000000000000000000, 0.000000000000000000 ) ) ;
#560 = CARTESIAN_POINT ( 'NONE',  ( -15.03346208601249856, -2.337268057669226184, -30.06692417202500778 ) ) ;
#561 = VERTEX_POINT ( 'NONE', #397 ) ;
#562 = CARTESIAN_POINT ( 'NONE',  ( 15.13237644567856854, 0.3906879273376134831, 30.26475289135713709 ) ) ;
#563 = VECTOR ( 'NONE', #612, 999.9999999999998863 ) ;
#564 =( BOUNDED_SURFACE ( )  B_SPLINE_SURFACE ( 3, 3, ( 
 ( #548, #178, #147, #495 ),
 ( #656, #345, #586, #330 ),
 ( #195, #297, #638, #130 ),
 ( #82, #202, #562, #462 ),
 ( #404, #408, #199, #256 ),
 ( #512, #364, #251, #209 ) ),
 .UNSPECIFIED., .F., .F., .F. ) 
 B_SPLINE_SURFACE_WITH_KNOTS ( ( 4, 1, 1, 4 ),
 ( 4, 4 ),
 ( 0.000000000000000000, 0.6469421354461462048, 0.9131470036174141880, 1.000000000000000000 ),
 ( 0.000000000000000000, 1.000000000000000000 ),
 .UNSPECIFIED. ) 
 GEOMETRIC_REPRESENTATION_ITEM ( )  RATIONAL_B_SPLINE_SURFACE ( (
 ( 1.000000000000000000, 0.3333333333333334259, 0.3333333333333334259, 1.000000000000000000),
 ( 1.000000000000000000, 0.3333333333333334259, 0.3333333333333334259, 1.000000000000000000),
 ( 1.000000000000000000, 0.3333333333333334259, 0.3333333333333334259, 1.000000000000000000),
 ( 1.000000000000000000, 0.3333333333333334259, 0.3333333333333334259, 1.000000000000000000),
 ( 1.000000000000000000, 0.3333333333333334259, 0.3333333333333334259, 1.000000000000000000),
 ( 1.000000000000000000, 0.3333333333333334259, 0.3333333333333334259, 1.000000000000000000) ) ) 
 REPRESENTATION_ITEM ( '' )  SURFACE ( )  );
#565 = AXIS2_PLACEMENT_3D ( 'NONE', #233, #337, #287 ) ;
#566 = DIRECTION ( 'NONE',  ( -2.891205793294678696E-17, -1.000000000000000000, -0.000000000000000000 ) ) ;
#567 = DIRECTION ( 'NONE',  ( -1.000000000000000000, 0.000000000000000000, 0.000000000000000000 ) ) ;
#568 = DIRECTION ( 'NONE',  ( 0.000000000000000000, -1.000000000000000000, 0.000000000000000000 ) ) ;
#569 = ORIENTED_EDGE ( 'NONE', *, *, #451, .F. ) ;
#570 = DIRECTION ( 'NONE',  ( 0.8697442845557478153, -4.714893214110962383E-17, -0.4935026641089291233 ) ) ;
#571 = DIRECTION ( 'NONE',  ( -2.891205793294678696E-17, -1.000000000000000000, -0.000000000000000000 ) ) ;
#572 = EDGE_CURVE ( 'NONE', #248, #104, #142, .T. ) ;
#573 = VERTEX_POINT ( 'NONE', #649 ) ;
#574 = DIRECTION ( 'NONE',  ( -2.891205793294678696E-17, -1.000000000000000000, -0.000000000000000000 ) ) ;
#575 = DIRECTION ( 'NONE',  ( 0.000000000000000000, -0.000000000000000000, -1.000000000000000000 ) ) ;
#576 = AXIS2_PLACEMENT_3D ( 'NONE', #72, #620, #315 ) ;
#577 = ORIENTED_EDGE ( 'NONE', *, *, #437, .F. ) ;
#578 = EDGE_CURVE ( 'NONE', #42, #298, #222, .T. ) ;
#579 = DIRECTION ( 'NONE',  ( 0.9999719772760635728, 0.000000000000000000, 0.007486298324241981959 ) ) ;
#580 = CARTESIAN_POINT ( 'NONE',  ( 4.618672722099341321, 10.70000000000000107, 0.03457773082188295155 ) ) ;
#581 = ORIENTED_EDGE ( 'NONE', *, *, #213, .T. ) ;
#582 = DIRECTION ( 'NONE',  ( -1.000000000000000000, -3.469446951953614189E-17, 0.000000000000000000 ) ) ;
#583 = CARTESIAN_POINT ( 'NONE',  ( -5.782411586589357639E-16, 15.50000000000000000, 0.000000000000000000 ) ) ;
#584 = ORIENTED_EDGE ( 'NONE', *, *, #18, .F. ) ;
#585 = PRESENTATION_STYLE_ASSIGNMENT (( #170 ) ) ;
#586 = CARTESIAN_POINT ( 'NONE',  ( 3.905380892413306437, 9.937924431792739099, 7.810761784826613763 ) ) ;
#587 = ORIENTED_EDGE ( 'NONE', *, *, #33, .F. ) ;
#588 = VECTOR ( 'NONE', #403, 1000.000000000000114 ) ;
#589 = CARTESIAN_POINT ( 'NONE',  ( -2.279391167752702785, 10.70000000000000107, -4.017176774515194282 ) ) ;
#590 = PRODUCT_DEFINITION_CONTEXT ( 'detailed design', #459, 'design' ) ;
#591 = CARTESIAN_POINT ( 'NONE',  ( 5.499999999999998224, -1.000000000000000000, 0.000000000000000000 ) ) ;
#592 = ORIENTED_EDGE ( 'NONE', *, *, #196, .T. ) ;
#593 = DIRECTION ( 'NONE',  ( 0.000000000000000000, 0.000000000000000000, -1.000000000000000000 ) ) ;
#594 = ORIENTED_EDGE ( 'NONE', *, *, #351, .F. ) ;
#595 = DIRECTION ( 'NONE',  ( 0.000000000000000000, 1.000000000000000000, -0.000000000000000000 ) ) ;
#596 = ORIENTED_EDGE ( 'NONE', *, *, #354, .T. ) ;
#597 = VECTOR ( 'NONE', #406, 1000.000000000000000 ) ;
#598 = EDGE_CURVE ( 'NONE', #29, #639, #391, .T. ) ;
#599 = CARTESIAN_POINT ( 'NONE',  ( 14.95916706503583171, -3.000000000000000444, -29.91833413007164566 ) ) ;
#600 = CARTESIAN_POINT ( 'NONE',  ( 2.339281554346638980, 10.70000000000000107, -3.982599043693314300 ) ) ;
#601 = EDGE_CURVE ( 'NONE', #65, #334, #23, .T. ) ;
#602 = PLANE ( 'NONE',  #150 ) ;
#603 = EDGE_LOOP ( 'NONE', ( #366, #263, #493, #621 ) ) ;
#604 = LINE ( 'NONE', #483, #651 ) ;
#605 = DIRECTION ( 'NONE',  ( 1.000000000000000000, 0.000000000000000000, 0.000000000000000000 ) ) ;
#606 = ORIENTED_EDGE ( 'NONE', *, *, #461, .T. ) ;
#607 = VERTEX_POINT ( 'NONE', #184 ) ;
#608 = CYLINDRICAL_SURFACE ( 'NONE', #273, 12.50000000000000000 ) ;
#609 = AXIS2_PLACEMENT_3D ( 'NONE', #409, #407, #362 ) ;
#610 = AXIS2_PLACEMENT_3D ( 'NONE', #272, #637, #624 ) ;
#611 = FACE_OUTER_BOUND ( 'NONE', #603, .T. ) ;
#612 = DIRECTION ( 'NONE',  ( -0.5064693131671343940, 0.000000000000000000, 0.8622579862315055133 ) ) ;
#613 = CARTESIAN_POINT ( 'NONE',  ( -5.500000000000000000, 5.500000000000001776, 6.735557395310441037E-16 ) ) ;
#614 = EDGE_LOOP ( 'NONE', ( #490, #440, #592, #581 ) ) ;
#615 = CARTESIAN_POINT ( 'NONE',  ( 2.279391167752703229, 10.70000000000000107, 4.017176774515196058 ) ) ;
#616 = CARTESIAN_POINT ( 'NONE',  ( -1.055290114552557715E-15, -1.000000000000000000, 0.000000000000000000 ) ) ;
#617 = DIRECTION ( 'NONE',  ( -5.421010862427522170E-17, -1.000000000000000000, -0.000000000000000000 ) ) ;
#618 = VECTOR ( 'NONE', #299, 1000.000000000000341 ) ;
#619 = CIRCLE ( 'NONE', #496, 2.499999999999999112 ) ;
#620 = DIRECTION ( 'NONE',  ( -2.891205793294678696E-17, -1.000000000000000000, -0.000000000000000000 ) ) ;
#621 = ORIENTED_EDGE ( 'NONE', *, *, #217, .F. ) ;
#622 = LINE ( 'NONE', #450, #188 ) ;
#623 = CARTESIAN_POINT ( 'NONE',  ( 12.50000000000000000, -2.999999999999998668, 1.530808498934191521E-15 ) ) ;
#624 = DIRECTION ( 'NONE',  ( 1.000000000000000000, 0.000000000000000000, 0.000000000000000000 ) ) ;
#625 = CARTESIAN_POINT ( 'NONE',  ( -14.95916706503582105, -3.000000000000001332, -29.91833413007165277 ) ) ;
#626 = ORIENTED_EDGE ( 'NONE', *, *, #290, .T. ) ;
#627 = CARTESIAN_POINT ( 'NONE',  ( -8.673617379884035472E-16, 5.500000000000001776, 0.000000000000000000 ) ) ;
#628 = CIRCLE ( 'NONE', #338, 2.499999999999999112 ) ;
#629 = DIRECTION ( 'NONE',  ( -5.421010862427522170E-17, -1.000000000000000000, -0.000000000000000000 ) ) ;
#630 = ORIENTED_EDGE ( 'NONE', *, *, #122, .F. ) ;
#631 = CARTESIAN_POINT ( 'NONE',  ( -15.03346208601250567, -2.337268057669226184, 0.000000000000000000 ) ) ;
#632 = ORIENTED_EDGE ( 'NONE', *, *, #18, .T. ) ;
#633 = EDGE_CURVE ( 'NONE', #176, #228, #489, .T. ) ;
#634 = FACE_OUTER_BOUND ( 'NONE', #250, .T. ) ;
#635 = DIRECTION ( 'NONE',  ( -1.000000000000000000, -2.899097704496176488E-17, 0.000000000000000000 ) ) ;
#636 = ORIENTED_EDGE ( 'NONE', *, *, #148, .T. ) ;
#637 = DIRECTION ( 'NONE',  ( -2.891205793294678696E-17, -1.000000000000000000, -0.000000000000000000 ) ) ;
#638 = CARTESIAN_POINT ( 'NONE',  ( 11.56866381292675605, 7.888096830861839770, 23.13732762585351921 ) ) ;
#639 = VERTEX_POINT ( 'NONE', #187 ) ;
#640 = VECTOR ( 'NONE', #216, 1000.000000000000000 ) ;
#641 = CYLINDRICAL_SURFACE ( 'NONE', #507, 2.499999999999999112 ) ;
#642 = AXIS2_PLACEMENT_3D ( 'NONE', #436, #289, #645 ) ;
#643 = EDGE_CURVE ( 'NONE', #83, #561, #604, .T. ) ;
#644 = ORIENTED_EDGE ( 'NONE', *, *, #131, .F. ) ;
#645 = DIRECTION ( 'NONE',  ( 1.000000000000000000, 0.000000000000000000, 0.000000000000000000 ) ) ;
#646 = ORIENTED_EDGE ( 'NONE', *, *, #239, .T. ) ;
#647 = DIRECTION ( 'NONE',  ( 0.5064693131671341719, 0.000000000000000000, -0.8622579862315056243 ) ) ;
#648 = ORIENTED_EDGE ( 'NONE', *, *, #196, .F. ) ;
#649 = CARTESIAN_POINT ( 'NONE',  ( -5.500000000000000000, -1.000000000000000000, 6.735557395310441037E-16 ) ) ;
#650 = EDGE_CURVE ( 'NONE', #29, #573, #491, .T. ) ;
#651 = VECTOR ( 'NONE', #37, 1000.000000000000114 ) ;
#652 = FACE_OUTER_BOUND ( 'NONE', #169, .T. ) ;
#653 = ORIENTED_EDGE ( 'NONE', *, *, #62, .F. ) ;
#654 = CARTESIAN_POINT ( 'NONE',  ( -8.673617379884041389E-16, 5.500000000000001776, 0.000000000000000000 ) ) ;
#655 = APPLICATION_CONTEXT ( 'automotive_design' ) ;
#656 = CARTESIAN_POINT ( 'NONE',  ( -3.905380892413307325, 9.937924431792739099, 0.000000000000000000 ) ) ;
#657 = CARTESIAN_POINT ( 'NONE',  ( 3.905380892413308214, 9.937924431792739099, -7.810761784826611098 ) ) ;
#658 = CARTESIAN_POINT ( 'NONE',  ( 4.618672722099341321, 10.70000000000000107, 0.03457773082188295155 ) ) ;
#659 = DIRECTION ( 'NONE',  ( -0.9999719772760635728, 0.000000000000000000, -0.007486298324241981959 ) ) ;
#660 = CARTESIAN_POINT ( 'NONE',  ( -8.673617379884035472E-16, 5.500000000000001776, 0.000000000000000000 ) ) ;
#661 = AXIS2_PLACEMENT_3D ( 'NONE', #304, #448, #405 ) ;
#662 = EDGE_CURVE ( 'NONE', #334, #65, #619, .T. ) ;
#663 = CARTESIAN_POINT ( 'NONE',  ( 15.13237644567857387, 0.3906879273376134831, -30.26475289135712998 ) ) ;
ENDSEC;
END-ISO-10303-21;
