ISO-10303-21;
HEADER;
FILE_DESCRIPTION (( 'STEP AP214' ),
    '1' );
FILE_NAME ('PCB LID.STEP',
    '2026-06-11T14:58:06',
    ( '' ),
    ( '' ),
    'SwSTEP 2.0',
    'SolidWorks 2025',
    '' );
FILE_SCHEMA (( 'AUTOMOTIVE_DESIGN' ));
ENDSEC;

DATA;
#1 = PLANE ( 'NONE',  #750 ) ;
#2 = EDGE_CURVE ( 'NONE', #552, #573, #717, .T. ) ;
#3 = DIRECTION ( 'NONE',  ( -0.000000000000000000, 0.000000000000000000, 1.000000000000000000 ) ) ;
#4 = ORIENTED_EDGE ( 'NONE', *, *, #677, .T. ) ;
#5 = ORIENTED_EDGE ( 'NONE', *, *, #615, .F. ) ;
#6 = LINE ( 'NONE', #674, #474 ) ;
#7 = DIRECTION ( 'NONE',  ( 2.409338161078899674E-16, -1.000000000000000000, 0.000000000000000000 ) ) ;
#8 = PLANE ( 'NONE',  #73 ) ;
#9 = EDGE_CURVE ( 'NONE', #159, #711, #160, .T. ) ;
#10 = APPLICATION_CONTEXT ( 'automotive_design' ) ;
#11 = ORIENTED_EDGE ( 'NONE', *, *, #425, .F. ) ;
#12 = VECTOR ( 'NONE', #114, 1000.000000000000000 ) ;
#13 = CARTESIAN_POINT ( 'NONE',  ( 22.25000000000000355, 43.75000000000000000, 3.000000000000000000 ) ) ;
#14 = PLANE ( 'NONE',  #55 ) ;
#15 = EDGE_CURVE ( 'NONE', #32, #380, #367, .T. ) ;
#16 = VERTEX_POINT ( 'NONE', #261 ) ;
#17 = LINE ( 'NONE', #446, #316 ) ;
#18 = LINE ( 'NONE', #757, #762 ) ;
#19 = EDGE_LOOP ( 'NONE', ( #740, #621, #584, #462 ) ) ;
#20 = ADVANCED_FACE ( 'NONE', ( #351 ), #298, .F. ) ;
#21 = LINE ( 'NONE', #508, #237 ) ;
#22 = DIRECTION ( 'NONE',  ( -1.000000000000000000, 0.000000000000000000, 0.000000000000000000 ) ) ;
#23 = CARTESIAN_POINT ( 'NONE',  ( 31.84999999999999787, 43.75000000000000000, 3.000000000000000000 ) ) ;
#24 = ORIENTED_EDGE ( 'NONE', *, *, #243, .F. ) ;
#25 = MECHANICAL_DESIGN_GEOMETRIC_PRESENTATION_REPRESENTATION (  '', ( #588 ), #278 ) ;
#26 = DIRECTION ( 'NONE',  ( 0.000000000000000000, 0.000000000000000000, -1.000000000000000000 ) ) ;
#27 = VECTOR ( 'NONE', #451, 1000.000000000000000 ) ;
#28 = EDGE_CURVE ( 'NONE', #380, #569, #432, .T. ) ;
#29 = SURFACE_STYLE_FILL_AREA ( #499 ) ;
#30 = ORIENTED_EDGE ( 'NONE', *, *, #541, .T. ) ;
#31 = FACE_OUTER_BOUND ( 'NONE', #613, .T. ) ;
#32 = VERTEX_POINT ( 'NONE', #592 ) ;
#33 = SURFACE_STYLE_USAGE ( .BOTH. , #288 ) ;
#34 = CARTESIAN_POINT ( 'NONE',  ( 59.50000000000000000, 14.50000000000000000, 0.000000000000000000 ) ) ;
#35 = ORIENTED_EDGE ( 'NONE', *, *, #776, .F. ) ;
#36 = LINE ( 'NONE', #229, #535 ) ;
#37 = AXIS2_PLACEMENT_3D ( 'NONE', #727, #550, #175 ) ;
#38 = CYLINDRICAL_SURFACE ( 'NONE', #214, 2.099999999999997868 ) ;
#39 = FACE_OUTER_BOUND ( 'NONE', #147, .T. ) ;
#40 = UNCERTAINTY_MEASURE_WITH_UNIT (LENGTH_MEASURE( 1.000000000000000082E-05 ), #366, 'distance_accuracy_value', 'NONE');
#41 = VERTEX_POINT ( 'NONE', #417 ) ;
#42 = EDGE_LOOP ( 'NONE', ( #35, #581 ) ) ;
#43 = CARTESIAN_POINT ( 'NONE',  ( 11.99999999999999645, -3.000000000000005329, 2.000000000000000000 ) ) ;
#44 = EDGE_CURVE ( 'NONE', #166, #593, #651, .T. ) ;
#45 = LINE ( 'NONE', #660, #293 ) ;
#46 = SHAPE_DEFINITION_REPRESENTATION ( #309, #435 ) ;
#47 = ORIENTED_EDGE ( 'NONE', *, *, #650, .T. ) ;
#48 = FACE_OUTER_BOUND ( 'NONE', #341, .T. ) ;
#49 = EDGE_CURVE ( 'NONE', #334, #41, #57, .T. ) ;
#50 = LINE ( 'NONE', #781, #649 ) ;
#51 = AXIS2_PLACEMENT_3D ( 'NONE', #378, #83, #616 ) ;
#52 = ORIENTED_EDGE ( 'NONE', *, *, #15, .F. ) ;
#53 = CARTESIAN_POINT ( 'NONE',  ( 47.50000000000000000, -3.000000000000005329, 2.000000000000000000 ) ) ;
#54 = LINE ( 'NONE', #43, #12 ) ;
#55 = AXIS2_PLACEMENT_3D ( 'NONE', #690, #510, #22 ) ;
#56 = CARTESIAN_POINT ( 'NONE',  ( 47.50000000000000000, -3.000000000000005329, 2.000000000000000000 ) ) ;
#57 = LINE ( 'NONE', #471, #185 ) ;
#58 = PRODUCT ( 'PCB LID', 'PCB LID', '', ( #655 ) ) ;
#59 = EDGE_CURVE ( 'NONE', #573, #396, #545, .T. ) ;
#60 = ORIENTED_EDGE ( 'NONE', *, *, #49, .F. ) ;
#61 = CARTESIAN_POINT ( 'NONE',  ( 52.29999999999999716, 0.000000000000000000, 3.000000000000000000 ) ) ;
#62 = CARTESIAN_POINT ( 'NONE',  ( 29.75000000000000000, 43.75000000000000000, 3.000000000000000000 ) ) ;
#63 = CARTESIAN_POINT ( 'NONE',  ( 37.25000000000000711, 43.75000000000000000, 0.000000000000000000 ) ) ;
#64 = VECTOR ( 'NONE', #180, 1000.000000000000000 ) ;
#65 = ORIENTED_EDGE ( 'NONE', *, *, #776, .T. ) ;
#66 = ADVANCED_FACE ( 'NONE', ( #257 ), #493, .T. ) ;
#67 = CARTESIAN_POINT ( 'NONE',  ( 39.49999999999999289, -3.000000000000005329, 2.000000000000000000 ) ) ;
#68 = CARTESIAN_POINT ( 'NONE',  ( 29.75000000000000000, 43.75000000000000000, 3.000000000000000000 ) ) ;
#69 = VERTEX_POINT ( 'NONE', #379 ) ;
#70 = DIRECTION ( 'NONE',  ( 1.000000000000000000, 0.000000000000000000, 0.000000000000000000 ) ) ;
#71 = FACE_OUTER_BOUND ( 'NONE', #626, .T. ) ;
#72 = ADVANCED_FACE ( 'NONE', ( #532 ), #38, .F. ) ;
#73 = AXIS2_PLACEMENT_3D ( 'NONE', #504, #139, #620 ) ;
#74 = CARTESIAN_POINT ( 'NONE',  ( 31.84999999999999787, 43.75000000000000000, 0.000000000000000000 ) ) ;
#75 = ORIENTED_EDGE ( 'NONE', *, *, #376, .F. ) ;
#76 = CARTESIAN_POINT ( 'NONE',  ( -3.493540333564401642E-15, 14.49999999999998757, 3.000000000000000000 ) ) ;
#77 = LINE ( 'NONE', #743, #521 ) ;
#78 = ADVANCED_FACE ( 'NONE', ( #517 ), #14, .T. ) ;
#79 = ORIENTED_EDGE ( 'NONE', *, *, #397, .F. ) ;
#80 = COLOUR_RGB ( '',0.7921568627450980005, 0.8196078431372548767, 0.9333333333333333481 ) ;
#81 = COLOUR_RGB ( '',0.7921568627450980005, 0.8196078431372548767, 0.9333333333333333481 ) ;
#82 =( GEOMETRIC_REPRESENTATION_CONTEXT ( 3 ) GLOBAL_UNCERTAINTY_ASSIGNED_CONTEXT ( ( #40 ) ) GLOBAL_UNIT_ASSIGNED_CONTEXT ( ( #366, #313, #250 ) ) REPRESENTATION_CONTEXT ( 'NONE', 'WORKASPACE' ) );
#83 = DIRECTION ( 'NONE',  ( -0.000000000000000000, 0.000000000000000000, 1.000000000000000000 ) ) ;
#84 = DIRECTION ( 'NONE',  ( -0.000000000000000000, 1.000000000000000000, -0.000000000000000000 ) ) ;
#85 = VERTEX_POINT ( 'NONE', #701 ) ;
#86 = VECTOR ( 'NONE', #683, 1000.000000000000000 ) ;
#87 = FACE_OUTER_BOUND ( 'NONE', #304, .T. ) ;
#88 = ORIENTED_EDGE ( 'NONE', *, *, #615, .T. ) ;
#89 = DIRECTION ( 'NONE',  ( -1.000000000000000000, -0.000000000000000000, -0.000000000000000000 ) ) ;
#90 = ORIENTED_EDGE ( 'NONE', *, *, #335, .T. ) ;
#91 = ADVANCED_FACE ( 'NONE', ( #329 ), #753, .T. ) ;
#92 = VECTOR ( 'NONE', #218, 1000.000000000000000 ) ;
#93 = LINE ( 'NONE', #467, #388 ) ;
#94 = PRESENTATION_STYLE_ASSIGNMENT (( #635 ) ) ;
#95 = EDGE_LOOP ( 'NONE', ( #188, #433, #240, #489, #375, #644, #699, #125, #761, #153 ) ) ;
#96 = CARTESIAN_POINT ( 'NONE',  ( 59.50000000000000000, 0.000000000000000000, 0.000000000000000000 ) ) ;
#97 = VERTEX_POINT ( 'NONE', #151 ) ;
#98 =( NAMED_UNIT ( * ) PLANE_ANGLE_UNIT ( ) SI_UNIT ( $, .RADIAN. ) );
#99 = DIRECTION ( 'NONE',  ( 0.000000000000000000, 1.000000000000000000, 0.000000000000000000 ) ) ;
#100 = UNCERTAINTY_MEASURE_WITH_UNIT (LENGTH_MEASURE( 1.000000000000000082E-05 ), #276, 'distance_accuracy_value', 'NONE');
#101 =( NAMED_UNIT ( * ) SI_UNIT ( $, .STERADIAN. ) SOLID_ANGLE_UNIT ( ) );
#102 = VERTEX_POINT ( 'NONE', #208 ) ;
#103 = AXIS2_PLACEMENT_3D ( 'NONE', #469, #345, #578 ) ;
#104 = VECTOR ( 'NONE', #284, 1000.000000000000000 ) ;
#105 = EDGE_CURVE ( 'NONE', #393, #515, #617, .T. ) ;
#106 = DIRECTION ( 'NONE',  ( 0.000000000000000000, -1.000000000000000000, 0.000000000000000000 ) ) ;
#107 = EDGE_CURVE ( 'NONE', #618, #85, #18, .T. ) ;
#108 = ORIENTED_EDGE ( 'NONE', *, *, #296, .F. ) ;
#109 = DIRECTION ( 'NONE',  ( 0.000000000000000000, 0.000000000000000000, 1.000000000000000000 ) ) ;
#110 = DIRECTION ( 'NONE',  ( -1.000000000000000000, 0.000000000000000000, 0.000000000000000000 ) ) ;
#111 = VERTEX_POINT ( 'NONE', #382 ) ;
#112 = ORIENTED_EDGE ( 'NONE', *, *, #9, .T. ) ;
#113 = EDGE_CURVE ( 'NONE', #593, #97, #142, .T. ) ;
#114 = DIRECTION ( 'NONE',  ( 0.000000000000000000, 0.000000000000000000, -1.000000000000000000 ) ) ;
#115 = VERTEX_POINT ( 'NONE', #506 ) ;
#116 = CARTESIAN_POINT ( 'NONE',  ( 52.29999999999999716, 0.000000000000000000, 3.000000000000000000 ) ) ;
#117 = DIRECTION ( 'NONE',  ( -1.000000000000000000, 0.000000000000000000, 0.000000000000000000 ) ) ;
#118 = VECTOR ( 'NONE', #247, 1000.000000000000000 ) ;
#119 = LINE ( 'NONE', #476, #279 ) ;
#120 = CARTESIAN_POINT ( 'NONE',  ( 52.29999999999999716, 4.195434882452785320E-16, 3.000000000000000000 ) ) ;
#121 = VERTEX_POINT ( 'NONE', #74 ) ;
#122 = DIRECTION ( 'NONE',  ( 0.000000000000000000, 0.000000000000000000, 1.000000000000000000 ) ) ;
#123 = ORIENTED_EDGE ( 'NONE', *, *, #131, .F. ) ;
#124 = ADVANCED_FACE ( 'NONE', ( #693 ), #8, .T. ) ;
#125 = ORIENTED_EDGE ( 'NONE', *, *, #397, .T. ) ;
#126 = LINE ( 'NONE', #23, #413 ) ;
#127 = DIRECTION ( 'NONE',  ( 0.000000000000000000, 1.000000000000000000, -0.000000000000000000 ) ) ;
#128 = ORIENTED_EDGE ( 'NONE', *, *, #685, .F. ) ;
#129 = VECTOR ( 'NONE', #536, 1000.000000000000000 ) ;
#130 = ORIENTED_EDGE ( 'NONE', *, *, #376, .T. ) ;
#131 = EDGE_CURVE ( 'NONE', #641, #396, #77, .T. ) ;
#132 = FACE_OUTER_BOUND ( 'NONE', #612, .T. ) ;
#133 = CARTESIAN_POINT ( 'NONE',  ( 29.75000000000000000, 43.75000000000000000, 3.000000000000000000 ) ) ;
#134 = DIRECTION ( 'NONE',  ( -0.000000000000000000, -0.000000000000000000, -1.000000000000000000 ) ) ;
#135 = EDGE_LOOP ( 'NONE', ( #676, #123, #756, #235 ) ) ;
#136 = CARTESIAN_POINT ( 'NONE',  ( 26.50000000000000000, 43.75000000000000000, 0.000000000000000000 ) ) ;
#137 = EDGE_CURVE ( 'NONE', #149, #111, #199, .T. ) ;
#138 = CARTESIAN_POINT ( 'NONE',  ( 0.000000000000000000, 0.000000000000000000, 0.000000000000000000 ) ) ;
#139 = DIRECTION ( 'NONE',  ( -1.000000000000000000, 0.000000000000000000, -0.000000000000000000 ) ) ;
#140 = ORIENTED_EDGE ( 'NONE', *, *, #625, .F. ) ;
#141 = DIRECTION ( 'NONE',  ( -1.000000000000000000, 0.000000000000000000, -0.000000000000000000 ) ) ;
#142 = LINE ( 'NONE', #213, #421 ) ;
#143 = VERTEX_POINT ( 'NONE', #568 ) ;
#144 = AXIS2_PLACEMENT_3D ( 'NONE', #492, #303, #110 ) ;
#145 = AXIS2_PLACEMENT_3D ( 'NONE', #544, #598, #361 ) ;
#146 = ADVANCED_FACE ( 'NONE', ( #203 ), #391, .T. ) ;
#147 = EDGE_LOOP ( 'NONE', ( #327, #287, #295, #558 ) ) ;
#148 = DIRECTION ( 'NONE',  ( 1.000000000000000000, 0.000000000000000000, 0.000000000000000000 ) ) ;
#149 = VERTEX_POINT ( 'NONE', #705 ) ;
#150 = PLANE ( 'NONE',  #292 ) ;
#151 = CARTESIAN_POINT ( 'NONE',  ( 22.25000000000000355, 39.50000000000000000, 3.000000000000000000 ) ) ;
#152 = SURFACE_SIDE_STYLE ('',( #29 ) ) ;
#153 = ORIENTED_EDGE ( 'NONE', *, *, #44, .F. ) ;
#154 = DIRECTION ( 'NONE',  ( -0.000000000000000000, 0.000000000000000000, -1.000000000000000000 ) ) ;
#155 = PRESENTATION_LAYER_ASSIGNMENT (  '', '', ( #548 ) ) ;
#156 = DIRECTION ( 'NONE',  ( 0.000000000000000000, -0.000000000000000000, 1.000000000000000000 ) ) ;
#157 = VERTEX_POINT ( 'NONE', #579 ) ;
#158 = CARTESIAN_POINT ( 'NONE',  ( 59.50000000000000000, 39.50000000000000000, 3.000000000000000000 ) ) ;
#159 = VERTEX_POINT ( 'NONE', #294 ) ;
#160 = LINE ( 'NONE', #790, #672 ) ;
#161 = CARTESIAN_POINT ( 'NONE',  ( 37.25000000000000711, 39.50000000000000000, 0.000000000000000000 ) ) ;
#162 = AXIS2_PLACEMENT_3D ( 'NONE', #670, #667, #122 ) ;
#163 = VECTOR ( 'NONE', #654, 1000.000000000000000 ) ;
#164 = EDGE_CURVE ( 'NONE', #85, #777, #289, .T. ) ;
#165 = DIRECTION ( 'NONE',  ( -1.000000000000000000, 0.000000000000000000, 0.000000000000000000 ) ) ;
#166 = VERTEX_POINT ( 'NONE', #407 ) ;
#167 = DIRECTION ( 'NONE',  ( 1.000000000000000000, 0.000000000000000000, 0.000000000000000000 ) ) ;
#168 = DIRECTION ( 'NONE',  ( 0.000000000000000000, 1.000000000000000000, -0.000000000000000000 ) ) ;
#169 = DIRECTION ( 'NONE',  ( 1.000000000000000000, 0.000000000000000000, 0.000000000000000000 ) ) ;
#170 = EDGE_CURVE ( 'NONE', #520, #401, #226, .T. ) ;
#171 = VECTOR ( 'NONE', #84, 1000.000000000000000 ) ;
#172 = EDGE_LOOP ( 'NONE', ( #418, #227, #694, #607 ) ) ;
#173 = DIRECTION ( 'NONE',  ( -0.000000000000000000, 0.000000000000000000, 1.000000000000000000 ) ) ;
#174 = DIRECTION ( 'NONE',  ( -0.000000000000000000, -0.000000000000000000, -1.000000000000000000 ) ) ;
#175 = DIRECTION ( 'NONE',  ( 0.000000000000000000, 0.000000000000000000, 1.000000000000000000 ) ) ;
#176 = AXIS2_PLACEMENT_3D ( 'NONE', #236, #718, #167 ) ;
#177 = AXIS2_PLACEMENT_3D ( 'NONE', #133, #440, #563 ) ;
#178 = AXIS2_PLACEMENT_3D ( 'NONE', #522, #763, #219 ) ;
#179 = VERTEX_POINT ( 'NONE', #34 ) ;
#180 = DIRECTION ( 'NONE',  ( 1.000000000000000000, 0.000000000000000000, 0.000000000000000000 ) ) ;
#181 = LINE ( 'NONE', #56, #768 ) ;
#182 = ORIENTED_EDGE ( 'NONE', *, *, #728, .T. ) ;
#183 = VERTEX_POINT ( 'NONE', #529 ) ;
#184 = DIRECTION ( 'NONE',  ( 1.000000000000000000, 0.000000000000000000, 0.000000000000000000 ) ) ;
#185 = VECTOR ( 'NONE', #134, 1000.000000000000000 ) ;
#186 = DIRECTION ( 'NONE',  ( -0.000000000000000000, -0.000000000000000000, -1.000000000000000000 ) ) ;
#187 = EDGE_CURVE ( 'NONE', #396, #157, #93, .T. ) ;
#188 = ORIENTED_EDGE ( 'NONE', *, *, #478, .T. ) ;
#189 = DIRECTION ( 'NONE',  ( -0.000000000000000000, 0.000000000000000000, 1.000000000000000000 ) ) ;
#190 = CARTESIAN_POINT ( 'NONE',  ( 39.49999999999999289, -3.000000000000005329, 0.000000000000000000 ) ) ;
#191 = ORIENTED_EDGE ( 'NONE', *, *, #221, .T. ) ;
#192 = AXIS2_PLACEMENT_3D ( 'NONE', #76, #7, #619 ) ;
#193 = ORIENTED_EDGE ( 'NONE', *, *, #487, .T. ) ;
#194 = PLANE ( 'NONE',  #610 ) ;
#195 = DIRECTION ( 'NONE',  ( 1.000000000000000000, -0.000000000000000000, -0.000000000000000000 ) ) ;
#196 = ORIENTED_EDGE ( 'NONE', *, *, #170, .F. ) ;
#197 = DIRECTION ( 'NONE',  ( -1.000000000000000000, -2.409338161078899674E-16, 0.000000000000000000 ) ) ;
#198 = AXIS2_PLACEMENT_3D ( 'NONE', #68, #436, #165 ) ;
#199 = LINE ( 'NONE', #628, #171 ) ;
#200 = ORIENTED_EDGE ( 'NONE', *, *, #629, .T. ) ;
#201 = DIRECTION ( 'NONE',  ( 0.000000000000000000, -0.000000000000000000, -1.000000000000000000 ) ) ;
#202 = ADVANCED_FACE ( 'NONE', ( #771 ), #399, .T. ) ;
#203 = FACE_OUTER_BOUND ( 'NONE', #505, .T. ) ;
#204 = ORIENTED_EDGE ( 'NONE', *, *, #15, .T. ) ;
#205 = VECTOR ( 'NONE', #614, 1000.000000000000000 ) ;
#206 = COLOUR_RGB ( '',0.7921568627450980005, 0.8196078431372548767, 0.9333333333333333481 ) ;
#207 = LINE ( 'NONE', #67, #443 ) ;
#208 = CARTESIAN_POINT ( 'NONE',  ( 0.000000000000000000, 39.50000000000000000, 0.000000000000000000 ) ) ;
#209 = EDGE_CURVE ( 'NONE', #380, #737, #465, .T. ) ;
#210 = DIRECTION ( 'NONE',  ( -0.000000000000000000, 0.000000000000000000, 1.000000000000000000 ) ) ;
#211 = ORIENTED_EDGE ( 'NONE', *, *, #286, .F. ) ;
#212 = DIRECTION ( 'NONE',  ( 1.000000000000000000, 8.021864019986205013E-18, 0.000000000000000000 ) ) ;
#213 = CARTESIAN_POINT ( 'NONE',  ( 0.000000000000000000, 39.50000000000000000, 3.000000000000000000 ) ) ;
#214 = AXIS2_PLACEMENT_3D ( 'NONE', #530, #774, #231 ) ;
#215 = ADVANCED_FACE ( 'NONE', ( #723 ), #477, .T. ) ;
#216 = DIRECTION ( 'NONE',  ( 1.000000000000000000, 0.000000000000000000, 0.000000000000000000 ) ) ;
#217 = ORIENTED_EDGE ( 'NONE', *, *, #764, .F. ) ;
#218 = DIRECTION ( 'NONE',  ( 1.000000000000000000, 8.021864019986205013E-18, 0.000000000000000000 ) ) ;
#219 = DIRECTION ( 'NONE',  ( 0.000000000000000000, -0.000000000000000000, 1.000000000000000000 ) ) ;
#220 = VERTEX_POINT ( 'NONE', #120 ) ;
#221 = EDGE_CURVE ( 'NONE', #777, #711, #181, .T. ) ;
#222 = AXIS2_PLACEMENT_3D ( 'NONE', #553, #189, #70 ) ;
#223 = VECTOR ( 'NONE', #533, 1000.000000000000000 ) ;
#224 = CARTESIAN_POINT ( 'NONE',  ( 0.000000000000000000, 0.000000000000000000, 3.000000000000000000 ) ) ;
#225 = AXIS2_PLACEMENT_3D ( 'NONE', #731, #537, #788 ) ;
#226 = LINE ( 'NONE', #586, #565 ) ;
#227 = ORIENTED_EDGE ( 'NONE', *, *, #509, .F. ) ;
#228 = EDGE_CURVE ( 'NONE', #711, #393, #45, .T. ) ;
#229 = CARTESIAN_POINT ( 'NONE',  ( 11.99999999999999645, -5.347624356276776025E-15, 2.000000000000000000 ) ) ;
#230 = DIRECTION ( 'NONE',  ( -0.000000000000000000, -0.000000000000000000, -1.000000000000000000 ) ) ;
#231 = DIRECTION ( 'NONE',  ( -1.000000000000000000, 0.000000000000000000, 0.000000000000000000 ) ) ;
#232 = VECTOR ( 'NONE', #729, 1000.000000000000000 ) ;
#233 = DIRECTION ( 'NONE',  ( 1.000000000000000000, 0.000000000000000000, 0.000000000000000000 ) ) ;
#234 = ADVANCED_FACE ( 'NONE', ( #719 ), #310, .F. ) ;
#235 = ORIENTED_EDGE ( 'NONE', *, *, #663, .T. ) ;
#236 = CARTESIAN_POINT ( 'NONE',  ( 29.75000000000000000, 43.75000000000000000, 0.000000000000000000 ) ) ;
#237 = VECTOR ( 'NONE', #627, 1000.000000000000000 ) ;
#238 = DIRECTION ( 'NONE',  ( -0.000000000000000000, 0.000000000000000000, 1.000000000000000000 ) ) ;
#239 = APPLICATION_CONTEXT ( 'automotive_design' ) ;
#240 = ORIENTED_EDGE ( 'NONE', *, *, #481, .F. ) ;
#241 = CARTESIAN_POINT ( 'NONE',  ( 20.00000000000000355, -3.000000000000005329, 2.000000000000000000 ) ) ;
#242 = CARTESIAN_POINT ( 'NONE',  ( 59.50000000000000000, 0.000000000000000000, 3.000000000000000000 ) ) ;
#243 = EDGE_CURVE ( 'NONE', #32, #115, #415, .T. ) ;
#244 = CLOSED_SHELL ( 'NONE', ( #408, #66, #215, #780, #746, #437 ) ) ;
#245 = CARTESIAN_POINT ( 'NONE',  ( 39.49999999999999289, -5.347624356276776025E-15, 2.000000000000000000 ) ) ;
#246 = SURFACE_SIDE_STYLE ('',( #603 ) ) ;
#247 = DIRECTION ( 'NONE',  ( 0.000000000000000000, 0.000000000000000000, -1.000000000000000000 ) ) ;
#248 = UNCERTAINTY_MEASURE_WITH_UNIT (LENGTH_MEASURE( 1.000000000000000082E-05 ), #346, 'distance_accuracy_value', 'NONE');
#249 = MANIFOLD_SOLID_BREP ( 'Boss.-Extru.2[2]', #244 ) ;
#250 =( NAMED_UNIT ( * ) SI_UNIT ( $, .STERADIAN. ) SOLID_ANGLE_UNIT ( ) );
#251 = CARTESIAN_POINT ( 'NONE',  ( 11.99999999999999645, -5.347624356276776025E-15, 0.000000000000000000 ) ) ;
#252 = AXIS2_PLACEMENT_3D ( 'NONE', #424, #173, #725 ) ;
#253 = MECHANICAL_DESIGN_GEOMETRIC_PRESENTATION_REPRESENTATION (  '', ( #548 ), #387 ) ;
#254 = EDGE_LOOP ( 'NONE', ( #576, #745, #656, #330 ) ) ;
#255 = PLANE ( 'NONE',  #338 ) ;
#256 = PLANE ( 'NONE',  #37 ) ;
#257 = FACE_OUTER_BOUND ( 'NONE', #561, .T. ) ;
#258 = ORIENTED_EDGE ( 'NONE', *, *, #2, .T. ) ;
#259 = FACE_OUTER_BOUND ( 'NONE', #95, .T. ) ;
#260 = CARTESIAN_POINT ( 'NONE',  ( 27.65000000000000213, 43.75000000000000000, 3.000000000000000000 ) ) ;
#261 = CARTESIAN_POINT ( 'NONE',  ( 52.29999999999999716, 4.195434882452785320E-16, 0.000000000000000000 ) ) ;
#262 = ORIENTED_EDGE ( 'NONE', *, *, #716, .T. ) ;
#263 = CARTESIAN_POINT ( 'NONE',  ( 47.50000000000000000, -5.347624356276776025E-15, 2.000000000000000000 ) ) ;
#264 = PLANE ( 'NONE',  #791 ) ;
#265 = CARTESIAN_POINT ( 'NONE',  ( 47.50000000000000000, -3.000000000000005329, 2.000000000000000000 ) ) ;
#266 = ADVANCED_FACE ( 'NONE', ( #534 ), #256, .F. ) ;
#267 = VECTOR ( 'NONE', #350, 1000.000000000000000 ) ;
#268 = ORIENTED_EDGE ( 'NONE', *, *, #59, .T. ) ;
#269 = FACE_OUTER_BOUND ( 'NONE', #765, .T. ) ;
#270 = ORIENTED_EDGE ( 'NONE', *, *, #554, .F. ) ;
#271 = ADVANCED_FACE ( 'NONE', ( #793 ), #427, .F. ) ;
#272 = CARTESIAN_POINT ( 'NONE',  ( 59.50000000000000000, 39.50000000000000000, 0.000000000000000000 ) ) ;
#273 = DIRECTION ( 'NONE',  ( -0.000000000000000000, 1.000000000000000000, -0.000000000000000000 ) ) ;
#274 = ORIENTED_EDGE ( 'NONE', *, *, #28, .F. ) ;
#275 = FACE_OUTER_BOUND ( 'NONE', #254, .T. ) ;
#276 =( LENGTH_UNIT ( ) NAMED_UNIT ( * ) SI_UNIT ( .MILLI., .METRE. ) );
#277 = ORIENTED_EDGE ( 'NONE', *, *, #2, .F. ) ;
#278 =( GEOMETRIC_REPRESENTATION_CONTEXT ( 3 ) GLOBAL_UNCERTAINTY_ASSIGNED_CONTEXT ( ( #100 ) ) GLOBAL_UNIT_ASSIGNED_CONTEXT ( ( #276, #370, #318 ) ) REPRESENTATION_CONTEXT ( 'NONE', 'WORKASPACE' ) );
#279 = VECTOR ( 'NONE', #174, 1000.000000000000000 ) ;
#280 = FILL_AREA_STYLE_COLOUR ( '', #81 ) ;
#281 = DIRECTION ( 'NONE',  ( -0.000000000000000000, -0.000000000000000000, -1.000000000000000000 ) ) ;
#282 = ORIENTED_EDGE ( 'NONE', *, *, #478, .F. ) ;
#283 = CARTESIAN_POINT ( 'NONE',  ( 47.50000000000000000, -5.347624356276776025E-15, 2.000000000000000000 ) ) ;
#284 = DIRECTION ( 'NONE',  ( 0.000000000000000000, -1.000000000000000000, 0.000000000000000000 ) ) ;
#285 = CLOSED_SHELL ( 'NONE', ( #20, #448, #668, #306, #266, #146, #271, #759, #234, #202, #696, #72, #724, #785 ) ) ;
#286 = EDGE_CURVE ( 'NONE', #16, #41, #50, .T. ) ;
#287 = ORIENTED_EDGE ( 'NONE', *, *, #107, .F. ) ;
#288 = SURFACE_SIDE_STYLE ('',( #710 ) ) ;
#289 = LINE ( 'NONE', #643, #104 ) ;
#290 = ORIENTED_EDGE ( 'NONE', *, *, #445, .T. ) ;
#291 = AXIS2_PLACEMENT_3D ( 'NONE', #782, #409, #169 ) ;
#292 = AXIS2_PLACEMENT_3D ( 'NONE', #283, #585, #645 ) ;
#293 = VECTOR ( 'NONE', #117, 1000.000000000000000 ) ;
#294 = CARTESIAN_POINT ( 'NONE',  ( 47.50000000000000000, -5.347624356276776025E-15, 0.000000000000000000 ) ) ;
#295 = ORIENTED_EDGE ( 'NONE', *, *, #570, .F. ) ;
#296 = EDGE_CURVE ( 'NONE', #691, #520, #420, .T. ) ;
#297 = DIRECTION ( 'NONE',  ( -1.000000000000000000, 0.000000000000000000, 0.000000000000000000 ) ) ;
#298 = CYLINDRICAL_SURFACE ( 'NONE', #198, 2.099999999999997868 ) ;
#299 = AXIS2_PLACEMENT_3D ( 'NONE', #265, #748, #739 ) ;
#300 = ORIENTED_EDGE ( 'NONE', *, *, #580, .T. ) ;
#301 = PRESENTATION_STYLE_ASSIGNMENT (( #484 ) ) ;
#302 = DIRECTION ( 'NONE',  ( -0.000000000000000000, -0.000000000000000000, -1.000000000000000000 ) ) ;
#303 = DIRECTION ( 'NONE',  ( -0.000000000000000000, -0.000000000000000000, -1.000000000000000000 ) ) ;
#304 = EDGE_LOOP ( 'NONE', ( #769, #653, #314, #447, #479, #669, #636, #733, #546, #211 ) ) ;
#305 = DIRECTION ( 'NONE',  ( -1.000000000000000000, 0.000000000000000000, 0.000000000000000000 ) ) ;
#306 = ADVANCED_FACE ( 'NONE', ( #275 ), #688, .T. ) ;
#307 = AXIS2_PLACEMENT_3D ( 'NONE', #63, #551, #473 ) ;
#308 = LINE ( 'NONE', #53, #562 ) ;
#309 = PRODUCT_DEFINITION_SHAPE ( 'NONE', 'NONE',  #587 ) ;
#310 = CYLINDRICAL_SURFACE ( 'NONE', #145, 4.249999999999996447 ) ;
#311 = ORIENTED_EDGE ( 'NONE', *, *, #556, .T. ) ;
#312 = PLANE ( 'NONE',  #564 ) ;
#313 =( NAMED_UNIT ( * ) PLANE_ANGLE_UNIT ( ) SI_UNIT ( $, .RADIAN. ) );
#314 = ORIENTED_EDGE ( 'NONE', *, *, #386, .T. ) ;
#315 = VECTOR ( 'NONE', #542, 1000.000000000000000 ) ;
#316 = VECTOR ( 'NONE', #331, 1000.000000000000000 ) ;
#317 = ORIENTED_EDGE ( 'NONE', *, *, #580, .F. ) ;
#318 =( NAMED_UNIT ( * ) SI_UNIT ( $, .STERADIAN. ) SOLID_ANGLE_UNIT ( ) );
#319 = CARTESIAN_POINT ( 'NONE',  ( 11.99999999999999645, -5.347624356276776025E-15, 2.000000000000000000 ) ) ;
#320 = CARTESIAN_POINT ( 'NONE',  ( 11.99999999999999645, -5.347624356276776025E-15, 0.000000000000000000 ) ) ;
#321 = ORIENTED_EDGE ( 'NONE', *, *, #131, .T. ) ;
#322 = PLANE ( 'NONE',  #486 ) ;
#323 = PLANE ( 'NONE',  #501 ) ;
#324 = ORIENTED_EDGE ( 'NONE', *, *, #209, .T. ) ;
#325 = CARTESIAN_POINT ( 'NONE',  ( 20.00000000000000355, -5.347624356276776025E-15, 0.000000000000000000 ) ) ;
#326 = VECTOR ( 'NONE', #775, 1000.000000000000000 ) ;
#327 = ORIENTED_EDGE ( 'NONE', *, *, #164, .F. ) ;
#328 = CARTESIAN_POINT ( 'NONE',  ( 39.49999999999999289, -3.000000000000005329, 2.000000000000000000 ) ) ;
#329 = FACE_OUTER_BOUND ( 'NONE', #450, .T. ) ;
#330 = ORIENTED_EDGE ( 'NONE', *, *, #49, .T. ) ;
#331 = DIRECTION ( 'NONE',  ( -1.000000000000000000, -0.000000000000000000, -0.000000000000000000 ) ) ;
#332 = VECTOR ( 'NONE', #186, 1000.000000000000000 ) ;
#333 = FACE_BOUND ( 'NONE', #523, .T. ) ;
#334 = VERTEX_POINT ( 'NONE', #390 ) ;
#335 = EDGE_CURVE ( 'NONE', #157, #552, #17, .T. ) ;
#336 = LINE ( 'NONE', #463, #512 ) ;
#337 = EDGE_LOOP ( 'NONE', ( #604, #11, #498, #182 ) ) ;
#338 = AXIS2_PLACEMENT_3D ( 'NONE', #263, #457, #377 ) ;
#339 =( NAMED_UNIT ( * ) SI_UNIT ( $, .STERADIAN. ) SOLID_ANGLE_UNIT ( ) );
#340 = DIRECTION ( 'NONE',  ( -0.000000000000000000, 0.000000000000000000, 1.000000000000000000 ) ) ;
#341 = EDGE_LOOP ( 'NONE', ( #412, #60, #128, #383 ) ) ;
#342 = CARTESIAN_POINT ( 'NONE',  ( -3.493540333564401642E-15, 14.49999999999998757, 3.000000000000000000 ) ) ;
#343 = PRODUCT_RELATED_PRODUCT_CATEGORY ( 'part', '', ( #58 ) ) ;
#344 = ORIENTED_EDGE ( 'NONE', *, *, #105, .T. ) ;
#345 = DIRECTION ( 'NONE',  ( 0.000000000000000000, -0.000000000000000000, -1.000000000000000000 ) ) ;
#346 =( LENGTH_UNIT ( ) NAMED_UNIT ( * ) SI_UNIT ( .MILLI., .METRE. ) );
#347 = ORIENTED_EDGE ( 'NONE', *, *, #720, .F. ) ;
#348 = CIRCLE ( 'NONE', #252, 2.099999999999997868 ) ;
#349 = CIRCLE ( 'NONE', #525, 4.249999999999996447 ) ;
#350 = DIRECTION ( 'NONE',  ( 0.000000000000000000, 0.000000000000000000, -1.000000000000000000 ) ) ;
#351 = FACE_OUTER_BOUND ( 'NONE', #410, .T. ) ;
#352 = LINE ( 'NONE', #245, #163 ) ;
#353 = DIRECTION ( 'NONE',  ( 1.000000000000000000, 0.000000000000000000, 0.000000000000000000 ) ) ;
#354 = ORIENTED_EDGE ( 'NONE', *, *, #728, .F. ) ;
#355 = ORIENTED_EDGE ( 'NONE', *, *, #764, .T. ) ;
#356 = CARTESIAN_POINT ( 'NONE',  ( 59.50000000000000000, 14.50000000000000000, 3.000000000000000000 ) ) ;
#357 = EDGE_CURVE ( 'NONE', #444, #494, #747, .T. ) ;
#358 = ORIENTED_EDGE ( 'NONE', *, *, #509, .T. ) ;
#359 = FACE_OUTER_BOUND ( 'NONE', #19, .T. ) ;
#360 = VECTOR ( 'NONE', #662, 1000.000000000000000 ) ;
#361 = DIRECTION ( 'NONE',  ( -1.000000000000000000, 0.000000000000000000, 0.000000000000000000 ) ) ;
#362 = CARTESIAN_POINT ( 'NONE',  ( 47.50000000000000000, -5.347624356276776025E-15, 0.000000000000000000 ) ) ;
#363 = FILL_AREA_STYLE ('',( #540 ) ) ;
#364 = VERTEX_POINT ( 'NONE', #371 ) ;
#365 = LINE ( 'NONE', #606, #638 ) ;
#366 =( LENGTH_UNIT ( ) NAMED_UNIT ( * ) SI_UNIT ( .MILLI., .METRE. ) );
#367 = LINE ( 'NONE', #441, #332 ) ;
#368 = EDGE_CURVE ( 'NONE', #795, #102, #496, .T. ) ;
#369 = ORIENTED_EDGE ( 'NONE', *, *, #228, .T. ) ;
#370 =( NAMED_UNIT ( * ) PLANE_ANGLE_UNIT ( ) SI_UNIT ( $, .RADIAN. ) );
#371 = CARTESIAN_POINT ( 'NONE',  ( 22.25000000000000355, 39.50000000000000000, 0.000000000000000000 ) ) ;
#372 = ORIENTED_EDGE ( 'NONE', *, *, #527, .F. ) ;
#373 = PRODUCT_DEFINITION_FORMATION_WITH_SPECIFIED_SOURCE ( 'ANY', '', #58, .NOT_KNOWN. ) ;
#374 = AXIS2_PLACEMENT_3D ( 'NONE', #590, #154, #297 ) ;
#375 = ORIENTED_EDGE ( 'NONE', *, *, #556, .F. ) ;
#376 = EDGE_CURVE ( 'NONE', #428, #393, #207, .T. ) ;
#377 = DIRECTION ( 'NONE',  ( 0.000000000000000000, -0.000000000000000000, 1.000000000000000000 ) ) ;
#378 = CARTESIAN_POINT ( 'NONE',  ( 37.25000000000000711, 43.75000000000000000, 3.000000000000000000 ) ) ;
#379 = CARTESIAN_POINT ( 'NONE',  ( 20.00000000000000355, -3.000000000000005329, 2.000000000000000000 ) ) ;
#380 = VERTEX_POINT ( 'NONE', #735 ) ;
#381 = DIRECTION ( 'NONE',  ( 0.000000000000000000, 0.000000000000000000, -1.000000000000000000 ) ) ;
#382 = CARTESIAN_POINT ( 'NONE',  ( 11.99999999999999645, -5.347624356276776025E-15, 2.000000000000000000 ) ) ;
#383 = ORIENTED_EDGE ( 'NONE', *, *, #741, .T. ) ;
#384 = FACE_OUTER_BOUND ( 'NONE', #687, .T. ) ;
#385 = DIRECTION ( 'NONE',  ( 0.000000000000000000, 0.000000000000000000, -1.000000000000000000 ) ) ;
#386 = EDGE_CURVE ( 'NONE', #102, #364, #21, .T. ) ;
#387 =( GEOMETRIC_REPRESENTATION_CONTEXT ( 3 ) GLOBAL_UNCERTAINTY_ASSIGNED_CONTEXT ( ( #543 ) ) GLOBAL_UNIT_ASSIGNED_CONTEXT ( ( #516, #98, #339 ) ) REPRESENTATION_CONTEXT ( 'NONE', 'WORKASPACE' ) );
#388 = VECTOR ( 'NONE', #646, 1000.000000000000000 ) ;
#389 = ORIENTED_EDGE ( 'NONE', *, *, #335, .F. ) ;
#390 = CARTESIAN_POINT ( 'NONE',  ( 52.29999999999999716, 14.49999999999999822, 3.000000000000000000 ) ) ;
#391 = PLANE ( 'NONE',  #666 ) ;
#392 = DIRECTION ( 'NONE',  ( -0.000000000000000000, 1.000000000000000000, 0.000000000000000000 ) ) ;
#393 = VERTEX_POINT ( 'NONE', #190 ) ;
#394 = LINE ( 'NONE', #633, #64 ) ;
#395 = CYLINDRICAL_SURFACE ( 'NONE', #426, 3.250000000000002665 ) ;
#396 = VERTEX_POINT ( 'NONE', #325 ) ;
#397 = EDGE_CURVE ( 'NONE', #115, #97, #349, .T. ) ;
#398 = PRESENTATION_STYLE_ASSIGNMENT (( #33 ) ) ;
#399 = PLANE ( 'NONE',  #178 ) ;
#400 = FACE_BOUND ( 'NONE', #42, .T. ) ;
#401 = VERTEX_POINT ( 'NONE', #272 ) ;
#402 = VECTOR ( 'NONE', #567, 1000.000000000000000 ) ;
#403 = EDGE_CURVE ( 'NONE', #183, #444, #639, .T. ) ;
#404 = CARTESIAN_POINT ( 'NONE',  ( 0.000000000000000000, 0.000000000000000000, 0.000000000000000000 ) ) ;
#405 = EDGE_LOOP ( 'NONE', ( #274, #52, #290, #438 ) ) ;
#406 = LINE ( 'NONE', #695, #707 ) ;
#407 = CARTESIAN_POINT ( 'NONE',  ( 0.000000000000000000, 0.000000000000000000, 3.000000000000000000 ) ) ;
#408 = ADVANCED_FACE ( 'NONE', ( #269 ), #264, .T. ) ;
#409 = DIRECTION ( 'NONE',  ( 0.000000000000000000, 0.000000000000000000, 1.000000000000000000 ) ) ;
#410 = EDGE_LOOP ( 'NONE', ( #65, #355, #721, #502 ) ) ;
#411 = ORIENTED_EDGE ( 'NONE', *, *, #59, .F. ) ;
#412 = ORIENTED_EDGE ( 'NONE', *, *, #286, .T. ) ;
#413 = VECTOR ( 'NONE', #434, 1000.000000000000000 ) ;
#414 = LINE ( 'NONE', #362, #360 ) ;
#415 = CIRCLE ( 'NONE', #549, 3.250000000000002665 ) ;
#416 = APPLICATION_PROTOCOL_DEFINITION ( 'draft international standard', 'automotive_design', 1998, #239 ) ;
#417 = CARTESIAN_POINT ( 'NONE',  ( 52.29999999999999716, 14.49999999999999822, 0.000000000000000000 ) ) ;
#418 = ORIENTED_EDGE ( 'NONE', *, *, #137, .F. ) ;
#419 = CARTESIAN_POINT ( 'NONE',  ( 11.99999999999999645, -5.347624356276776025E-15, 0.000000000000000000 ) ) ;
#420 = LINE ( 'NONE', #242, #783 ) ;
#421 = VECTOR ( 'NONE', #686, 1000.000000000000000 ) ;
#422 = ORIENTED_EDGE ( 'NONE', *, *, #107, .T. ) ;
#423 = LINE ( 'NONE', #597, #611 ) ;
#424 = CARTESIAN_POINT ( 'NONE',  ( 29.75000000000000000, 43.75000000000000000, 0.000000000000000000 ) ) ;
#425 = EDGE_CURVE ( 'NONE', #593, #102, #560, .T. ) ;
#426 = AXIS2_PLACEMENT_3D ( 'NONE', #702, #495, #609 ) ;
#427 = CYLINDRICAL_SURFACE ( 'NONE', #144, 4.250000000000003553 ) ;
#428 = VERTEX_POINT ( 'NONE', #328 ) ;
#429 = LINE ( 'NONE', #658, #706 ) ;
#430 = ORIENTED_EDGE ( 'NONE', *, *, #105, .F. ) ;
#431 = EDGE_CURVE ( 'NONE', #179, #41, #555, .T. ) ;
#432 = CIRCLE ( 'NONE', #307, 4.250000000000003553 ) ;
#433 = ORIENTED_EDGE ( 'NONE', *, *, #685, .T. ) ;
#434 = DIRECTION ( 'NONE',  ( -0.000000000000000000, -0.000000000000000000, -1.000000000000000000 ) ) ;
#435 = ADVANCED_BREP_SHAPE_REPRESENTATION ( 'PCB LID', ( #518, #772, #249, #291 ), #665 ) ;
#436 = DIRECTION ( 'NONE',  ( -0.000000000000000000, -0.000000000000000000, -1.000000000000000000 ) ) ;
#437 = ADVANCED_FACE ( 'NONE', ( #384 ), #622, .F. ) ;
#438 = ORIENTED_EDGE ( 'NONE', *, *, #625, .T. ) ;
#439 = FACE_OUTER_BOUND ( 'NONE', #792, .T. ) ;
#440 = DIRECTION ( 'NONE',  ( -0.000000000000000000, 0.000000000000000000, 1.000000000000000000 ) ) ;
#441 = CARTESIAN_POINT ( 'NONE',  ( 33.00000000000000000, 43.75000000000000000, 3.000000000000000000 ) ) ;
#442 = VECTOR ( 'NONE', #722, 1000.000000000000000 ) ;
#443 = VECTOR ( 'NONE', #381, 1000.000000000000000 ) ;
#444 = VERTEX_POINT ( 'NONE', #449 ) ;
#445 = EDGE_CURVE ( 'NONE', #32, #143, #475, .T. ) ;
#446 = CARTESIAN_POINT ( 'NONE',  ( 11.99999999999999645, -3.000000000000005329, 0.000000000000000000 ) ) ;
#447 = ORIENTED_EDGE ( 'NONE', *, *, #452, .F. ) ;
#448 = ADVANCED_FACE ( 'NONE', ( #71 ), #323, .F. ) ;
#449 = CARTESIAN_POINT ( 'NONE',  ( 27.65000000000000213, 43.75000000000000000, 3.000000000000000000 ) ) ;
#450 = EDGE_LOOP ( 'NONE', ( #749, #608, #778, #130 ) ) ;
#451 = DIRECTION ( 'NONE',  ( 0.000000000000000000, 1.000000000000000000, -0.000000000000000000 ) ) ;
#452 = EDGE_CURVE ( 'NONE', #737, #364, #623, .T. ) ;
#453 = VECTOR ( 'NONE', #766, 1000.000000000000000 ) ;
#454 = ORIENTED_EDGE ( 'NONE', *, *, #9, .F. ) ;
#455 = CARTESIAN_POINT ( 'NONE',  ( 39.49999999999999289, -5.347624356276776025E-15, 0.000000000000000000 ) ) ;
#456 = ADVANCED_FACE ( 'NONE', ( #31 ), #150, .T. ) ;
#457 = DIRECTION ( 'NONE',  ( 0.000000000000000000, 1.000000000000000000, 0.000000000000000000 ) ) ;
#458 = ORIENTED_EDGE ( 'NONE', *, *, #403, .T. ) ;
#459 = LINE ( 'NONE', #342, #326 ) ;
#460 = DIRECTION ( 'NONE',  ( -0.000000000000000000, 0.000000000000000000, 1.000000000000000000 ) ) ;
#461 = FACE_OUTER_BOUND ( 'NONE', #657, .T. ) ;
#462 = ORIENTED_EDGE ( 'NONE', *, *, #425, .T. ) ;
#463 = CARTESIAN_POINT ( 'NONE',  ( 11.99999999999999645, -3.000000000000005329, 2.000000000000000000 ) ) ;
#464 = EDGE_LOOP ( 'NONE', ( #217, #458, #482, #347 ) ) ;
#465 = CIRCLE ( 'NONE', #624, 3.250000000000002665 ) ;
#466 = LINE ( 'NONE', #404, #767 ) ;
#467 = CARTESIAN_POINT ( 'NONE',  ( 20.00000000000000355, -5.347624356276776025E-15, 0.000000000000000000 ) ) ;
#468 = ORIENTED_EDGE ( 'NONE', *, *, #164, .T. ) ;
#469 = CARTESIAN_POINT ( 'NONE',  ( 22.25000000000000355, 43.75000000000000000, 0.000000000000000000 ) ) ;
#470 = CLOSED_SHELL ( 'NONE', ( #456, #754, #124, #91, #538, #78 ) ) ;
#471 = CARTESIAN_POINT ( 'NONE',  ( 52.29999999999999716, 14.49999999999999822, 3.000000000000000000 ) ) ;
#472 = DIRECTION ( 'NONE',  ( 0.000000000000000000, -1.000000000000000000, 0.000000000000000000 ) ) ;
#473 = DIRECTION ( 'NONE',  ( 1.000000000000000000, 0.000000000000000000, 0.000000000000000000 ) ) ;
#474 = VECTOR ( 'NONE', #281, 1000.000000000000000 ) ;
#475 = CIRCLE ( 'NONE', #51, 4.250000000000003553 ) ;
#476 = CARTESIAN_POINT ( 'NONE',  ( 37.25000000000000711, 39.50000000000000000, 3.000000000000000000 ) ) ;
#477 = PLANE ( 'NONE',  #225 ) ;
#478 = EDGE_CURVE ( 'NONE', #166, #220, #700, .T. ) ;
#479 = ORIENTED_EDGE ( 'NONE', *, *, #209, .F. ) ;
#480 = LINE ( 'NONE', #61, #442 ) ;
#481 = EDGE_CURVE ( 'NONE', #691, #334, #459, .T. ) ;
#482 = ORIENTED_EDGE ( 'NONE', *, *, #357, .T. ) ;
#483 = LINE ( 'NONE', #726, #129 ) ;
#484 = SURFACE_STYLE_USAGE ( .BOTH. , #246 ) ;
#485 = LINE ( 'NONE', #779, #315 ) ;
#486 = AXIS2_PLACEMENT_3D ( 'NONE', #738, #392, #630 ) ;
#487 = EDGE_CURVE ( 'NONE', #111, #573, #36, .T. ) ;
#488 = MECHANICAL_DESIGN_GEOMETRIC_PRESENTATION_REPRESENTATION (  '', ( #652 ), #82 ) ;
#489 = ORIENTED_EDGE ( 'NONE', *, *, #296, .T. ) ;
#490 = ORIENTED_EDGE ( 'NONE', *, *, #689, .T. ) ;
#491 = EDGE_CURVE ( 'NONE', #795, #16, #466, .T. ) ;
#492 = CARTESIAN_POINT ( 'NONE',  ( 37.25000000000000711, 43.75000000000000000, 3.000000000000000000 ) ) ;
#493 = PLANE ( 'NONE',  #632 ) ;
#494 = VERTEX_POINT ( 'NONE', #528 ) ;
#495 = DIRECTION ( 'NONE',  ( -0.000000000000000000, -0.000000000000000000, -1.000000000000000000 ) ) ;
#496 = LINE ( 'NONE', #138, #27 ) ;
#497 = CARTESIAN_POINT ( 'NONE',  ( 11.99999999999999645, -3.000000000000005329, 2.000000000000000000 ) ) ;
#498 = ORIENTED_EDGE ( 'NONE', *, *, #113, .T. ) ;
#499 = FILL_AREA_STYLE ('',( #734 ) ) ;
#500 = DIRECTION ( 'NONE',  ( -0.000000000000000000, -0.000000000000000000, -1.000000000000000000 ) ) ;
#501 = AXIS2_PLACEMENT_3D ( 'NONE', #582, #574, #712 ) ;
#502 = ORIENTED_EDGE ( 'NONE', *, *, #357, .F. ) ;
#503 = DIRECTION ( 'NONE',  ( -0.000000000000000000, 0.000000000000000000, 1.000000000000000000 ) ) ;
#504 = CARTESIAN_POINT ( 'NONE',  ( 39.49999999999999289, -5.347624356276776025E-15, 2.000000000000000000 ) ) ;
#505 = EDGE_LOOP ( 'NONE', ( #270, #140, #311, #732 ) ) ;
#506 = CARTESIAN_POINT ( 'NONE',  ( 26.50000000000000000, 43.75000000000000000, 3.000000000000000000 ) ) ;
#507 = EDGE_LOOP ( 'NONE', ( #684, #354, #79, #300 ) ) ;
#508 = CARTESIAN_POINT ( 'NONE',  ( -0.000000000000000000, 39.50000000000000000, 0.000000000000000000 ) ) ;
#509 = EDGE_CURVE ( 'NONE', #69, #149, #336, .T. ) ;
#510 = DIRECTION ( 'NONE',  ( -0.000000000000000000, 0.000000000000000000, -1.000000000000000000 ) ) ;
#511 = CIRCLE ( 'NONE', #222, 2.099999999999997868 ) ;
#512 = VECTOR ( 'NONE', #89, 1000.000000000000000 ) ;
#513 = PRESENTATION_LAYER_ASSIGNMENT (  '', '', ( #652 ) ) ;
#514 = CARTESIAN_POINT ( 'NONE',  ( 0.000000000000000000, 0.000000000000000000, 0.000000000000000000 ) ) ;
#515 = VERTEX_POINT ( 'NONE', #455 ) ;
#516 =( LENGTH_UNIT ( ) NAMED_UNIT ( * ) SI_UNIT ( .MILLI., .METRE. ) );
#517 = FACE_OUTER_BOUND ( 'NONE', #730, .T. ) ;
#518 = MANIFOLD_SOLID_BREP ( 'Boss.-Extru.1', #285 ) ;
#519 = LINE ( 'NONE', #697, #205 ) ;
#520 = VERTEX_POINT ( 'NONE', #158 ) ;
#521 = VECTOR ( 'NONE', #385, 1000.000000000000000 ) ;
#522 = CARTESIAN_POINT ( 'NONE',  ( 0.000000000000000000, 39.50000000000000000, 3.000000000000000000 ) ) ;
#523 = EDGE_LOOP ( 'NONE', ( #490, #714 ) ) ;
#524 = CARTESIAN_POINT ( 'NONE',  ( 47.50000000000000000, -5.347624356276776025E-15, 2.000000000000000000 ) ) ;
#525 = AXIS2_PLACEMENT_3D ( 'NONE', #13, #201, #751 ) ;
#526 = ORIENTED_EDGE ( 'NONE', *, *, #629, .F. ) ;
#527 = EDGE_CURVE ( 'NONE', #85, #159, #770, .T. ) ;
#528 = CARTESIAN_POINT ( 'NONE',  ( 27.65000000000000213, 43.75000000000000000, 0.000000000000000000 ) ) ;
#529 = CARTESIAN_POINT ( 'NONE',  ( 31.84999999999999787, 43.75000000000000000, 3.000000000000000000 ) ) ;
#530 = CARTESIAN_POINT ( 'NONE',  ( 29.75000000000000000, 43.75000000000000000, 3.000000000000000000 ) ) ;
#531 = CARTESIAN_POINT ( 'NONE',  ( 11.99999999999999645, -3.000000000000005329, 0.000000000000000000 ) ) ;
#532 = FACE_OUTER_BOUND ( 'NONE', #464, .T. ) ;
#533 = DIRECTION ( 'NONE',  ( -0.000000000000000000, -0.000000000000000000, -1.000000000000000000 ) ) ;
#534 = FACE_OUTER_BOUND ( 'NONE', #605, .T. ) ;
#535 = VECTOR ( 'NONE', #26, 1000.000000000000000 ) ;
#536 = DIRECTION ( 'NONE',  ( 0.000000000000000000, 0.000000000000000000, -1.000000000000000000 ) ) ;
#537 = DIRECTION ( 'NONE',  ( 1.000000000000000000, 0.000000000000000000, 0.000000000000000000 ) ) ;
#538 = ADVANCED_FACE ( 'NONE', ( #39 ), #704, .F. ) ;
#539 = CARTESIAN_POINT ( 'NONE',  ( 20.00000000000000355, -5.347624356276776025E-15, 2.000000000000000000 ) ) ;
#540 = FILL_AREA_STYLE_COLOUR ( '', #206 ) ;
#541 = EDGE_CURVE ( 'NONE', #179, #401, #642, .T. ) ;
#542 = DIRECTION ( 'NONE',  ( -0.000000000000000000, -0.000000000000000000, -1.000000000000000000 ) ) ;
#543 = UNCERTAINTY_MEASURE_WITH_UNIT (LENGTH_MEASURE( 1.000000000000000082E-05 ), #516, 'distance_accuracy_value', 'NONE');
#544 = CARTESIAN_POINT ( 'NONE',  ( 22.25000000000000355, 43.75000000000000000, 3.000000000000000000 ) ) ;
#545 = LINE ( 'NONE', #320, #86 ) ;
#546 = ORIENTED_EDGE ( 'NONE', *, *, #431, .T. ) ;
#547 = CARTESIAN_POINT ( 'NONE',  ( 0.000000000000000000, 39.50000000000000000, 3.000000000000000000 ) ) ;
#548 = STYLED_ITEM ( 'NONE', ( #398 ), #518 ) ;
#549 = AXIS2_PLACEMENT_3D ( 'NONE', #62, #238, #601 ) ;
#550 = DIRECTION ( 'NONE',  ( -1.000000000000000000, 0.000000000000000000, 0.000000000000000000 ) ) ;
#551 = DIRECTION ( 'NONE',  ( -0.000000000000000000, 0.000000000000000000, 1.000000000000000000 ) ) ;
#552 = VERTEX_POINT ( 'NONE', #531 ) ;
#553 = CARTESIAN_POINT ( 'NONE',  ( 29.75000000000000000, 43.75000000000000000, 3.000000000000000000 ) ) ;
#554 = EDGE_CURVE ( 'NONE', #569, #401, #406, .T. ) ;
#555 = LINE ( 'NONE', #742, #752 ) ;
#556 = EDGE_CURVE ( 'NONE', #143, #520, #394, .T. ) ;
#557 = CARTESIAN_POINT ( 'NONE',  ( 0.000000000000000000, 0.000000000000000000, 3.000000000000000000 ) ) ;
#558 = ORIENTED_EDGE ( 'NONE', *, *, #698, .F. ) ;
#559 = CARTESIAN_POINT ( 'NONE',  ( 0.000000000000000000, 0.000000000000000000, 3.000000000000000000 ) ) ;
#560 = LINE ( 'NONE', #571, #402 ) ;
#561 = EDGE_LOOP ( 'NONE', ( #389, #589, #358, #47 ) ) ;
#562 = VECTOR ( 'NONE', #305, 1000.000000000000000 ) ;
#563 = DIRECTION ( 'NONE',  ( 1.000000000000000000, 0.000000000000000000, 0.000000000000000000 ) ) ;
#564 = AXIS2_PLACEMENT_3D ( 'NONE', #116, #786, #109 ) ;
#565 = VECTOR ( 'NONE', #230, 1000.000000000000000 ) ;
#566 = ORIENTED_EDGE ( 'NONE', *, *, #187, .T. ) ;
#567 = DIRECTION ( 'NONE',  ( -0.000000000000000000, -0.000000000000000000, -1.000000000000000000 ) ) ;
#568 = CARTESIAN_POINT ( 'NONE',  ( 37.25000000000000711, 39.50000000000000000, 3.000000000000000000 ) ) ;
#569 = VERTEX_POINT ( 'NONE', #161 ) ;
#570 = EDGE_CURVE ( 'NONE', #428, #618, #352, .T. ) ;
#571 = CARTESIAN_POINT ( 'NONE',  ( 0.000000000000000000, 39.50000000000000000, 3.000000000000000000 ) ) ;
#572 = PLANE ( 'NONE',  #575 ) ;
#573 = VERTEX_POINT ( 'NONE', #419 ) ;
#574 = DIRECTION ( 'NONE',  ( -8.021864019986205013E-18, 1.000000000000000000, 0.000000000000000000 ) ) ;
#575 = AXIS2_PLACEMENT_3D ( 'NONE', #514, #755, #647 ) ;
#576 = ORIENTED_EDGE ( 'NONE', *, *, #431, .F. ) ;
#577 = EDGE_CURVE ( 'NONE', #641, #69, #429, .T. ) ;
#578 = DIRECTION ( 'NONE',  ( 1.000000000000000000, 0.000000000000000000, 0.000000000000000000 ) ) ;
#579 = CARTESIAN_POINT ( 'NONE',  ( 20.00000000000000355, -3.000000000000005329, 0.000000000000000000 ) ) ;
#580 = EDGE_CURVE ( 'NONE', #115, #737, #423, .T. ) ;
#581 = ORIENTED_EDGE ( 'NONE', *, *, #403, .F. ) ;
#582 = CARTESIAN_POINT ( 'NONE',  ( 0.000000000000000000, 0.000000000000000000, 3.000000000000000000 ) ) ;
#583 = CARTESIAN_POINT ( 'NONE',  ( 0.000000000000000000, 39.50000000000000000, 3.000000000000000000 ) ) ;
#584 = ORIENTED_EDGE ( 'NONE', *, *, #44, .T. ) ;
#585 = DIRECTION ( 'NONE',  ( 1.000000000000000000, 0.000000000000000000, 0.000000000000000000 ) ) ;
#586 = CARTESIAN_POINT ( 'NONE',  ( 59.50000000000000000, 39.50000000000000000, 3.000000000000000000 ) ) ;
#587 = PRODUCT_DEFINITION ( 'UNKNOWN', '', #373, #787 ) ;
#588 = STYLED_ITEM ( 'NONE', ( #94 ), #772 ) ;
#589 = ORIENTED_EDGE ( 'NONE', *, *, #663, .F. ) ;
#590 = CARTESIAN_POINT ( 'NONE',  ( 0.000000000000000000, 0.000000000000000000, 2.000000000000000000 ) ) ;
#591 =( NAMED_UNIT ( * ) PLANE_ANGLE_UNIT ( ) SI_UNIT ( $, .RADIAN. ) );
#592 = CARTESIAN_POINT ( 'NONE',  ( 33.00000000000000000, 43.75000000000000000, 3.000000000000000000 ) ) ;
#593 = VERTEX_POINT ( 'NONE', #547 ) ;
#594 = LINE ( 'NONE', #784, #223 ) ;
#595 = APPLICATION_PROTOCOL_DEFINITION ( 'draft international standard', 'automotive_design', 1998, #10 ) ;
#596 = ORIENTED_EDGE ( 'NONE', *, *, #527, .T. ) ;
#597 = CARTESIAN_POINT ( 'NONE',  ( 26.50000000000000000, 43.75000000000000000, 3.000000000000000000 ) ) ;
#598 = DIRECTION ( 'NONE',  ( -0.000000000000000000, -0.000000000000000000, -1.000000000000000000 ) ) ;
#599 = VECTOR ( 'NONE', #500, 1000.000000000000000 ) ;
#600 = PLANE ( 'NONE',  #162 ) ;
#601 = DIRECTION ( 'NONE',  ( 1.000000000000000000, 0.000000000000000000, 0.000000000000000000 ) ) ;
#602 = LINE ( 'NONE', #241, #118 ) ;
#603 = SURFACE_STYLE_FILL_AREA ( #363 ) ;
#604 = ORIENTED_EDGE ( 'NONE', *, *, #386, .F. ) ;
#605 = EDGE_LOOP ( 'NONE', ( #30, #196, #108, #4 ) ) ;
#606 = CARTESIAN_POINT ( 'NONE',  ( 11.99999999999999645, -5.347624356276776025E-15, 2.000000000000000000 ) ) ;
#607 = ORIENTED_EDGE ( 'NONE', *, *, #716, .F. ) ;
#608 = ORIENTED_EDGE ( 'NONE', *, *, #221, .F. ) ;
#609 = DIRECTION ( 'NONE',  ( -1.000000000000000000, 0.000000000000000000, 0.000000000000000000 ) ) ;
#610 = AXIS2_PLACEMENT_3D ( 'NONE', #760, #210, #216 ) ;
#611 = VECTOR ( 'NONE', #302, 1000.000000000000000 ) ;
#612 = EDGE_LOOP ( 'NONE', ( #411, #648, #262, #321 ) ) ;
#613 = EDGE_LOOP ( 'NONE', ( #454, #372, #468, #191 ) ) ;
#614 = DIRECTION ( 'NONE',  ( -0.000000000000000000, -0.000000000000000000, -1.000000000000000000 ) ) ;
#615 = EDGE_CURVE ( 'NONE', #618, #515, #483, .T. ) ;
#616 = DIRECTION ( 'NONE',  ( 1.000000000000000000, 0.000000000000000000, 0.000000000000000000 ) ) ;
#617 = LINE ( 'NONE', #634, #659 ) ;
#618 = VERTEX_POINT ( 'NONE', #715 ) ;
#619 = DIRECTION ( 'NONE',  ( 1.000000000000000000, 2.409338161078899674E-16, 0.000000000000000000 ) ) ;
#620 = DIRECTION ( 'NONE',  ( -0.000000000000000000, 0.000000000000000000, 1.000000000000000000 ) ) ;
#621 = ORIENTED_EDGE ( 'NONE', *, *, #709, .F. ) ;
#622 = PLANE ( 'NONE',  #681 ) ;
#623 = CIRCLE ( 'NONE', #103, 4.249999999999996447 ) ;
#624 = AXIS2_PLACEMENT_3D ( 'NONE', #758, #460, #353 ) ;
#625 = EDGE_CURVE ( 'NONE', #143, #569, #119, .T. ) ;
#626 = EDGE_LOOP ( 'NONE', ( #708, #631, #282, #703 ) ) ;
#627 = DIRECTION ( 'NONE',  ( 1.000000000000000000, 0.000000000000000000, 0.000000000000000000 ) ) ;
#628 = CARTESIAN_POINT ( 'NONE',  ( 11.99999999999999645, -5.347624356276776025E-15, 2.000000000000000000 ) ) ;
#629 = EDGE_CURVE ( 'NONE', #515, #159, #414, .T. ) ;
#630 = DIRECTION ( 'NONE',  ( 0.000000000000000000, -0.000000000000000000, 1.000000000000000000 ) ) ;
#631 = ORIENTED_EDGE ( 'NONE', *, *, #741, .F. ) ;
#632 = AXIS2_PLACEMENT_3D ( 'NONE', #497, #106, #736 ) ;
#633 = CARTESIAN_POINT ( 'NONE',  ( 0.000000000000000000, 39.50000000000000000, 3.000000000000000000 ) ) ;
#634 = CARTESIAN_POINT ( 'NONE',  ( 39.49999999999999289, -5.347624356276776025E-15, 0.000000000000000000 ) ) ;
#635 = SURFACE_STYLE_USAGE ( .BOTH. , #152 ) ;
#636 = ORIENTED_EDGE ( 'NONE', *, *, #554, .T. ) ;
#637 = FILL_AREA_STYLE ('',( #280 ) ) ;
#638 = VECTOR ( 'NONE', #233, 1000.000000000000000 ) ;
#639 = CIRCLE ( 'NONE', #177, 2.099999999999997868 ) ;
#640 = FACE_OUTER_BOUND ( 'NONE', #172, .T. ) ;
#641 = VERTEX_POINT ( 'NONE', #539 ) ;
#642 = LINE ( 'NONE', #96, #453 ) ;
#643 = CARTESIAN_POINT ( 'NONE',  ( 47.50000000000000000, -5.347624356276776025E-15, 2.000000000000000000 ) ) ;
#644 = ORIENTED_EDGE ( 'NONE', *, *, #445, .F. ) ;
#645 = DIRECTION ( 'NONE',  ( 0.000000000000000000, 0.000000000000000000, -1.000000000000000000 ) ) ;
#646 = DIRECTION ( 'NONE',  ( 0.000000000000000000, -1.000000000000000000, 0.000000000000000000 ) ) ;
#647 = DIRECTION ( 'NONE',  ( 1.000000000000000000, 0.000000000000000000, 0.000000000000000000 ) ) ;
#648 = ORIENTED_EDGE ( 'NONE', *, *, #487, .F. ) ;
#649 = VECTOR ( 'NONE', #168, 1000.000000000000000 ) ;
#650 = EDGE_CURVE ( 'NONE', #149, #552, #54, .T. ) ;
#651 = LINE ( 'NONE', #557, #744 ) ;
#652 = STYLED_ITEM ( 'NONE', ( #301 ), #249 ) ;
#653 = ORIENTED_EDGE ( 'NONE', *, *, #368, .T. ) ;
#654 = DIRECTION ( 'NONE',  ( -0.000000000000000000, 1.000000000000000000, -0.000000000000000000 ) ) ;
#655 = PRODUCT_CONTEXT ( 'NONE', #239, 'mechanical' ) ;
#656 = ORIENTED_EDGE ( 'NONE', *, *, #481, .T. ) ;
#657 = EDGE_LOOP ( 'NONE', ( #526, #5, #422, #596 ) ) ;
#658 = CARTESIAN_POINT ( 'NONE',  ( 20.00000000000000355, -5.347624356276776025E-15, 2.000000000000000000 ) ) ;
#659 = VECTOR ( 'NONE', #273, 1000.000000000000000 ) ;
#660 = CARTESIAN_POINT ( 'NONE',  ( 47.50000000000000000, -3.000000000000005329, 0.000000000000000000 ) ) ;
#661 = ORIENTED_EDGE ( 'NONE', *, *, #137, .T. ) ;
#662 = DIRECTION ( 'NONE',  ( 1.000000000000000000, -0.000000000000000000, -0.000000000000000000 ) ) ;
#663 = EDGE_CURVE ( 'NONE', #69, #157, #602, .T. ) ;
#664 = DIRECTION ( 'NONE',  ( 0.000000000000000000, 0.000000000000000000, -1.000000000000000000 ) ) ;
#665 =( GEOMETRIC_REPRESENTATION_CONTEXT ( 3 ) GLOBAL_UNCERTAINTY_ASSIGNED_CONTEXT ( ( #248 ) ) GLOBAL_UNIT_ASSIGNED_CONTEXT ( ( #346, #591, #101 ) ) REPRESENTATION_CONTEXT ( 'NONE', 'WORKASPACE' ) );
#666 = AXIS2_PLACEMENT_3D ( 'NONE', #583, #99, #156 ) ;
#667 = DIRECTION ( 'NONE',  ( -1.000000000000000000, 0.000000000000000000, 0.000000000000000000 ) ) ;
#668 = ADVANCED_FACE ( 'NONE', ( #48 ), #312, .F. ) ;
#669 = ORIENTED_EDGE ( 'NONE', *, *, #28, .T. ) ;
#670 = CARTESIAN_POINT ( 'NONE',  ( 0.000000000000000000, 0.000000000000000000, 3.000000000000000000 ) ) ;
#671 = DIRECTION ( 'NONE',  ( 0.000000000000000000, -1.000000000000000000, 0.000000000000000000 ) ) ;
#672 = VECTOR ( 'NONE', #671, 1000.000000000000000 ) ;
#673 = EDGE_LOOP ( 'NONE', ( #430, #75, #678, #88 ) ) ;
#674 = CARTESIAN_POINT ( 'NONE',  ( 52.29999999999999716, 4.195434882452785320E-16, 3.000000000000000000 ) ) ;
#675 = CARTESIAN_POINT ( 'NONE',  ( 0.000000000000000000, 0.000000000000000000, 0.000000000000000000 ) ) ;
#676 = ORIENTED_EDGE ( 'NONE', *, *, #187, .F. ) ;
#677 = EDGE_CURVE ( 'NONE', #691, #179, #594, .T. ) ;
#678 = ORIENTED_EDGE ( 'NONE', *, *, #570, .T. ) ;
#679 = CARTESIAN_POINT ( 'NONE',  ( 47.50000000000000000, -3.000000000000005329, 2.000000000000000000 ) ) ;
#680 = CIRCLE ( 'NONE', #176, 2.099999999999997868 ) ;
#681 = AXIS2_PLACEMENT_3D ( 'NONE', #675, #3, #682 ) ;
#682 = DIRECTION ( 'NONE',  ( 1.000000000000000000, 0.000000000000000000, 0.000000000000000000 ) ) ;
#683 = DIRECTION ( 'NONE',  ( 1.000000000000000000, 0.000000000000000000, 0.000000000000000000 ) ) ;
#684 = ORIENTED_EDGE ( 'NONE', *, *, #452, .T. ) ;
#685 = EDGE_CURVE ( 'NONE', #220, #334, #480, .T. ) ;
#686 = DIRECTION ( 'NONE',  ( 1.000000000000000000, 0.000000000000000000, 0.000000000000000000 ) ) ;
#687 = EDGE_LOOP ( 'NONE', ( #258, #268, #566, #90 ) ) ;
#688 = PLANE ( 'NONE',  #192 ) ;
#689 = EDGE_CURVE ( 'NONE', #494, #121, #348, .T. ) ;
#690 = CARTESIAN_POINT ( 'NONE',  ( 0.000000000000000000, 0.000000000000000000, 0.000000000000000000 ) ) ;
#691 = VERTEX_POINT ( 'NONE', #356 ) ;
#692 = PRESENTATION_LAYER_ASSIGNMENT (  '', '', ( #588 ) ) ;
#693 = FACE_OUTER_BOUND ( 'NONE', #673, .T. ) ;
#694 = ORIENTED_EDGE ( 'NONE', *, *, #577, .F. ) ;
#695 = CARTESIAN_POINT ( 'NONE',  ( -0.000000000000000000, 39.50000000000000000, 0.000000000000000000 ) ) ;
#696 = ADVANCED_FACE ( 'NONE', ( #359 ), #600, .T. ) ;
#697 = CARTESIAN_POINT ( 'NONE',  ( 22.25000000000000355, 39.50000000000000000, 3.000000000000000000 ) ) ;
#698 = EDGE_CURVE ( 'NONE', #777, #428, #308, .T. ) ;
#699 = ORIENTED_EDGE ( 'NONE', *, *, #243, .T. ) ;
#700 = LINE ( 'NONE', #224, #92 ) ;
#701 = CARTESIAN_POINT ( 'NONE',  ( 47.50000000000000000, -5.347624356276776025E-15, 2.000000000000000000 ) ) ;
#702 = CARTESIAN_POINT ( 'NONE',  ( 29.75000000000000000, 43.75000000000000000, 3.000000000000000000 ) ) ;
#703 = ORIENTED_EDGE ( 'NONE', *, *, #709, .T. ) ;
#704 = PLANE ( 'NONE',  #374 ) ;
#705 = CARTESIAN_POINT ( 'NONE',  ( 11.99999999999999645, -3.000000000000005329, 2.000000000000000000 ) ) ;
#706 = VECTOR ( 'NONE', #472, 1000.000000000000000 ) ;
#707 = VECTOR ( 'NONE', #148, 1000.000000000000000 ) ;
#708 = ORIENTED_EDGE ( 'NONE', *, *, #491, .T. ) ;
#709 = EDGE_CURVE ( 'NONE', #166, #795, #485, .T. ) ;
#710 = SURFACE_STYLE_FILL_AREA ( #637 ) ;
#711 = VERTEX_POINT ( 'NONE', #789 ) ;
#712 = DIRECTION ( 'NONE',  ( -1.000000000000000000, -8.021864019986205013E-18, 0.000000000000000000 ) ) ;
#713 = ORIENTED_EDGE ( 'NONE', *, *, #650, .F. ) ;
#714 = ORIENTED_EDGE ( 'NONE', *, *, #720, .T. ) ;
#715 = CARTESIAN_POINT ( 'NONE',  ( 39.49999999999999289, -5.347624356276776025E-15, 2.000000000000000000 ) ) ;
#716 = EDGE_CURVE ( 'NONE', #111, #641, #365, .T. ) ;
#717 = LINE ( 'NONE', #251, #232 ) ;
#718 = DIRECTION ( 'NONE',  ( -0.000000000000000000, 0.000000000000000000, 1.000000000000000000 ) ) ;
#719 = FACE_OUTER_BOUND ( 'NONE', #507, .T. ) ;
#720 = EDGE_CURVE ( 'NONE', #121, #494, #680, .T. ) ;
#721 = ORIENTED_EDGE ( 'NONE', *, *, #689, .F. ) ;
#722 = DIRECTION ( 'NONE',  ( 0.000000000000000000, 1.000000000000000000, -0.000000000000000000 ) ) ;
#723 = FACE_OUTER_BOUND ( 'NONE', #135, .T. ) ;
#724 = ADVANCED_FACE ( 'NONE', ( #259, #400 ), #1, .T. ) ;
#725 = DIRECTION ( 'NONE',  ( 1.000000000000000000, 0.000000000000000000, 0.000000000000000000 ) ) ;
#726 = CARTESIAN_POINT ( 'NONE',  ( 39.49999999999999289, -5.347624356276776025E-15, 2.000000000000000000 ) ) ;
#727 = CARTESIAN_POINT ( 'NONE',  ( 59.50000000000000000, 0.000000000000000000, 3.000000000000000000 ) ) ;
#728 = EDGE_CURVE ( 'NONE', #97, #364, #519, .T. ) ;
#729 = DIRECTION ( 'NONE',  ( -0.000000000000000000, 1.000000000000000000, -0.000000000000000000 ) ) ;
#730 = EDGE_LOOP ( 'NONE', ( #112, #369, #344, #200 ) ) ;
#731 = CARTESIAN_POINT ( 'NONE',  ( 20.00000000000000355, -5.347624356276776025E-15, 2.000000000000000000 ) ) ;
#732 = ORIENTED_EDGE ( 'NONE', *, *, #170, .T. ) ;
#733 = ORIENTED_EDGE ( 'NONE', *, *, #541, .F. ) ;
#734 = FILL_AREA_STYLE_COLOUR ( '', #80 ) ;
#735 = CARTESIAN_POINT ( 'NONE',  ( 33.00000000000000000, 43.75000000000000000, 0.000000000000000000 ) ) ;
#736 = DIRECTION ( 'NONE',  ( 0.000000000000000000, -0.000000000000000000, -1.000000000000000000 ) ) ;
#737 = VERTEX_POINT ( 'NONE', #136 ) ;
#738 = CARTESIAN_POINT ( 'NONE',  ( 11.99999999999999645, -5.347624356276776025E-15, 2.000000000000000000 ) ) ;
#739 = DIRECTION ( 'NONE',  ( 0.000000000000000000, 0.000000000000000000, -1.000000000000000000 ) ) ;
#740 = ORIENTED_EDGE ( 'NONE', *, *, #368, .F. ) ;
#741 = EDGE_CURVE ( 'NONE', #220, #16, #6, .T. ) ;
#742 = CARTESIAN_POINT ( 'NONE',  ( -3.493540333564401642E-15, 14.49999999999998757, 0.000000000000000000 ) ) ;
#743 = CARTESIAN_POINT ( 'NONE',  ( 20.00000000000000355, -5.347624356276776025E-15, 2.000000000000000000 ) ) ;
#744 = VECTOR ( 'NONE', #794, 1000.000000000000000 ) ;
#745 = ORIENTED_EDGE ( 'NONE', *, *, #677, .F. ) ;
#746 = ADVANCED_FACE ( 'NONE', ( #640 ), #194, .T. ) ;
#747 = LINE ( 'NONE', #260, #599 ) ;
#748 = DIRECTION ( 'NONE',  ( 0.000000000000000000, -1.000000000000000000, -0.000000000000000000 ) ) ;
#749 = ORIENTED_EDGE ( 'NONE', *, *, #228, .F. ) ;
#750 = AXIS2_PLACEMENT_3D ( 'NONE', #559, #340, #184 ) ;
#751 = DIRECTION ( 'NONE',  ( 1.000000000000000000, 0.000000000000000000, 0.000000000000000000 ) ) ;
#752 = VECTOR ( 'NONE', #197, 1000.000000000000000 ) ;
#753 = PLANE ( 'NONE',  #299 ) ;
#754 = ADVANCED_FACE ( 'NONE', ( #461 ), #255, .T. ) ;
#755 = DIRECTION ( 'NONE',  ( -0.000000000000000000, 0.000000000000000000, 1.000000000000000000 ) ) ;
#756 = ORIENTED_EDGE ( 'NONE', *, *, #577, .T. ) ;
#757 = CARTESIAN_POINT ( 'NONE',  ( 47.50000000000000000, -5.347624356276776025E-15, 2.000000000000000000 ) ) ;
#758 = CARTESIAN_POINT ( 'NONE',  ( 29.75000000000000000, 43.75000000000000000, 0.000000000000000000 ) ) ;
#759 = ADVANCED_FACE ( 'NONE', ( #439 ), #395, .T. ) ;
#760 = CARTESIAN_POINT ( 'NONE',  ( 0.000000000000000000, 0.000000000000000000, 2.000000000000000000 ) ) ;
#761 = ORIENTED_EDGE ( 'NONE', *, *, #113, .F. ) ;
#762 = VECTOR ( 'NONE', #195, 1000.000000000000000 ) ;
#763 = DIRECTION ( 'NONE',  ( 0.000000000000000000, 1.000000000000000000, 0.000000000000000000 ) ) ;
#764 = EDGE_CURVE ( 'NONE', #183, #121, #126, .T. ) ;
#765 = EDGE_LOOP ( 'NONE', ( #277, #713, #661, #193 ) ) ;
#766 = DIRECTION ( 'NONE',  ( 0.000000000000000000, 1.000000000000000000, -0.000000000000000000 ) ) ;
#767 = VECTOR ( 'NONE', #212, 1000.000000000000000 ) ;
#768 = VECTOR ( 'NONE', #664, 1000.000000000000000 ) ;
#769 = ORIENTED_EDGE ( 'NONE', *, *, #491, .F. ) ;
#770 = LINE ( 'NONE', #524, #267 ) ;
#771 = FACE_OUTER_BOUND ( 'NONE', #337, .T. ) ;
#772 = MANIFOLD_SOLID_BREP ( 'Boss.-Extru.2[1]', #470 ) ;
#773 = CARTESIAN_POINT ( 'NONE',  ( 0.000000000000000000, 0.000000000000000000, 0.000000000000000000 ) ) ;
#774 = DIRECTION ( 'NONE',  ( -0.000000000000000000, -0.000000000000000000, -1.000000000000000000 ) ) ;
#775 = DIRECTION ( 'NONE',  ( -1.000000000000000000, -2.409338161078899674E-16, 0.000000000000000000 ) ) ;
#776 = EDGE_CURVE ( 'NONE', #444, #183, #511, .T. ) ;
#777 = VERTEX_POINT ( 'NONE', #679 ) ;
#778 = ORIENTED_EDGE ( 'NONE', *, *, #698, .T. ) ;
#779 = CARTESIAN_POINT ( 'NONE',  ( 0.000000000000000000, 0.000000000000000000, 3.000000000000000000 ) ) ;
#780 = ADVANCED_FACE ( 'NONE', ( #132 ), #322, .T. ) ;
#781 = CARTESIAN_POINT ( 'NONE',  ( 52.29999999999999716, 0.000000000000000000, 0.000000000000000000 ) ) ;
#782 = CARTESIAN_POINT ( 'NONE',  ( 0.000000000000000000, 0.000000000000000000, 0.000000000000000000 ) ) ;
#783 = VECTOR ( 'NONE', #127, 1000.000000000000000 ) ;
#784 = CARTESIAN_POINT ( 'NONE',  ( 59.50000000000000000, 14.50000000000000000, 3.000000000000000000 ) ) ;
#785 = ADVANCED_FACE ( 'NONE', ( #87, #333 ), #572, .F. ) ;
#786 = DIRECTION ( 'NONE',  ( -1.000000000000000000, 0.000000000000000000, 0.000000000000000000 ) ) ;
#787 = PRODUCT_DEFINITION_CONTEXT ( 'detailed design', #10, 'design' ) ;
#788 = DIRECTION ( 'NONE',  ( 0.000000000000000000, 0.000000000000000000, -1.000000000000000000 ) ) ;
#789 = CARTESIAN_POINT ( 'NONE',  ( 47.50000000000000000, -3.000000000000005329, 0.000000000000000000 ) ) ;
#790 = CARTESIAN_POINT ( 'NONE',  ( 47.50000000000000000, -5.347624356276776025E-15, 0.000000000000000000 ) ) ;
#791 = AXIS2_PLACEMENT_3D ( 'NONE', #319, #141, #503 ) ;
#792 = EDGE_LOOP ( 'NONE', ( #324, #317, #24, #204 ) ) ;
#793 = FACE_OUTER_BOUND ( 'NONE', #405, .T. ) ;
#794 = DIRECTION ( 'NONE',  ( 0.000000000000000000, 1.000000000000000000, -0.000000000000000000 ) ) ;
#795 = VERTEX_POINT ( 'NONE', #773 ) ;
ENDSEC;
END-ISO-10303-21;
