ISO-10303-21;
HEADER;
FILE_DESCRIPTION (( 'STEP AP214' ),
    '1' );
FILE_NAME ('Travel lock.STEP',
    '2026-06-11T14:53:50',
    ( '' ),
    ( '' ),
    'SwSTEP 2.0',
    'SolidWorks 2025',
    '' );
FILE_SCHEMA (( 'AUTOMOTIVE_DESIGN' ));
ENDSEC;

DATA;
#1 = CARTESIAN_POINT ( 'NONE',  ( 0.000000000000000000, 0.000000000000000000, 35.24000000000000199 ) ) ;
#2 = ORIENTED_EDGE ( 'NONE', *, *, #63, .F. ) ;
#3 = DIRECTION ( 'NONE',  ( -1.000000000000000000, 0.000000000000000000, 0.000000000000000000 ) ) ;
#4 = ADVANCED_FACE ( 'NONE', ( #200, #186 ), #130, .T. ) ;
#5 = CARTESIAN_POINT ( 'NONE',  ( -2.600000000000000089, 3.184081677783118191E-16, 35.24000000000000199 ) ) ;
#6 = DIRECTION ( 'NONE',  ( 0.000000000000000000, 0.000000000000000000, 1.000000000000000000 ) ) ;
#7 = AXIS2_PLACEMENT_3D ( 'NONE', #16, #137, #106 ) ;
#8 = AXIS2_PLACEMENT_3D ( 'NONE', #124, #6, #241 ) ;
#9 = CARTESIAN_POINT ( 'NONE',  ( 10.00000000000000000, 1.224646799147353256E-15, -4.999999999999999112 ) ) ;
#10 = CARTESIAN_POINT ( 'NONE',  ( 0.000000000000000000, 0.000000000000000000, 35.24000000000000199 ) ) ;
#11 = CARTESIAN_POINT ( 'NONE',  ( 0.000000000000000000, 0.000000000000000000, 5.000000000000000000 ) ) ;
#12 = ADVANCED_FACE ( 'NONE', ( #213 ), #98, .F. ) ;
#13 = DIRECTION ( 'NONE',  ( -1.000000000000000000, 0.000000000000000000, 0.000000000000000000 ) ) ;
#14 = AXIS2_PLACEMENT_3D ( 'NONE', #10, #129, #45 ) ;
#15 = VECTOR ( 'NONE', #73, 1000.000000000000000 ) ;
#16 = CARTESIAN_POINT ( 'NONE',  ( 0.000000000000000000, 0.000000000000000000, 37.24000000000000199 ) ) ;
#17 = FACE_OUTER_BOUND ( 'NONE', #272, .T. ) ;
#18 = CIRCLE ( 'NONE', #121, 7.500000000000000000 ) ;
#19 = AXIS2_PLACEMENT_3D ( 'NONE', #301, #38, #155 ) ;
#20 = ORIENTED_EDGE ( 'NONE', *, *, #170, .T. ) ;
#21 = EDGE_CURVE ( 'NONE', #265, #156, #168, .T. ) ;
#22 = FACE_OUTER_BOUND ( 'NONE', #150, .T. ) ;
#23 = EDGE_LOOP ( 'NONE', ( #300, #291, #90, #208 ) ) ;
#24 = ADVANCED_BREP_SHAPE_REPRESENTATION ( 'Travel lock', ( #230, #136 ), #75 ) ;
#25 = CYLINDRICAL_SURFACE ( 'NONE', #84, 4.000000000000000000 ) ;
#26 = ORIENTED_EDGE ( 'NONE', *, *, #332, .F. ) ;
#27 = CLOSED_SHELL ( 'NONE', ( #102, #12, #216, #211, #232, #273, #323, #138, #317, #4, #238, #31, #264, #85 ) ) ;
#28 = CIRCLE ( 'NONE', #377, 2.600000000000000089 ) ;
#29 = DIRECTION ( 'NONE',  ( 0.000000000000000000, 0.000000000000000000, -1.000000000000000000 ) ) ;
#30 = ORIENTED_EDGE ( 'NONE', *, *, #367, .T. ) ;
#31 = ADVANCED_FACE ( 'NONE', ( #80 ), #247, .T. ) ;
#32 = ORIENTED_EDGE ( 'NONE', *, *, #371, .F. ) ;
#33 = CARTESIAN_POINT ( 'NONE',  ( -7.500000000000000000, 0.000000000000000000, 5.000000000000000000 ) ) ;
#34 = ORIENTED_EDGE ( 'NONE', *, *, #369, .T. ) ;
#35 = PRODUCT_RELATED_PRODUCT_CATEGORY ( 'part', '', ( #233 ) ) ;
#36 = PRESENTATION_LAYER_ASSIGNMENT (  '', '', ( #253 ) ) ;
#37 = AXIS2_PLACEMENT_3D ( 'NONE', #183, #304, #43 ) ;
#38 = DIRECTION ( 'NONE',  ( -1.224646799147353207E-16, 1.000000000000000000, 0.000000000000000000 ) ) ;
#39 = ORIENTED_EDGE ( 'NONE', *, *, #143, .T. ) ;
#40 = EDGE_CURVE ( 'NONE', #193, #197, #387, .T. ) ;
#41 = CARTESIAN_POINT ( 'NONE',  ( 0.000000000000000000, 0.000000000000000000, 0.000000000000000000 ) ) ;
#42 = CARTESIAN_POINT ( 'NONE',  ( -10.00000000000000000, 0.000000000000000000, -4.999999999999999112 ) ) ;
#43 = DIRECTION ( 'NONE',  ( -1.000000000000000000, 0.000000000000000000, 0.000000000000000000 ) ) ;
#44 = FACE_OUTER_BOUND ( 'NONE', #66, .T. ) ;
#45 = DIRECTION ( 'NONE',  ( 1.000000000000000000, 0.000000000000000000, 0.000000000000000000 ) ) ;
#46 = AXIS2_PLACEMENT_3D ( 'NONE', #11, #245, #366 ) ;
#47 = DIRECTION ( 'NONE',  ( -0.000000000000000000, -0.000000000000000000, -1.000000000000000000 ) ) ;
#48 = DIRECTION ( 'NONE',  ( 0.000000000000000000, -1.000000000000000000, 0.000000000000000000 ) ) ;
#49 = PRODUCT_CONTEXT ( 'NONE', #175, 'mechanical' ) ;
#50 = CARTESIAN_POINT ( 'NONE',  ( 0.000000000000000000, 0.000000000000000000, 5.000000000000000000 ) ) ;
#51 = DIRECTION ( 'NONE',  ( -1.000000000000000000, 0.000000000000000000, 0.000000000000000000 ) ) ;
#52 = AXIS2_PLACEMENT_3D ( 'NONE', #139, #254, #375 ) ;
#53 = EDGE_CURVE ( 'NONE', #82, #351, #81, .T. ) ;
#54 = PLANE ( 'NONE',  #52 ) ;
#55 = ORIENTED_EDGE ( 'NONE', *, *, #170, .F. ) ;
#56 = CARTESIAN_POINT ( 'NONE',  ( -4.409830056250526376, 0.000000000000000000, -4.999999999999998224 ) ) ;
#57 = VERTEX_POINT ( 'NONE', #134 ) ;
#58 = FACE_OUTER_BOUND ( 'NONE', #59, .T. ) ;
#59 = EDGE_LOOP ( 'NONE', ( #354, #362, #39, #227 ) ) ;
#60 =( NAMED_UNIT ( * ) SI_UNIT ( $, .STERADIAN. ) SOLID_ANGLE_UNIT ( ) );
#61 = VERTEX_POINT ( 'NONE', #5 ) ;
#62 = CYLINDRICAL_SURFACE ( 'NONE', #319, 7.500000000000000000 ) ;
#63 = EDGE_CURVE ( 'NONE', #57, #262, #218, .T. ) ;
#64 = ORIENTED_EDGE ( 'NONE', *, *, #53, .F. ) ;
#65 = DIRECTION ( 'NONE',  ( -1.000000000000000000, 0.000000000000000000, 0.000000000000000000 ) ) ;
#66 = EDGE_LOOP ( 'NONE', ( #352, #20, #384, #2 ) ) ;
#67 = EDGE_CURVE ( 'NONE', #156, #57, #244, .T. ) ;
#68 = VECTOR ( 'NONE', #217, 1000.000000000000000 ) ;
#69 = DIRECTION ( 'NONE',  ( -0.000000000000000000, -0.000000000000000000, -1.000000000000000000 ) ) ;
#70 = VERTEX_POINT ( 'NONE', #105 ) ;
#71 = CARTESIAN_POINT ( 'NONE',  ( 0.000000000000000000, 0.000000000000000000, -10.00000000000000000 ) ) ;
#72 = CARTESIAN_POINT ( 'NONE',  ( 0.000000000000000000, 0.000000000000000000, 35.24000000000000199 ) ) ;
#73 = DIRECTION ( 'NONE',  ( -0.000000000000000000, -0.000000000000000000, 1.000000000000000000 ) ) ;
#74 = TOROIDAL_SURFACE ( 'NONE', #128, 10.00000000000000000, 5.590169943749474513 ) ;
#75 =( GEOMETRIC_REPRESENTATION_CONTEXT ( 3 ) GLOBAL_UNCERTAINTY_ASSIGNED_CONTEXT ( ( #236 ) ) GLOBAL_UNIT_ASSIGNED_CONTEXT ( ( #214, #204, #281 ) ) REPRESENTATION_CONTEXT ( 'NONE', 'WORKASPACE' ) );
#76 = EDGE_CURVE ( 'NONE', #336, #70, #286, .T. ) ;
#77 = FACE_OUTER_BOUND ( 'NONE', #242, .T. ) ;
#78 = DIRECTION ( 'NONE',  ( -1.000000000000000000, 0.000000000000000000, 0.000000000000000000 ) ) ;
#79 = SHAPE_DEFINITION_REPRESENTATION ( #263, #24 ) ;
#80 = FACE_OUTER_BOUND ( 'NONE', #167, .T. ) ;
#81 = CIRCLE ( 'NONE', #318, 4.000000000000000000 ) ;
#82 = VERTEX_POINT ( 'NONE', #280 ) ;
#83 = CARTESIAN_POINT ( 'NONE',  ( 0.000000000000000000, 0.000000000000000000, -4.999999999999999112 ) ) ;
#84 = AXIS2_PLACEMENT_3D ( 'NONE', #89, #198, #51 ) ;
#85 = ADVANCED_FACE ( 'NONE', ( #44 ), #294, .F. ) ;
#86 = DIRECTION ( 'NONE',  ( -1.000000000000000000, 0.000000000000000000, 0.000000000000000000 ) ) ;
#87 = CARTESIAN_POINT ( 'NONE',  ( -2.600000000000000089, 3.184081677783118191E-16, 37.24000000000000199 ) ) ;
#88 = ORIENTED_EDGE ( 'NONE', *, *, #283, .T. ) ;
#89 = CARTESIAN_POINT ( 'NONE',  ( 0.000000000000000000, 0.000000000000000000, 37.24000000000000199 ) ) ;
#90 = ORIENTED_EDGE ( 'NONE', *, *, #53, .T. ) ;
#91 = COLOUR_RGB ( '',0.7921568627450980005, 0.8196078431372548767, 0.9333333333333333481 ) ;
#92 = DIRECTION ( 'NONE',  ( 0.000000000000000000, 0.000000000000000000, 1.000000000000000000 ) ) ;
#93 = VERTEX_POINT ( 'NONE', #189 ) ;
#94 = DIRECTION ( 'NONE',  ( 1.000000000000000000, 0.000000000000000000, 0.000000000000000000 ) ) ;
#95 = ORIENTED_EDGE ( 'NONE', *, *, #205, .T. ) ;
#96 = DIRECTION ( 'NONE',  ( 0.000000000000000000, 0.000000000000000000, 1.000000000000000000 ) ) ;
#97 = ORIENTED_EDGE ( 'NONE', *, *, #40, .F. ) ;
#98 = TOROIDAL_SURFACE ( 'NONE', #314, 10.00000000000000000, 5.590169943749474513 ) ;
#99 = DIRECTION ( 'NONE',  ( -1.000000000000000000, 0.000000000000000000, 0.000000000000000000 ) ) ;
#100 = FACE_OUTER_BOUND ( 'NONE', #184, .T. ) ;
#101 = DIRECTION ( 'NONE',  ( 0.000000000000000000, 0.000000000000000000, 1.000000000000000000 ) ) ;
#102 = ADVANCED_FACE ( 'NONE', ( #100 ), #74, .F. ) ;
#103 = LINE ( 'NONE', #374, #68 ) ;
#104 = PRODUCT_DEFINITION ( 'UNKNOWN', '', #109, #325 ) ;
#105 = CARTESIAN_POINT ( 'NONE',  ( 7.500000000000000000, 9.184850993605147944E-16, 5.000000000000000000 ) ) ;
#106 = DIRECTION ( 'NONE',  ( 1.000000000000000000, 0.000000000000000000, 0.000000000000000000 ) ) ;
#107 = ORIENTED_EDGE ( 'NONE', *, *, #308, .T. ) ;
#108 = AXIS2_PLACEMENT_3D ( 'NONE', #110, #112, #297 ) ;
#109 = PRODUCT_DEFINITION_FORMATION_WITH_SPECIFIED_SOURCE ( 'ANY', '', #233, .NOT_KNOWN. ) ;
#110 = CARTESIAN_POINT ( 'NONE',  ( 0.000000000000000000, 0.000000000000000000, -10.00000000000000000 ) ) ;
#111 = APPLICATION_CONTEXT ( 'automotive_design' ) ;
#112 = DIRECTION ( 'NONE',  ( -0.000000000000000000, -0.000000000000000000, -1.000000000000000000 ) ) ;
#113 = ORIENTED_EDGE ( 'NONE', *, *, #115, .F. ) ;
#114 = CARTESIAN_POINT ( 'NONE',  ( -10.00000000000000000, 0.000000000000000000, -4.999999999999999112 ) ) ;
#115 = EDGE_CURVE ( 'NONE', #336, #147, #190, .T. ) ;
#116 = EDGE_LOOP ( 'NONE', ( #123, #95, #240, #383 ) ) ;
#117 = CARTESIAN_POINT ( 'NONE',  ( -4.000000000000000000, 0.000000000000000000, 37.24000000000000199 ) ) ;
#118 = ORIENTED_EDGE ( 'NONE', *, *, #250, .F. ) ;
#119 = CARTESIAN_POINT ( 'NONE',  ( 2.600000000000000089, 0.000000000000000000, 37.24000000000000199 ) ) ;
#120 = ORIENTED_EDGE ( 'NONE', *, *, #382, .F. ) ;
#121 = AXIS2_PLACEMENT_3D ( 'NONE', #327, #199, #234 ) ;
#122 = DIRECTION ( 'NONE',  ( -0.000000000000000000, -0.000000000000000000, -1.000000000000000000 ) ) ;
#123 = ORIENTED_EDGE ( 'NONE', *, *, #371, .T. ) ;
#124 = CARTESIAN_POINT ( 'NONE',  ( 0.000000000000000000, 0.000000000000000000, 5.000000000000000000 ) ) ;
#125 = ORIENTED_EDGE ( 'NONE', *, *, #205, .F. ) ;
#126 = CARTESIAN_POINT ( 'NONE',  ( 0.000000000000000000, 0.000000000000000000, 37.24000000000000199 ) ) ;
#127 = DIRECTION ( 'NONE',  ( -1.000000000000000000, -1.224646799147353207E-16, 0.000000000000000000 ) ) ;
#128 = AXIS2_PLACEMENT_3D ( 'NONE', #162, #370, #78 ) ;
#129 = DIRECTION ( 'NONE',  ( 0.000000000000000000, 0.000000000000000000, 1.000000000000000000 ) ) ;
#130 = PLANE ( 'NONE',  #259 ) ;
#131 = EDGE_CURVE ( 'NONE', #296, #206, #103, .T. ) ;
#132 = DIRECTION ( 'NONE',  ( 1.000000000000000000, 0.000000000000000000, 0.000000000000000000 ) ) ;
#133 = DIRECTION ( 'NONE',  ( -0.000000000000000000, -0.000000000000000000, -1.000000000000000000 ) ) ;
#134 = CARTESIAN_POINT ( 'NONE',  ( 4.409830056250526376, 5.400484263170998743E-16, -4.999999999999998224 ) ) ;
#135 = AXIS2_PLACEMENT_3D ( 'NONE', #178, #274, #99 ) ;
#136 = AXIS2_PLACEMENT_3D ( 'NONE', #140, #255, #219 ) ;
#137 = DIRECTION ( 'NONE',  ( 0.000000000000000000, 0.000000000000000000, 1.000000000000000000 ) ) ;
#138 = ADVANCED_FACE ( 'NONE', ( #313, #77 ), #312, .T. ) ;
#139 = CARTESIAN_POINT ( 'NONE',  ( 0.000000000000000000, 0.000000000000000000, -10.00000000000000000 ) ) ;
#140 = CARTESIAN_POINT ( 'NONE',  ( 0.000000000000000000, 0.000000000000000000, 0.000000000000000000 ) ) ;
#141 = ORIENTED_EDGE ( 'NONE', *, *, #311, .T. ) ;
#142 = VECTOR ( 'NONE', #268, 1000.000000000000000 ) ;
#143 = EDGE_CURVE ( 'NONE', #237, #206, #152, .T. ) ;
#144 = DIRECTION ( 'NONE',  ( -0.000000000000000000, -0.000000000000000000, -1.000000000000000000 ) ) ;
#145 = DIRECTION ( 'NONE',  ( -0.000000000000000000, -0.000000000000000000, 1.000000000000000000 ) ) ;
#146 = AXIS2_PLACEMENT_3D ( 'NONE', #42, #48, #305 ) ;
#147 = VERTEX_POINT ( 'NONE', #221 ) ;
#148 = EDGE_LOOP ( 'NONE', ( #182, #256, #229, #267 ) ) ;
#149 = FACE_OUTER_BOUND ( 'NONE', #23, .T. ) ;
#150 = EDGE_LOOP ( 'NONE', ( #120, #141, #118, #113 ) ) ;
#151 = CARTESIAN_POINT ( 'NONE',  ( 4.000000000000000000, 4.898587196589412829E-16, 37.24000000000000199 ) ) ;
#152 = CIRCLE ( 'NONE', #7, 2.600000000000000089 ) ;
#153 = ORIENTED_EDGE ( 'NONE', *, *, #342, .T. ) ;
#154 = CIRCLE ( 'NONE', #381, 2.600000000000000089 ) ;
#155 = DIRECTION ( 'NONE',  ( -1.000000000000000000, -1.224646799147353207E-16, 0.000000000000000000 ) ) ;
#156 = VERTEX_POINT ( 'NONE', #56 ) ;
#157 = LINE ( 'NONE', #151, #142 ) ;
#158 = CARTESIAN_POINT ( 'NONE',  ( 0.000000000000000000, 0.000000000000000000, 37.24000000000000199 ) ) ;
#159 = DIRECTION ( 'NONE',  ( -1.000000000000000000, 0.000000000000000000, 0.000000000000000000 ) ) ;
#160 = CARTESIAN_POINT ( 'NONE',  ( 0.000000000000000000, 0.000000000000000000, 37.24000000000000199 ) ) ;
#161 = AXIS2_PLACEMENT_3D ( 'NONE', #292, #145, #191 ) ;
#162 = CARTESIAN_POINT ( 'NONE',  ( 0.000000000000000000, 0.000000000000000000, -4.999999999999999112 ) ) ;
#163 = DIRECTION ( 'NONE',  ( 0.000000000000000000, 0.000000000000000000, 1.000000000000000000 ) ) ;
#164 = DIRECTION ( 'NONE',  ( 0.000000000000000000, 0.000000000000000000, 1.000000000000000000 ) ) ;
#165 = CIRCLE ( 'NONE', #365, 4.000000000000000000 ) ;
#166 = CARTESIAN_POINT ( 'NONE',  ( 7.500000000000000000, 9.184850993605147944E-16, 0.000000000000000000 ) ) ;
#167 = EDGE_LOOP ( 'NONE', ( #389, #174 ) ) ;
#168 = CIRCLE ( 'NONE', #146, 5.590169943749475401 ) ;
#169 = CARTESIAN_POINT ( 'NONE',  ( -7.500000000000001776, 0.000000000000000000, -9.999999999999998224 ) ) ;
#170 = EDGE_CURVE ( 'NONE', #156, #147, #222, .T. ) ;
#171 = SURFACE_STYLE_FILL_AREA ( #379 ) ;
#172 = AXIS2_PLACEMENT_3D ( 'NONE', #50, #164, #285 ) ;
#173 = VECTOR ( 'NONE', #122, 1000.000000000000000 ) ;
#174 = ORIENTED_EDGE ( 'NONE', *, *, #378, .T. ) ;
#175 = APPLICATION_CONTEXT ( 'automotive_design' ) ;
#176 = FACE_OUTER_BOUND ( 'NONE', #148, .T. ) ;
#177 = ORIENTED_EDGE ( 'NONE', *, *, #40, .T. ) ;
#178 = CARTESIAN_POINT ( 'NONE',  ( 0.000000000000000000, 0.000000000000000000, 5.000000000000000000 ) ) ;
#179 = ORIENTED_EDGE ( 'NONE', *, *, #115, .T. ) ;
#180 = DIRECTION ( 'NONE',  ( -0.000000000000000000, -0.000000000000000000, -1.000000000000000000 ) ) ;
#181 = AXIS2_PLACEMENT_3D ( 'NONE', #220, #343, #339 ) ;
#182 = ORIENTED_EDGE ( 'NONE', *, *, #350, .F. ) ;
#183 = CARTESIAN_POINT ( 'NONE',  ( 0.000000000000000000, 0.000000000000000000, 37.24000000000000199 ) ) ;
#184 = EDGE_LOOP ( 'NONE', ( #289, #231, #32, #346 ) ) ;
#185 = DIRECTION ( 'NONE',  ( 0.000000000000000000, 0.000000000000000000, 1.000000000000000000 ) ) ;
#186 = FACE_OUTER_BOUND ( 'NONE', #326, .T. ) ;
#187 = AXIS2_PLACEMENT_3D ( 'NONE', #201, #288, #322 ) ;
#188 = CIRCLE ( 'NONE', #315, 7.500000000000000000 ) ;
#189 = CARTESIAN_POINT ( 'NONE',  ( 7.500000000000001776, 9.184850993605149917E-16, -9.999999999999998224 ) ) ;
#190 = LINE ( 'NONE', #310, #345 ) ;
#191 = DIRECTION ( 'NONE',  ( 1.000000000000000000, 0.000000000000000000, 0.000000000000000000 ) ) ;
#192 = AXIS2_PLACEMENT_3D ( 'NONE', #9, #249, #127 ) ;
#193 = VERTEX_POINT ( 'NONE', #117 ) ;
#194 = EDGE_CURVE ( 'NONE', #265, #93, #279, .T. ) ;
#195 = VECTOR ( 'NONE', #69, 1000.000000000000000 ) ;
#196 =( LENGTH_UNIT ( ) NAMED_UNIT ( * ) SI_UNIT ( .MILLI., .METRE. ) );
#197 = VERTEX_POINT ( 'NONE', #348 ) ;
#198 = DIRECTION ( 'NONE',  ( -0.000000000000000000, -0.000000000000000000, -1.000000000000000000 ) ) ;
#199 = DIRECTION ( 'NONE',  ( -0.000000000000000000, -0.000000000000000000, -1.000000000000000000 ) ) ;
#200 = FACE_BOUND ( 'NONE', #330, .T. ) ;
#201 = CARTESIAN_POINT ( 'NONE',  ( 0.000000000000000000, 0.000000000000000000, 35.24000000000000199 ) ) ;
#202 = CIRCLE ( 'NONE', #8, 7.500000000000000000 ) ;
#203 = ORIENTED_EDGE ( 'NONE', *, *, #63, .T. ) ;
#204 =( NAMED_UNIT ( * ) PLANE_ANGLE_UNIT ( ) SI_UNIT ( $, .RADIAN. ) );
#205 = EDGE_CURVE ( 'NONE', #57, #156, #372, .T. ) ;
#206 = VERTEX_POINT ( 'NONE', #119 ) ;
#207 = CARTESIAN_POINT ( 'NONE',  ( -2.600000000000000089, 3.184081677783118191E-16, 35.24000000000000199 ) ) ;
#208 = ORIENTED_EDGE ( 'NONE', *, *, #367, .F. ) ;
#209 = LINE ( 'NONE', #334, #195 ) ;
#210 = ORIENTED_EDGE ( 'NONE', *, *, #308, .F. ) ;
#211 = ADVANCED_FACE ( 'NONE', ( #58 ), #385, .F. ) ;
#212 = CARTESIAN_POINT ( 'NONE',  ( 0.000000000000000000, 0.000000000000000000, 37.24000000000000199 ) ) ;
#213 = FACE_OUTER_BOUND ( 'NONE', #116, .T. ) ;
#214 =( LENGTH_UNIT ( ) NAMED_UNIT ( * ) SI_UNIT ( .MILLI., .METRE. ) );
#215 = DIRECTION ( 'NONE',  ( 1.000000000000000000, 0.000000000000000000, 0.000000000000000000 ) ) ;
#216 = ADVANCED_FACE ( 'NONE', ( #266 ), #257, .F. ) ;
#217 = DIRECTION ( 'NONE',  ( -0.000000000000000000, -0.000000000000000000, 1.000000000000000000 ) ) ;
#218 = CIRCLE ( 'NONE', #192, 5.590169943749474513 ) ;
#219 = DIRECTION ( 'NONE',  ( 1.000000000000000000, 0.000000000000000000, 0.000000000000000000 ) ) ;
#220 = CARTESIAN_POINT ( 'NONE',  ( 0.000000000000000000, 0.000000000000000000, -4.999999999999999112 ) ) ;
#221 = CARTESIAN_POINT ( 'NONE',  ( -7.500000000000000000, 0.000000000000000000, 0.000000000000000000 ) ) ;
#222 = CIRCLE ( 'NONE', #380, 5.590169943749475401 ) ;
#223 = EDGE_LOOP ( 'NONE', ( #210, #64 ) ) ;
#224 = DIRECTION ( 'NONE',  ( -1.000000000000000000, 0.000000000000000000, 0.000000000000000000 ) ) ;
#225 = AXIS2_PLACEMENT_3D ( 'NONE', #282, #307, #284 ) ;
#226 = SURFACE_SIDE_STYLE ('',( #171 ) ) ;
#227 = ORIENTED_EDGE ( 'NONE', *, *, #131, .F. ) ;
#228 = SURFACE_STYLE_USAGE ( .BOTH. , #226 ) ;
#229 = ORIENTED_EDGE ( 'NONE', *, *, #131, .T. ) ;
#230 = MANIFOLD_SOLID_BREP ( 'R\X2\00e9\X0\volution2', #27 ) ;
#231 = ORIENTED_EDGE ( 'NONE', *, *, #67, .T. ) ;
#232 = ADVANCED_FACE ( 'NONE', ( #149 ), #25, .T. ) ;
#233 = PRODUCT ( 'Travel lock', 'Travel lock', '', ( #49 ) ) ;
#234 = DIRECTION ( 'NONE',  ( -1.000000000000000000, 0.000000000000000000, 0.000000000000000000 ) ) ;
#235 = AXIS2_PLACEMENT_3D ( 'NONE', #72, #101, #252 ) ;
#236 = UNCERTAINTY_MEASURE_WITH_UNIT (LENGTH_MEASURE( 1.000000000000000082E-05 ), #214, 'distance_accuracy_value', 'NONE');
#237 = VERTEX_POINT ( 'NONE', #87 ) ;
#238 = ADVANCED_FACE ( 'NONE', ( #176 ), #320, .F. ) ;
#239 = DIRECTION ( 'NONE',  ( -0.000000000000000000, -0.000000000000000000, -1.000000000000000000 ) ) ;
#240 = ORIENTED_EDGE ( 'NONE', *, *, #21, .F. ) ;
#241 = DIRECTION ( 'NONE',  ( 1.000000000000000000, 0.000000000000000000, 0.000000000000000000 ) ) ;
#242 = EDGE_LOOP ( 'NONE', ( #303, #298 ) ) ;
#243 = CARTESIAN_POINT ( 'NONE',  ( -4.000000000000000000, 0.000000000000000000, 5.000000000000000000 ) ) ;
#244 = CIRCLE ( 'NONE', #225, 4.409830056250526376 ) ;
#245 = DIRECTION ( 'NONE',  ( 0.000000000000000000, 0.000000000000000000, 1.000000000000000000 ) ) ;
#246 = LINE ( 'NONE', #207, #15 ) ;
#247 = PLANE ( 'NONE',  #235 ) ;
#248 = DIRECTION ( 'NONE',  ( -0.000000000000000000, -0.000000000000000000, -1.000000000000000000 ) ) ;
#249 = DIRECTION ( 'NONE',  ( -1.224646799147353207E-16, 1.000000000000000000, 0.000000000000000000 ) ) ;
#250 = EDGE_CURVE ( 'NONE', #147, #262, #18, .T. ) ;
#251 = APPLICATION_PROTOCOL_DEFINITION ( 'draft international standard', 'automotive_design', 1998, #111 ) ;
#252 = DIRECTION ( 'NONE',  ( 1.000000000000000000, 0.000000000000000000, -0.000000000000000000 ) ) ;
#253 = STYLED_ITEM ( 'NONE', ( #293 ), #230 ) ;
#254 = DIRECTION ( 'NONE',  ( 0.000000000000000000, 0.000000000000000000, 1.000000000000000000 ) ) ;
#255 = DIRECTION ( 'NONE',  ( 0.000000000000000000, 0.000000000000000000, 1.000000000000000000 ) ) ;
#256 = ORIENTED_EDGE ( 'NONE', *, *, #287, .F. ) ;
#257 = TOROIDAL_SURFACE ( 'NONE', #270, 10.00000000000000000, 5.590169943749474513 ) ;
#258 = CYLINDRICAL_SURFACE ( 'NONE', #135, 7.500000000000000000 ) ;
#259 = AXIS2_PLACEMENT_3D ( 'NONE', #160, #341, #338 ) ;
#260 = AXIS2_PLACEMENT_3D ( 'NONE', #126, #299, #94 ) ;
#261 = DIRECTION ( 'NONE',  ( 0.000000000000000000, -1.000000000000000000, 0.000000000000000000 ) ) ;
#262 = VERTEX_POINT ( 'NONE', #166 ) ;
#263 = PRODUCT_DEFINITION_SHAPE ( 'NONE', 'NONE',  #104 ) ;
#264 = ADVANCED_FACE ( 'NONE', ( #17 ), #54, .F. ) ;
#265 = VERTEX_POINT ( 'NONE', #169 ) ;
#266 = FACE_OUTER_BOUND ( 'NONE', #316, .T. ) ;
#267 = ORIENTED_EDGE ( 'NONE', *, *, #355, .T. ) ;
#268 = DIRECTION ( 'NONE',  ( -0.000000000000000000, -0.000000000000000000, -1.000000000000000000 ) ) ;
#269 = CIRCLE ( 'NONE', #335, 7.500000000000000000 ) ;
#270 = AXIS2_PLACEMENT_3D ( 'NONE', #83, #324, #86 ) ;
#271 = UNCERTAINTY_MEASURE_WITH_UNIT (LENGTH_MEASURE( 1.000000000000000082E-05 ), #196, 'distance_accuracy_value', 'NONE');
#272 = EDGE_LOOP ( 'NONE', ( #333, #34 ) ) ;
#273 = ADVANCED_FACE ( 'NONE', ( #22 ), #258, .T. ) ;
#274 = DIRECTION ( 'NONE',  ( -0.000000000000000000, -0.000000000000000000, -1.000000000000000000 ) ) ;
#275 = EDGE_LOOP ( 'NONE', ( #26, #97, #30, #107 ) ) ;
#276 = FACE_OUTER_BOUND ( 'NONE', #360, .T. ) ;
#277 = DIRECTION ( 'NONE',  ( 1.000000000000000000, 0.000000000000000000, 0.000000000000000000 ) ) ;
#278 = DIRECTION ( 'NONE',  ( 1.000000000000000000, 0.000000000000000000, 0.000000000000000000 ) ) ;
#279 = CIRCLE ( 'NONE', #108, 7.500000000000000000 ) ;
#280 = CARTESIAN_POINT ( 'NONE',  ( 4.000000000000000000, 4.898587196589412829E-16, 5.000000000000000000 ) ) ;
#281 =( NAMED_UNIT ( * ) SI_UNIT ( $, .STERADIAN. ) SOLID_ANGLE_UNIT ( ) );
#282 = CARTESIAN_POINT ( 'NONE',  ( 0.000000000000000000, 0.000000000000000000, -4.999999999999998224 ) ) ;
#283 = EDGE_CURVE ( 'NONE', #262, #147, #269, .T. ) ;
#284 = DIRECTION ( 'NONE',  ( -1.000000000000000000, 0.000000000000000000, 0.000000000000000000 ) ) ;
#285 = DIRECTION ( 'NONE',  ( 1.000000000000000000, 0.000000000000000000, -0.000000000000000000 ) ) ;
#286 = CIRCLE ( 'NONE', #46, 7.500000000000000000 ) ;
#287 = EDGE_CURVE ( 'NONE', #296, #61, #349, .T. ) ;
#288 = DIRECTION ( 'NONE',  ( -0.000000000000000000, -0.000000000000000000, 1.000000000000000000 ) ) ;
#289 = ORIENTED_EDGE ( 'NONE', *, *, #21, .T. ) ;
#290 = APPLICATION_PROTOCOL_DEFINITION ( 'draft international standard', 'automotive_design', 1998, #175 ) ;
#291 = ORIENTED_EDGE ( 'NONE', *, *, #332, .T. ) ;
#292 = CARTESIAN_POINT ( 'NONE',  ( 0.000000000000000000, 0.000000000000000000, 35.24000000000000199 ) ) ;
#293 = PRESENTATION_STYLE_ASSIGNMENT (( #228 ) ) ;
#294 = TOROIDAL_SURFACE ( 'NONE', #181, 10.00000000000000000, 5.590169943749474513 ) ;
#295 = CARTESIAN_POINT ( 'NONE',  ( 0.000000000000000000, 0.000000000000000000, -4.999999999999998224 ) ) ;
#296 = VERTEX_POINT ( 'NONE', #329 ) ;
#297 = DIRECTION ( 'NONE',  ( -1.000000000000000000, 0.000000000000000000, 0.000000000000000000 ) ) ;
#298 = ORIENTED_EDGE ( 'NONE', *, *, #382, .T. ) ;
#299 = DIRECTION ( 'NONE',  ( 0.000000000000000000, 0.000000000000000000, 1.000000000000000000 ) ) ;
#300 = ORIENTED_EDGE ( 'NONE', *, *, #342, .F. ) ;
#301 = CARTESIAN_POINT ( 'NONE',  ( 10.00000000000000000, 1.224646799147353256E-15, -4.999999999999999112 ) ) ;
#302 = CIRCLE ( 'NONE', #19, 5.590169943749474513 ) ;
#303 = ORIENTED_EDGE ( 'NONE', *, *, #76, .T. ) ;
#304 = DIRECTION ( 'NONE',  ( -0.000000000000000000, -0.000000000000000000, -1.000000000000000000 ) ) ;
#305 = DIRECTION ( 'NONE',  ( 0.000000000000000000, 0.000000000000000000, -1.000000000000000000 ) ) ;
#306 = FACE_OUTER_BOUND ( 'NONE', #275, .T. ) ;
#307 = DIRECTION ( 'NONE',  ( -0.000000000000000000, -0.000000000000000000, -1.000000000000000000 ) ) ;
#308 = EDGE_CURVE ( 'NONE', #351, #82, #165, .T. ) ;
#309 = MECHANICAL_DESIGN_GEOMETRIC_PRESENTATION_REPRESENTATION (  '', ( #253 ), #340 ) ;
#310 = CARTESIAN_POINT ( 'NONE',  ( -7.500000000000000000, 0.000000000000000000, 5.000000000000000000 ) ) ;
#311 = EDGE_CURVE ( 'NONE', #70, #262, #209, .T. ) ;
#312 = PLANE ( 'NONE',  #172 ) ;
#313 = FACE_BOUND ( 'NONE', #223, .T. ) ;
#314 = AXIS2_PLACEMENT_3D ( 'NONE', #344, #47, #13 ) ;
#315 = AXIS2_PLACEMENT_3D ( 'NONE', #71, #239, #65 ) ;
#316 = EDGE_LOOP ( 'NONE', ( #125, #203, #88, #55 ) ) ;
#317 = ADVANCED_FACE ( 'NONE', ( #306 ), #331, .T. ) ;
#318 = AXIS2_PLACEMENT_3D ( 'NONE', #368, #373, #215 ) ;
#319 = AXIS2_PLACEMENT_3D ( 'NONE', #359, #180, #3 ) ;
#320 = CYLINDRICAL_SURFACE ( 'NONE', #187, 2.600000000000000089 ) ;
#321 = ORIENTED_EDGE ( 'NONE', *, *, #283, .F. ) ;
#322 = DIRECTION ( 'NONE',  ( 1.000000000000000000, 0.000000000000000000, 0.000000000000000000 ) ) ;
#323 = ADVANCED_FACE ( 'NONE', ( #276 ), #62, .T. ) ;
#324 = DIRECTION ( 'NONE',  ( -0.000000000000000000, -0.000000000000000000, -1.000000000000000000 ) ) ;
#325 = PRODUCT_DEFINITION_CONTEXT ( 'detailed design', #111, 'design' ) ;
#326 = EDGE_LOOP ( 'NONE', ( #177, #153 ) ) ;
#327 = CARTESIAN_POINT ( 'NONE',  ( 0.000000000000000000, 0.000000000000000000, 0.000000000000000000 ) ) ;
#328 = ORIENTED_EDGE ( 'NONE', *, *, #76, .F. ) ;
#329 = CARTESIAN_POINT ( 'NONE',  ( 2.600000000000000089, 0.000000000000000000, 35.24000000000000199 ) ) ;
#330 = EDGE_LOOP ( 'NONE', ( #358, #347 ) ) ;
#331 = CYLINDRICAL_SURFACE ( 'NONE', #37, 4.000000000000000000 ) ;
#332 = EDGE_CURVE ( 'NONE', #197, #82, #157, .T. ) ;
#333 = ORIENTED_EDGE ( 'NONE', *, *, #194, .T. ) ;
#334 = CARTESIAN_POINT ( 'NONE',  ( 7.500000000000000000, 9.184850993605147944E-16, 5.000000000000000000 ) ) ;
#335 = AXIS2_PLACEMENT_3D ( 'NONE', #41, #248, #159 ) ;
#336 = VERTEX_POINT ( 'NONE', #33 ) ;
#337 = DIRECTION ( 'NONE',  ( 1.000000000000000000, 0.000000000000000000, 0.000000000000000000 ) ) ;
#338 = DIRECTION ( 'NONE',  ( 1.000000000000000000, 0.000000000000000000, -0.000000000000000000 ) ) ;
#339 = DIRECTION ( 'NONE',  ( -1.000000000000000000, 0.000000000000000000, 0.000000000000000000 ) ) ;
#340 =( GEOMETRIC_REPRESENTATION_CONTEXT ( 3 ) GLOBAL_UNCERTAINTY_ASSIGNED_CONTEXT ( ( #271 ) ) GLOBAL_UNIT_ASSIGNED_CONTEXT ( ( #196, #357, #60 ) ) REPRESENTATION_CONTEXT ( 'NONE', 'WORKASPACE' ) );
#341 = DIRECTION ( 'NONE',  ( 0.000000000000000000, 0.000000000000000000, 1.000000000000000000 ) ) ;
#342 = EDGE_CURVE ( 'NONE', #197, #193, #356, .T. ) ;
#343 = DIRECTION ( 'NONE',  ( -0.000000000000000000, -0.000000000000000000, -1.000000000000000000 ) ) ;
#344 = CARTESIAN_POINT ( 'NONE',  ( 0.000000000000000000, 0.000000000000000000, -4.999999999999999112 ) ) ;
#345 = VECTOR ( 'NONE', #133, 1000.000000000000000 ) ;
#346 = ORIENTED_EDGE ( 'NONE', *, *, #194, .F. ) ;
#347 = ORIENTED_EDGE ( 'NONE', *, *, #143, .F. ) ;
#348 = CARTESIAN_POINT ( 'NONE',  ( 4.000000000000000000, 4.898587196589412829E-16, 37.24000000000000199 ) ) ;
#349 = CIRCLE ( 'NONE', #14, 2.600000000000000089 ) ;
#350 = EDGE_CURVE ( 'NONE', #61, #237, #246, .T. ) ;
#351 = VERTEX_POINT ( 'NONE', #243 ) ;
#352 = ORIENTED_EDGE ( 'NONE', *, *, #67, .F. ) ;
#353 = FILL_AREA_STYLE_COLOUR ( '', #91 ) ;
#354 = ORIENTED_EDGE ( 'NONE', *, *, #378, .F. ) ;
#355 = EDGE_CURVE ( 'NONE', #206, #237, #154, .T. ) ;
#356 = CIRCLE ( 'NONE', #260, 4.000000000000000000 ) ;
#357 =( NAMED_UNIT ( * ) PLANE_ANGLE_UNIT ( ) SI_UNIT ( $, .RADIAN. ) );
#358 = ORIENTED_EDGE ( 'NONE', *, *, #355, .F. ) ;
#359 = CARTESIAN_POINT ( 'NONE',  ( 0.000000000000000000, 0.000000000000000000, 5.000000000000000000 ) ) ;
#360 = EDGE_LOOP ( 'NONE', ( #386, #328, #179, #321 ) ) ;
#361 = CARTESIAN_POINT ( 'NONE',  ( 0.000000000000000000, 0.000000000000000000, 5.000000000000000000 ) ) ;
#362 = ORIENTED_EDGE ( 'NONE', *, *, #350, .T. ) ;
#363 = CARTESIAN_POINT ( 'NONE',  ( -4.000000000000000000, 0.000000000000000000, 37.24000000000000199 ) ) ;
#364 = AXIS2_PLACEMENT_3D ( 'NONE', #158, #163, #277 ) ;
#365 = AXIS2_PLACEMENT_3D ( 'NONE', #361, #96, #132 ) ;
#366 = DIRECTION ( 'NONE',  ( 1.000000000000000000, 0.000000000000000000, 0.000000000000000000 ) ) ;
#367 = EDGE_CURVE ( 'NONE', #193, #351, #388, .T. ) ;
#368 = CARTESIAN_POINT ( 'NONE',  ( 0.000000000000000000, 0.000000000000000000, 5.000000000000000000 ) ) ;
#369 = EDGE_CURVE ( 'NONE', #93, #265, #188, .T. ) ;
#370 = DIRECTION ( 'NONE',  ( -0.000000000000000000, -0.000000000000000000, -1.000000000000000000 ) ) ;
#371 = EDGE_CURVE ( 'NONE', #93, #57, #302, .T. ) ;
#372 = CIRCLE ( 'NONE', #376, 4.409830056250526376 ) ;
#373 = DIRECTION ( 'NONE',  ( 0.000000000000000000, 0.000000000000000000, 1.000000000000000000 ) ) ;
#374 = CARTESIAN_POINT ( 'NONE',  ( 2.600000000000000089, 0.000000000000000000, 35.24000000000000199 ) ) ;
#375 = DIRECTION ( 'NONE',  ( 1.000000000000000000, 0.000000000000000000, -0.000000000000000000 ) ) ;
#376 = AXIS2_PLACEMENT_3D ( 'NONE', #295, #144, #224 ) ;
#377 = AXIS2_PLACEMENT_3D ( 'NONE', #1, #185, #278 ) ;
#378 = EDGE_CURVE ( 'NONE', #61, #296, #28, .T. ) ;
#379 = FILL_AREA_STYLE ('',( #353 ) ) ;
#380 = AXIS2_PLACEMENT_3D ( 'NONE', #114, #261, #29 ) ;
#381 = AXIS2_PLACEMENT_3D ( 'NONE', #212, #92, #337 ) ;
#382 = EDGE_CURVE ( 'NONE', #70, #336, #202, .T. ) ;
#383 = ORIENTED_EDGE ( 'NONE', *, *, #369, .F. ) ;
#384 = ORIENTED_EDGE ( 'NONE', *, *, #250, .T. ) ;
#385 = CYLINDRICAL_SURFACE ( 'NONE', #161, 2.600000000000000089 ) ;
#386 = ORIENTED_EDGE ( 'NONE', *, *, #311, .F. ) ;
#387 = CIRCLE ( 'NONE', #364, 4.000000000000000000 ) ;
#388 = LINE ( 'NONE', #363, #173 ) ;
#389 = ORIENTED_EDGE ( 'NONE', *, *, #287, .T. ) ;
ENDSEC;
END-ISO-10303-21;
