%TF.GenerationSoftware,KiCad,Pcbnew,9.0.7*%
%TF.CreationDate,2026-05-01T23:16:42+02:00*%
%TF.ProjectId,SLIDER_PCB_REV_A,534c4944-4552-45f5-9043-425f5245565f,rev?*%
%TF.SameCoordinates,Original*%
%TF.FileFunction,Copper,L1,Top*%
%TF.FilePolarity,Positive*%
%FSLAX46Y46*%
G04 Gerber Fmt 4.6, Leading zero omitted, Abs format (unit mm)*
G04 Created by KiCad (PCBNEW 9.0.7) date 2026-05-01 23:16:42*
%MOMM*%
%LPD*%
G01*
G04 APERTURE LIST*
%TA.AperFunction,ComponentPad*%
%ADD10R,1.700000X1.700000*%
%TD*%
%TA.AperFunction,ComponentPad*%
%ADD11C,1.700000*%
%TD*%
%TA.AperFunction,ComponentPad*%
%ADD12R,1.600000X1.600000*%
%TD*%
%TA.AperFunction,ComponentPad*%
%ADD13O,1.600000X1.600000*%
%TD*%
%TA.AperFunction,ComponentPad*%
%ADD14C,1.600000*%
%TD*%
%TA.AperFunction,ViaPad*%
%ADD15C,0.600000*%
%TD*%
%TA.AperFunction,Conductor*%
%ADD16C,0.200000*%
%TD*%
G04 APERTURE END LIST*
D10*
%TO.P,ESP32_S1,1,TX*%
%TO.N,unconnected-(ESP32_S1-TX-Pad1)*%
X92775000Y-94672500D03*
D11*
%TO.P,ESP32_S1,2,5V*%
%TO.N,VDD*%
X77275000Y-94672500D03*
%TO.P,ESP32_S1,3,RX*%
%TO.N,unconnected-(ESP32_S1-RX-Pad3)*%
X92775000Y-92132500D03*
%TO.P,ESP32_S1,4,GND*%
%TO.N,GND*%
X77275000Y-92132500D03*
%TO.P,ESP32_S1,5,1*%
%TO.N,Net-(A1-DIR)*%
X92775000Y-89592500D03*
%TO.P,ESP32_S1,6,3.3V(OUT)*%
%TO.N,unconnected-(ESP32_S1-3.3V(OUT)-Pad6)*%
X77275000Y-89592500D03*
%TO.P,ESP32_S1,7,2*%
%TO.N,Net-(A1-STEP)*%
X92775000Y-87052500D03*
%TO.P,ESP32_S1,8,13*%
%TO.N,Net-(ESP32_S1-13)*%
X77275000Y-87052500D03*
%TO.P,ESP32_S1,9,3*%
%TO.N,Net-(A1-~{ENABLE})*%
X92775000Y-84512500D03*
%TO.P,ESP32_S1,10,12*%
%TO.N,unconnected-(ESP32_S1-12-Pad10)*%
X77275000Y-84512500D03*
%TO.P,ESP32_S1,11,4*%
%TO.N,Net-(A2-DIR)*%
X92775000Y-81972500D03*
%TO.P,ESP32_S1,12,11*%
%TO.N,unconnected-(ESP32_S1-11-Pad12)*%
X77275000Y-81972500D03*
%TO.P,ESP32_S1,13,5*%
%TO.N,Net-(A2-STEP)*%
X92775000Y-79432500D03*
%TO.P,ESP32_S1,14,10*%
%TO.N,unconnected-(ESP32_S1-10-Pad14)*%
X77275000Y-79432500D03*
%TO.P,ESP32_S1,15,6*%
%TO.N,Net-(A2-~{ENABLE})*%
X92775000Y-76892500D03*
%TO.P,ESP32_S1,16,9*%
%TO.N,unconnected-(ESP32_S1-9-Pad16)*%
X77275000Y-76892500D03*
%TO.P,ESP32_S1,17,7*%
%TO.N,unconnected-(ESP32_S1-7-Pad17)*%
X92775000Y-74352500D03*
%TO.P,ESP32_S1,18,8*%
%TO.N,unconnected-(ESP32_S1-8-Pad18)*%
X77275000Y-74352500D03*
%TD*%
D10*
%TO.P,J1,1,V0*%
%TO.N,VDD*%
X115500000Y-88500000D03*
D11*
%TO.P,J1,2,GND*%
%TO.N,GND*%
X115500000Y-91040000D03*
%TO.P,J1,3,IN+*%
%TO.N,+12V*%
X115500000Y-93580000D03*
%TO.P,J1,4,EN*%
%TO.N,unconnected-(J1-EN-Pad4)*%
X115500000Y-96120000D03*
%TD*%
D12*
%TO.P,A1,1,GND*%
%TO.N,GND*%
X116300000Y-65610000D03*
D13*
%TO.P,A1,2,VDD*%
%TO.N,VDD*%
X116300000Y-68150000D03*
%TO.P,A1,3,1B*%
%TO.N,Net-(A1-1B)*%
X116300000Y-70690000D03*
%TO.P,A1,4,1A*%
%TO.N,Net-(A1-1A)*%
X116300000Y-73230000D03*
%TO.P,A1,5,2A*%
%TO.N,Net-(A1-2A)*%
X116300000Y-75770000D03*
%TO.P,A1,6,2B*%
%TO.N,Net-(A1-2B)*%
X116300000Y-78310000D03*
%TO.P,A1,7,GND*%
%TO.N,GND*%
X116300000Y-80850000D03*
%TO.P,A1,8,VMOT*%
%TO.N,+12V*%
X116300000Y-83390000D03*
%TO.P,A1,9,~{ENABLE}*%
%TO.N,Net-(A1-~{ENABLE})*%
X129000000Y-83390000D03*
%TO.P,A1,10,MS1*%
%TO.N,VDD*%
X129000000Y-80850000D03*
%TO.P,A1,11,MS2*%
X129000000Y-78310000D03*
%TO.P,A1,12,MS3*%
X129000000Y-75770000D03*
%TO.P,A1,13,~{RESET}*%
%TO.N,Net-(A1-~{RESET})*%
X129000000Y-73230000D03*
%TO.P,A1,14,~{SLEEP}*%
X129000000Y-70690000D03*
%TO.P,A1,15,STEP*%
%TO.N,Net-(A1-STEP)*%
X129000000Y-68150000D03*
%TO.P,A1,16,DIR*%
%TO.N,Net-(A1-DIR)*%
X129000000Y-65610000D03*
%TD*%
D10*
%TO.P,J4,1,Pin_1*%
%TO.N,+12V*%
X76500000Y-66225000D03*
D11*
%TO.P,J4,2,Pin_2*%
%TO.N,GND*%
X76500000Y-68765000D03*
%TD*%
D12*
%TO.P,A2,1,GND*%
%TO.N,GND*%
X98660000Y-65610000D03*
D13*
%TO.P,A2,2,VDD*%
%TO.N,VDD*%
X98660000Y-68150000D03*
%TO.P,A2,3,1B*%
%TO.N,Net-(A2-1B)*%
X98660000Y-70690000D03*
%TO.P,A2,4,1A*%
%TO.N,Net-(A2-1A)*%
X98660000Y-73230000D03*
%TO.P,A2,5,2A*%
%TO.N,Net-(A2-2A)*%
X98660000Y-75770000D03*
%TO.P,A2,6,2B*%
%TO.N,Net-(A2-2B)*%
X98660000Y-78310000D03*
%TO.P,A2,7,GND*%
%TO.N,GND*%
X98660000Y-80850000D03*
%TO.P,A2,8,VMOT*%
%TO.N,+12V*%
X98660000Y-83390000D03*
%TO.P,A2,9,~{ENABLE}*%
%TO.N,Net-(A2-~{ENABLE})*%
X111360000Y-83390000D03*
%TO.P,A2,10,MS1*%
%TO.N,VDD*%
X111360000Y-80850000D03*
%TO.P,A2,11,MS2*%
X111360000Y-78310000D03*
%TO.P,A2,12,MS3*%
X111360000Y-75770000D03*
%TO.P,A2,13,~{RESET}*%
%TO.N,Net-(A2-~{RESET})*%
X111360000Y-73230000D03*
%TO.P,A2,14,~{SLEEP}*%
X111360000Y-70690000D03*
%TO.P,A2,15,STEP*%
%TO.N,Net-(A2-STEP)*%
X111360000Y-68150000D03*
%TO.P,A2,16,DIR*%
%TO.N,Net-(A2-DIR)*%
X111360000Y-65610000D03*
%TD*%
D10*
%TO.P,J2,1,V0*%
%TO.N,Net-(A1-2B)*%
X93000000Y-65500000D03*
D11*
%TO.P,J2,2,GND*%
%TO.N,Net-(A1-2A)*%
X90460000Y-65500000D03*
%TO.P,J2,3,IN+*%
%TO.N,Net-(A1-1A)*%
X87920000Y-65500000D03*
%TO.P,J2,4,EN*%
%TO.N,Net-(A1-1B)*%
X85380000Y-65500000D03*
%TD*%
D14*
%TO.P,C2,1*%
%TO.N,+12V*%
X105500000Y-68500000D03*
%TO.P,C2,2*%
%TO.N,GND*%
X105500000Y-73500000D03*
%TD*%
D10*
%TO.P,J5,1,Pin_1*%
%TO.N,Net-(ESP32_S1-13)*%
X124500000Y-91000000D03*
D11*
%TO.P,J5,2,Pin_2*%
%TO.N,GND*%
X124500000Y-93540000D03*
%TD*%
D10*
%TO.P,J3,1,V0*%
%TO.N,Net-(A2-2B)*%
X93000000Y-69500000D03*
D11*
%TO.P,J3,2,GND*%
%TO.N,Net-(A2-2A)*%
X90460000Y-69500000D03*
%TO.P,J3,3,IN+*%
%TO.N,Net-(A2-1A)*%
X87920000Y-69500000D03*
%TO.P,J3,4,EN*%
%TO.N,Net-(A2-1B)*%
X85380000Y-69500000D03*
%TD*%
D15*
%TO.N,Net-(A2-STEP)*%
X111500000Y-86000000D03*
%TD*%
D16*
%TO.N,VDD*%
X115000000Y-72130000D02*
X115000000Y-69450000D01*
X111360000Y-75770000D02*
X115000000Y-72130000D01*
X111360000Y-80850000D02*
X115500000Y-84990000D01*
X98203950Y-81951000D02*
X97559000Y-81306050D01*
X97559000Y-81306050D02*
X97559000Y-69251000D01*
X79602500Y-97000000D02*
X97500000Y-97000000D01*
X105179000Y-81951000D02*
X98203950Y-81951000D01*
X111360000Y-75770000D02*
X105179000Y-81951000D01*
X97559000Y-69251000D02*
X98660000Y-68150000D01*
X97500000Y-97000000D02*
X106000000Y-88500000D01*
X77275000Y-94672500D02*
X79602500Y-97000000D01*
X115000000Y-69450000D02*
X116300000Y-68150000D01*
X106000000Y-88500000D02*
X115500000Y-88500000D01*
X115500000Y-84990000D02*
X115500000Y-88500000D01*
%TO.N,GND*%
X101350000Y-80850000D02*
X98660000Y-80850000D01*
X104000000Y-73500000D02*
X105500000Y-73500000D01*
X76500000Y-71000000D02*
X77500000Y-72000000D01*
X98660000Y-65610000D02*
X100890000Y-65610000D01*
X75132500Y-92132500D02*
X75000000Y-92000000D01*
X119500000Y-68810000D02*
X119500000Y-77650000D01*
X119540000Y-91040000D02*
X115500000Y-91040000D01*
X96000000Y-71000000D02*
X96000000Y-67500000D01*
X100890000Y-65610000D02*
X102500000Y-64000000D01*
X122040000Y-93540000D02*
X119548630Y-91048630D01*
X119500000Y-77500000D02*
X119500000Y-77650000D01*
X124500000Y-93540000D02*
X122040000Y-93540000D01*
X103000000Y-79500000D02*
X101650000Y-80850000D01*
X119500000Y-77650000D02*
X116300000Y-80850000D01*
X75000000Y-92000000D02*
X75000000Y-70265000D01*
X101650000Y-80850000D02*
X101350000Y-80850000D01*
X102500000Y-64000000D02*
X114690000Y-64000000D01*
X101110000Y-65610000D02*
X103000000Y-67500000D01*
X119500000Y-91000000D02*
X119540000Y-91040000D01*
X75000000Y-70265000D02*
X76500000Y-68765000D01*
X97890000Y-65610000D02*
X98660000Y-65610000D01*
X103000000Y-72500000D02*
X104000000Y-73500000D01*
X116300000Y-65610000D02*
X119500000Y-68810000D01*
X119548630Y-91048630D02*
X119540000Y-91040000D01*
X77500000Y-72000000D02*
X95000000Y-72000000D01*
X76500000Y-68765000D02*
X76500000Y-71000000D01*
X77275000Y-92132500D02*
X75132500Y-92132500D01*
X114690000Y-64000000D02*
X116300000Y-65610000D01*
X95000000Y-72000000D02*
X96000000Y-71000000D01*
X103000000Y-67500000D02*
X103000000Y-72500000D01*
X119500000Y-77650000D02*
X119500000Y-91000000D01*
X98660000Y-65610000D02*
X101110000Y-65610000D01*
X96000000Y-67500000D02*
X97890000Y-65610000D01*
X103000000Y-72500000D02*
X103000000Y-79500000D01*
%TO.N,+12V*%
X74000000Y-68725000D02*
X76500000Y-66225000D01*
X114349000Y-90563240D02*
X114349000Y-92429000D01*
X116543880Y-90456120D02*
X115976760Y-89889000D01*
X117099999Y-84189999D02*
X117099999Y-89900001D01*
X114349000Y-92429000D02*
X115500000Y-93580000D01*
X115976760Y-89889000D02*
X115023240Y-89889000D01*
X110903950Y-79749000D02*
X112659000Y-79749000D01*
X98660000Y-83390000D02*
X107262950Y-83390000D01*
X116300000Y-83390000D02*
X117099999Y-84189999D01*
X74000000Y-96500000D02*
X74000000Y-68725000D01*
X112659000Y-79749000D02*
X116300000Y-83390000D01*
X111679000Y-97401000D02*
X74901000Y-97401000D01*
X117099999Y-89900001D02*
X116543880Y-90456120D01*
X107262950Y-83390000D02*
X110903950Y-79749000D01*
X74901000Y-97401000D02*
X74000000Y-96500000D01*
X115023240Y-89889000D02*
X114349000Y-90563240D01*
X115500000Y-93580000D02*
X111679000Y-97401000D01*
%TO.N,Net-(A2-STEP)*%
X99342500Y-86000000D02*
X111500000Y-86000000D01*
X92775000Y-79432500D02*
X99342500Y-86000000D01*
%TD*%
%TA.AperFunction,Conductor*%
%TO.N,GND*%
G36*
X131003736Y-62500726D02*
G01*
X131293796Y-62518271D01*
X131308659Y-62520076D01*
X131590798Y-62571780D01*
X131605335Y-62575363D01*
X131879172Y-62660695D01*
X131893163Y-62666000D01*
X132154743Y-62783727D01*
X132167989Y-62790680D01*
X132413465Y-62939075D01*
X132425776Y-62947573D01*
X132651573Y-63124473D01*
X132662781Y-63134403D01*
X132865596Y-63337218D01*
X132875526Y-63348426D01*
X132995481Y-63501538D01*
X133052422Y-63574217D01*
X133060928Y-63586540D01*
X133209316Y-63832004D01*
X133216275Y-63845263D01*
X133333997Y-64106831D01*
X133339306Y-64120832D01*
X133424635Y-64394663D01*
X133428219Y-64409201D01*
X133479923Y-64691340D01*
X133481728Y-64706205D01*
X133499274Y-64996263D01*
X133499500Y-65003750D01*
X133499500Y-94996249D01*
X133499274Y-95003736D01*
X133481728Y-95293794D01*
X133479923Y-95308659D01*
X133428219Y-95590798D01*
X133424635Y-95605336D01*
X133339306Y-95879167D01*
X133333997Y-95893168D01*
X133216275Y-96154736D01*
X133209316Y-96167995D01*
X133060928Y-96413459D01*
X133052422Y-96425782D01*
X132875526Y-96651573D01*
X132865596Y-96662781D01*
X132662781Y-96865596D01*
X132651573Y-96875526D01*
X132425782Y-97052422D01*
X132413459Y-97060928D01*
X132167995Y-97209316D01*
X132154736Y-97216275D01*
X131893168Y-97333997D01*
X131879167Y-97339306D01*
X131605336Y-97424635D01*
X131590798Y-97428219D01*
X131308659Y-97479923D01*
X131293794Y-97481728D01*
X131003736Y-97499274D01*
X130996249Y-97499500D01*
X116280522Y-97499500D01*
X116213483Y-97479815D01*
X116167728Y-97427011D01*
X116157784Y-97357853D01*
X116186809Y-97294297D01*
X116207637Y-97275182D01*
X116379785Y-97150109D01*
X116379783Y-97150109D01*
X116379792Y-97150104D01*
X116530104Y-96999792D01*
X116530106Y-96999788D01*
X116530109Y-96999786D01*
X116655048Y-96827820D01*
X116655047Y-96827820D01*
X116655051Y-96827816D01*
X116751557Y-96638412D01*
X116817246Y-96436243D01*
X116850500Y-96226287D01*
X116850500Y-96013713D01*
X116817246Y-95803757D01*
X116751557Y-95601588D01*
X116655051Y-95412184D01*
X116655049Y-95412181D01*
X116655048Y-95412179D01*
X116530109Y-95240213D01*
X116379786Y-95089890D01*
X116207820Y-94964951D01*
X116207115Y-94964591D01*
X116199054Y-94960485D01*
X116148259Y-94912512D01*
X116131463Y-94844692D01*
X116153999Y-94778556D01*
X116199054Y-94739515D01*
X116207816Y-94735051D01*
X116229789Y-94719086D01*
X116379786Y-94610109D01*
X116379788Y-94610106D01*
X116379792Y-94610104D01*
X116530104Y-94459792D01*
X116530106Y-94459788D01*
X116530109Y-94459786D01*
X116655048Y-94287820D01*
X116655047Y-94287820D01*
X116655051Y-94287816D01*
X116751557Y-94098412D01*
X116817246Y-93896243D01*
X116850500Y-93686287D01*
X116850500Y-93473713D01*
X116817246Y-93263757D01*
X116751557Y-93061588D01*
X116655051Y-92872184D01*
X116655049Y-92872181D01*
X116655048Y-92872179D01*
X116530109Y-92700213D01*
X116379786Y-92549890D01*
X116207817Y-92424949D01*
X116198504Y-92420204D01*
X116147707Y-92372230D01*
X116130912Y-92304409D01*
X116153449Y-92238274D01*
X116198507Y-92199232D01*
X116207555Y-92194622D01*
X116261716Y-92155270D01*
X116261717Y-92155270D01*
X115629409Y-91522962D01*
X115692993Y-91505925D01*
X115807007Y-91440099D01*
X115900099Y-91347007D01*
X115965925Y-91232993D01*
X115982962Y-91169409D01*
X116615270Y-91801717D01*
X116615270Y-91801716D01*
X116654622Y-91747554D01*
X116751095Y-91558217D01*
X116816757Y-91356130D01*
X116816757Y-91356127D01*
X116850000Y-91146246D01*
X116850000Y-91044371D01*
X116869685Y-90977332D01*
X116888218Y-90954831D01*
X116899031Y-90944471D01*
X116912596Y-90936640D01*
X117024400Y-90824836D01*
X117024401Y-90824833D01*
X117468712Y-90380522D01*
X117468715Y-90380521D01*
X117580519Y-90268717D01*
X117630638Y-90181905D01*
X117659576Y-90131786D01*
X117667521Y-90102135D01*
X123149500Y-90102135D01*
X123149500Y-91897870D01*
X123149501Y-91897876D01*
X123155908Y-91957483D01*
X123206202Y-92092328D01*
X123206206Y-92092335D01*
X123292452Y-92207544D01*
X123292455Y-92207547D01*
X123407664Y-92293793D01*
X123407671Y-92293797D01*
X123424230Y-92299973D01*
X123542517Y-92344091D01*
X123602127Y-92350500D01*
X123612685Y-92350499D01*
X123679723Y-92370179D01*
X123700372Y-92386818D01*
X124370591Y-93057037D01*
X124307007Y-93074075D01*
X124192993Y-93139901D01*
X124099901Y-93232993D01*
X124034075Y-93347007D01*
X124017037Y-93410591D01*
X123384728Y-92778282D01*
X123384727Y-92778282D01*
X123345380Y-92832439D01*
X123248904Y-93021782D01*
X123183242Y-93223869D01*
X123183242Y-93223872D01*
X123150000Y-93433753D01*
X123150000Y-93646246D01*
X123183242Y-93856127D01*
X123183242Y-93856130D01*
X123248904Y-94058217D01*
X123345375Y-94247550D01*
X123384728Y-94301716D01*
X124017037Y-93669408D01*
X124034075Y-93732993D01*
X124099901Y-93847007D01*
X124192993Y-93940099D01*
X124307007Y-94005925D01*
X124370590Y-94022962D01*
X123738282Y-94655269D01*
X123738282Y-94655270D01*
X123792449Y-94694624D01*
X123981782Y-94791095D01*
X124183870Y-94856757D01*
X124393754Y-94890000D01*
X124606246Y-94890000D01*
X124816127Y-94856757D01*
X124816130Y-94856757D01*
X125018217Y-94791095D01*
X125207554Y-94694622D01*
X125261716Y-94655270D01*
X125261717Y-94655270D01*
X124629408Y-94022962D01*
X124692993Y-94005925D01*
X124807007Y-93940099D01*
X124900099Y-93847007D01*
X124965925Y-93732993D01*
X124982962Y-93669408D01*
X125615270Y-94301717D01*
X125615270Y-94301716D01*
X125654622Y-94247554D01*
X125751095Y-94058217D01*
X125816757Y-93856130D01*
X125816757Y-93856127D01*
X125850000Y-93646246D01*
X125850000Y-93433753D01*
X125816757Y-93223872D01*
X125816757Y-93223869D01*
X125751095Y-93021782D01*
X125654624Y-92832449D01*
X125615270Y-92778282D01*
X125615269Y-92778282D01*
X124982962Y-93410590D01*
X124965925Y-93347007D01*
X124900099Y-93232993D01*
X124807007Y-93139901D01*
X124692993Y-93074075D01*
X124629409Y-93057037D01*
X125299627Y-92386818D01*
X125360950Y-92353333D01*
X125387307Y-92350499D01*
X125397872Y-92350499D01*
X125457483Y-92344091D01*
X125592331Y-92293796D01*
X125707546Y-92207546D01*
X125793796Y-92092331D01*
X125844091Y-91957483D01*
X125850500Y-91897873D01*
X125850499Y-90102128D01*
X125844091Y-90042517D01*
X125820422Y-89979058D01*
X125793797Y-89907671D01*
X125793793Y-89907664D01*
X125707547Y-89792455D01*
X125707544Y-89792452D01*
X125592335Y-89706206D01*
X125592328Y-89706202D01*
X125457482Y-89655908D01*
X125457483Y-89655908D01*
X125397883Y-89649501D01*
X125397881Y-89649500D01*
X125397873Y-89649500D01*
X125397864Y-89649500D01*
X123602129Y-89649500D01*
X123602123Y-89649501D01*
X123542516Y-89655908D01*
X123407671Y-89706202D01*
X123407664Y-89706206D01*
X123292455Y-89792452D01*
X123292452Y-89792455D01*
X123206206Y-89907664D01*
X123206202Y-89907671D01*
X123155908Y-90042517D01*
X123149501Y-90102116D01*
X123149501Y-90102123D01*
X123149500Y-90102135D01*
X117667521Y-90102135D01*
X117700500Y-89979058D01*
X117700500Y-89820944D01*
X117700500Y-89813349D01*
X117700499Y-89813331D01*
X117700499Y-84110944D01*
X117700499Y-84110942D01*
X117659576Y-83958215D01*
X117654588Y-83949576D01*
X117576456Y-83814244D01*
X117578498Y-83813064D01*
X117557649Y-83759163D01*
X117563287Y-83710505D01*
X117568477Y-83694534D01*
X117600500Y-83492352D01*
X117600500Y-83287648D01*
X117596270Y-83260943D01*
X117568477Y-83085465D01*
X117505218Y-82890776D01*
X117471503Y-82824607D01*
X117412287Y-82708390D01*
X117359014Y-82635065D01*
X117291971Y-82542786D01*
X117147213Y-82398028D01*
X116981611Y-82277713D01*
X116888369Y-82230203D01*
X116837574Y-82182229D01*
X116820779Y-82114407D01*
X116843317Y-82048273D01*
X116888371Y-82009234D01*
X116981347Y-81961861D01*
X117146894Y-81841582D01*
X117146895Y-81841582D01*
X117291582Y-81696895D01*
X117291582Y-81696894D01*
X117411859Y-81531349D01*
X117504755Y-81349029D01*
X117567990Y-81154413D01*
X117576609Y-81100000D01*
X116615686Y-81100000D01*
X116620080Y-81095606D01*
X116672741Y-81004394D01*
X116700000Y-80902661D01*
X116700000Y-80797339D01*
X116672741Y-80695606D01*
X116620080Y-80604394D01*
X116615686Y-80600000D01*
X117576609Y-80600000D01*
X117567990Y-80545586D01*
X117504755Y-80350970D01*
X117411859Y-80168650D01*
X117291582Y-80003105D01*
X117291582Y-80003104D01*
X117146895Y-79858417D01*
X116981349Y-79738140D01*
X116888370Y-79690765D01*
X116837574Y-79642790D01*
X116820779Y-79574969D01*
X116843316Y-79508835D01*
X116888370Y-79469795D01*
X116888920Y-79469515D01*
X116981610Y-79422287D01*
X117039423Y-79380284D01*
X117147213Y-79301971D01*
X117147215Y-79301968D01*
X117147219Y-79301966D01*
X117291966Y-79157219D01*
X117291968Y-79157215D01*
X117291971Y-79157213D01*
X117350967Y-79076010D01*
X117412287Y-78991610D01*
X117505220Y-78809219D01*
X117568477Y-78614534D01*
X117600500Y-78412352D01*
X117600500Y-78207648D01*
X117596270Y-78180943D01*
X117568477Y-78005465D01*
X117505218Y-77810776D01*
X117471503Y-77744607D01*
X117412287Y-77628390D01*
X117391890Y-77600316D01*
X117291971Y-77462786D01*
X117147213Y-77318028D01*
X116981614Y-77197715D01*
X116975006Y-77194348D01*
X116888917Y-77150483D01*
X116838123Y-77102511D01*
X116821328Y-77034690D01*
X116843865Y-76968555D01*
X116888917Y-76929516D01*
X116981610Y-76882287D01*
X117113846Y-76786213D01*
X117147213Y-76761971D01*
X117147215Y-76761968D01*
X117147219Y-76761966D01*
X117291966Y-76617219D01*
X117291968Y-76617215D01*
X117291971Y-76617213D01*
X117344732Y-76544590D01*
X117412287Y-76451610D01*
X117505220Y-76269219D01*
X117568477Y-76074534D01*
X117600500Y-75872352D01*
X117600500Y-75667648D01*
X117596270Y-75640943D01*
X117568477Y-75465465D01*
X117539127Y-75375137D01*
X117505220Y-75270781D01*
X117505218Y-75270778D01*
X117505218Y-75270776D01*
X117471503Y-75204607D01*
X117412287Y-75088390D01*
X117391890Y-75060316D01*
X117291971Y-74922786D01*
X117147213Y-74778028D01*
X116981614Y-74657715D01*
X116952143Y-74642699D01*
X116888917Y-74610483D01*
X116838123Y-74562511D01*
X116821328Y-74494690D01*
X116843865Y-74428555D01*
X116888917Y-74389516D01*
X116981610Y-74342287D01*
X117113846Y-74246213D01*
X117147213Y-74221971D01*
X117147215Y-74221968D01*
X117147219Y-74221966D01*
X117291966Y-74077219D01*
X117291968Y-74077215D01*
X117291971Y-74077213D01*
X117348772Y-73999031D01*
X117412287Y-73911610D01*
X117505220Y-73729219D01*
X117568477Y-73534534D01*
X117600500Y-73332352D01*
X117600500Y-73127648D01*
X117580436Y-73000968D01*
X117568477Y-72925465D01*
X117505218Y-72730776D01*
X117471503Y-72664607D01*
X117412287Y-72548390D01*
X117404556Y-72537749D01*
X117291971Y-72382786D01*
X117147213Y-72238028D01*
X116981614Y-72117715D01*
X116975006Y-72114348D01*
X116888917Y-72070483D01*
X116838123Y-72022511D01*
X116821328Y-71954690D01*
X116843865Y-71888555D01*
X116888917Y-71849516D01*
X116981610Y-71802287D01*
X117002770Y-71786913D01*
X117147213Y-71681971D01*
X117147215Y-71681968D01*
X117147219Y-71681966D01*
X117291966Y-71537219D01*
X117291968Y-71537215D01*
X117291971Y-71537213D01*
X117344732Y-71464590D01*
X117412287Y-71371610D01*
X117505220Y-71189219D01*
X117568477Y-70994534D01*
X117600500Y-70792352D01*
X117600500Y-70587648D01*
X117591386Y-70530104D01*
X117568477Y-70385465D01*
X117510755Y-70207816D01*
X117505220Y-70190781D01*
X117505218Y-70190778D01*
X117505218Y-70190776D01*
X117417393Y-70018412D01*
X117412287Y-70008390D01*
X117378329Y-69961650D01*
X117291971Y-69842786D01*
X117147213Y-69698028D01*
X116981614Y-69577715D01*
X116905747Y-69539059D01*
X116888917Y-69530483D01*
X116838123Y-69482511D01*
X116821328Y-69414690D01*
X116843865Y-69348555D01*
X116888917Y-69309516D01*
X116981610Y-69262287D01*
X117002770Y-69246913D01*
X117147213Y-69141971D01*
X117147219Y-69141966D01*
X117217178Y-69072007D01*
X117291966Y-68997219D01*
X117291968Y-68997215D01*
X117291971Y-68997213D01*
X117383490Y-68871246D01*
X117412287Y-68831610D01*
X117505220Y-68649219D01*
X117568477Y-68454534D01*
X117600500Y-68252352D01*
X117600500Y-68047648D01*
X117568477Y-67845466D01*
X117559679Y-67818390D01*
X117505871Y-67652786D01*
X117505220Y-67650781D01*
X117505218Y-67650778D01*
X117505218Y-67650776D01*
X117463597Y-67569091D01*
X117412287Y-67468390D01*
X117353674Y-67387715D01*
X117291971Y-67302786D01*
X117147217Y-67158032D01*
X117147212Y-67158028D01*
X117110325Y-67131228D01*
X117067659Y-67075898D01*
X117061680Y-67006285D01*
X117094286Y-66944490D01*
X117155124Y-66910133D01*
X117169956Y-66907620D01*
X117207379Y-66903596D01*
X117342086Y-66853354D01*
X117342093Y-66853350D01*
X117457187Y-66767190D01*
X117457190Y-66767187D01*
X117543350Y-66652093D01*
X117543354Y-66652086D01*
X117593596Y-66517379D01*
X117593598Y-66517372D01*
X117599999Y-66457844D01*
X117600000Y-66457827D01*
X117600000Y-65860000D01*
X116615686Y-65860000D01*
X116620080Y-65855606D01*
X116672741Y-65764394D01*
X116700000Y-65662661D01*
X116700000Y-65557339D01*
X116686685Y-65507648D01*
X127699500Y-65507648D01*
X127699500Y-65712351D01*
X127731522Y-65914534D01*
X127794781Y-66109223D01*
X127887715Y-66291613D01*
X128008028Y-66457213D01*
X128152786Y-66601971D01*
X128298102Y-66707547D01*
X128318390Y-66722287D01*
X128375832Y-66751555D01*
X128411080Y-66769515D01*
X128461876Y-66817490D01*
X128478671Y-66885311D01*
X128456134Y-66951446D01*
X128411080Y-66990485D01*
X128318386Y-67037715D01*
X128152786Y-67158028D01*
X128008028Y-67302786D01*
X127887715Y-67468386D01*
X127794781Y-67650776D01*
X127731522Y-67845465D01*
X127699500Y-68047648D01*
X127699500Y-68252351D01*
X127731522Y-68454534D01*
X127794781Y-68649223D01*
X127832677Y-68723596D01*
X127878770Y-68814059D01*
X127887715Y-68831613D01*
X128008028Y-68997213D01*
X128152786Y-69141971D01*
X128307749Y-69254556D01*
X128318390Y-69262287D01*
X128409840Y-69308883D01*
X128411080Y-69309515D01*
X128461876Y-69357490D01*
X128478671Y-69425311D01*
X128456134Y-69491446D01*
X128411080Y-69530485D01*
X128318386Y-69577715D01*
X128152786Y-69698028D01*
X128008028Y-69842786D01*
X127887715Y-70008386D01*
X127794781Y-70190776D01*
X127731522Y-70385465D01*
X127699500Y-70587648D01*
X127699500Y-70792351D01*
X127731522Y-70994534D01*
X127794781Y-71189223D01*
X127887715Y-71371613D01*
X128008028Y-71537213D01*
X128152786Y-71681971D01*
X128300500Y-71789289D01*
X128318390Y-71802287D01*
X128409840Y-71848883D01*
X128411080Y-71849515D01*
X128461876Y-71897490D01*
X128478671Y-71965311D01*
X128456134Y-72031446D01*
X128411080Y-72070485D01*
X128318386Y-72117715D01*
X128152786Y-72238028D01*
X128008028Y-72382786D01*
X127887715Y-72548386D01*
X127794781Y-72730776D01*
X127731522Y-72925465D01*
X127699500Y-73127648D01*
X127699500Y-73332351D01*
X127731522Y-73534534D01*
X127794781Y-73729223D01*
X127858131Y-73853553D01*
X127881797Y-73900000D01*
X127887715Y-73911613D01*
X128008028Y-74077213D01*
X128152786Y-74221971D01*
X128307749Y-74334556D01*
X128318390Y-74342287D01*
X128409840Y-74388883D01*
X128411080Y-74389515D01*
X128461876Y-74437490D01*
X128478671Y-74505311D01*
X128456134Y-74571446D01*
X128411080Y-74610485D01*
X128318386Y-74657715D01*
X128152786Y-74778028D01*
X128008028Y-74922786D01*
X127887715Y-75088386D01*
X127794781Y-75270776D01*
X127731522Y-75465465D01*
X127699500Y-75667648D01*
X127699500Y-75872351D01*
X127731522Y-76074534D01*
X127794781Y-76269223D01*
X127887715Y-76451613D01*
X128008028Y-76617213D01*
X128152786Y-76761971D01*
X128307749Y-76874556D01*
X128318390Y-76882287D01*
X128409840Y-76928883D01*
X128411080Y-76929515D01*
X128461876Y-76977490D01*
X128478671Y-77045311D01*
X128456134Y-77111446D01*
X128411080Y-77150485D01*
X128318386Y-77197715D01*
X128152786Y-77318028D01*
X128008028Y-77462786D01*
X127887715Y-77628386D01*
X127794781Y-77810776D01*
X127731522Y-78005465D01*
X127699500Y-78207648D01*
X127699500Y-78412351D01*
X127731522Y-78614534D01*
X127794781Y-78809223D01*
X127887715Y-78991613D01*
X128008028Y-79157213D01*
X128152786Y-79301971D01*
X128307749Y-79414556D01*
X128318390Y-79422287D01*
X128409840Y-79468883D01*
X128411080Y-79469515D01*
X128461876Y-79517490D01*
X128478671Y-79585311D01*
X128456134Y-79651446D01*
X128411080Y-79690485D01*
X128318386Y-79737715D01*
X128152786Y-79858028D01*
X128008028Y-80002786D01*
X127887715Y-80168386D01*
X127794781Y-80350776D01*
X127731522Y-80545465D01*
X127699500Y-80747648D01*
X127699500Y-80952351D01*
X127731522Y-81154534D01*
X127794781Y-81349223D01*
X127887715Y-81531613D01*
X128008028Y-81697213D01*
X128152786Y-81841971D01*
X128276148Y-81931597D01*
X128318390Y-81962287D01*
X128409840Y-82008883D01*
X128411080Y-82009515D01*
X128461876Y-82057490D01*
X128478671Y-82125311D01*
X128456134Y-82191446D01*
X128411080Y-82230485D01*
X128318386Y-82277715D01*
X128152786Y-82398028D01*
X128008028Y-82542786D01*
X127887715Y-82708386D01*
X127794781Y-82890776D01*
X127731522Y-83085465D01*
X127699500Y-83287648D01*
X127699500Y-83492351D01*
X127731522Y-83694534D01*
X127794781Y-83889223D01*
X127887715Y-84071613D01*
X128008028Y-84237213D01*
X128152786Y-84381971D01*
X128307749Y-84494556D01*
X128318390Y-84502287D01*
X128434607Y-84561503D01*
X128500776Y-84595218D01*
X128500778Y-84595218D01*
X128500781Y-84595220D01*
X128605137Y-84629127D01*
X128695465Y-84658477D01*
X128794155Y-84674108D01*
X128897648Y-84690500D01*
X128897649Y-84690500D01*
X129102351Y-84690500D01*
X129102352Y-84690500D01*
X129304534Y-84658477D01*
X129499219Y-84595220D01*
X129681610Y-84502287D01*
X129813846Y-84406213D01*
X129847213Y-84381971D01*
X129847215Y-84381968D01*
X129847219Y-84381966D01*
X129991966Y-84237219D01*
X129991968Y-84237215D01*
X129991971Y-84237213D01*
X130083709Y-84110944D01*
X130112287Y-84071610D01*
X130205220Y-83889219D01*
X130268477Y-83694534D01*
X130300500Y-83492352D01*
X130300500Y-83287648D01*
X130296270Y-83260943D01*
X130268477Y-83085465D01*
X130205218Y-82890776D01*
X130171503Y-82824607D01*
X130112287Y-82708390D01*
X130059014Y-82635065D01*
X129991971Y-82542786D01*
X129847213Y-82398028D01*
X129681614Y-82277715D01*
X129675006Y-82274348D01*
X129588917Y-82230483D01*
X129538123Y-82182511D01*
X129521328Y-82114690D01*
X129543865Y-82048555D01*
X129588917Y-82009516D01*
X129681610Y-81962287D01*
X129816124Y-81864558D01*
X129847213Y-81841971D01*
X129847215Y-81841968D01*
X129847219Y-81841966D01*
X129991966Y-81697219D01*
X129991968Y-81697215D01*
X129991971Y-81697213D01*
X130044732Y-81624590D01*
X130112287Y-81531610D01*
X130205220Y-81349219D01*
X130268477Y-81154534D01*
X130300500Y-80952352D01*
X130300500Y-80747648D01*
X130296270Y-80720943D01*
X130268477Y-80545465D01*
X130205218Y-80350776D01*
X130112419Y-80168650D01*
X130112287Y-80168390D01*
X130091890Y-80140316D01*
X129991971Y-80002786D01*
X129847213Y-79858028D01*
X129681614Y-79737715D01*
X129675006Y-79734348D01*
X129588917Y-79690483D01*
X129538123Y-79642511D01*
X129521328Y-79574690D01*
X129543865Y-79508555D01*
X129588917Y-79469516D01*
X129681610Y-79422287D01*
X129739423Y-79380284D01*
X129847213Y-79301971D01*
X129847215Y-79301968D01*
X129847219Y-79301966D01*
X129991966Y-79157219D01*
X129991968Y-79157215D01*
X129991971Y-79157213D01*
X130050967Y-79076010D01*
X130112287Y-78991610D01*
X130205220Y-78809219D01*
X130268477Y-78614534D01*
X130300500Y-78412352D01*
X130300500Y-78207648D01*
X130296270Y-78180943D01*
X130268477Y-78005465D01*
X130205218Y-77810776D01*
X130171503Y-77744607D01*
X130112287Y-77628390D01*
X130091890Y-77600316D01*
X129991971Y-77462786D01*
X129847213Y-77318028D01*
X129681614Y-77197715D01*
X129675006Y-77194348D01*
X129588917Y-77150483D01*
X129538123Y-77102511D01*
X129521328Y-77034690D01*
X129543865Y-76968555D01*
X129588917Y-76929516D01*
X129681610Y-76882287D01*
X129813846Y-76786213D01*
X129847213Y-76761971D01*
X129847215Y-76761968D01*
X129847219Y-76761966D01*
X129991966Y-76617219D01*
X129991968Y-76617215D01*
X129991971Y-76617213D01*
X130044732Y-76544590D01*
X130112287Y-76451610D01*
X130205220Y-76269219D01*
X130268477Y-76074534D01*
X130300500Y-75872352D01*
X130300500Y-75667648D01*
X130296270Y-75640943D01*
X130268477Y-75465465D01*
X130239127Y-75375137D01*
X130205220Y-75270781D01*
X130205218Y-75270778D01*
X130205218Y-75270776D01*
X130171503Y-75204607D01*
X130112287Y-75088390D01*
X130091890Y-75060316D01*
X129991971Y-74922786D01*
X129847213Y-74778028D01*
X129681614Y-74657715D01*
X129652143Y-74642699D01*
X129588917Y-74610483D01*
X129538123Y-74562511D01*
X129521328Y-74494690D01*
X129543865Y-74428555D01*
X129588917Y-74389516D01*
X129681610Y-74342287D01*
X129813846Y-74246213D01*
X129847213Y-74221971D01*
X129847215Y-74221968D01*
X129847219Y-74221966D01*
X129991966Y-74077219D01*
X129991968Y-74077215D01*
X129991971Y-74077213D01*
X130048772Y-73999031D01*
X130112287Y-73911610D01*
X130205220Y-73729219D01*
X130268477Y-73534534D01*
X130300500Y-73332352D01*
X130300500Y-73127648D01*
X130280436Y-73000968D01*
X130268477Y-72925465D01*
X130205218Y-72730776D01*
X130171503Y-72664607D01*
X130112287Y-72548390D01*
X130104556Y-72537749D01*
X129991971Y-72382786D01*
X129847213Y-72238028D01*
X129681614Y-72117715D01*
X129675006Y-72114348D01*
X129588917Y-72070483D01*
X129538123Y-72022511D01*
X129521328Y-71954690D01*
X129543865Y-71888555D01*
X129588917Y-71849516D01*
X129681610Y-71802287D01*
X129702770Y-71786913D01*
X129847213Y-71681971D01*
X129847215Y-71681968D01*
X129847219Y-71681966D01*
X129991966Y-71537219D01*
X129991968Y-71537215D01*
X129991971Y-71537213D01*
X130044732Y-71464590D01*
X130112287Y-71371610D01*
X130205220Y-71189219D01*
X130268477Y-70994534D01*
X130300500Y-70792352D01*
X130300500Y-70587648D01*
X130291386Y-70530104D01*
X130268477Y-70385465D01*
X130210755Y-70207816D01*
X130205220Y-70190781D01*
X130205218Y-70190778D01*
X130205218Y-70190776D01*
X130117393Y-70018412D01*
X130112287Y-70008390D01*
X130078329Y-69961650D01*
X129991971Y-69842786D01*
X129847213Y-69698028D01*
X129681614Y-69577715D01*
X129605747Y-69539059D01*
X129588917Y-69530483D01*
X129538123Y-69482511D01*
X129521328Y-69414690D01*
X129543865Y-69348555D01*
X129588917Y-69309516D01*
X129681610Y-69262287D01*
X129702770Y-69246913D01*
X129847213Y-69141971D01*
X129847219Y-69141966D01*
X129917178Y-69072007D01*
X129991966Y-68997219D01*
X129991968Y-68997215D01*
X129991971Y-68997213D01*
X130083490Y-68871246D01*
X130112287Y-68831610D01*
X130205220Y-68649219D01*
X130268477Y-68454534D01*
X130300500Y-68252352D01*
X130300500Y-68047648D01*
X130268477Y-67845466D01*
X130259679Y-67818390D01*
X130205871Y-67652786D01*
X130205220Y-67650781D01*
X130205218Y-67650778D01*
X130205218Y-67650776D01*
X130163597Y-67569091D01*
X130112287Y-67468390D01*
X130053674Y-67387715D01*
X129991971Y-67302786D01*
X129847213Y-67158028D01*
X129681614Y-67037715D01*
X129619929Y-67006285D01*
X129588917Y-66990483D01*
X129538123Y-66942511D01*
X129521328Y-66874690D01*
X129543865Y-66808555D01*
X129588917Y-66769516D01*
X129681610Y-66722287D01*
X129702770Y-66706913D01*
X129847213Y-66601971D01*
X129847215Y-66601968D01*
X129847219Y-66601966D01*
X129991966Y-66457219D01*
X129991968Y-66457215D01*
X129991971Y-66457213D01*
X130048224Y-66379786D01*
X130112287Y-66291610D01*
X130205220Y-66109219D01*
X130268477Y-65914534D01*
X130300500Y-65712352D01*
X130300500Y-65507648D01*
X130282454Y-65393713D01*
X130268477Y-65305465D01*
X130205218Y-65110776D01*
X130146870Y-64996263D01*
X130112287Y-64928390D01*
X130104556Y-64917749D01*
X129991971Y-64762786D01*
X129847213Y-64618028D01*
X129681613Y-64497715D01*
X129681612Y-64497714D01*
X129681610Y-64497713D01*
X129593487Y-64452812D01*
X129499223Y-64404781D01*
X129304534Y-64341522D01*
X129129995Y-64313878D01*
X129102352Y-64309500D01*
X128897648Y-64309500D01*
X128873329Y-64313351D01*
X128695465Y-64341522D01*
X128500776Y-64404781D01*
X128318386Y-64497715D01*
X128152786Y-64618028D01*
X128008028Y-64762786D01*
X127887715Y-64928386D01*
X127794781Y-65110776D01*
X127731522Y-65305465D01*
X127699500Y-65507648D01*
X116686685Y-65507648D01*
X116672741Y-65455606D01*
X116620080Y-65364394D01*
X116615686Y-65360000D01*
X117600000Y-65360000D01*
X117600000Y-64762172D01*
X117599999Y-64762155D01*
X117593598Y-64702627D01*
X117593596Y-64702620D01*
X117543354Y-64567913D01*
X117543350Y-64567906D01*
X117457190Y-64452812D01*
X117457187Y-64452809D01*
X117342093Y-64366649D01*
X117342086Y-64366645D01*
X117207379Y-64316403D01*
X117207372Y-64316401D01*
X117147844Y-64310000D01*
X116550000Y-64310000D01*
X116550000Y-65294314D01*
X116545606Y-65289920D01*
X116454394Y-65237259D01*
X116352661Y-65210000D01*
X116247339Y-65210000D01*
X116145606Y-65237259D01*
X116054394Y-65289920D01*
X116050000Y-65294314D01*
X116050000Y-64310000D01*
X115452155Y-64310000D01*
X115392627Y-64316401D01*
X115392620Y-64316403D01*
X115257913Y-64366645D01*
X115257906Y-64366649D01*
X115142812Y-64452809D01*
X115142809Y-64452812D01*
X115056649Y-64567906D01*
X115056645Y-64567913D01*
X115006403Y-64702620D01*
X115006401Y-64702627D01*
X115000000Y-64762155D01*
X115000000Y-65360000D01*
X115984314Y-65360000D01*
X115979920Y-65364394D01*
X115927259Y-65455606D01*
X115900000Y-65557339D01*
X115900000Y-65662661D01*
X115927259Y-65764394D01*
X115979920Y-65855606D01*
X115984314Y-65860000D01*
X115000000Y-65860000D01*
X115000000Y-66457844D01*
X115006401Y-66517372D01*
X115006403Y-66517379D01*
X115056645Y-66652086D01*
X115056649Y-66652093D01*
X115142809Y-66767187D01*
X115142812Y-66767190D01*
X115257906Y-66853350D01*
X115257913Y-66853354D01*
X115392620Y-66903596D01*
X115430043Y-66907620D01*
X115494595Y-66934358D01*
X115534443Y-66991750D01*
X115536937Y-67061576D01*
X115501285Y-67121665D01*
X115489675Y-67131227D01*
X115452789Y-67158026D01*
X115452782Y-67158032D01*
X115308028Y-67302786D01*
X115187715Y-67468386D01*
X115094781Y-67650776D01*
X115031522Y-67845465D01*
X114999500Y-68047648D01*
X114999500Y-68252351D01*
X115031522Y-68454534D01*
X115036173Y-68468848D01*
X115038165Y-68538690D01*
X115005921Y-68594842D01*
X114631286Y-68969478D01*
X114519481Y-69081282D01*
X114519479Y-69081285D01*
X114484447Y-69141964D01*
X114484446Y-69141966D01*
X114440423Y-69218214D01*
X114440423Y-69218215D01*
X114399499Y-69370943D01*
X114399499Y-69370945D01*
X114399499Y-69539046D01*
X114399500Y-69539059D01*
X114399500Y-71829902D01*
X114379815Y-71896941D01*
X114363181Y-71917583D01*
X112872181Y-73408583D01*
X112810858Y-73442068D01*
X112741166Y-73437084D01*
X112685233Y-73395212D01*
X112660816Y-73329748D01*
X112660500Y-73320902D01*
X112660500Y-73127648D01*
X112628477Y-72925465D01*
X112565218Y-72730776D01*
X112531503Y-72664607D01*
X112472287Y-72548390D01*
X112464556Y-72537749D01*
X112351971Y-72382786D01*
X112207213Y-72238028D01*
X112041614Y-72117715D01*
X112035006Y-72114348D01*
X111948917Y-72070483D01*
X111898123Y-72022511D01*
X111881328Y-71954690D01*
X111903865Y-71888555D01*
X111948917Y-71849516D01*
X112041610Y-71802287D01*
X112062770Y-71786913D01*
X112207213Y-71681971D01*
X112207215Y-71681968D01*
X112207219Y-71681966D01*
X112351966Y-71537219D01*
X112351968Y-71537215D01*
X112351971Y-71537213D01*
X112404732Y-71464590D01*
X112472287Y-71371610D01*
X112565220Y-71189219D01*
X112628477Y-70994534D01*
X112660500Y-70792352D01*
X112660500Y-70587648D01*
X112651386Y-70530104D01*
X112628477Y-70385465D01*
X112570755Y-70207816D01*
X112565220Y-70190781D01*
X112565218Y-70190778D01*
X112565218Y-70190776D01*
X112477393Y-70018412D01*
X112472287Y-70008390D01*
X112438329Y-69961650D01*
X112351971Y-69842786D01*
X112207213Y-69698028D01*
X112041614Y-69577715D01*
X111965747Y-69539059D01*
X111948917Y-69530483D01*
X111898123Y-69482511D01*
X111881328Y-69414690D01*
X111903865Y-69348555D01*
X111948917Y-69309516D01*
X112041610Y-69262287D01*
X112062770Y-69246913D01*
X112207213Y-69141971D01*
X112207219Y-69141966D01*
X112277178Y-69072007D01*
X112351966Y-68997219D01*
X112351968Y-68997215D01*
X112351971Y-68997213D01*
X112443490Y-68871246D01*
X112472287Y-68831610D01*
X112565220Y-68649219D01*
X112628477Y-68454534D01*
X112660500Y-68252352D01*
X112660500Y-68047648D01*
X112628477Y-67845466D01*
X112619679Y-67818390D01*
X112565871Y-67652786D01*
X112565220Y-67650781D01*
X112565218Y-67650778D01*
X112565218Y-67650776D01*
X112523597Y-67569091D01*
X112472287Y-67468390D01*
X112413674Y-67387715D01*
X112351971Y-67302786D01*
X112207213Y-67158028D01*
X112041614Y-67037715D01*
X111979929Y-67006285D01*
X111948917Y-66990483D01*
X111898123Y-66942511D01*
X111881328Y-66874690D01*
X111903865Y-66808555D01*
X111948917Y-66769516D01*
X112041610Y-66722287D01*
X112062770Y-66706913D01*
X112207213Y-66601971D01*
X112207215Y-66601968D01*
X112207219Y-66601966D01*
X112351966Y-66457219D01*
X112351968Y-66457215D01*
X112351971Y-66457213D01*
X112408224Y-66379786D01*
X112472287Y-66291610D01*
X112565220Y-66109219D01*
X112628477Y-65914534D01*
X112660500Y-65712352D01*
X112660500Y-65507648D01*
X112642454Y-65393713D01*
X112628477Y-65305465D01*
X112565218Y-65110776D01*
X112506870Y-64996263D01*
X112472287Y-64928390D01*
X112460978Y-64912824D01*
X112402067Y-64831739D01*
X112402064Y-64831736D01*
X112399372Y-64828031D01*
X112351966Y-64762781D01*
X112207219Y-64618034D01*
X112207213Y-64618028D01*
X112041613Y-64497715D01*
X112041612Y-64497714D01*
X112041610Y-64497713D01*
X111953487Y-64452812D01*
X111859223Y-64404781D01*
X111664534Y-64341522D01*
X111489995Y-64313878D01*
X111462352Y-64309500D01*
X111257648Y-64309500D01*
X111233329Y-64313351D01*
X111055465Y-64341522D01*
X110860776Y-64404781D01*
X110678386Y-64497715D01*
X110512786Y-64618028D01*
X110368028Y-64762786D01*
X110247715Y-64928386D01*
X110154781Y-65110776D01*
X110091522Y-65305465D01*
X110059500Y-65507648D01*
X110059500Y-65712351D01*
X110091522Y-65914534D01*
X110154781Y-66109223D01*
X110247715Y-66291613D01*
X110368028Y-66457213D01*
X110512786Y-66601971D01*
X110658102Y-66707547D01*
X110678390Y-66722287D01*
X110735832Y-66751555D01*
X110771080Y-66769515D01*
X110821876Y-66817490D01*
X110838671Y-66885311D01*
X110816134Y-66951446D01*
X110771080Y-66990485D01*
X110678386Y-67037715D01*
X110512786Y-67158028D01*
X110368028Y-67302786D01*
X110247715Y-67468386D01*
X110154781Y-67650776D01*
X110091522Y-67845465D01*
X110059500Y-68047648D01*
X110059500Y-68252351D01*
X110091522Y-68454534D01*
X110154781Y-68649223D01*
X110192677Y-68723596D01*
X110238770Y-68814059D01*
X110247715Y-68831613D01*
X110368028Y-68997213D01*
X110512786Y-69141971D01*
X110667749Y-69254556D01*
X110678390Y-69262287D01*
X110769840Y-69308883D01*
X110771080Y-69309515D01*
X110821876Y-69357490D01*
X110838671Y-69425311D01*
X110816134Y-69491446D01*
X110771080Y-69530485D01*
X110678386Y-69577715D01*
X110512786Y-69698028D01*
X110368028Y-69842786D01*
X110247715Y-70008386D01*
X110154781Y-70190776D01*
X110091522Y-70385465D01*
X110059500Y-70587648D01*
X110059500Y-70792351D01*
X110091522Y-70994534D01*
X110154781Y-71189223D01*
X110247715Y-71371613D01*
X110368028Y-71537213D01*
X110512786Y-71681971D01*
X110660500Y-71789289D01*
X110678390Y-71802287D01*
X110769840Y-71848883D01*
X110771080Y-71849515D01*
X110821876Y-71897490D01*
X110838671Y-71965311D01*
X110816134Y-72031446D01*
X110771080Y-72070485D01*
X110678386Y-72117715D01*
X110512786Y-72238028D01*
X110368028Y-72382786D01*
X110247715Y-72548386D01*
X110154781Y-72730776D01*
X110091522Y-72925465D01*
X110059500Y-73127648D01*
X110059500Y-73332351D01*
X110091522Y-73534534D01*
X110154781Y-73729223D01*
X110218131Y-73853553D01*
X110241797Y-73900000D01*
X110247715Y-73911613D01*
X110368028Y-74077213D01*
X110512786Y-74221971D01*
X110667749Y-74334556D01*
X110678390Y-74342287D01*
X110769840Y-74388883D01*
X110771080Y-74389515D01*
X110821876Y-74437490D01*
X110838671Y-74505311D01*
X110816134Y-74571446D01*
X110771080Y-74610485D01*
X110678386Y-74657715D01*
X110512786Y-74778028D01*
X110368028Y-74922786D01*
X110247715Y-75088386D01*
X110154781Y-75270776D01*
X110091522Y-75465465D01*
X110059500Y-75667648D01*
X110059500Y-75872351D01*
X110091522Y-76074534D01*
X110096173Y-76088848D01*
X110098165Y-76158690D01*
X110065921Y-76214842D01*
X104966584Y-81314181D01*
X104905261Y-81347666D01*
X104878903Y-81350500D01*
X100034950Y-81350500D01*
X99967911Y-81330815D01*
X99922156Y-81278011D01*
X99912212Y-81208853D01*
X99917019Y-81188183D01*
X99927989Y-81154418D01*
X99927990Y-81154413D01*
X99936609Y-81100000D01*
X98975686Y-81100000D01*
X98980080Y-81095606D01*
X99032741Y-81004394D01*
X99060000Y-80902661D01*
X99060000Y-80797339D01*
X99032741Y-80695606D01*
X98980080Y-80604394D01*
X98975686Y-80600000D01*
X99936609Y-80600000D01*
X99927990Y-80545586D01*
X99864755Y-80350970D01*
X99771859Y-80168650D01*
X99651582Y-80003105D01*
X99651582Y-80003104D01*
X99506895Y-79858417D01*
X99341349Y-79738140D01*
X99248370Y-79690765D01*
X99197574Y-79642790D01*
X99180779Y-79574969D01*
X99203316Y-79508835D01*
X99248370Y-79469795D01*
X99248920Y-79469515D01*
X99341610Y-79422287D01*
X99399423Y-79380284D01*
X99507213Y-79301971D01*
X99507215Y-79301968D01*
X99507219Y-79301966D01*
X99651966Y-79157219D01*
X99651968Y-79157215D01*
X99651971Y-79157213D01*
X99710967Y-79076010D01*
X99772287Y-78991610D01*
X99865220Y-78809219D01*
X99928477Y-78614534D01*
X99960500Y-78412352D01*
X99960500Y-78207648D01*
X99956270Y-78180943D01*
X99928477Y-78005465D01*
X99865218Y-77810776D01*
X99831503Y-77744607D01*
X99772287Y-77628390D01*
X99751890Y-77600316D01*
X99651971Y-77462786D01*
X99507213Y-77318028D01*
X99341614Y-77197715D01*
X99335006Y-77194348D01*
X99248917Y-77150483D01*
X99198123Y-77102511D01*
X99181328Y-77034690D01*
X99203865Y-76968555D01*
X99248917Y-76929516D01*
X99341610Y-76882287D01*
X99473846Y-76786213D01*
X99507213Y-76761971D01*
X99507215Y-76761968D01*
X99507219Y-76761966D01*
X99651966Y-76617219D01*
X99651968Y-76617215D01*
X99651971Y-76617213D01*
X99704732Y-76544590D01*
X99772287Y-76451610D01*
X99865220Y-76269219D01*
X99928477Y-76074534D01*
X99960500Y-75872352D01*
X99960500Y-75667648D01*
X99956270Y-75640943D01*
X99928477Y-75465465D01*
X99899127Y-75375137D01*
X99865220Y-75270781D01*
X99865218Y-75270778D01*
X99865218Y-75270776D01*
X99831503Y-75204607D01*
X99772287Y-75088390D01*
X99751890Y-75060316D01*
X99651971Y-74922786D01*
X99507213Y-74778028D01*
X99341614Y-74657715D01*
X99312145Y-74642700D01*
X99312145Y-74642699D01*
X99248920Y-74610485D01*
X99198123Y-74562511D01*
X99181328Y-74494690D01*
X99203865Y-74428555D01*
X99248917Y-74389516D01*
X99341610Y-74342287D01*
X99473846Y-74246213D01*
X99507213Y-74221971D01*
X99507215Y-74221968D01*
X99507219Y-74221966D01*
X99651966Y-74077219D01*
X99651968Y-74077215D01*
X99651971Y-74077213D01*
X99708772Y-73999031D01*
X99772287Y-73911610D01*
X99865220Y-73729219D01*
X99928477Y-73534534D01*
X99950153Y-73397682D01*
X104200000Y-73397682D01*
X104200000Y-73602317D01*
X104232009Y-73804417D01*
X104295244Y-73999031D01*
X104388141Y-74181350D01*
X104388147Y-74181359D01*
X104420523Y-74225921D01*
X104420524Y-74225922D01*
X105100000Y-73546446D01*
X105100000Y-73552661D01*
X105127259Y-73654394D01*
X105179920Y-73745606D01*
X105254394Y-73820080D01*
X105345606Y-73872741D01*
X105447339Y-73900000D01*
X105453553Y-73900000D01*
X104774076Y-74579474D01*
X104818650Y-74611859D01*
X105000968Y-74704755D01*
X105195582Y-74767990D01*
X105397683Y-74800000D01*
X105602317Y-74800000D01*
X105804417Y-74767990D01*
X105999031Y-74704755D01*
X106181349Y-74611859D01*
X106225921Y-74579474D01*
X105546447Y-73900000D01*
X105552661Y-73900000D01*
X105654394Y-73872741D01*
X105745606Y-73820080D01*
X105820080Y-73745606D01*
X105872741Y-73654394D01*
X105900000Y-73552661D01*
X105900000Y-73546448D01*
X106579474Y-74225922D01*
X106579474Y-74225921D01*
X106611859Y-74181349D01*
X106704755Y-73999031D01*
X106767990Y-73804417D01*
X106800000Y-73602317D01*
X106800000Y-73397682D01*
X106767990Y-73195582D01*
X106704755Y-73000968D01*
X106611859Y-72818650D01*
X106579474Y-72774077D01*
X106579474Y-72774076D01*
X105900000Y-73453551D01*
X105900000Y-73447339D01*
X105872741Y-73345606D01*
X105820080Y-73254394D01*
X105745606Y-73179920D01*
X105654394Y-73127259D01*
X105552661Y-73100000D01*
X105546446Y-73100000D01*
X106225922Y-72420524D01*
X106225921Y-72420523D01*
X106181359Y-72388147D01*
X106181350Y-72388141D01*
X105999031Y-72295244D01*
X105804417Y-72232009D01*
X105602317Y-72200000D01*
X105397683Y-72200000D01*
X105195582Y-72232009D01*
X105000968Y-72295244D01*
X104818644Y-72388143D01*
X104774077Y-72420523D01*
X104774077Y-72420524D01*
X105453554Y-73100000D01*
X105447339Y-73100000D01*
X105345606Y-73127259D01*
X105254394Y-73179920D01*
X105179920Y-73254394D01*
X105127259Y-73345606D01*
X105100000Y-73447339D01*
X105100000Y-73453553D01*
X104420524Y-72774077D01*
X104420523Y-72774077D01*
X104388143Y-72818644D01*
X104295244Y-73000968D01*
X104232009Y-73195582D01*
X104200000Y-73397682D01*
X99950153Y-73397682D01*
X99960500Y-73332352D01*
X99960500Y-73127648D01*
X99940436Y-73000968D01*
X99928477Y-72925465D01*
X99865218Y-72730776D01*
X99772286Y-72548388D01*
X99766678Y-72540670D01*
X99651966Y-72382781D01*
X99507219Y-72238034D01*
X99507213Y-72238028D01*
X99341614Y-72117715D01*
X99335006Y-72114348D01*
X99248917Y-72070483D01*
X99198123Y-72022511D01*
X99181328Y-71954690D01*
X99203865Y-71888555D01*
X99248917Y-71849516D01*
X99341610Y-71802287D01*
X99362770Y-71786913D01*
X99507213Y-71681971D01*
X99507215Y-71681968D01*
X99507219Y-71681966D01*
X99651966Y-71537219D01*
X99651968Y-71537215D01*
X99651971Y-71537213D01*
X99704732Y-71464590D01*
X99772287Y-71371610D01*
X99865220Y-71189219D01*
X99928477Y-70994534D01*
X99960500Y-70792352D01*
X99960500Y-70587648D01*
X99951386Y-70530104D01*
X99928477Y-70385465D01*
X99870755Y-70207816D01*
X99865220Y-70190781D01*
X99865218Y-70190778D01*
X99865218Y-70190776D01*
X99777393Y-70018412D01*
X99772287Y-70008390D01*
X99738329Y-69961650D01*
X99651971Y-69842786D01*
X99507213Y-69698028D01*
X99341614Y-69577715D01*
X99265747Y-69539059D01*
X99248917Y-69530483D01*
X99198123Y-69482511D01*
X99181328Y-69414690D01*
X99203865Y-69348555D01*
X99248917Y-69309516D01*
X99341610Y-69262287D01*
X99362770Y-69246913D01*
X99507213Y-69141971D01*
X99507219Y-69141966D01*
X99577178Y-69072007D01*
X99651966Y-68997219D01*
X99651968Y-68997215D01*
X99651971Y-68997213D01*
X99743490Y-68871246D01*
X99772287Y-68831610D01*
X99865220Y-68649219D01*
X99928477Y-68454534D01*
X99937487Y-68397648D01*
X104199500Y-68397648D01*
X104199500Y-68602352D01*
X104199853Y-68604581D01*
X104231522Y-68804534D01*
X104294781Y-68999223D01*
X104355584Y-69118554D01*
X104382788Y-69171945D01*
X104387715Y-69181613D01*
X104508028Y-69347213D01*
X104652786Y-69491971D01*
X104770805Y-69577715D01*
X104818390Y-69612287D01*
X104934607Y-69671503D01*
X105000776Y-69705218D01*
X105000778Y-69705218D01*
X105000781Y-69705220D01*
X105105137Y-69739127D01*
X105195465Y-69768477D01*
X105296557Y-69784488D01*
X105397648Y-69800500D01*
X105397649Y-69800500D01*
X105602351Y-69800500D01*
X105602352Y-69800500D01*
X105804534Y-69768477D01*
X105999219Y-69705220D01*
X106181610Y-69612287D01*
X106282401Y-69539059D01*
X106347213Y-69491971D01*
X106347215Y-69491968D01*
X106347219Y-69491966D01*
X106491966Y-69347219D01*
X106491968Y-69347215D01*
X106491971Y-69347213D01*
X106553674Y-69262284D01*
X106612287Y-69181610D01*
X106705220Y-68999219D01*
X106768477Y-68804534D01*
X106800500Y-68602352D01*
X106800500Y-68397648D01*
X106793949Y-68356285D01*
X106768477Y-68195465D01*
X106739127Y-68105137D01*
X106705220Y-68000781D01*
X106705218Y-68000778D01*
X106705218Y-68000776D01*
X106671503Y-67934607D01*
X106612287Y-67818390D01*
X106604556Y-67807749D01*
X106491971Y-67652786D01*
X106347213Y-67508028D01*
X106181613Y-67387715D01*
X106181612Y-67387714D01*
X106181610Y-67387713D01*
X106124653Y-67358691D01*
X105999223Y-67294781D01*
X105804534Y-67231522D01*
X105629995Y-67203878D01*
X105602352Y-67199500D01*
X105397648Y-67199500D01*
X105373329Y-67203351D01*
X105195465Y-67231522D01*
X105000776Y-67294781D01*
X104818386Y-67387715D01*
X104652786Y-67508028D01*
X104508028Y-67652786D01*
X104387715Y-67818386D01*
X104294781Y-68000776D01*
X104231522Y-68195465D01*
X104206051Y-68356285D01*
X104199500Y-68397648D01*
X99937487Y-68397648D01*
X99960500Y-68252352D01*
X99960500Y-68047648D01*
X99928477Y-67845466D01*
X99919679Y-67818390D01*
X99865871Y-67652786D01*
X99865220Y-67650781D01*
X99865218Y-67650778D01*
X99865218Y-67650776D01*
X99823597Y-67569091D01*
X99772287Y-67468390D01*
X99713674Y-67387715D01*
X99651971Y-67302786D01*
X99507217Y-67158032D01*
X99507212Y-67158028D01*
X99470325Y-67131228D01*
X99427659Y-67075898D01*
X99421680Y-67006285D01*
X99454286Y-66944490D01*
X99515124Y-66910133D01*
X99529956Y-66907620D01*
X99567379Y-66903596D01*
X99702086Y-66853354D01*
X99702093Y-66853350D01*
X99817187Y-66767190D01*
X99817190Y-66767187D01*
X99903350Y-66652093D01*
X99903354Y-66652086D01*
X99953596Y-66517379D01*
X99953598Y-66517372D01*
X99959999Y-66457844D01*
X99960000Y-66457827D01*
X99960000Y-65860000D01*
X98975686Y-65860000D01*
X98980080Y-65855606D01*
X99032741Y-65764394D01*
X99060000Y-65662661D01*
X99060000Y-65557339D01*
X99032741Y-65455606D01*
X98980080Y-65364394D01*
X98975686Y-65360000D01*
X99960000Y-65360000D01*
X99960000Y-64762172D01*
X99959999Y-64762155D01*
X99953598Y-64702627D01*
X99953596Y-64702620D01*
X99903354Y-64567913D01*
X99903350Y-64567906D01*
X99817190Y-64452812D01*
X99817187Y-64452809D01*
X99702093Y-64366649D01*
X99702086Y-64366645D01*
X99567379Y-64316403D01*
X99567372Y-64316401D01*
X99507844Y-64310000D01*
X98910000Y-64310000D01*
X98910000Y-65294314D01*
X98905606Y-65289920D01*
X98814394Y-65237259D01*
X98712661Y-65210000D01*
X98607339Y-65210000D01*
X98505606Y-65237259D01*
X98414394Y-65289920D01*
X98410000Y-65294314D01*
X98410000Y-64310000D01*
X97812155Y-64310000D01*
X97752627Y-64316401D01*
X97752620Y-64316403D01*
X97617913Y-64366645D01*
X97617906Y-64366649D01*
X97502812Y-64452809D01*
X97502809Y-64452812D01*
X97416649Y-64567906D01*
X97416645Y-64567913D01*
X97366403Y-64702620D01*
X97366401Y-64702627D01*
X97360000Y-64762155D01*
X97360000Y-65360000D01*
X98344314Y-65360000D01*
X98339920Y-65364394D01*
X98287259Y-65455606D01*
X98260000Y-65557339D01*
X98260000Y-65662661D01*
X98287259Y-65764394D01*
X98339920Y-65855606D01*
X98344314Y-65860000D01*
X97360000Y-65860000D01*
X97360000Y-66457844D01*
X97366401Y-66517372D01*
X97366403Y-66517379D01*
X97416645Y-66652086D01*
X97416649Y-66652093D01*
X97502809Y-66767187D01*
X97502812Y-66767190D01*
X97617906Y-66853350D01*
X97617913Y-66853354D01*
X97752620Y-66903596D01*
X97790043Y-66907620D01*
X97854595Y-66934358D01*
X97894443Y-66991750D01*
X97896937Y-67061576D01*
X97861285Y-67121665D01*
X97849675Y-67131227D01*
X97812789Y-67158026D01*
X97812782Y-67158032D01*
X97668028Y-67302786D01*
X97547715Y-67468386D01*
X97454781Y-67650776D01*
X97391522Y-67845465D01*
X97359500Y-68047648D01*
X97359500Y-68252351D01*
X97391522Y-68454534D01*
X97396173Y-68468848D01*
X97396606Y-68484059D01*
X97401924Y-68498315D01*
X97397582Y-68518271D01*
X97398165Y-68538690D01*
X97390076Y-68552775D01*
X97387072Y-68566588D01*
X97365921Y-68594842D01*
X97190286Y-68770478D01*
X97078481Y-68882282D01*
X97078479Y-68882284D01*
X97060517Y-68913396D01*
X97052925Y-68926547D01*
X96999423Y-69019215D01*
X96958499Y-69171943D01*
X96958499Y-69171945D01*
X96958499Y-69340046D01*
X96958500Y-69340059D01*
X96958500Y-81219380D01*
X96958499Y-81219398D01*
X96958499Y-81385104D01*
X96958498Y-81385104D01*
X96999423Y-81537835D01*
X97025085Y-81582283D01*
X97025087Y-81582285D01*
X97078479Y-81674764D01*
X97078481Y-81674767D01*
X97197349Y-81793635D01*
X97197355Y-81793640D01*
X97719513Y-82315798D01*
X97719760Y-82316046D01*
X97721665Y-82319553D01*
X97726667Y-82323672D01*
X97726677Y-82323684D01*
X97724772Y-82325270D01*
X97736498Y-82346849D01*
X97753067Y-82377192D01*
X97753057Y-82377322D01*
X97753120Y-82377437D01*
X97750569Y-82412112D01*
X97748083Y-82446884D01*
X97748003Y-82447008D01*
X97747995Y-82447119D01*
X97747560Y-82447696D01*
X97719583Y-82491230D01*
X97668036Y-82542777D01*
X97668030Y-82542784D01*
X97547715Y-82708386D01*
X97454781Y-82890776D01*
X97426016Y-82979307D01*
X97386578Y-83036982D01*
X97322219Y-83064180D01*
X97253373Y-83052265D01*
X97220404Y-83028669D01*
X94108757Y-79917022D01*
X94075272Y-79855699D01*
X94078507Y-79791023D01*
X94092246Y-79748743D01*
X94125500Y-79538787D01*
X94125500Y-79326213D01*
X94092246Y-79116257D01*
X94026557Y-78914088D01*
X93930051Y-78724684D01*
X93930049Y-78724681D01*
X93930048Y-78724679D01*
X93805109Y-78552713D01*
X93654786Y-78402390D01*
X93482820Y-78277451D01*
X93482115Y-78277091D01*
X93474054Y-78272985D01*
X93423259Y-78225012D01*
X93406463Y-78157192D01*
X93428999Y-78091056D01*
X93474054Y-78052015D01*
X93482816Y-78047551D01*
X93504789Y-78031586D01*
X93654786Y-77922609D01*
X93654788Y-77922606D01*
X93654792Y-77922604D01*
X93805104Y-77772292D01*
X93805106Y-77772288D01*
X93805109Y-77772286D01*
X93930048Y-77600320D01*
X93930047Y-77600320D01*
X93930051Y-77600316D01*
X94026557Y-77410912D01*
X94092246Y-77208743D01*
X94125500Y-76998787D01*
X94125500Y-76786213D01*
X94092246Y-76576257D01*
X94026557Y-76374088D01*
X93930051Y-76184684D01*
X93930049Y-76184681D01*
X93930048Y-76184679D01*
X93805109Y-76012713D01*
X93654786Y-75862390D01*
X93482820Y-75737451D01*
X93482115Y-75737091D01*
X93474054Y-75732985D01*
X93423259Y-75685012D01*
X93406463Y-75617192D01*
X93428999Y-75551056D01*
X93474054Y-75512015D01*
X93482816Y-75507551D01*
X93540733Y-75465472D01*
X93654786Y-75382609D01*
X93654788Y-75382606D01*
X93654792Y-75382604D01*
X93805104Y-75232292D01*
X93805106Y-75232288D01*
X93805109Y-75232286D01*
X93930048Y-75060320D01*
X93930047Y-75060320D01*
X93930051Y-75060316D01*
X94026557Y-74870912D01*
X94092246Y-74668743D01*
X94125500Y-74458787D01*
X94125500Y-74246213D01*
X94092246Y-74036257D01*
X94026557Y-73834088D01*
X93930051Y-73644684D01*
X93930049Y-73644681D01*
X93930048Y-73644679D01*
X93805109Y-73472713D01*
X93654786Y-73322390D01*
X93482820Y-73197451D01*
X93293414Y-73100944D01*
X93293413Y-73100943D01*
X93293412Y-73100943D01*
X93091243Y-73035254D01*
X93091241Y-73035253D01*
X93091240Y-73035253D01*
X92929957Y-73009708D01*
X92881287Y-73002000D01*
X92668713Y-73002000D01*
X92620042Y-73009708D01*
X92458760Y-73035253D01*
X92256585Y-73100944D01*
X92067179Y-73197451D01*
X91895213Y-73322390D01*
X91744890Y-73472713D01*
X91619951Y-73644679D01*
X91523444Y-73834085D01*
X91457753Y-74036260D01*
X91424500Y-74246213D01*
X91424500Y-74458786D01*
X91442343Y-74571446D01*
X91457754Y-74668743D01*
X91500402Y-74800000D01*
X91523444Y-74870914D01*
X91619951Y-75060320D01*
X91744890Y-75232286D01*
X91895213Y-75382609D01*
X92067182Y-75507550D01*
X92075946Y-75512016D01*
X92126742Y-75559991D01*
X92143536Y-75627812D01*
X92120998Y-75693947D01*
X92075946Y-75732984D01*
X92067182Y-75737449D01*
X91895213Y-75862390D01*
X91744890Y-76012713D01*
X91619951Y-76184679D01*
X91523444Y-76374085D01*
X91457753Y-76576260D01*
X91424500Y-76786213D01*
X91424500Y-76998786D01*
X91457753Y-77208739D01*
X91523444Y-77410914D01*
X91619951Y-77600320D01*
X91744890Y-77772286D01*
X91895213Y-77922609D01*
X92067182Y-78047550D01*
X92075946Y-78052016D01*
X92126742Y-78099991D01*
X92143536Y-78167812D01*
X92120998Y-78233947D01*
X92075946Y-78272984D01*
X92067182Y-78277449D01*
X91895213Y-78402390D01*
X91744890Y-78552713D01*
X91619951Y-78724679D01*
X91523444Y-78914085D01*
X91457753Y-79116260D01*
X91424500Y-79326213D01*
X91424500Y-79538786D01*
X91457753Y-79748739D01*
X91457753Y-79748741D01*
X91457754Y-79748743D01*
X91512431Y-79917022D01*
X91523444Y-79950914D01*
X91619951Y-80140320D01*
X91744890Y-80312286D01*
X91895213Y-80462609D01*
X92067182Y-80587550D01*
X92075946Y-80592016D01*
X92126742Y-80639991D01*
X92143536Y-80707812D01*
X92120998Y-80773947D01*
X92075946Y-80812984D01*
X92067182Y-80817449D01*
X91895213Y-80942390D01*
X91744890Y-81092713D01*
X91619951Y-81264679D01*
X91523444Y-81454085D01*
X91457753Y-81656260D01*
X91424500Y-81866213D01*
X91424500Y-82078786D01*
X91442343Y-82191446D01*
X91457754Y-82288743D01*
X91509401Y-82447696D01*
X91523444Y-82490914D01*
X91619951Y-82680320D01*
X91744890Y-82852286D01*
X91895213Y-83002609D01*
X92067182Y-83127550D01*
X92075946Y-83132016D01*
X92126742Y-83179991D01*
X92143536Y-83247812D01*
X92120998Y-83313947D01*
X92075946Y-83352984D01*
X92067182Y-83357449D01*
X91895213Y-83482390D01*
X91744890Y-83632713D01*
X91619951Y-83804679D01*
X91523444Y-83994085D01*
X91457753Y-84196260D01*
X91424500Y-84406213D01*
X91424500Y-84618786D01*
X91457753Y-84828739D01*
X91523444Y-85030914D01*
X91619951Y-85220320D01*
X91744890Y-85392286D01*
X91895213Y-85542609D01*
X92067182Y-85667550D01*
X92075946Y-85672016D01*
X92126742Y-85719991D01*
X92143536Y-85787812D01*
X92120998Y-85853947D01*
X92075946Y-85892984D01*
X92067182Y-85897449D01*
X91895213Y-86022390D01*
X91744890Y-86172713D01*
X91619951Y-86344679D01*
X91523444Y-86534085D01*
X91457753Y-86736260D01*
X91424500Y-86946213D01*
X91424500Y-87158787D01*
X91434534Y-87222144D01*
X91445670Y-87292452D01*
X91457754Y-87368743D01*
X91470400Y-87407664D01*
X91523444Y-87570914D01*
X91619951Y-87760320D01*
X91744890Y-87932286D01*
X91895213Y-88082609D01*
X92067182Y-88207550D01*
X92075946Y-88212016D01*
X92126742Y-88259991D01*
X92143536Y-88327812D01*
X92120998Y-88393947D01*
X92075946Y-88432984D01*
X92067182Y-88437449D01*
X91895213Y-88562390D01*
X91744890Y-88712713D01*
X91619951Y-88884679D01*
X91523444Y-89074085D01*
X91457753Y-89276260D01*
X91438492Y-89397872D01*
X91424500Y-89486213D01*
X91424500Y-89698787D01*
X91434534Y-89762144D01*
X91443627Y-89819553D01*
X91457754Y-89908743D01*
X91520591Y-90102135D01*
X91523444Y-90110914D01*
X91619951Y-90300320D01*
X91744890Y-90472286D01*
X91895213Y-90622609D01*
X92067182Y-90747550D01*
X92075946Y-90752016D01*
X92126742Y-90799991D01*
X92143536Y-90867812D01*
X92120998Y-90933947D01*
X92075946Y-90972984D01*
X92067182Y-90977449D01*
X91895213Y-91102390D01*
X91744890Y-91252713D01*
X91619951Y-91424679D01*
X91523444Y-91614085D01*
X91457753Y-91816260D01*
X91424500Y-92026213D01*
X91424500Y-92238786D01*
X91457735Y-92448627D01*
X91457754Y-92448743D01*
X91477026Y-92508057D01*
X91523444Y-92650914D01*
X91619951Y-92840320D01*
X91744890Y-93012286D01*
X91858430Y-93125826D01*
X91891915Y-93187149D01*
X91886931Y-93256841D01*
X91845059Y-93312774D01*
X91814083Y-93329689D01*
X91682669Y-93378703D01*
X91682664Y-93378706D01*
X91567455Y-93464952D01*
X91567452Y-93464955D01*
X91481206Y-93580164D01*
X91481202Y-93580171D01*
X91430908Y-93715017D01*
X91428976Y-93732993D01*
X91424501Y-93774623D01*
X91424500Y-93774635D01*
X91424500Y-95570370D01*
X91424501Y-95570376D01*
X91430908Y-95629983D01*
X91481202Y-95764828D01*
X91481206Y-95764835D01*
X91567452Y-95880044D01*
X91567455Y-95880047D01*
X91682664Y-95966293D01*
X91682671Y-95966297D01*
X91817517Y-96016591D01*
X91817516Y-96016591D01*
X91824444Y-96017335D01*
X91877127Y-96023000D01*
X93672872Y-96022999D01*
X93732483Y-96016591D01*
X93867331Y-95966296D01*
X93982546Y-95880046D01*
X94068796Y-95764831D01*
X94119091Y-95629983D01*
X94125500Y-95570373D01*
X94125499Y-93774628D01*
X94119091Y-93715017D01*
X94108375Y-93686287D01*
X94068797Y-93580171D01*
X94068793Y-93580164D01*
X93982547Y-93464955D01*
X93982544Y-93464952D01*
X93867335Y-93378706D01*
X93867328Y-93378702D01*
X93735917Y-93329689D01*
X93679983Y-93287818D01*
X93655566Y-93222353D01*
X93670418Y-93154080D01*
X93691563Y-93125832D01*
X93805104Y-93012292D01*
X93930051Y-92840316D01*
X94026557Y-92650912D01*
X94092246Y-92448743D01*
X94125500Y-92238787D01*
X94125500Y-92026213D01*
X94092246Y-91816257D01*
X94026557Y-91614088D01*
X93930051Y-91424684D01*
X93930049Y-91424681D01*
X93930048Y-91424679D01*
X93805109Y-91252713D01*
X93654786Y-91102390D01*
X93482820Y-90977451D01*
X93474600Y-90973263D01*
X93474054Y-90972985D01*
X93423259Y-90925012D01*
X93406463Y-90857192D01*
X93428999Y-90791056D01*
X93474054Y-90752015D01*
X93482816Y-90747551D01*
X93504789Y-90731586D01*
X93654786Y-90622609D01*
X93654788Y-90622606D01*
X93654792Y-90622604D01*
X93805104Y-90472292D01*
X93805106Y-90472288D01*
X93805109Y-90472286D01*
X93930048Y-90300320D01*
X93930047Y-90300320D01*
X93930051Y-90300316D01*
X94026557Y-90110912D01*
X94092246Y-89908743D01*
X94125500Y-89698787D01*
X94125500Y-89486213D01*
X94092246Y-89276257D01*
X94026557Y-89074088D01*
X93930051Y-88884684D01*
X93930049Y-88884681D01*
X93930048Y-88884679D01*
X93805109Y-88712713D01*
X93654786Y-88562390D01*
X93482820Y-88437451D01*
X93482115Y-88437091D01*
X93474054Y-88432985D01*
X93423259Y-88385012D01*
X93406463Y-88317192D01*
X93428999Y-88251056D01*
X93474054Y-88212015D01*
X93482816Y-88207551D01*
X93587787Y-88131286D01*
X93654786Y-88082609D01*
X93654788Y-88082606D01*
X93654792Y-88082604D01*
X93805104Y-87932292D01*
X93805106Y-87932288D01*
X93805109Y-87932286D01*
X93930048Y-87760320D01*
X93930047Y-87760320D01*
X93930051Y-87760316D01*
X94026557Y-87570912D01*
X94092246Y-87368743D01*
X94125500Y-87158787D01*
X94125500Y-86946213D01*
X94092246Y-86736257D01*
X94026557Y-86534088D01*
X93930051Y-86344684D01*
X93930049Y-86344681D01*
X93930048Y-86344679D01*
X93805109Y-86172713D01*
X93654786Y-86022390D01*
X93482820Y-85897451D01*
X93482115Y-85897091D01*
X93474054Y-85892985D01*
X93423259Y-85845012D01*
X93406463Y-85777192D01*
X93428999Y-85711056D01*
X93474054Y-85672015D01*
X93482816Y-85667551D01*
X93547135Y-85620821D01*
X93654786Y-85542609D01*
X93654788Y-85542606D01*
X93654792Y-85542604D01*
X93805104Y-85392292D01*
X93805106Y-85392288D01*
X93805109Y-85392286D01*
X93930048Y-85220320D01*
X93930047Y-85220320D01*
X93930051Y-85220316D01*
X94026557Y-85030912D01*
X94092246Y-84828743D01*
X94125500Y-84618787D01*
X94125500Y-84406213D01*
X94092246Y-84196257D01*
X94026557Y-83994088D01*
X93930051Y-83804684D01*
X93930049Y-83804681D01*
X93930048Y-83804679D01*
X93805109Y-83632713D01*
X93654786Y-83482390D01*
X93482820Y-83357451D01*
X93482115Y-83357091D01*
X93474054Y-83352985D01*
X93423259Y-83305012D01*
X93406463Y-83237192D01*
X93428999Y-83171056D01*
X93474054Y-83132015D01*
X93482816Y-83127551D01*
X93504789Y-83111586D01*
X93654786Y-83002609D01*
X93654788Y-83002606D01*
X93654792Y-83002604D01*
X93805104Y-82852292D01*
X93805106Y-82852288D01*
X93805109Y-82852286D01*
X93930048Y-82680320D01*
X93930047Y-82680320D01*
X93930051Y-82680316D01*
X94026557Y-82490912D01*
X94092246Y-82288743D01*
X94125500Y-82078787D01*
X94125500Y-81931597D01*
X94145185Y-81864558D01*
X94197989Y-81818803D01*
X94267147Y-81808859D01*
X94330703Y-81837884D01*
X94337180Y-81843915D01*
X98973784Y-86480520D01*
X98973786Y-86480521D01*
X98973790Y-86480524D01*
X99066562Y-86534085D01*
X99110716Y-86559577D01*
X99263443Y-86600501D01*
X99263445Y-86600501D01*
X99429154Y-86600501D01*
X99429170Y-86600500D01*
X110920234Y-86600500D01*
X110987273Y-86620185D01*
X110989125Y-86621398D01*
X111120814Y-86709390D01*
X111120827Y-86709397D01*
X111266498Y-86769735D01*
X111266503Y-86769737D01*
X111421153Y-86800499D01*
X111421156Y-86800500D01*
X111421158Y-86800500D01*
X111578844Y-86800500D01*
X111578845Y-86800499D01*
X111733497Y-86769737D01*
X111879179Y-86709394D01*
X112010289Y-86621789D01*
X112121789Y-86510289D01*
X112209394Y-86379179D01*
X112269737Y-86233497D01*
X112300500Y-86078842D01*
X112300500Y-85921158D01*
X112300500Y-85921155D01*
X112300499Y-85921153D01*
X112287131Y-85853947D01*
X112269737Y-85766503D01*
X112250471Y-85719991D01*
X112209397Y-85620827D01*
X112209390Y-85620814D01*
X112121789Y-85489711D01*
X112121786Y-85489707D01*
X112010292Y-85378213D01*
X112010288Y-85378210D01*
X111879185Y-85290609D01*
X111879172Y-85290602D01*
X111733501Y-85230264D01*
X111733489Y-85230261D01*
X111578845Y-85199500D01*
X111578842Y-85199500D01*
X111421158Y-85199500D01*
X111421155Y-85199500D01*
X111266510Y-85230261D01*
X111266498Y-85230264D01*
X111120827Y-85290602D01*
X111120814Y-85290609D01*
X110989125Y-85378602D01*
X110922447Y-85399480D01*
X110920234Y-85399500D01*
X99642598Y-85399500D01*
X99575559Y-85379815D01*
X99554917Y-85363181D01*
X99021331Y-84829595D01*
X98987846Y-84768272D01*
X98992830Y-84698580D01*
X99034702Y-84642647D01*
X99070691Y-84623984D01*
X99159219Y-84595220D01*
X99341610Y-84502287D01*
X99473846Y-84406213D01*
X99507213Y-84381971D01*
X99507215Y-84381968D01*
X99507219Y-84381966D01*
X99651966Y-84237219D01*
X99651968Y-84237215D01*
X99651971Y-84237213D01*
X99772284Y-84071614D01*
X99772285Y-84071613D01*
X99772287Y-84071610D01*
X99779117Y-84058204D01*
X99827091Y-84007409D01*
X99889602Y-83990500D01*
X107176281Y-83990500D01*
X107176297Y-83990501D01*
X107183893Y-83990501D01*
X107342004Y-83990501D01*
X107342007Y-83990501D01*
X107494735Y-83949577D01*
X107544854Y-83920639D01*
X107631666Y-83870520D01*
X107743470Y-83758716D01*
X107743470Y-83758714D01*
X107753678Y-83748507D01*
X107753679Y-83748504D01*
X110033486Y-81468698D01*
X110094807Y-81435215D01*
X110164499Y-81440199D01*
X110220432Y-81482071D01*
X110231649Y-81500084D01*
X110247714Y-81531613D01*
X110368028Y-81697213D01*
X110512786Y-81841971D01*
X110636148Y-81931597D01*
X110678390Y-81962287D01*
X110769840Y-82008883D01*
X110771080Y-82009515D01*
X110821876Y-82057490D01*
X110838671Y-82125311D01*
X110816134Y-82191446D01*
X110771080Y-82230485D01*
X110678386Y-82277715D01*
X110512786Y-82398028D01*
X110368028Y-82542786D01*
X110247715Y-82708386D01*
X110154781Y-82890776D01*
X110091522Y-83085465D01*
X110059500Y-83287648D01*
X110059500Y-83492351D01*
X110091522Y-83694534D01*
X110154781Y-83889223D01*
X110247715Y-84071613D01*
X110368028Y-84237213D01*
X110512786Y-84381971D01*
X110667749Y-84494556D01*
X110678390Y-84502287D01*
X110794607Y-84561503D01*
X110860776Y-84595218D01*
X110860778Y-84595218D01*
X110860781Y-84595220D01*
X110965137Y-84629127D01*
X111055465Y-84658477D01*
X111154155Y-84674108D01*
X111257648Y-84690500D01*
X111257649Y-84690500D01*
X111462351Y-84690500D01*
X111462352Y-84690500D01*
X111664534Y-84658477D01*
X111859219Y-84595220D01*
X112041610Y-84502287D01*
X112173846Y-84406213D01*
X112207213Y-84381971D01*
X112207215Y-84381968D01*
X112207219Y-84381966D01*
X112351966Y-84237219D01*
X112351968Y-84237215D01*
X112351971Y-84237213D01*
X112443709Y-84110944D01*
X112472287Y-84071610D01*
X112565220Y-83889219D01*
X112628477Y-83694534D01*
X112660500Y-83492352D01*
X112660500Y-83299097D01*
X112680185Y-83232058D01*
X112732989Y-83186303D01*
X112802147Y-83176359D01*
X112865703Y-83205384D01*
X112872181Y-83211416D01*
X114863181Y-85202416D01*
X114896666Y-85263739D01*
X114899500Y-85290097D01*
X114899500Y-87025500D01*
X114879815Y-87092539D01*
X114827011Y-87138294D01*
X114775501Y-87149500D01*
X114602130Y-87149500D01*
X114602123Y-87149501D01*
X114542516Y-87155908D01*
X114407671Y-87206202D01*
X114407664Y-87206206D01*
X114292455Y-87292452D01*
X114292452Y-87292455D01*
X114206206Y-87407664D01*
X114206202Y-87407671D01*
X114155908Y-87542517D01*
X114149501Y-87602116D01*
X114149500Y-87602135D01*
X114149500Y-87775500D01*
X114129815Y-87842539D01*
X114077011Y-87888294D01*
X114025500Y-87899500D01*
X106079057Y-87899500D01*
X105920942Y-87899500D01*
X105768215Y-87940423D01*
X105768214Y-87940423D01*
X105768212Y-87940424D01*
X105768209Y-87940425D01*
X105718096Y-87969359D01*
X105718095Y-87969360D01*
X105674689Y-87994420D01*
X105631285Y-88019479D01*
X105631282Y-88019481D01*
X105568160Y-88082604D01*
X105519480Y-88131284D01*
X105519478Y-88131286D01*
X101388011Y-92262754D01*
X97287584Y-96363181D01*
X97226261Y-96396666D01*
X97199903Y-96399500D01*
X79902597Y-96399500D01*
X79835558Y-96379815D01*
X79814916Y-96363181D01*
X78608757Y-95157022D01*
X78575272Y-95095699D01*
X78578507Y-95031023D01*
X78592246Y-94988743D01*
X78625500Y-94778787D01*
X78625500Y-94566213D01*
X78592246Y-94356257D01*
X78526557Y-94154088D01*
X78430051Y-93964684D01*
X78430049Y-93964681D01*
X78430048Y-93964679D01*
X78305109Y-93792713D01*
X78154786Y-93642390D01*
X77982817Y-93517449D01*
X77973504Y-93512704D01*
X77922707Y-93464730D01*
X77905912Y-93396909D01*
X77928449Y-93330774D01*
X77973507Y-93291732D01*
X77982555Y-93287122D01*
X78036716Y-93247770D01*
X78036717Y-93247770D01*
X77404408Y-92615462D01*
X77467993Y-92598425D01*
X77582007Y-92532599D01*
X77675099Y-92439507D01*
X77740925Y-92325493D01*
X77757962Y-92261908D01*
X78390270Y-92894217D01*
X78390270Y-92894216D01*
X78429622Y-92840054D01*
X78526095Y-92650717D01*
X78591757Y-92448630D01*
X78591757Y-92448627D01*
X78625000Y-92238746D01*
X78625000Y-92026253D01*
X78591757Y-91816372D01*
X78591757Y-91816369D01*
X78526095Y-91614282D01*
X78429624Y-91424949D01*
X78390270Y-91370782D01*
X78390269Y-91370782D01*
X77757962Y-92003090D01*
X77740925Y-91939507D01*
X77675099Y-91825493D01*
X77582007Y-91732401D01*
X77467993Y-91666575D01*
X77404409Y-91649537D01*
X78036716Y-91017228D01*
X77982547Y-90977873D01*
X77982547Y-90977872D01*
X77973500Y-90973263D01*
X77922706Y-90925288D01*
X77905912Y-90857466D01*
X77928451Y-90791332D01*
X77973508Y-90752293D01*
X77982816Y-90747551D01*
X78062007Y-90690015D01*
X78154786Y-90622609D01*
X78154788Y-90622606D01*
X78154792Y-90622604D01*
X78305104Y-90472292D01*
X78305106Y-90472288D01*
X78305109Y-90472286D01*
X78430048Y-90300320D01*
X78430047Y-90300320D01*
X78430051Y-90300316D01*
X78526557Y-90110912D01*
X78592246Y-89908743D01*
X78625500Y-89698787D01*
X78625500Y-89486213D01*
X78592246Y-89276257D01*
X78526557Y-89074088D01*
X78430051Y-88884684D01*
X78430049Y-88884681D01*
X78430048Y-88884679D01*
X78305109Y-88712713D01*
X78154786Y-88562390D01*
X77982820Y-88437451D01*
X77982115Y-88437091D01*
X77974054Y-88432985D01*
X77923259Y-88385012D01*
X77906463Y-88317192D01*
X77928999Y-88251056D01*
X77974054Y-88212015D01*
X77982816Y-88207551D01*
X78087787Y-88131286D01*
X78154786Y-88082609D01*
X78154788Y-88082606D01*
X78154792Y-88082604D01*
X78305104Y-87932292D01*
X78305106Y-87932288D01*
X78305109Y-87932286D01*
X78430048Y-87760320D01*
X78430047Y-87760320D01*
X78430051Y-87760316D01*
X78526557Y-87570912D01*
X78592246Y-87368743D01*
X78625500Y-87158787D01*
X78625500Y-86946213D01*
X78592246Y-86736257D01*
X78526557Y-86534088D01*
X78430051Y-86344684D01*
X78430049Y-86344681D01*
X78430048Y-86344679D01*
X78305109Y-86172713D01*
X78154786Y-86022390D01*
X77982820Y-85897451D01*
X77982115Y-85897091D01*
X77974054Y-85892985D01*
X77923259Y-85845012D01*
X77906463Y-85777192D01*
X77928999Y-85711056D01*
X77974054Y-85672015D01*
X77982816Y-85667551D01*
X78047135Y-85620821D01*
X78154786Y-85542609D01*
X78154788Y-85542606D01*
X78154792Y-85542604D01*
X78305104Y-85392292D01*
X78305106Y-85392288D01*
X78305109Y-85392286D01*
X78430048Y-85220320D01*
X78430047Y-85220320D01*
X78430051Y-85220316D01*
X78526557Y-85030912D01*
X78592246Y-84828743D01*
X78625500Y-84618787D01*
X78625500Y-84406213D01*
X78592246Y-84196257D01*
X78526557Y-83994088D01*
X78430051Y-83804684D01*
X78430049Y-83804681D01*
X78430048Y-83804679D01*
X78305109Y-83632713D01*
X78154786Y-83482390D01*
X77982820Y-83357451D01*
X77982115Y-83357091D01*
X77974054Y-83352985D01*
X77923259Y-83305012D01*
X77906463Y-83237192D01*
X77928999Y-83171056D01*
X77974054Y-83132015D01*
X77982816Y-83127551D01*
X78004789Y-83111586D01*
X78154786Y-83002609D01*
X78154788Y-83002606D01*
X78154792Y-83002604D01*
X78305104Y-82852292D01*
X78305106Y-82852288D01*
X78305109Y-82852286D01*
X78430048Y-82680320D01*
X78430047Y-82680320D01*
X78430051Y-82680316D01*
X78526557Y-82490912D01*
X78592246Y-82288743D01*
X78625500Y-82078787D01*
X78625500Y-81866213D01*
X78592246Y-81656257D01*
X78526557Y-81454088D01*
X78430051Y-81264684D01*
X78430049Y-81264681D01*
X78430048Y-81264679D01*
X78305109Y-81092713D01*
X78154786Y-80942390D01*
X77982820Y-80817451D01*
X77982115Y-80817091D01*
X77974054Y-80812985D01*
X77923259Y-80765012D01*
X77906463Y-80697192D01*
X77928999Y-80631056D01*
X77974054Y-80592015D01*
X77982816Y-80587551D01*
X78040576Y-80545586D01*
X78154786Y-80462609D01*
X78154788Y-80462606D01*
X78154792Y-80462604D01*
X78305104Y-80312292D01*
X78305106Y-80312288D01*
X78305109Y-80312286D01*
X78430048Y-80140320D01*
X78430047Y-80140320D01*
X78430051Y-80140316D01*
X78526557Y-79950912D01*
X78592246Y-79748743D01*
X78625500Y-79538787D01*
X78625500Y-79326213D01*
X78592246Y-79116257D01*
X78526557Y-78914088D01*
X78430051Y-78724684D01*
X78430049Y-78724681D01*
X78430048Y-78724679D01*
X78305109Y-78552713D01*
X78154786Y-78402390D01*
X77982820Y-78277451D01*
X77982115Y-78277091D01*
X77974054Y-78272985D01*
X77923259Y-78225012D01*
X77906463Y-78157192D01*
X77928999Y-78091056D01*
X77974054Y-78052015D01*
X77982816Y-78047551D01*
X78004789Y-78031586D01*
X78154786Y-77922609D01*
X78154788Y-77922606D01*
X78154792Y-77922604D01*
X78305104Y-77772292D01*
X78305106Y-77772288D01*
X78305109Y-77772286D01*
X78430048Y-77600320D01*
X78430047Y-77600320D01*
X78430051Y-77600316D01*
X78526557Y-77410912D01*
X78592246Y-77208743D01*
X78625500Y-76998787D01*
X78625500Y-76786213D01*
X78592246Y-76576257D01*
X78526557Y-76374088D01*
X78430051Y-76184684D01*
X78430049Y-76184681D01*
X78430048Y-76184679D01*
X78305109Y-76012713D01*
X78154786Y-75862390D01*
X77982820Y-75737451D01*
X77982115Y-75737091D01*
X77974054Y-75732985D01*
X77923259Y-75685012D01*
X77906463Y-75617192D01*
X77928999Y-75551056D01*
X77974054Y-75512015D01*
X77982816Y-75507551D01*
X78040733Y-75465472D01*
X78154786Y-75382609D01*
X78154788Y-75382606D01*
X78154792Y-75382604D01*
X78305104Y-75232292D01*
X78305106Y-75232288D01*
X78305109Y-75232286D01*
X78430048Y-75060320D01*
X78430047Y-75060320D01*
X78430051Y-75060316D01*
X78526557Y-74870912D01*
X78592246Y-74668743D01*
X78625500Y-74458787D01*
X78625500Y-74246213D01*
X78592246Y-74036257D01*
X78526557Y-73834088D01*
X78430051Y-73644684D01*
X78430049Y-73644681D01*
X78430048Y-73644679D01*
X78305109Y-73472713D01*
X78154786Y-73322390D01*
X77982820Y-73197451D01*
X77793414Y-73100944D01*
X77793413Y-73100943D01*
X77793412Y-73100943D01*
X77591243Y-73035254D01*
X77591241Y-73035253D01*
X77591240Y-73035253D01*
X77429957Y-73009708D01*
X77381287Y-73002000D01*
X77168713Y-73002000D01*
X77120042Y-73009708D01*
X76958760Y-73035253D01*
X76756585Y-73100944D01*
X76567179Y-73197451D01*
X76395213Y-73322390D01*
X76244890Y-73472713D01*
X76119951Y-73644679D01*
X76023444Y-73834085D01*
X75957753Y-74036260D01*
X75924500Y-74246213D01*
X75924500Y-74458786D01*
X75942343Y-74571446D01*
X75957754Y-74668743D01*
X76000402Y-74800000D01*
X76023444Y-74870914D01*
X76119951Y-75060320D01*
X76244890Y-75232286D01*
X76395213Y-75382609D01*
X76567182Y-75507550D01*
X76575946Y-75512016D01*
X76626742Y-75559991D01*
X76643536Y-75627812D01*
X76620998Y-75693947D01*
X76575946Y-75732984D01*
X76567182Y-75737449D01*
X76395213Y-75862390D01*
X76244890Y-76012713D01*
X76119951Y-76184679D01*
X76023444Y-76374085D01*
X75957753Y-76576260D01*
X75924500Y-76786213D01*
X75924500Y-76998786D01*
X75957753Y-77208739D01*
X76023444Y-77410914D01*
X76119951Y-77600320D01*
X76244890Y-77772286D01*
X76395213Y-77922609D01*
X76567182Y-78047550D01*
X76575946Y-78052016D01*
X76626742Y-78099991D01*
X76643536Y-78167812D01*
X76620998Y-78233947D01*
X76575946Y-78272984D01*
X76567182Y-78277449D01*
X76395213Y-78402390D01*
X76244890Y-78552713D01*
X76119951Y-78724679D01*
X76023444Y-78914085D01*
X75957753Y-79116260D01*
X75924500Y-79326213D01*
X75924500Y-79538786D01*
X75957753Y-79748739D01*
X75957753Y-79748741D01*
X75957754Y-79748743D01*
X76012431Y-79917022D01*
X76023444Y-79950914D01*
X76119951Y-80140320D01*
X76244890Y-80312286D01*
X76395213Y-80462609D01*
X76567182Y-80587550D01*
X76575946Y-80592016D01*
X76626742Y-80639991D01*
X76643536Y-80707812D01*
X76620998Y-80773947D01*
X76575946Y-80812984D01*
X76567182Y-80817449D01*
X76395213Y-80942390D01*
X76244890Y-81092713D01*
X76119951Y-81264679D01*
X76023444Y-81454085D01*
X75957753Y-81656260D01*
X75924500Y-81866213D01*
X75924500Y-82078786D01*
X75942343Y-82191446D01*
X75957754Y-82288743D01*
X76009401Y-82447696D01*
X76023444Y-82490914D01*
X76119951Y-82680320D01*
X76244890Y-82852286D01*
X76395213Y-83002609D01*
X76567182Y-83127550D01*
X76575946Y-83132016D01*
X76626742Y-83179991D01*
X76643536Y-83247812D01*
X76620998Y-83313947D01*
X76575946Y-83352984D01*
X76567182Y-83357449D01*
X76395213Y-83482390D01*
X76244890Y-83632713D01*
X76119951Y-83804679D01*
X76023444Y-83994085D01*
X75957753Y-84196260D01*
X75924500Y-84406213D01*
X75924500Y-84618786D01*
X75957753Y-84828739D01*
X76023444Y-85030914D01*
X76119951Y-85220320D01*
X76244890Y-85392286D01*
X76395213Y-85542609D01*
X76567182Y-85667550D01*
X76575946Y-85672016D01*
X76626742Y-85719991D01*
X76643536Y-85787812D01*
X76620998Y-85853947D01*
X76575946Y-85892984D01*
X76567182Y-85897449D01*
X76395213Y-86022390D01*
X76244890Y-86172713D01*
X76119951Y-86344679D01*
X76023444Y-86534085D01*
X75957753Y-86736260D01*
X75924500Y-86946213D01*
X75924500Y-87158787D01*
X75934534Y-87222144D01*
X75945670Y-87292452D01*
X75957754Y-87368743D01*
X75970400Y-87407664D01*
X76023444Y-87570914D01*
X76119951Y-87760320D01*
X76244890Y-87932286D01*
X76395213Y-88082609D01*
X76567182Y-88207550D01*
X76575946Y-88212016D01*
X76626742Y-88259991D01*
X76643536Y-88327812D01*
X76620998Y-88393947D01*
X76575946Y-88432984D01*
X76567182Y-88437449D01*
X76395213Y-88562390D01*
X76244890Y-88712713D01*
X76119951Y-88884679D01*
X76023444Y-89074085D01*
X75957753Y-89276260D01*
X75938492Y-89397872D01*
X75924500Y-89486213D01*
X75924500Y-89698787D01*
X75934534Y-89762144D01*
X75943627Y-89819553D01*
X75957754Y-89908743D01*
X76020591Y-90102135D01*
X76023444Y-90110914D01*
X76119951Y-90300320D01*
X76244890Y-90472286D01*
X76395213Y-90622609D01*
X76567179Y-90747548D01*
X76567181Y-90747549D01*
X76567184Y-90747551D01*
X76576493Y-90752294D01*
X76627290Y-90800266D01*
X76644087Y-90868087D01*
X76621552Y-90934222D01*
X76576505Y-90973260D01*
X76567446Y-90977876D01*
X76567440Y-90977880D01*
X76513282Y-91017227D01*
X76513282Y-91017228D01*
X77145591Y-91649537D01*
X77082007Y-91666575D01*
X76967993Y-91732401D01*
X76874901Y-91825493D01*
X76809075Y-91939507D01*
X76792037Y-92003091D01*
X76159728Y-91370782D01*
X76159727Y-91370782D01*
X76120380Y-91424939D01*
X76023904Y-91614282D01*
X75958242Y-91816369D01*
X75958242Y-91816372D01*
X75925000Y-92026253D01*
X75925000Y-92238746D01*
X75958242Y-92448627D01*
X75958242Y-92448630D01*
X76023904Y-92650717D01*
X76120375Y-92840050D01*
X76159728Y-92894216D01*
X76792037Y-92261908D01*
X76809075Y-92325493D01*
X76874901Y-92439507D01*
X76967993Y-92532599D01*
X77082007Y-92598425D01*
X77145590Y-92615462D01*
X76513282Y-93247769D01*
X76513282Y-93247770D01*
X76567452Y-93287126D01*
X76567451Y-93287126D01*
X76576495Y-93291734D01*
X76627292Y-93339708D01*
X76644087Y-93407529D01*
X76621550Y-93473664D01*
X76576499Y-93512702D01*
X76567182Y-93517449D01*
X76395213Y-93642390D01*
X76244890Y-93792713D01*
X76119951Y-93964679D01*
X76023444Y-94154085D01*
X75957753Y-94356260D01*
X75931767Y-94520330D01*
X75924500Y-94566213D01*
X75924500Y-94778787D01*
X75932858Y-94831557D01*
X75957753Y-94988739D01*
X75957753Y-94988741D01*
X75957754Y-94988743D01*
X76012431Y-95157022D01*
X76023444Y-95190914D01*
X76119951Y-95380320D01*
X76244890Y-95552286D01*
X76395213Y-95702609D01*
X76567179Y-95827548D01*
X76567181Y-95827549D01*
X76567184Y-95827551D01*
X76756588Y-95924057D01*
X76958757Y-95989746D01*
X77168713Y-96023000D01*
X77168714Y-96023000D01*
X77381286Y-96023000D01*
X77381287Y-96023000D01*
X77591243Y-95989746D01*
X77633523Y-95976007D01*
X77703362Y-95974011D01*
X77759522Y-96006257D01*
X78342084Y-96588819D01*
X78375569Y-96650142D01*
X78370585Y-96719834D01*
X78328713Y-96775767D01*
X78263249Y-96800184D01*
X78254403Y-96800500D01*
X75201097Y-96800500D01*
X75134058Y-96780815D01*
X75113416Y-96764181D01*
X74636819Y-96287584D01*
X74603334Y-96226261D01*
X74600500Y-96199903D01*
X74600500Y-69025096D01*
X74620185Y-68958057D01*
X74636814Y-68937420D01*
X74938320Y-68635914D01*
X74999642Y-68602430D01*
X75069334Y-68607414D01*
X75125267Y-68649286D01*
X75149684Y-68714750D01*
X75150000Y-68723596D01*
X75150000Y-68871246D01*
X75183242Y-69081127D01*
X75183242Y-69081130D01*
X75248904Y-69283217D01*
X75345375Y-69472550D01*
X75384728Y-69526716D01*
X76017037Y-68894408D01*
X76034075Y-68957993D01*
X76099901Y-69072007D01*
X76192993Y-69165099D01*
X76307007Y-69230925D01*
X76370590Y-69247962D01*
X75738282Y-69880269D01*
X75738282Y-69880270D01*
X75792449Y-69919624D01*
X75981782Y-70016095D01*
X76183870Y-70081757D01*
X76393754Y-70115000D01*
X76606246Y-70115000D01*
X76816127Y-70081757D01*
X76816130Y-70081757D01*
X77018217Y-70016095D01*
X77207554Y-69919622D01*
X77261716Y-69880270D01*
X77261717Y-69880270D01*
X76629408Y-69247962D01*
X76692993Y-69230925D01*
X76807007Y-69165099D01*
X76900099Y-69072007D01*
X76965925Y-68957993D01*
X76982962Y-68894408D01*
X77615270Y-69526717D01*
X77615270Y-69526716D01*
X77654622Y-69472554D01*
X77694794Y-69393713D01*
X84029500Y-69393713D01*
X84029500Y-69606286D01*
X84060260Y-69800500D01*
X84062754Y-69816243D01*
X84127690Y-70016095D01*
X84128444Y-70018414D01*
X84224951Y-70207820D01*
X84349890Y-70379786D01*
X84500213Y-70530109D01*
X84672179Y-70655048D01*
X84672181Y-70655049D01*
X84672184Y-70655051D01*
X84861588Y-70751557D01*
X85063757Y-70817246D01*
X85273713Y-70850500D01*
X85273714Y-70850500D01*
X85486286Y-70850500D01*
X85486287Y-70850500D01*
X85696243Y-70817246D01*
X85898412Y-70751557D01*
X86087816Y-70655051D01*
X86174138Y-70592335D01*
X86259786Y-70530109D01*
X86259788Y-70530106D01*
X86259792Y-70530104D01*
X86410104Y-70379792D01*
X86410106Y-70379788D01*
X86410109Y-70379786D01*
X86535048Y-70207820D01*
X86535047Y-70207820D01*
X86535051Y-70207816D01*
X86539514Y-70199054D01*
X86587488Y-70148259D01*
X86655308Y-70131463D01*
X86721444Y-70153999D01*
X86760486Y-70199056D01*
X86764951Y-70207820D01*
X86889890Y-70379786D01*
X87040213Y-70530109D01*
X87212179Y-70655048D01*
X87212181Y-70655049D01*
X87212184Y-70655051D01*
X87401588Y-70751557D01*
X87603757Y-70817246D01*
X87813713Y-70850500D01*
X87813714Y-70850500D01*
X88026286Y-70850500D01*
X88026287Y-70850500D01*
X88236243Y-70817246D01*
X88438412Y-70751557D01*
X88627816Y-70655051D01*
X88714138Y-70592335D01*
X88799786Y-70530109D01*
X88799788Y-70530106D01*
X88799792Y-70530104D01*
X88950104Y-70379792D01*
X88950106Y-70379788D01*
X88950109Y-70379786D01*
X89075048Y-70207820D01*
X89075047Y-70207820D01*
X89075051Y-70207816D01*
X89079514Y-70199054D01*
X89127488Y-70148259D01*
X89195308Y-70131463D01*
X89261444Y-70153999D01*
X89300486Y-70199056D01*
X89304951Y-70207820D01*
X89429890Y-70379786D01*
X89580213Y-70530109D01*
X89752179Y-70655048D01*
X89752181Y-70655049D01*
X89752184Y-70655051D01*
X89941588Y-70751557D01*
X90143757Y-70817246D01*
X90353713Y-70850500D01*
X90353714Y-70850500D01*
X90566286Y-70850500D01*
X90566287Y-70850500D01*
X90776243Y-70817246D01*
X90978412Y-70751557D01*
X91167816Y-70655051D01*
X91339792Y-70530104D01*
X91453329Y-70416566D01*
X91514648Y-70383084D01*
X91584340Y-70388068D01*
X91640274Y-70429939D01*
X91657189Y-70460917D01*
X91706202Y-70592328D01*
X91706206Y-70592335D01*
X91792452Y-70707544D01*
X91792455Y-70707547D01*
X91907664Y-70793793D01*
X91907671Y-70793797D01*
X92042517Y-70844091D01*
X92042516Y-70844091D01*
X92049444Y-70844835D01*
X92102127Y-70850500D01*
X93897872Y-70850499D01*
X93957483Y-70844091D01*
X94092331Y-70793796D01*
X94207546Y-70707546D01*
X94293796Y-70592331D01*
X94344091Y-70457483D01*
X94350500Y-70397873D01*
X94350499Y-68602128D01*
X94344091Y-68542517D01*
X94342810Y-68539083D01*
X94293797Y-68407671D01*
X94293793Y-68407664D01*
X94207547Y-68292455D01*
X94207544Y-68292452D01*
X94092335Y-68206206D01*
X94092328Y-68206202D01*
X93957482Y-68155908D01*
X93957483Y-68155908D01*
X93897883Y-68149501D01*
X93897881Y-68149500D01*
X93897873Y-68149500D01*
X93897864Y-68149500D01*
X92102129Y-68149500D01*
X92102123Y-68149501D01*
X92042516Y-68155908D01*
X91907671Y-68206202D01*
X91907664Y-68206206D01*
X91792455Y-68292452D01*
X91792452Y-68292455D01*
X91706206Y-68407664D01*
X91706203Y-68407669D01*
X91657189Y-68539083D01*
X91615317Y-68595016D01*
X91549853Y-68619433D01*
X91481580Y-68604581D01*
X91453326Y-68583430D01*
X91339786Y-68469890D01*
X91167820Y-68344951D01*
X90978414Y-68248444D01*
X90978413Y-68248443D01*
X90978412Y-68248443D01*
X90776243Y-68182754D01*
X90776241Y-68182753D01*
X90776240Y-68182753D01*
X90614957Y-68157208D01*
X90566287Y-68149500D01*
X90353713Y-68149500D01*
X90305042Y-68157208D01*
X90143760Y-68182753D01*
X89941585Y-68248444D01*
X89752179Y-68344951D01*
X89580213Y-68469890D01*
X89429890Y-68620213D01*
X89304949Y-68792182D01*
X89300484Y-68800946D01*
X89252509Y-68851742D01*
X89184688Y-68868536D01*
X89118553Y-68845998D01*
X89079516Y-68800946D01*
X89075050Y-68792182D01*
X88950109Y-68620213D01*
X88799786Y-68469890D01*
X88627820Y-68344951D01*
X88438414Y-68248444D01*
X88438413Y-68248443D01*
X88438412Y-68248443D01*
X88236243Y-68182754D01*
X88236241Y-68182753D01*
X88236240Y-68182753D01*
X88074957Y-68157208D01*
X88026287Y-68149500D01*
X87813713Y-68149500D01*
X87765042Y-68157208D01*
X87603760Y-68182753D01*
X87401585Y-68248444D01*
X87212179Y-68344951D01*
X87040213Y-68469890D01*
X86889890Y-68620213D01*
X86764949Y-68792182D01*
X86760484Y-68800946D01*
X86712509Y-68851742D01*
X86644688Y-68868536D01*
X86578553Y-68845998D01*
X86539516Y-68800946D01*
X86535050Y-68792182D01*
X86410109Y-68620213D01*
X86259786Y-68469890D01*
X86087820Y-68344951D01*
X85898414Y-68248444D01*
X85898413Y-68248443D01*
X85898412Y-68248443D01*
X85696243Y-68182754D01*
X85696241Y-68182753D01*
X85696240Y-68182753D01*
X85534957Y-68157208D01*
X85486287Y-68149500D01*
X85273713Y-68149500D01*
X85225042Y-68157208D01*
X85063760Y-68182753D01*
X84861585Y-68248444D01*
X84672179Y-68344951D01*
X84500213Y-68469890D01*
X84349890Y-68620213D01*
X84224951Y-68792179D01*
X84128444Y-68981585D01*
X84062753Y-69183760D01*
X84029500Y-69393713D01*
X77694794Y-69393713D01*
X77725961Y-69332546D01*
X77751095Y-69283217D01*
X77816757Y-69081130D01*
X77816757Y-69081127D01*
X77850000Y-68871246D01*
X77850000Y-68658753D01*
X77816757Y-68448872D01*
X77816757Y-68448869D01*
X77751095Y-68246782D01*
X77654624Y-68057449D01*
X77615270Y-68003282D01*
X77615269Y-68003282D01*
X76982962Y-68635590D01*
X76965925Y-68572007D01*
X76900099Y-68457993D01*
X76807007Y-68364901D01*
X76692993Y-68299075D01*
X76629408Y-68282037D01*
X77299627Y-67611818D01*
X77360950Y-67578333D01*
X77387308Y-67575499D01*
X77397871Y-67575499D01*
X77397872Y-67575499D01*
X77457483Y-67569091D01*
X77592331Y-67518796D01*
X77707546Y-67432546D01*
X77793796Y-67317331D01*
X77844091Y-67182483D01*
X77850500Y-67122873D01*
X77850499Y-65393713D01*
X84029500Y-65393713D01*
X84029500Y-65606286D01*
X84062753Y-65816239D01*
X84128444Y-66018414D01*
X84224951Y-66207820D01*
X84349890Y-66379786D01*
X84500213Y-66530109D01*
X84672179Y-66655048D01*
X84672181Y-66655049D01*
X84672184Y-66655051D01*
X84861588Y-66751557D01*
X85063757Y-66817246D01*
X85273713Y-66850500D01*
X85273714Y-66850500D01*
X85486286Y-66850500D01*
X85486287Y-66850500D01*
X85696243Y-66817246D01*
X85898412Y-66751557D01*
X86087816Y-66655051D01*
X86174138Y-66592335D01*
X86259786Y-66530109D01*
X86259788Y-66530106D01*
X86259792Y-66530104D01*
X86410104Y-66379792D01*
X86410106Y-66379788D01*
X86410109Y-66379786D01*
X86535048Y-66207820D01*
X86535047Y-66207820D01*
X86535051Y-66207816D01*
X86539514Y-66199054D01*
X86587488Y-66148259D01*
X86655308Y-66131463D01*
X86721444Y-66153999D01*
X86760486Y-66199056D01*
X86764951Y-66207820D01*
X86889890Y-66379786D01*
X87040213Y-66530109D01*
X87212179Y-66655048D01*
X87212181Y-66655049D01*
X87212184Y-66655051D01*
X87401588Y-66751557D01*
X87603757Y-66817246D01*
X87813713Y-66850500D01*
X87813714Y-66850500D01*
X88026286Y-66850500D01*
X88026287Y-66850500D01*
X88236243Y-66817246D01*
X88438412Y-66751557D01*
X88627816Y-66655051D01*
X88714138Y-66592335D01*
X88799786Y-66530109D01*
X88799788Y-66530106D01*
X88799792Y-66530104D01*
X88950104Y-66379792D01*
X88950106Y-66379788D01*
X88950109Y-66379786D01*
X89075048Y-66207820D01*
X89075047Y-66207820D01*
X89075051Y-66207816D01*
X89079514Y-66199054D01*
X89127488Y-66148259D01*
X89195308Y-66131463D01*
X89261444Y-66153999D01*
X89300486Y-66199056D01*
X89304951Y-66207820D01*
X89429890Y-66379786D01*
X89580213Y-66530109D01*
X89752179Y-66655048D01*
X89752181Y-66655049D01*
X89752184Y-66655051D01*
X89941588Y-66751557D01*
X90143757Y-66817246D01*
X90353713Y-66850500D01*
X90353714Y-66850500D01*
X90566286Y-66850500D01*
X90566287Y-66850500D01*
X90776243Y-66817246D01*
X90978412Y-66751557D01*
X91167816Y-66655051D01*
X91339792Y-66530104D01*
X91453329Y-66416566D01*
X91514648Y-66383084D01*
X91584340Y-66388068D01*
X91640274Y-66429939D01*
X91657189Y-66460917D01*
X91706202Y-66592328D01*
X91706206Y-66592335D01*
X91792452Y-66707544D01*
X91792455Y-66707547D01*
X91907664Y-66793793D01*
X91907671Y-66793797D01*
X92042517Y-66844091D01*
X92042516Y-66844091D01*
X92049444Y-66844835D01*
X92102127Y-66850500D01*
X93897872Y-66850499D01*
X93957483Y-66844091D01*
X94092331Y-66793796D01*
X94207546Y-66707546D01*
X94293796Y-66592331D01*
X94344091Y-66457483D01*
X94350500Y-66397873D01*
X94350499Y-64602128D01*
X94344091Y-64542517D01*
X94342810Y-64539083D01*
X94293797Y-64407671D01*
X94293793Y-64407664D01*
X94207547Y-64292455D01*
X94207544Y-64292452D01*
X94092335Y-64206206D01*
X94092328Y-64206202D01*
X93957482Y-64155908D01*
X93957483Y-64155908D01*
X93897883Y-64149501D01*
X93897881Y-64149500D01*
X93897873Y-64149500D01*
X93897864Y-64149500D01*
X92102129Y-64149500D01*
X92102123Y-64149501D01*
X92042516Y-64155908D01*
X91907671Y-64206202D01*
X91907664Y-64206206D01*
X91792455Y-64292452D01*
X91792452Y-64292455D01*
X91706206Y-64407664D01*
X91706203Y-64407669D01*
X91657189Y-64539083D01*
X91615317Y-64595016D01*
X91549853Y-64619433D01*
X91481580Y-64604581D01*
X91453326Y-64583430D01*
X91339786Y-64469890D01*
X91167820Y-64344951D01*
X90978414Y-64248444D01*
X90978413Y-64248443D01*
X90978412Y-64248443D01*
X90776243Y-64182754D01*
X90776241Y-64182753D01*
X90776240Y-64182753D01*
X90614957Y-64157208D01*
X90566287Y-64149500D01*
X90353713Y-64149500D01*
X90305042Y-64157208D01*
X90143760Y-64182753D01*
X89941585Y-64248444D01*
X89752179Y-64344951D01*
X89580213Y-64469890D01*
X89429890Y-64620213D01*
X89304949Y-64792182D01*
X89300484Y-64800946D01*
X89252509Y-64851742D01*
X89184688Y-64868536D01*
X89118553Y-64845998D01*
X89079516Y-64800946D01*
X89075050Y-64792182D01*
X88950109Y-64620213D01*
X88799786Y-64469890D01*
X88627820Y-64344951D01*
X88438414Y-64248444D01*
X88438413Y-64248443D01*
X88438412Y-64248443D01*
X88236243Y-64182754D01*
X88236241Y-64182753D01*
X88236240Y-64182753D01*
X88074957Y-64157208D01*
X88026287Y-64149500D01*
X87813713Y-64149500D01*
X87765042Y-64157208D01*
X87603760Y-64182753D01*
X87401585Y-64248444D01*
X87212179Y-64344951D01*
X87040213Y-64469890D01*
X86889890Y-64620213D01*
X86764949Y-64792182D01*
X86760484Y-64800946D01*
X86712509Y-64851742D01*
X86644688Y-64868536D01*
X86578553Y-64845998D01*
X86539516Y-64800946D01*
X86535050Y-64792182D01*
X86410109Y-64620213D01*
X86259786Y-64469890D01*
X86087820Y-64344951D01*
X85898414Y-64248444D01*
X85898413Y-64248443D01*
X85898412Y-64248443D01*
X85696243Y-64182754D01*
X85696241Y-64182753D01*
X85696240Y-64182753D01*
X85534957Y-64157208D01*
X85486287Y-64149500D01*
X85273713Y-64149500D01*
X85225042Y-64157208D01*
X85063760Y-64182753D01*
X84861585Y-64248444D01*
X84672179Y-64344951D01*
X84500213Y-64469890D01*
X84349890Y-64620213D01*
X84224951Y-64792179D01*
X84128444Y-64981585D01*
X84062753Y-65183760D01*
X84029500Y-65393713D01*
X77850499Y-65393713D01*
X77850499Y-65327128D01*
X77844091Y-65267517D01*
X77793796Y-65132669D01*
X77793795Y-65132668D01*
X77793793Y-65132664D01*
X77707547Y-65017455D01*
X77707544Y-65017452D01*
X77592335Y-64931206D01*
X77592328Y-64931202D01*
X77457482Y-64880908D01*
X77457483Y-64880908D01*
X77397883Y-64874501D01*
X77397881Y-64874500D01*
X77397873Y-64874500D01*
X77397864Y-64874500D01*
X75602129Y-64874500D01*
X75602123Y-64874501D01*
X75542516Y-64880908D01*
X75407671Y-64931202D01*
X75407664Y-64931206D01*
X75292455Y-65017452D01*
X75292452Y-65017455D01*
X75206206Y-65132664D01*
X75206202Y-65132671D01*
X75155908Y-65267517D01*
X75149501Y-65327116D01*
X75149501Y-65327123D01*
X75149500Y-65327135D01*
X75149500Y-66674902D01*
X75129815Y-66741941D01*
X75113181Y-66762583D01*
X73519481Y-68356282D01*
X73519479Y-68356285D01*
X73487713Y-68411307D01*
X73487712Y-68411309D01*
X73440423Y-68493214D01*
X73427589Y-68541111D01*
X73399499Y-68645943D01*
X73399499Y-68645945D01*
X73399499Y-68814046D01*
X73399500Y-68814059D01*
X73399500Y-96413330D01*
X73399499Y-96413339D01*
X73399499Y-96579056D01*
X73407402Y-96608550D01*
X73405739Y-96678399D01*
X73366577Y-96736262D01*
X73302348Y-96763766D01*
X73233446Y-96752180D01*
X73199946Y-96728324D01*
X73134403Y-96662781D01*
X73124473Y-96651573D01*
X73080384Y-96595297D01*
X72947573Y-96425776D01*
X72939075Y-96413465D01*
X72790680Y-96167989D01*
X72783727Y-96154743D01*
X72666000Y-95893163D01*
X72660693Y-95879167D01*
X72637195Y-95803760D01*
X72575363Y-95605335D01*
X72571780Y-95590798D01*
X72568035Y-95570364D01*
X72520075Y-95308657D01*
X72518271Y-95293794D01*
X72500726Y-95003736D01*
X72500500Y-94996249D01*
X72500500Y-65003750D01*
X72500726Y-64996263D01*
X72504661Y-64931202D01*
X72518271Y-64706201D01*
X72520076Y-64691340D01*
X72533112Y-64620208D01*
X72571780Y-64409197D01*
X72575364Y-64394663D01*
X72660696Y-64120822D01*
X72665998Y-64106841D01*
X72783731Y-63845249D01*
X72790676Y-63832016D01*
X72939080Y-63586526D01*
X72947567Y-63574230D01*
X73124480Y-63348417D01*
X73134395Y-63337226D01*
X73337226Y-63134395D01*
X73348417Y-63124480D01*
X73574230Y-62947567D01*
X73586526Y-62939080D01*
X73832016Y-62790676D01*
X73845249Y-62783731D01*
X74106841Y-62665998D01*
X74120822Y-62660696D01*
X74394668Y-62575362D01*
X74409197Y-62571780D01*
X74691344Y-62520075D01*
X74706201Y-62518271D01*
X74996264Y-62500726D01*
X75003751Y-62500500D01*
X75065892Y-62500500D01*
X130934108Y-62500500D01*
X130996249Y-62500500D01*
X131003736Y-62500726D01*
G37*
%TD.AperFunction*%
%TA.AperFunction,Conductor*%
G36*
X114918834Y-73162914D02*
G01*
X114974767Y-73204786D01*
X114999184Y-73270250D01*
X114999500Y-73279096D01*
X114999500Y-73332351D01*
X115031522Y-73534534D01*
X115094781Y-73729223D01*
X115158131Y-73853553D01*
X115181797Y-73900000D01*
X115187715Y-73911613D01*
X115308028Y-74077213D01*
X115452786Y-74221971D01*
X115607749Y-74334556D01*
X115618390Y-74342287D01*
X115709840Y-74388883D01*
X115711080Y-74389515D01*
X115761876Y-74437490D01*
X115778671Y-74505311D01*
X115756134Y-74571446D01*
X115711080Y-74610485D01*
X115618386Y-74657715D01*
X115452786Y-74778028D01*
X115308028Y-74922786D01*
X115187715Y-75088386D01*
X115094781Y-75270776D01*
X115031522Y-75465465D01*
X114999500Y-75667648D01*
X114999500Y-75872351D01*
X115031522Y-76074534D01*
X115094781Y-76269223D01*
X115187715Y-76451613D01*
X115308028Y-76617213D01*
X115452786Y-76761971D01*
X115607749Y-76874556D01*
X115618390Y-76882287D01*
X115709840Y-76928883D01*
X115711080Y-76929515D01*
X115761876Y-76977490D01*
X115778671Y-77045311D01*
X115756134Y-77111446D01*
X115711080Y-77150485D01*
X115618386Y-77197715D01*
X115452786Y-77318028D01*
X115308028Y-77462786D01*
X115187715Y-77628386D01*
X115094781Y-77810776D01*
X115031522Y-78005465D01*
X114999500Y-78207648D01*
X114999500Y-78412351D01*
X115031522Y-78614534D01*
X115094781Y-78809223D01*
X115187715Y-78991613D01*
X115308028Y-79157213D01*
X115452786Y-79301971D01*
X115607749Y-79414556D01*
X115618390Y-79422287D01*
X115690424Y-79458990D01*
X115711629Y-79469795D01*
X115762425Y-79517770D01*
X115779220Y-79585591D01*
X115756682Y-79651726D01*
X115711629Y-79690765D01*
X115618650Y-79738140D01*
X115453105Y-79858417D01*
X115453104Y-79858417D01*
X115308417Y-80003104D01*
X115308417Y-80003105D01*
X115188140Y-80168650D01*
X115095244Y-80350970D01*
X115032009Y-80545586D01*
X115023391Y-80600000D01*
X115984314Y-80600000D01*
X115979920Y-80604394D01*
X115927259Y-80695606D01*
X115900000Y-80797339D01*
X115900000Y-80902661D01*
X115927259Y-81004394D01*
X115979920Y-81095606D01*
X115984314Y-81100000D01*
X115014263Y-81100000D01*
X114976381Y-81124728D01*
X114906513Y-81125226D01*
X114852920Y-81093684D01*
X113146589Y-79387354D01*
X113146588Y-79387352D01*
X113027717Y-79268481D01*
X113027709Y-79268475D01*
X112927292Y-79210500D01*
X112927291Y-79210499D01*
X112927291Y-79210500D01*
X112890785Y-79189423D01*
X112738057Y-79148499D01*
X112594698Y-79148499D01*
X112527659Y-79128814D01*
X112481904Y-79076010D01*
X112471960Y-79006852D01*
X112484213Y-78968204D01*
X112565218Y-78809223D01*
X112565218Y-78809222D01*
X112565220Y-78809219D01*
X112628477Y-78614534D01*
X112660500Y-78412352D01*
X112660500Y-78207648D01*
X112656270Y-78180943D01*
X112628477Y-78005465D01*
X112565218Y-77810776D01*
X112531503Y-77744607D01*
X112472287Y-77628390D01*
X112451890Y-77600316D01*
X112351971Y-77462786D01*
X112207213Y-77318028D01*
X112041614Y-77197715D01*
X112035006Y-77194348D01*
X111948917Y-77150483D01*
X111898123Y-77102511D01*
X111881328Y-77034690D01*
X111903865Y-76968555D01*
X111948917Y-76929516D01*
X112041610Y-76882287D01*
X112173846Y-76786213D01*
X112207213Y-76761971D01*
X112207215Y-76761968D01*
X112207219Y-76761966D01*
X112351966Y-76617219D01*
X112351968Y-76617215D01*
X112351971Y-76617213D01*
X112404732Y-76544590D01*
X112472287Y-76451610D01*
X112565220Y-76269219D01*
X112628477Y-76074534D01*
X112660500Y-75872352D01*
X112660500Y-75667648D01*
X112656270Y-75640943D01*
X112628478Y-75465472D01*
X112628477Y-75465471D01*
X112628477Y-75465466D01*
X112623825Y-75451151D01*
X112621832Y-75381312D01*
X112654075Y-75325158D01*
X114787819Y-73191415D01*
X114849142Y-73157930D01*
X114918834Y-73162914D01*
G37*
%TD.AperFunction*%
%TD*%
%TA.AperFunction,NonConductor*%
G36*
X109978834Y-78102914D02*
G01*
X110034767Y-78144786D01*
X110059184Y-78210250D01*
X110059500Y-78219096D01*
X110059500Y-78412351D01*
X110091522Y-78614534D01*
X110154781Y-78809223D01*
X110247715Y-78991613D01*
X110368028Y-79157213D01*
X110419583Y-79208768D01*
X110453068Y-79270091D01*
X110448084Y-79339783D01*
X110419583Y-79384130D01*
X107050534Y-82753181D01*
X106989211Y-82786666D01*
X106962853Y-82789500D01*
X105311705Y-82789500D01*
X105298217Y-82785539D01*
X105284186Y-82786408D01*
X105265356Y-82775890D01*
X105244666Y-82769815D01*
X105235460Y-82759191D01*
X105223187Y-82752336D01*
X105213032Y-82733308D01*
X105198911Y-82717011D01*
X105196910Y-82703096D01*
X105190292Y-82690695D01*
X105192036Y-82669200D01*
X105188967Y-82647853D01*
X105194806Y-82635065D01*
X105195944Y-82621054D01*
X105209033Y-82603914D01*
X105217992Y-82584297D01*
X105230665Y-82575587D01*
X105238350Y-82565525D01*
X105261410Y-82554458D01*
X105269488Y-82548908D01*
X105274480Y-82547100D01*
X105410785Y-82510577D01*
X105460904Y-82481639D01*
X105547716Y-82431520D01*
X105659520Y-82319716D01*
X105659520Y-82319714D01*
X105669728Y-82309507D01*
X105669730Y-82309504D01*
X109847819Y-78131415D01*
X109909142Y-78097930D01*
X109978834Y-78102914D01*
G37*
%TD.AperFunction*%
%TA.AperFunction,NonConductor*%
G36*
X112865703Y-80805384D02*
G01*
X112872179Y-80811414D01*
X113992361Y-81931597D01*
X115005921Y-82945157D01*
X115039406Y-83006480D01*
X115036173Y-83071149D01*
X115031523Y-83085460D01*
X115031523Y-83085462D01*
X114999500Y-83287648D01*
X114999500Y-83340903D01*
X114979815Y-83407942D01*
X114927011Y-83453697D01*
X114857853Y-83463641D01*
X114794297Y-83434616D01*
X114787819Y-83428584D01*
X112654077Y-81294842D01*
X112620592Y-81233519D01*
X112623828Y-81168841D01*
X112628477Y-81154534D01*
X112660500Y-80952352D01*
X112660500Y-80899097D01*
X112680185Y-80832058D01*
X112732989Y-80786303D01*
X112802147Y-80776359D01*
X112865703Y-80805384D01*
G37*
%TD.AperFunction*%
%TA.AperFunction,NonConductor*%
G36*
X116442538Y-84710185D02*
G01*
X116488293Y-84762989D01*
X116499499Y-84814500D01*
X116499499Y-87025500D01*
X116496948Y-87034185D01*
X116498237Y-87043147D01*
X116487258Y-87067187D01*
X116479814Y-87092539D01*
X116472973Y-87098466D01*
X116469212Y-87106703D01*
X116446977Y-87120992D01*
X116427010Y-87138294D01*
X116416495Y-87140581D01*
X116410434Y-87144477D01*
X116375499Y-87149500D01*
X116224500Y-87149500D01*
X116157461Y-87129815D01*
X116111706Y-87077011D01*
X116100500Y-87025500D01*
X116100500Y-84910945D01*
X116100500Y-84910943D01*
X116083257Y-84846591D01*
X116084920Y-84776744D01*
X116124082Y-84718881D01*
X116188311Y-84691377D01*
X116203032Y-84690500D01*
X116375499Y-84690500D01*
X116442538Y-84710185D01*
G37*
%TD.AperFunction*%
%TA.AperFunction,NonConductor*%
G36*
X114092540Y-89120185D02*
G01*
X114138295Y-89172989D01*
X114149501Y-89224500D01*
X114149501Y-89397876D01*
X114155908Y-89457483D01*
X114206202Y-89592328D01*
X114206204Y-89592331D01*
X114255035Y-89657561D01*
X114279453Y-89723024D01*
X114264602Y-89791297D01*
X114243450Y-89819553D01*
X113980286Y-90082718D01*
X113868481Y-90194522D01*
X113868480Y-90194524D01*
X113825645Y-90268717D01*
X113789423Y-90331455D01*
X113748499Y-90484183D01*
X113748499Y-90484185D01*
X113748499Y-90652286D01*
X113748500Y-90652299D01*
X113748500Y-92342330D01*
X113748499Y-92342348D01*
X113748499Y-92508054D01*
X113748498Y-92508054D01*
X113789423Y-92660787D01*
X113808234Y-92693366D01*
X113808235Y-92693369D01*
X113868475Y-92797709D01*
X113868481Y-92797717D01*
X113987349Y-92916585D01*
X113987355Y-92916590D01*
X114166241Y-93095476D01*
X114199726Y-93156799D01*
X114196492Y-93221473D01*
X114182753Y-93263757D01*
X114157858Y-93420943D01*
X114149500Y-93473713D01*
X114149500Y-93686287D01*
X114156898Y-93732993D01*
X114182754Y-93896244D01*
X114182754Y-93896247D01*
X114196491Y-93938523D01*
X114198486Y-94008364D01*
X114166241Y-94064522D01*
X111466584Y-96764181D01*
X111405261Y-96797666D01*
X111378903Y-96800500D01*
X98848097Y-96800500D01*
X98781058Y-96780815D01*
X98735303Y-96728011D01*
X98725359Y-96658853D01*
X98754384Y-96595297D01*
X98760416Y-96588819D01*
X106212416Y-89136819D01*
X106273739Y-89103334D01*
X106300097Y-89100500D01*
X114025501Y-89100500D01*
X114092540Y-89120185D01*
G37*
%TD.AperFunction*%
%TA.AperFunction,NonConductor*%
G36*
X114068834Y-95962914D02*
G01*
X114124767Y-96004786D01*
X114149184Y-96070250D01*
X114149500Y-96079096D01*
X114149500Y-96226286D01*
X114180330Y-96420943D01*
X114182754Y-96436243D01*
X114238740Y-96608550D01*
X114248444Y-96638414D01*
X114344951Y-96827820D01*
X114469890Y-96999786D01*
X114620209Y-97150105D01*
X114620214Y-97150109D01*
X114792363Y-97275182D01*
X114835029Y-97330511D01*
X114841008Y-97400125D01*
X114808403Y-97461920D01*
X114747564Y-97496277D01*
X114719478Y-97499500D01*
X112729097Y-97499500D01*
X112662058Y-97479815D01*
X112616303Y-97427011D01*
X112606359Y-97357853D01*
X112635384Y-97294297D01*
X112641416Y-97287819D01*
X113279093Y-96650142D01*
X113937819Y-95991414D01*
X113999142Y-95957930D01*
X114068834Y-95962914D01*
G37*
%TD.AperFunction*%
M02*
