%TF.GenerationSoftware,KiCad,Pcbnew,9.0.7*%
%TF.CreationDate,2026-05-01T23:16:42+02:00*%
%TF.ProjectId,SLIDER_PCB_REV_A,534c4944-4552-45f5-9043-425f5245565f,rev?*%
%TF.SameCoordinates,Original*%
%TF.FileFunction,Legend,Bot*%
%TF.FilePolarity,Positive*%
%FSLAX46Y46*%
G04 Gerber Fmt 4.6, Leading zero omitted, Abs format (unit mm)*
G04 Created by KiCad (PCBNEW 9.0.7) date 2026-05-01 23:16:42*
%MOMM*%
%LPD*%
G01*
G04 APERTURE LIST*
%ADD10C,0.100000*%
%ADD11C,0.150000*%
%ADD12C,0.120000*%
G04 APERTURE END LIST*
D10*
X129172306Y-93420038D02*
X129267544Y-93372419D01*
X129267544Y-93372419D02*
X129410401Y-93372419D01*
X129410401Y-93372419D02*
X129553258Y-93420038D01*
X129553258Y-93420038D02*
X129648496Y-93515276D01*
X129648496Y-93515276D02*
X129696115Y-93610514D01*
X129696115Y-93610514D02*
X129743734Y-93800990D01*
X129743734Y-93800990D02*
X129743734Y-93943847D01*
X129743734Y-93943847D02*
X129696115Y-94134323D01*
X129696115Y-94134323D02*
X129648496Y-94229561D01*
X129648496Y-94229561D02*
X129553258Y-94324800D01*
X129553258Y-94324800D02*
X129410401Y-94372419D01*
X129410401Y-94372419D02*
X129315163Y-94372419D01*
X129315163Y-94372419D02*
X129172306Y-94324800D01*
X129172306Y-94324800D02*
X129124687Y-94277180D01*
X129124687Y-94277180D02*
X129124687Y-93943847D01*
X129124687Y-93943847D02*
X129315163Y-93943847D01*
X128696115Y-94372419D02*
X128696115Y-93372419D01*
X128696115Y-93372419D02*
X128124687Y-94372419D01*
X128124687Y-94372419D02*
X128124687Y-93372419D01*
X127648496Y-94372419D02*
X127648496Y-93372419D01*
X127648496Y-93372419D02*
X127410401Y-93372419D01*
X127410401Y-93372419D02*
X127267544Y-93420038D01*
X127267544Y-93420038D02*
X127172306Y-93515276D01*
X127172306Y-93515276D02*
X127124687Y-93610514D01*
X127124687Y-93610514D02*
X127077068Y-93800990D01*
X127077068Y-93800990D02*
X127077068Y-93943847D01*
X127077068Y-93943847D02*
X127124687Y-94134323D01*
X127124687Y-94134323D02*
X127172306Y-94229561D01*
X127172306Y-94229561D02*
X127267544Y-94324800D01*
X127267544Y-94324800D02*
X127410401Y-94372419D01*
X127410401Y-94372419D02*
X127648496Y-94372419D01*
X131743734Y-91324800D02*
X131600877Y-91372419D01*
X131600877Y-91372419D02*
X131362782Y-91372419D01*
X131362782Y-91372419D02*
X131267544Y-91324800D01*
X131267544Y-91324800D02*
X131219925Y-91277180D01*
X131219925Y-91277180D02*
X131172306Y-91181942D01*
X131172306Y-91181942D02*
X131172306Y-91086704D01*
X131172306Y-91086704D02*
X131219925Y-90991466D01*
X131219925Y-90991466D02*
X131267544Y-90943847D01*
X131267544Y-90943847D02*
X131362782Y-90896228D01*
X131362782Y-90896228D02*
X131553258Y-90848609D01*
X131553258Y-90848609D02*
X131648496Y-90800990D01*
X131648496Y-90800990D02*
X131696115Y-90753371D01*
X131696115Y-90753371D02*
X131743734Y-90658133D01*
X131743734Y-90658133D02*
X131743734Y-90562895D01*
X131743734Y-90562895D02*
X131696115Y-90467657D01*
X131696115Y-90467657D02*
X131648496Y-90420038D01*
X131648496Y-90420038D02*
X131553258Y-90372419D01*
X131553258Y-90372419D02*
X131315163Y-90372419D01*
X131315163Y-90372419D02*
X131172306Y-90420038D01*
X130743734Y-91372419D02*
X130743734Y-90372419D01*
X129743735Y-90420038D02*
X129838973Y-90372419D01*
X129838973Y-90372419D02*
X129981830Y-90372419D01*
X129981830Y-90372419D02*
X130124687Y-90420038D01*
X130124687Y-90420038D02*
X130219925Y-90515276D01*
X130219925Y-90515276D02*
X130267544Y-90610514D01*
X130267544Y-90610514D02*
X130315163Y-90800990D01*
X130315163Y-90800990D02*
X130315163Y-90943847D01*
X130315163Y-90943847D02*
X130267544Y-91134323D01*
X130267544Y-91134323D02*
X130219925Y-91229561D01*
X130219925Y-91229561D02*
X130124687Y-91324800D01*
X130124687Y-91324800D02*
X129981830Y-91372419D01*
X129981830Y-91372419D02*
X129886592Y-91372419D01*
X129886592Y-91372419D02*
X129743735Y-91324800D01*
X129743735Y-91324800D02*
X129696116Y-91277180D01*
X129696116Y-91277180D02*
X129696116Y-90943847D01*
X129696116Y-90943847D02*
X129886592Y-90943847D01*
X129267544Y-91372419D02*
X129267544Y-90372419D01*
X129267544Y-90372419D02*
X128696116Y-91372419D01*
X128696116Y-91372419D02*
X128696116Y-90372419D01*
X128267544Y-91086704D02*
X127791354Y-91086704D01*
X128362782Y-91372419D02*
X128029449Y-90372419D01*
X128029449Y-90372419D02*
X127696116Y-91372419D01*
X126886592Y-91372419D02*
X127362782Y-91372419D01*
X127362782Y-91372419D02*
X127362782Y-90372419D01*
X108372419Y-69827693D02*
X108372419Y-69256265D01*
X108372419Y-69541979D02*
X107372419Y-69541979D01*
X107372419Y-69541979D02*
X107515276Y-69446741D01*
X107515276Y-69446741D02*
X107610514Y-69351503D01*
X107610514Y-69351503D02*
X107658133Y-69256265D01*
X107372419Y-70446741D02*
X107372419Y-70541979D01*
X107372419Y-70541979D02*
X107420038Y-70637217D01*
X107420038Y-70637217D02*
X107467657Y-70684836D01*
X107467657Y-70684836D02*
X107562895Y-70732455D01*
X107562895Y-70732455D02*
X107753371Y-70780074D01*
X107753371Y-70780074D02*
X107991466Y-70780074D01*
X107991466Y-70780074D02*
X108181942Y-70732455D01*
X108181942Y-70732455D02*
X108277180Y-70684836D01*
X108277180Y-70684836D02*
X108324800Y-70637217D01*
X108324800Y-70637217D02*
X108372419Y-70541979D01*
X108372419Y-70541979D02*
X108372419Y-70446741D01*
X108372419Y-70446741D02*
X108324800Y-70351503D01*
X108324800Y-70351503D02*
X108277180Y-70303884D01*
X108277180Y-70303884D02*
X108181942Y-70256265D01*
X108181942Y-70256265D02*
X107991466Y-70208646D01*
X107991466Y-70208646D02*
X107753371Y-70208646D01*
X107753371Y-70208646D02*
X107562895Y-70256265D01*
X107562895Y-70256265D02*
X107467657Y-70303884D01*
X107467657Y-70303884D02*
X107420038Y-70351503D01*
X107420038Y-70351503D02*
X107372419Y-70446741D01*
X107372419Y-71399122D02*
X107372419Y-71494360D01*
X107372419Y-71494360D02*
X107420038Y-71589598D01*
X107420038Y-71589598D02*
X107467657Y-71637217D01*
X107467657Y-71637217D02*
X107562895Y-71684836D01*
X107562895Y-71684836D02*
X107753371Y-71732455D01*
X107753371Y-71732455D02*
X107991466Y-71732455D01*
X107991466Y-71732455D02*
X108181942Y-71684836D01*
X108181942Y-71684836D02*
X108277180Y-71637217D01*
X108277180Y-71637217D02*
X108324800Y-71589598D01*
X108324800Y-71589598D02*
X108372419Y-71494360D01*
X108372419Y-71494360D02*
X108372419Y-71399122D01*
X108372419Y-71399122D02*
X108324800Y-71303884D01*
X108324800Y-71303884D02*
X108277180Y-71256265D01*
X108277180Y-71256265D02*
X108181942Y-71208646D01*
X108181942Y-71208646D02*
X107991466Y-71161027D01*
X107991466Y-71161027D02*
X107753371Y-71161027D01*
X107753371Y-71161027D02*
X107562895Y-71208646D01*
X107562895Y-71208646D02*
X107467657Y-71256265D01*
X107467657Y-71256265D02*
X107420038Y-71303884D01*
X107420038Y-71303884D02*
X107372419Y-71399122D01*
X107705752Y-72161027D02*
X108705752Y-72161027D01*
X108229561Y-72637217D02*
X108324800Y-72684836D01*
X108324800Y-72684836D02*
X108372419Y-72780074D01*
X108229561Y-72161027D02*
X108324800Y-72208646D01*
X108324800Y-72208646D02*
X108372419Y-72303884D01*
X108372419Y-72303884D02*
X108372419Y-72494360D01*
X108372419Y-72494360D02*
X108324800Y-72589598D01*
X108324800Y-72589598D02*
X108229561Y-72637217D01*
X108229561Y-72637217D02*
X107705752Y-72637217D01*
X107848609Y-73541979D02*
X107848609Y-73208646D01*
X108372419Y-73208646D02*
X107372419Y-73208646D01*
X107372419Y-73208646D02*
X107372419Y-73684836D01*
D11*
X94834819Y-65166666D02*
X95549104Y-65166666D01*
X95549104Y-65166666D02*
X95691961Y-65119047D01*
X95691961Y-65119047D02*
X95787200Y-65023809D01*
X95787200Y-65023809D02*
X95834819Y-64880952D01*
X95834819Y-64880952D02*
X95834819Y-64785714D01*
X94930057Y-65595238D02*
X94882438Y-65642857D01*
X94882438Y-65642857D02*
X94834819Y-65738095D01*
X94834819Y-65738095D02*
X94834819Y-65976190D01*
X94834819Y-65976190D02*
X94882438Y-66071428D01*
X94882438Y-66071428D02*
X94930057Y-66119047D01*
X94930057Y-66119047D02*
X95025295Y-66166666D01*
X95025295Y-66166666D02*
X95120533Y-66166666D01*
X95120533Y-66166666D02*
X95263390Y-66119047D01*
X95263390Y-66119047D02*
X95834819Y-65547619D01*
X95834819Y-65547619D02*
X95834819Y-66166666D01*
X103359580Y-70833333D02*
X103407200Y-70785714D01*
X103407200Y-70785714D02*
X103454819Y-70642857D01*
X103454819Y-70642857D02*
X103454819Y-70547619D01*
X103454819Y-70547619D02*
X103407200Y-70404762D01*
X103407200Y-70404762D02*
X103311961Y-70309524D01*
X103311961Y-70309524D02*
X103216723Y-70261905D01*
X103216723Y-70261905D02*
X103026247Y-70214286D01*
X103026247Y-70214286D02*
X102883390Y-70214286D01*
X102883390Y-70214286D02*
X102692914Y-70261905D01*
X102692914Y-70261905D02*
X102597676Y-70309524D01*
X102597676Y-70309524D02*
X102502438Y-70404762D01*
X102502438Y-70404762D02*
X102454819Y-70547619D01*
X102454819Y-70547619D02*
X102454819Y-70642857D01*
X102454819Y-70642857D02*
X102502438Y-70785714D01*
X102502438Y-70785714D02*
X102550057Y-70833333D01*
X102550057Y-71214286D02*
X102502438Y-71261905D01*
X102502438Y-71261905D02*
X102454819Y-71357143D01*
X102454819Y-71357143D02*
X102454819Y-71595238D01*
X102454819Y-71595238D02*
X102502438Y-71690476D01*
X102502438Y-71690476D02*
X102550057Y-71738095D01*
X102550057Y-71738095D02*
X102645295Y-71785714D01*
X102645295Y-71785714D02*
X102740533Y-71785714D01*
X102740533Y-71785714D02*
X102883390Y-71738095D01*
X102883390Y-71738095D02*
X103454819Y-71166667D01*
X103454819Y-71166667D02*
X103454819Y-71785714D01*
X124833333Y-88074819D02*
X124833333Y-88789104D01*
X124833333Y-88789104D02*
X124880952Y-88931961D01*
X124880952Y-88931961D02*
X124976190Y-89027200D01*
X124976190Y-89027200D02*
X125119047Y-89074819D01*
X125119047Y-89074819D02*
X125214285Y-89074819D01*
X123880952Y-88074819D02*
X124357142Y-88074819D01*
X124357142Y-88074819D02*
X124404761Y-88551009D01*
X124404761Y-88551009D02*
X124357142Y-88503390D01*
X124357142Y-88503390D02*
X124261904Y-88455771D01*
X124261904Y-88455771D02*
X124023809Y-88455771D01*
X124023809Y-88455771D02*
X123928571Y-88503390D01*
X123928571Y-88503390D02*
X123880952Y-88551009D01*
X123880952Y-88551009D02*
X123833333Y-88646247D01*
X123833333Y-88646247D02*
X123833333Y-88884342D01*
X123833333Y-88884342D02*
X123880952Y-88979580D01*
X123880952Y-88979580D02*
X123928571Y-89027200D01*
X123928571Y-89027200D02*
X124023809Y-89074819D01*
X124023809Y-89074819D02*
X124261904Y-89074819D01*
X124261904Y-89074819D02*
X124357142Y-89027200D01*
X124357142Y-89027200D02*
X124404761Y-88979580D01*
X94834819Y-69166666D02*
X95549104Y-69166666D01*
X95549104Y-69166666D02*
X95691961Y-69119047D01*
X95691961Y-69119047D02*
X95787200Y-69023809D01*
X95787200Y-69023809D02*
X95834819Y-68880952D01*
X95834819Y-68880952D02*
X95834819Y-68785714D01*
X94834819Y-69547619D02*
X94834819Y-70166666D01*
X94834819Y-70166666D02*
X95215771Y-69833333D01*
X95215771Y-69833333D02*
X95215771Y-69976190D01*
X95215771Y-69976190D02*
X95263390Y-70071428D01*
X95263390Y-70071428D02*
X95311009Y-70119047D01*
X95311009Y-70119047D02*
X95406247Y-70166666D01*
X95406247Y-70166666D02*
X95644342Y-70166666D01*
X95644342Y-70166666D02*
X95739580Y-70119047D01*
X95739580Y-70119047D02*
X95787200Y-70071428D01*
X95787200Y-70071428D02*
X95834819Y-69976190D01*
X95834819Y-69976190D02*
X95834819Y-69690476D01*
X95834819Y-69690476D02*
X95787200Y-69595238D01*
X95787200Y-69595238D02*
X95739580Y-69547619D01*
D12*
%TO.C,J2*%
X84000000Y-66880000D02*
X84000000Y-64120000D01*
X91730000Y-64120000D02*
X84000000Y-64120000D01*
X91730000Y-66880000D02*
X84000000Y-66880000D01*
X91730000Y-66880000D02*
X91730000Y-64120000D01*
X93000000Y-66880000D02*
X94380000Y-66880000D01*
X94380000Y-66880000D02*
X94380000Y-65500000D01*
%TO.C,C2*%
X104130000Y-68380000D02*
X104130000Y-73620000D01*
X104130000Y-73620000D02*
X104467000Y-73620000D01*
X104467000Y-68380000D02*
X104130000Y-68380000D01*
X106533000Y-73620000D02*
X106870000Y-73620000D01*
X106870000Y-68380000D02*
X106533000Y-68380000D01*
X106870000Y-73620000D02*
X106870000Y-68380000D01*
%TO.C,J5*%
X123120000Y-92270000D02*
X123120000Y-94920000D01*
X125880000Y-89620000D02*
X124500000Y-89620000D01*
X125880000Y-91000000D02*
X125880000Y-89620000D01*
X125880000Y-92270000D02*
X123120000Y-92270000D01*
X125880000Y-92270000D02*
X125880000Y-94920000D01*
X125880000Y-94920000D02*
X123120000Y-94920000D01*
%TO.C,J3*%
X84000000Y-70880000D02*
X84000000Y-68120000D01*
X91730000Y-68120000D02*
X84000000Y-68120000D01*
X91730000Y-70880000D02*
X84000000Y-70880000D01*
X91730000Y-70880000D02*
X91730000Y-68120000D01*
X93000000Y-70880000D02*
X94380000Y-70880000D01*
X94380000Y-70880000D02*
X94380000Y-69500000D01*
%TD*%
M02*
