%TF.GenerationSoftware,KiCad,Pcbnew,9.0.7*%
%TF.CreationDate,2026-05-01T23:16:42+02:00*%
%TF.ProjectId,SLIDER_PCB_REV_A,534c4944-4552-45f5-9043-425f5245565f,rev?*%
%TF.SameCoordinates,Original*%
%TF.FileFunction,Soldermask,Top*%
%TF.FilePolarity,Negative*%
%FSLAX46Y46*%
G04 Gerber Fmt 4.6, Leading zero omitted, Abs format (unit mm)*
G04 Created by KiCad (PCBNEW 9.0.7) date 2026-05-01 23:16:42*
%MOMM*%
%LPD*%
G01*
G04 APERTURE LIST*
%ADD10R,1.700000X1.700000*%
%ADD11C,1.700000*%
%ADD12R,1.600000X1.600000*%
%ADD13O,1.600000X1.600000*%
%ADD14C,1.600000*%
G04 APERTURE END LIST*
D10*
%TO.C,ESP32_S1*%
X92775000Y-94672500D03*
D11*
X77275000Y-94672500D03*
X92775000Y-92132500D03*
X77275000Y-92132500D03*
X92775000Y-89592500D03*
X77275000Y-89592500D03*
X92775000Y-87052500D03*
X77275000Y-87052500D03*
X92775000Y-84512500D03*
X77275000Y-84512500D03*
X92775000Y-81972500D03*
X77275000Y-81972500D03*
X92775000Y-79432500D03*
X77275000Y-79432500D03*
X92775000Y-76892500D03*
X77275000Y-76892500D03*
X92775000Y-74352500D03*
X77275000Y-74352500D03*
%TD*%
D10*
%TO.C,J1*%
X115500000Y-88500000D03*
D11*
X115500000Y-91040000D03*
X115500000Y-93580000D03*
X115500000Y-96120000D03*
%TD*%
D12*
%TO.C,A1*%
X116300000Y-65610000D03*
D13*
X116300000Y-68150000D03*
X116300000Y-70690000D03*
X116300000Y-73230000D03*
X116300000Y-75770000D03*
X116300000Y-78310000D03*
X116300000Y-80850000D03*
X116300000Y-83390000D03*
X129000000Y-83390000D03*
X129000000Y-80850000D03*
X129000000Y-78310000D03*
X129000000Y-75770000D03*
X129000000Y-73230000D03*
X129000000Y-70690000D03*
X129000000Y-68150000D03*
X129000000Y-65610000D03*
%TD*%
D10*
%TO.C,J4*%
X76500000Y-66225000D03*
D11*
X76500000Y-68765000D03*
%TD*%
D12*
%TO.C,A2*%
X98660000Y-65610000D03*
D13*
X98660000Y-68150000D03*
X98660000Y-70690000D03*
X98660000Y-73230000D03*
X98660000Y-75770000D03*
X98660000Y-78310000D03*
X98660000Y-80850000D03*
X98660000Y-83390000D03*
X111360000Y-83390000D03*
X111360000Y-80850000D03*
X111360000Y-78310000D03*
X111360000Y-75770000D03*
X111360000Y-73230000D03*
X111360000Y-70690000D03*
X111360000Y-68150000D03*
X111360000Y-65610000D03*
%TD*%
D10*
%TO.C,J2*%
X93000000Y-65500000D03*
D11*
X90460000Y-65500000D03*
X87920000Y-65500000D03*
X85380000Y-65500000D03*
%TD*%
D14*
%TO.C,C2*%
X105500000Y-68500000D03*
X105500000Y-73500000D03*
%TD*%
D10*
%TO.C,J5*%
X124500000Y-91000000D03*
D11*
X124500000Y-93540000D03*
%TD*%
D10*
%TO.C,J3*%
X93000000Y-69500000D03*
D11*
X90460000Y-69500000D03*
X87920000Y-69500000D03*
X85380000Y-69500000D03*
%TD*%
M02*
