M48
; DRILL file {KiCad 9.0.7} date 2026-05-01T23:16:38+0200
; FORMAT={-:-/ absolute / metric / decimal}
; #@! TF.CreationDate,2026-05-01T23:16:38+02:00
; #@! TF.GenerationSoftware,Kicad,Pcbnew,9.0.7
; #@! TF.FileFunction,Plated,1,2,PTH
FMAT,2
METRIC
; #@! TA.AperFunction,Plated,PTH,ViaDrill
T1C0.300
; #@! TA.AperFunction,Plated,PTH,ComponentDrill
T2C0.800
; #@! TA.AperFunction,Plated,PTH,ComponentDrill
T3C1.000
%
G90
G05
T1
X111.5Y-86.0
T2
X98.66Y-65.61
X98.66Y-68.15
X98.66Y-70.69
X98.66Y-73.23
X98.66Y-75.77
X98.66Y-78.31
X98.66Y-80.85
X98.66Y-83.39
X105.5Y-68.5
X105.5Y-73.5
X111.36Y-65.61
X111.36Y-68.15
X111.36Y-70.69
X111.36Y-73.23
X111.36Y-75.77
X111.36Y-78.31
X111.36Y-80.85
X111.36Y-83.39
X116.3Y-65.61
X116.3Y-68.15
X116.3Y-70.69
X116.3Y-73.23
X116.3Y-75.77
X116.3Y-78.31
X116.3Y-80.85
X116.3Y-83.39
X129.0Y-65.61
X129.0Y-68.15
X129.0Y-70.69
X129.0Y-73.23
X129.0Y-75.77
X129.0Y-78.31
X129.0Y-80.85
X129.0Y-83.39
T3
X76.5Y-66.225
X76.5Y-68.765
X77.275Y-74.352
X77.275Y-76.892
X77.275Y-79.432
X77.275Y-81.972
X77.275Y-84.513
X77.275Y-87.052
X77.275Y-89.593
X77.275Y-92.132
X77.275Y-94.672
X85.38Y-65.5
X85.38Y-69.5
X87.92Y-65.5
X87.92Y-69.5
X90.46Y-65.5
X90.46Y-69.5
X92.775Y-74.352
X92.775Y-76.892
X92.775Y-79.432
X92.775Y-81.972
X92.775Y-84.513
X92.775Y-87.052
X92.775Y-89.593
X92.775Y-92.132
X92.775Y-94.672
X93.0Y-65.5
X93.0Y-69.5
X115.5Y-88.5
X115.5Y-91.04
X115.5Y-93.58
X115.5Y-96.12
X124.5Y-91.0
X124.5Y-93.54
M30
