%TF.GenerationSoftware,KiCad,Pcbnew,9.0.7*%
%TF.CreationDate,2026-05-02T00:18:01+02:00*%
%TF.ProjectId,keys,6b657973-2e6b-4696-9361-645f70636258,rev?*%
%TF.SameCoordinates,Original*%
%TF.FileFunction,Legend,Bot*%
%TF.FilePolarity,Positive*%
%FSLAX46Y46*%
G04 Gerber Fmt 4.6, Leading zero omitted, Abs format (unit mm)*
G04 Created by KiCad (PCBNEW 9.0.7) date 2026-05-02 00:18:01*
%MOMM*%
%LPD*%
G01*
G04 APERTURE LIST*
%ADD10C,0.150000*%
%ADD11C,0.120000*%
G04 APERTURE END LIST*
D10*
X90563333Y-83804819D02*
X90563333Y-84519104D01*
X90563333Y-84519104D02*
X90610952Y-84661961D01*
X90610952Y-84661961D02*
X90706190Y-84757200D01*
X90706190Y-84757200D02*
X90849047Y-84804819D01*
X90849047Y-84804819D02*
X90944285Y-84804819D01*
X89610952Y-83804819D02*
X90087142Y-83804819D01*
X90087142Y-83804819D02*
X90134761Y-84281009D01*
X90134761Y-84281009D02*
X90087142Y-84233390D01*
X90087142Y-84233390D02*
X89991904Y-84185771D01*
X89991904Y-84185771D02*
X89753809Y-84185771D01*
X89753809Y-84185771D02*
X89658571Y-84233390D01*
X89658571Y-84233390D02*
X89610952Y-84281009D01*
X89610952Y-84281009D02*
X89563333Y-84376247D01*
X89563333Y-84376247D02*
X89563333Y-84614342D01*
X89563333Y-84614342D02*
X89610952Y-84709580D01*
X89610952Y-84709580D02*
X89658571Y-84757200D01*
X89658571Y-84757200D02*
X89753809Y-84804819D01*
X89753809Y-84804819D02*
X89991904Y-84804819D01*
X89991904Y-84804819D02*
X90087142Y-84757200D01*
X90087142Y-84757200D02*
X90134761Y-84709580D01*
D11*
%TO.C,J5*%
X88850000Y-88000000D02*
X88850000Y-95730000D01*
X91610000Y-85350000D02*
X90230000Y-85350000D01*
X91610000Y-86730000D02*
X91610000Y-85350000D01*
X91610000Y-88000000D02*
X88850000Y-88000000D01*
X91610000Y-88000000D02*
X91610000Y-95730000D01*
X91610000Y-95730000D02*
X88850000Y-95730000D01*
%TD*%
M02*
