ISO-10303-21;
HEADER;
FILE_DESCRIPTION (( 'STEP AP214' ),
    '1' );
FILE_NAME ('cable holder x14.STEP',
    '2026-06-11T14:55:55',
    ( '' ),
    ( '' ),
    'SwSTEP 2.0',
    'SolidWorks 2025',
    '' );
FILE_SCHEMA (( 'AUTOMOTIVE_DESIGN' ));
ENDSEC;

DATA;
#1 = VECTOR ( 'NONE', #202, 1000.000000000000000 ) ;
#2 = ORIENTED_EDGE ( 'NONE', *, *, #36, .F. ) ;
#3 = DIRECTION ( 'NONE',  ( -5.782411586589356653E-16, 1.000000000000000000, -0.000000000000000000 ) ) ;
#4 = LINE ( 'NONE', #101, #83 ) ;
#5 = CARTESIAN_POINT ( 'NONE',  ( 10.00000000000000000, 3.000000000000000000, 2.000000000000000000 ) ) ;
#6 = ORIENTED_EDGE ( 'NONE', *, *, #157, .T. ) ;
#7 = DIRECTION ( 'NONE',  ( -1.000000000000000000, -5.782411586589356653E-16, 0.000000000000000000 ) ) ;
#8 = VERTEX_POINT ( 'NONE', #31 ) ;
#9 = FACE_OUTER_BOUND ( 'NONE', #187, .T. ) ;
#10 = CARTESIAN_POINT ( 'NONE',  ( 0.000000000000000000, 0.000000000000000000, 0.000000000000000000 ) ) ;
#11 = CARTESIAN_POINT ( 'NONE',  ( 0.000000000000000000, 0.000000000000000000, 0.000000000000000000 ) ) ;
#12 = DIRECTION ( 'NONE',  ( 0.000000000000000000, 1.000000000000000000, -0.000000000000000000 ) ) ;
#13 = EDGE_CURVE ( 'NONE', #158, #129, #4, .T. ) ;
#14 = AXIS2_PLACEMENT_3D ( 'NONE', #173, #28, #155 ) ;
#15 = CARTESIAN_POINT ( 'NONE',  ( 10.00000000000000000, 3.000000000000000000, 0.000000000000000000 ) ) ;
#16 = CARTESIAN_POINT ( 'NONE',  ( 0.000000000000000000, 0.000000000000000000, 2.000000000000000000 ) ) ;
#17 = DIRECTION ( 'NONE',  ( -0.000000000000000000, -0.000000000000000000, -1.000000000000000000 ) ) ;
#18 = VECTOR ( 'NONE', #90, 1000.000000000000000 ) ;
#19 = CARTESIAN_POINT ( 'NONE',  ( -2.000000000000000000, 0.000000000000000000, 0.000000000000000000 ) ) ;
#20 = VERTEX_POINT ( 'NONE', #296 ) ;
#21 = DIRECTION ( 'NONE',  ( 0.000000000000000000, 0.000000000000000000, 1.000000000000000000 ) ) ;
#22 = EDGE_CURVE ( 'NONE', #201, #221, #198, .T. ) ;
#23 = DIRECTION ( 'NONE',  ( 0.000000000000000000, 0.000000000000000000, 1.000000000000000000 ) ) ;
#24 = ORIENTED_EDGE ( 'NONE', *, *, #136, .T. ) ;
#25 = CLOSED_SHELL ( 'NONE', ( #306, #285, #161, #215, #237, #114, #29, #194, #64, #107 ) ) ;
#26 = CARTESIAN_POINT ( 'NONE',  ( 0.000000000000000000, 0.000000000000000000, 2.000000000000000000 ) ) ;
#27 = ORIENTED_EDGE ( 'NONE', *, *, #229, .F. ) ;
#28 = DIRECTION ( 'NONE',  ( 0.000000000000000000, 1.000000000000000000, 0.000000000000000000 ) ) ;
#29 = ADVANCED_FACE ( 'NONE', ( #38 ), #230, .F. ) ;
#30 = DIRECTION ( 'NONE',  ( 5.782411586589356653E-16, -1.000000000000000000, 0.000000000000000000 ) ) ;
#31 = CARTESIAN_POINT ( 'NONE',  ( 8.000000000000001776, 0.000000000000000000, 2.000000000000000000 ) ) ;
#32 = COLOUR_RGB ( '',0.7921568627450980005, 0.8196078431372548767, 0.9333333333333333481 ) ;
#33 = ORIENTED_EDGE ( 'NONE', *, *, #232, .T. ) ;
#34 = CARTESIAN_POINT ( 'NONE',  ( 10.00000000000000178, 0.000000000000000000, 0.000000000000000000 ) ) ;
#35 = EDGE_CURVE ( 'NONE', #122, #247, #307, .T. ) ;
#36 = EDGE_CURVE ( 'NONE', #98, #59, #84, .T. ) ;
#37 = AXIS2_PLACEMENT_3D ( 'NONE', #124, #319, #23 ) ;
#38 = FACE_OUTER_BOUND ( 'NONE', #223, .T. ) ;
#39 =( NAMED_UNIT ( * ) PLANE_ANGLE_UNIT ( ) SI_UNIT ( $, .RADIAN. ) );
#40 = PRODUCT ( 'cable holder x14', 'cable holder x14', '', ( #63 ) ) ;
#41 = VECTOR ( 'NONE', #246, 1000.000000000000000 ) ;
#42 = DIRECTION ( 'NONE',  ( 0.000000000000000000, -1.000000000000000000, 0.000000000000000000 ) ) ;
#43 = EDGE_CURVE ( 'NONE', #129, #98, #284, .T. ) ;
#44 = DIRECTION ( 'NONE',  ( 0.000000000000000000, 0.000000000000000000, 1.000000000000000000 ) ) ;
#45 = CARTESIAN_POINT ( 'NONE',  ( -2.000000000000000000, 0.000000000000000000, 2.000000000000000000 ) ) ;
#46 = ORIENTED_EDGE ( 'NONE', *, *, #22, .F. ) ;
#47 = VECTOR ( 'NONE', #304, 1000.000000000000000 ) ;
#48 = EDGE_CURVE ( 'NONE', #158, #8, #184, .T. ) ;
#49 = FILL_AREA_STYLE ('',( #292 ) ) ;
#50 = ORIENTED_EDGE ( 'NONE', *, *, #35, .F. ) ;
#51 = EDGE_CURVE ( 'NONE', #8, #98, #89, .T. ) ;
#52 = CARTESIAN_POINT ( 'NONE',  ( 0.000000000000000000, 2.000000000000000000, 0.000000000000000000 ) ) ;
#53 = VERTEX_POINT ( 'NONE', #259 ) ;
#54 = LINE ( 'NONE', #181, #123 ) ;
#55 = ORIENTED_EDGE ( 'NONE', *, *, #232, .F. ) ;
#56 = AXIS2_PLACEMENT_3D ( 'NONE', #169, #316, #93 ) ;
#57 = CARTESIAN_POINT ( 'NONE',  ( -2.000000000000000000, 3.000000000000000000, 2.000000000000000000 ) ) ;
#58 = FACE_OUTER_BOUND ( 'NONE', #77, .T. ) ;
#59 = VERTEX_POINT ( 'NONE', #133 ) ;
#60 = VECTOR ( 'NONE', #222, 1000.000000000000000 ) ;
#61 = CARTESIAN_POINT ( 'NONE',  ( 8.000000000000001776, 0.000000000000000000, 2.000000000000000000 ) ) ;
#62 = PRODUCT_DEFINITION ( 'UNKNOWN', '', #104, #110 ) ;
#63 = PRODUCT_CONTEXT ( 'NONE', #146, 'mechanical' ) ;
#64 = ADVANCED_FACE ( 'NONE', ( #9 ), #108, .F. ) ;
#65 = LINE ( 'NONE', #113, #18 ) ;
#66 = EDGE_CURVE ( 'NONE', #8, #180, #65, .T. ) ;
#67 = DIRECTION ( 'NONE',  ( -0.000000000000000000, -1.000000000000000000, -0.000000000000000000 ) ) ;
#68 = VECTOR ( 'NONE', #67, 1000.000000000000000 ) ;
#69 = DIRECTION ( 'NONE',  ( 0.000000000000000000, 0.000000000000000000, -1.000000000000000000 ) ) ;
#70 = ORIENTED_EDGE ( 'NONE', *, *, #287, .F. ) ;
#71 = VECTOR ( 'NONE', #116, 1000.000000000000000 ) ;
#72 = CARTESIAN_POINT ( 'NONE',  ( 10.00000000000000000, 3.000000000000000000, 2.000000000000000000 ) ) ;
#73 = EDGE_LOOP ( 'NONE', ( #258, #50, #148, #46, #125, #2, #255, #91 ) ) ;
#74 = CARTESIAN_POINT ( 'NONE',  ( 10.00000000000000000, 3.000000000000000000, 2.000000000000000000 ) ) ;
#75 = DIRECTION ( 'NONE',  ( -1.000000000000000000, -0.000000000000000000, -0.000000000000000000 ) ) ;
#76 = CARTESIAN_POINT ( 'NONE',  ( 0.000000000000000000, 0.000000000000000000, 0.000000000000000000 ) ) ;
#77 = EDGE_LOOP ( 'NONE', ( #213, #241, #79, #33 ) ) ;
#78 = CARTESIAN_POINT ( 'NONE',  ( 0.000000000000000000, 2.000000000000000000, 2.000000000000000000 ) ) ;
#79 = ORIENTED_EDGE ( 'NONE', *, *, #265, .F. ) ;
#80 = CARTESIAN_POINT ( 'NONE',  ( 0.000000000000000000, 0.000000000000000000, 2.000000000000000000 ) ) ;
#81 = ORIENTED_EDGE ( 'NONE', *, *, #265, .T. ) ;
#82 = CARTESIAN_POINT ( 'NONE',  ( 8.000000000000001776, 0.000000000000000000, 0.000000000000000000 ) ) ;
#83 = VECTOR ( 'NONE', #226, 1000.000000000000000 ) ;
#84 = LINE ( 'NONE', #34, #130 ) ;
#85 = PRODUCT_DEFINITION_SHAPE ( 'NONE', 'NONE',  #62 ) ;
#86 = DIRECTION ( 'NONE',  ( 1.000000000000000000, -0.000000000000000000, -0.000000000000000000 ) ) ;
#87 = DIRECTION ( 'NONE',  ( 0.000000000000000000, 0.000000000000000000, 1.000000000000000000 ) ) ;
#88 = VECTOR ( 'NONE', #164, 1000.000000000000000 ) ;
#89 = LINE ( 'NONE', #61, #109 ) ;
#90 = DIRECTION ( 'NONE',  ( 1.000000000000000000, -0.000000000000000000, -0.000000000000000000 ) ) ;
#91 = ORIENTED_EDGE ( 'NONE', *, *, #310, .F. ) ;
#92 = ORIENTED_EDGE ( 'NONE', *, *, #238, .T. ) ;
#93 = DIRECTION ( 'NONE',  ( -1.734723475976807094E-15, 1.000000000000000000, 0.000000000000000000 ) ) ;
#94 = SURFACE_STYLE_FILL_AREA ( #49 ) ;
#95 = EDGE_CURVE ( 'NONE', #20, #122, #209, .T. ) ;
#96 = LINE ( 'NONE', #195, #41 ) ;
#97 = EDGE_LOOP ( 'NONE', ( #268, #139, #176, #127 ) ) ;
#98 = VERTEX_POINT ( 'NONE', #311 ) ;
#99 = EDGE_CURVE ( 'NONE', #247, #53, #289, .T. ) ;
#100 = LINE ( 'NONE', #151, #257 ) ;
#101 = CARTESIAN_POINT ( 'NONE',  ( 7.999999999999998224, 2.000000000000000000, 2.000000000000000000 ) ) ;
#102 = CARTESIAN_POINT ( 'NONE',  ( -2.000000000000000000, 3.000000000000000000, 2.000000000000000000 ) ) ;
#103 = ORIENTED_EDGE ( 'NONE', *, *, #217, .F. ) ;
#104 = PRODUCT_DEFINITION_FORMATION_WITH_SPECIFIED_SOURCE ( 'ANY', '', #40, .NOT_KNOWN. ) ;
#105 = PLANE ( 'NONE',  #248 ) ;
#106 = ORIENTED_EDGE ( 'NONE', *, *, #217, .T. ) ;
#107 = ADVANCED_FACE ( 'NONE', ( #266 ), #286, .T. ) ;
#108 = PLANE ( 'NONE',  #206 ) ;
#109 = VECTOR ( 'NONE', #160, 1000.000000000000000 ) ;
#110 = PRODUCT_DEFINITION_CONTEXT ( 'detailed design', #227, 'design' ) ;
#111 = APPLICATION_PROTOCOL_DEFINITION ( 'draft international standard', 'automotive_design', 1998, #146 ) ;
#112 = VECTOR ( 'NONE', #220, 1000.000000000000000 ) ;
#113 = CARTESIAN_POINT ( 'NONE',  ( 10.00000000000000178, 0.000000000000000000, 2.000000000000000000 ) ) ;
#114 = ADVANCED_FACE ( 'NONE', ( #168 ), #264, .F. ) ;
#115 = CARTESIAN_POINT ( 'NONE',  ( 0.000000000000000000, 0.000000000000000000, 2.000000000000000000 ) ) ;
#116 = DIRECTION ( 'NONE',  ( -0.000000000000000000, -0.000000000000000000, -1.000000000000000000 ) ) ;
#117 = VECTOR ( 'NONE', #75, 1000.000000000000000 ) ;
#118 = DIRECTION ( 'NONE',  ( -1.000000000000000000, 0.000000000000000000, -0.000000000000000000 ) ) ;
#119 = CARTESIAN_POINT ( 'NONE',  ( -2.000000000000000000, 0.000000000000000000, 0.000000000000000000 ) ) ;
#120 = LINE ( 'NONE', #52, #191 ) ;
#121 = DIRECTION ( 'NONE',  ( -1.000000000000000000, 0.000000000000000000, 0.000000000000000000 ) ) ;
#122 = VERTEX_POINT ( 'NONE', #19 ) ;
#123 = VECTOR ( 'NONE', #302, 1000.000000000000000 ) ;
#124 = CARTESIAN_POINT ( 'NONE',  ( 10.00000000000000178, 0.000000000000000000, 2.000000000000000000 ) ) ;
#125 = ORIENTED_EDGE ( 'NONE', *, *, #238, .F. ) ;
#126 = LINE ( 'NONE', #102, #1 ) ;
#127 = ORIENTED_EDGE ( 'NONE', *, *, #13, .T. ) ;
#128 = CARTESIAN_POINT ( 'NONE',  ( 0.000000000000000000, 0.000000000000000000, 2.000000000000000000 ) ) ;
#129 = VERTEX_POINT ( 'NONE', #313 ) ;
#130 = VECTOR ( 'NONE', #309, 1000.000000000000000 ) ;
#131 = ORIENTED_EDGE ( 'NONE', *, *, #99, .T. ) ;
#132 = SHAPE_DEFINITION_REPRESENTATION ( #85, #134 ) ;
#133 = CARTESIAN_POINT ( 'NONE',  ( 10.00000000000000178, 0.000000000000000000, 0.000000000000000000 ) ) ;
#134 = ADVANCED_BREP_SHAPE_REPRESENTATION ( 'cable holder x14', ( #153, #162 ), #212 ) ;
#135 = DIRECTION ( 'NONE',  ( 0.000000000000000000, 0.000000000000000000, -1.000000000000000000 ) ) ;
#136 = EDGE_CURVE ( 'NONE', #221, #122, #165, .T. ) ;
#137 = VECTOR ( 'NONE', #86, 1000.000000000000000 ) ;
#138 = FACE_OUTER_BOUND ( 'NONE', #97, .T. ) ;
#139 = ORIENTED_EDGE ( 'NONE', *, *, #51, .F. ) ;
#140 =( NAMED_UNIT ( * ) PLANE_ANGLE_UNIT ( ) SI_UNIT ( $, .RADIAN. ) );
#141 = DIRECTION ( 'NONE',  ( -1.000000000000000000, 0.000000000000000000, -0.000000000000000000 ) ) ;
#142 = ORIENTED_EDGE ( 'NONE', *, *, #157, .F. ) ;
#143 = VECTOR ( 'NONE', #17, 1000.000000000000000 ) ;
#144 = LINE ( 'NONE', #26, #276 ) ;
#145 = ORIENTED_EDGE ( 'NONE', *, *, #95, .T. ) ;
#146 = APPLICATION_CONTEXT ( 'automotive_design' ) ;
#147 = LINE ( 'NONE', #274, #159 ) ;
#148 = ORIENTED_EDGE ( 'NONE', *, *, #136, .F. ) ;
#149 = LINE ( 'NONE', #197, #112 ) ;
#150 = ORIENTED_EDGE ( 'NONE', *, *, #260, .F. ) ;
#151 = CARTESIAN_POINT ( 'NONE',  ( 10.00000000000000178, 0.000000000000000000, 2.000000000000000000 ) ) ;
#152 = ORIENTED_EDGE ( 'NONE', *, *, #281, .F. ) ;
#153 = MANIFOLD_SOLID_BREP ( 'Boss.-Extru.1', #25 ) ;
#154 = LINE ( 'NONE', #128, #167 ) ;
#155 = DIRECTION ( 'NONE',  ( 0.000000000000000000, -0.000000000000000000, 1.000000000000000000 ) ) ;
#156 = ORIENTED_EDGE ( 'NONE', *, *, #256, .F. ) ;
#157 = EDGE_CURVE ( 'NONE', #315, #247, #188, .T. ) ;
#158 = VERTEX_POINT ( 'NONE', #185 ) ;
#159 = VECTOR ( 'NONE', #3, 1000.000000000000000 ) ;
#160 = DIRECTION ( 'NONE',  ( -0.000000000000000000, -0.000000000000000000, -1.000000000000000000 ) ) ;
#161 = ADVANCED_FACE ( 'NONE', ( #138 ), #314, .F. ) ;
#162 = AXIS2_PLACEMENT_3D ( 'NONE', #10, #87, #233 ) ;
#163 = APPLICATION_PROTOCOL_DEFINITION ( 'draft international standard', 'automotive_design', 1998, #227 ) ;
#164 = DIRECTION ( 'NONE',  ( 1.734723475976807094E-15, -1.000000000000000000, -0.000000000000000000 ) ) ;
#165 = LINE ( 'NONE', #119, #68 ) ;
#166 = ORIENTED_EDGE ( 'NONE', *, *, #35, .T. ) ;
#167 = VECTOR ( 'NONE', #282, 1000.000000000000000 ) ;
#168 = FACE_OUTER_BOUND ( 'NONE', #193, .T. ) ;
#169 = CARTESIAN_POINT ( 'NONE',  ( 8.000000000000001776, 0.000000000000000000, 2.000000000000000000 ) ) ;
#170 = ORIENTED_EDGE ( 'NONE', *, *, #66, .F. ) ;
#171 = AXIS2_PLACEMENT_3D ( 'NONE', #262, #42, #243 ) ;
#172 = ORIENTED_EDGE ( 'NONE', *, *, #312, .F. ) ;
#173 = CARTESIAN_POINT ( 'NONE',  ( 0.000000000000000000, 2.000000000000000000, 2.000000000000000000 ) ) ;
#174 = ORIENTED_EDGE ( 'NONE', *, *, #281, .T. ) ;
#175 = FACE_OUTER_BOUND ( 'NONE', #251, .T. ) ;
#176 = ORIENTED_EDGE ( 'NONE', *, *, #48, .F. ) ;
#177 = DIRECTION ( 'NONE',  ( -0.000000000000000000, -0.000000000000000000, -1.000000000000000000 ) ) ;
#178 = VECTOR ( 'NONE', #211, 1000.000000000000000 ) ;
#179 = LINE ( 'NONE', #72, #242 ) ;
#180 = VERTEX_POINT ( 'NONE', #270 ) ;
#181 = CARTESIAN_POINT ( 'NONE',  ( 0.000000000000000000, 2.000000000000000000, 2.000000000000000000 ) ) ;
#182 = ORIENTED_EDGE ( 'NONE', *, *, #22, .T. ) ;
#183 = UNCERTAINTY_MEASURE_WITH_UNIT (LENGTH_MEASURE( 1.000000000000000082E-05 ), #297, 'distance_accuracy_value', 'NONE');
#184 = LINE ( 'NONE', #261, #301 ) ;
#185 = CARTESIAN_POINT ( 'NONE',  ( 7.999999999999998224, 2.000000000000000000, 2.000000000000000000 ) ) ;
#186 =( LENGTH_UNIT ( ) NAMED_UNIT ( * ) SI_UNIT ( .MILLI., .METRE. ) );
#187 = EDGE_LOOP ( 'NONE', ( #174, #81, #228, #298, #293, #305, #190, #278 ) ) ;
#188 = LINE ( 'NONE', #16, #71 ) ;
#189 =( NAMED_UNIT ( * ) SI_UNIT ( $, .STERADIAN. ) SOLID_ANGLE_UNIT ( ) );
#190 = ORIENTED_EDGE ( 'NONE', *, *, #312, .T. ) ;
#191 = VECTOR ( 'NONE', #216, 1000.000000000000000 ) ;
#192 = CARTESIAN_POINT ( 'NONE',  ( -2.000000000000000000, 3.000000000000000000, 0.000000000000000000 ) ) ;
#193 = EDGE_LOOP ( 'NONE', ( #182, #156, #70, #244 ) ) ;
#194 = ADVANCED_FACE ( 'NONE', ( #235 ), #290, .F. ) ;
#195 = CARTESIAN_POINT ( 'NONE',  ( -2.000000000000000000, 0.000000000000000000, 2.000000000000000000 ) ) ;
#196 = CARTESIAN_POINT ( 'NONE',  ( -2.000000000000000000, 3.000000000000000000, 0.000000000000000000 ) ) ;
#197 = CARTESIAN_POINT ( 'NONE',  ( 0.000000000000000000, 2.000000000000000000, 2.000000000000000000 ) ) ;
#198 = LINE ( 'NONE', #196, #117 ) ;
#199 = PLANE ( 'NONE',  #294 ) ;
#200 = AXIS2_PLACEMENT_3D ( 'NONE', #236, #12, #44 ) ;
#201 = VERTEX_POINT ( 'NONE', #15 ) ;
#202 = DIRECTION ( 'NONE',  ( -0.000000000000000000, -0.000000000000000000, -1.000000000000000000 ) ) ;
#203 = ORIENTED_EDGE ( 'NONE', *, *, #256, .T. ) ;
#204 =( NAMED_UNIT ( * ) SI_UNIT ( $, .STERADIAN. ) SOLID_ANGLE_UNIT ( ) );
#205 = EDGE_CURVE ( 'NONE', #20, #315, #144, .T. ) ;
#206 = AXIS2_PLACEMENT_3D ( 'NONE', #115, #69, #141 ) ;
#207 = DIRECTION ( 'NONE',  ( 1.000000000000000000, 0.000000000000000000, 0.000000000000000000 ) ) ;
#208 = MECHANICAL_DESIGN_GEOMETRIC_PRESENTATION_REPRESENTATION (  '', ( #308 ), #269 ) ;
#209 = LINE ( 'NONE', #45, #143 ) ;
#210 = CARTESIAN_POINT ( 'NONE',  ( 0.000000000000000000, 0.000000000000000000, 0.000000000000000000 ) ) ;
#211 = DIRECTION ( 'NONE',  ( 0.000000000000000000, 1.000000000000000000, 0.000000000000000000 ) ) ;
#212 =( GEOMETRIC_REPRESENTATION_CONTEXT ( 3 ) GLOBAL_UNCERTAINTY_ASSIGNED_CONTEXT ( ( #183 ) ) GLOBAL_UNIT_ASSIGNED_CONTEXT ( ( #297, #39, #204 ) ) REPRESENTATION_CONTEXT ( 'NONE', 'WORKASPACE' ) );
#213 = ORIENTED_EDGE ( 'NONE', *, *, #310, .T. ) ;
#214 = SURFACE_STYLE_USAGE ( .BOTH. , #240 ) ;
#215 = ADVANCED_FACE ( 'NONE', ( #250 ), #277, .F. ) ;
#216 = DIRECTION ( 'NONE',  ( 1.000000000000000000, 0.000000000000000000, 0.000000000000000000 ) ) ;
#217 = EDGE_CURVE ( 'NONE', #180, #59, #100, .T. ) ;
#218 = CARTESIAN_POINT ( 'NONE',  ( 0.000000000000000000, 0.000000000000000000, 2.000000000000000000 ) ) ;
#219 = ORIENTED_EDGE ( 'NONE', *, *, #205, .F. ) ;
#220 = DIRECTION ( 'NONE',  ( -0.000000000000000000, -0.000000000000000000, -1.000000000000000000 ) ) ;
#221 = VERTEX_POINT ( 'NONE', #192 ) ;
#222 = DIRECTION ( 'NONE',  ( -1.000000000000000000, -0.000000000000000000, -0.000000000000000000 ) ) ;
#223 = EDGE_LOOP ( 'NONE', ( #24, #291, #172, #203 ) ) ;
#224 = LINE ( 'NONE', #245, #60 ) ;
#225 = AXIS2_PLACEMENT_3D ( 'NONE', #231, #207, #135 ) ;
#226 = DIRECTION ( 'NONE',  ( -0.000000000000000000, -0.000000000000000000, -1.000000000000000000 ) ) ;
#227 = APPLICATION_CONTEXT ( 'automotive_design' ) ;
#228 = ORIENTED_EDGE ( 'NONE', *, *, #48, .T. ) ;
#229 = EDGE_CURVE ( 'NONE', #180, #303, #299, .T. ) ;
#230 = PLANE ( 'NONE',  #225 ) ;
#231 = CARTESIAN_POINT ( 'NONE',  ( -2.000000000000000000, 0.000000000000000000, 2.000000000000000000 ) ) ;
#232 = EDGE_CURVE ( 'NONE', #300, #53, #149, .T. ) ;
#233 = DIRECTION ( 'NONE',  ( 1.000000000000000000, 0.000000000000000000, 0.000000000000000000 ) ) ;
#234 = DIRECTION ( 'NONE',  ( 1.734723475976807094E-15, -1.000000000000000000, -0.000000000000000000 ) ) ;
#235 = FACE_OUTER_BOUND ( 'NONE', #271, .T. ) ;
#236 = CARTESIAN_POINT ( 'NONE',  ( 0.000000000000000000, 0.000000000000000000, 2.000000000000000000 ) ) ;
#237 = ADVANCED_FACE ( 'NONE', ( #175 ), #199, .F. ) ;
#238 = EDGE_CURVE ( 'NONE', #59, #201, #147, .T. ) ;
#239 = PRODUCT_RELATED_PRODUCT_CATEGORY ( 'part', '', ( #40 ) ) ;
#240 = SURFACE_SIDE_STYLE ('',( #94 ) ) ;
#241 = ORIENTED_EDGE ( 'NONE', *, *, #13, .F. ) ;
#242 = VECTOR ( 'NONE', #177, 1000.000000000000000 ) ;
#243 = DIRECTION ( 'NONE',  ( 0.000000000000000000, -0.000000000000000000, -1.000000000000000000 ) ) ;
#244 = ORIENTED_EDGE ( 'NONE', *, *, #260, .T. ) ;
#245 = CARTESIAN_POINT ( 'NONE',  ( -2.000000000000000000, 3.000000000000000000, 2.000000000000000000 ) ) ;
#246 = DIRECTION ( 'NONE',  ( -0.000000000000000000, -1.000000000000000000, -0.000000000000000000 ) ) ;
#247 = VERTEX_POINT ( 'NONE', #76 ) ;
#248 = AXIS2_PLACEMENT_3D ( 'NONE', #80, #121, #21 ) ;
#249 = PRESENTATION_LAYER_ASSIGNMENT (  '', '', ( #308 ) ) ;
#250 = FACE_OUTER_BOUND ( 'NONE', #283, .T. ) ;
#251 = EDGE_LOOP ( 'NONE', ( #92, #150, #27, #106 ) ) ;
#252 = PLANE ( 'NONE',  #14 ) ;
#253 = EDGE_LOOP ( 'NONE', ( #131, #55, #152, #6 ) ) ;
#254 = DIRECTION ( 'NONE',  ( 1.000000000000000000, -0.000000000000000000, -0.000000000000000000 ) ) ;
#255 = ORIENTED_EDGE ( 'NONE', *, *, #43, .F. ) ;
#256 = EDGE_CURVE ( 'NONE', #273, #221, #126, .T. ) ;
#257 = VECTOR ( 'NONE', #295, 1000.000000000000000 ) ;
#258 = ORIENTED_EDGE ( 'NONE', *, *, #99, .F. ) ;
#259 = CARTESIAN_POINT ( 'NONE',  ( 0.000000000000000000, 2.000000000000000000, 0.000000000000000000 ) ) ;
#260 = EDGE_CURVE ( 'NONE', #303, #201, #179, .T. ) ;
#261 = CARTESIAN_POINT ( 'NONE',  ( 8.000000000000001776, 0.000000000000000000, 2.000000000000000000 ) ) ;
#262 = CARTESIAN_POINT ( 'NONE',  ( -2.000000000000000000, 3.000000000000000000, 2.000000000000000000 ) ) ;
#263 = AXIS2_PLACEMENT_3D ( 'NONE', #288, #267, #118 ) ;
#264 = PLANE ( 'NONE',  #171 ) ;
#265 = EDGE_CURVE ( 'NONE', #300, #158, #54, .T. ) ;
#266 = FACE_OUTER_BOUND ( 'NONE', #73, .T. ) ;
#267 = DIRECTION ( 'NONE',  ( 0.000000000000000000, 0.000000000000000000, -1.000000000000000000 ) ) ;
#268 = ORIENTED_EDGE ( 'NONE', *, *, #43, .T. ) ;
#269 =( GEOMETRIC_REPRESENTATION_CONTEXT ( 3 ) GLOBAL_UNCERTAINTY_ASSIGNED_CONTEXT ( ( #317 ) ) GLOBAL_UNIT_ASSIGNED_CONTEXT ( ( #186, #140, #189 ) ) REPRESENTATION_CONTEXT ( 'NONE', 'WORKASPACE' ) );
#270 = CARTESIAN_POINT ( 'NONE',  ( 10.00000000000000178, 0.000000000000000000, 2.000000000000000000 ) ) ;
#271 = EDGE_LOOP ( 'NONE', ( #166, #142, #219, #145 ) ) ;
#272 = FACE_OUTER_BOUND ( 'NONE', #253, .T. ) ;
#273 = VERTEX_POINT ( 'NONE', #57 ) ;
#274 = CARTESIAN_POINT ( 'NONE',  ( 10.00000000000000000, 3.000000000000000000, 0.000000000000000000 ) ) ;
#275 = ORIENTED_EDGE ( 'NONE', *, *, #51, .T. ) ;
#276 = VECTOR ( 'NONE', #254, 1000.000000000000000 ) ;
#277 = PLANE ( 'NONE',  #37 ) ;
#278 = ORIENTED_EDGE ( 'NONE', *, *, #205, .T. ) ;
#279 = CARTESIAN_POINT ( 'NONE',  ( 10.00000000000000000, 3.000000000000000000, 2.000000000000000000 ) ) ;
#280 = ORIENTED_EDGE ( 'NONE', *, *, #36, .T. ) ;
#281 = EDGE_CURVE ( 'NONE', #315, #300, #154, .T. ) ;
#282 = DIRECTION ( 'NONE',  ( 0.000000000000000000, 1.000000000000000000, 0.000000000000000000 ) ) ;
#283 = EDGE_LOOP ( 'NONE', ( #280, #103, #170, #275 ) ) ;
#284 = LINE ( 'NONE', #82, #88 ) ;
#285 = ADVANCED_FACE ( 'NONE', ( #58 ), #252, .F. ) ;
#286 = PLANE ( 'NONE',  #263 ) ;
#287 = EDGE_CURVE ( 'NONE', #303, #273, #224, .T. ) ;
#288 = CARTESIAN_POINT ( 'NONE',  ( 0.000000000000000000, 0.000000000000000000, 0.000000000000000000 ) ) ;
#289 = LINE ( 'NONE', #210, #178 ) ;
#290 = PLANE ( 'NONE',  #200 ) ;
#291 = ORIENTED_EDGE ( 'NONE', *, *, #95, .F. ) ;
#292 = FILL_AREA_STYLE_COLOUR ( '', #32 ) ;
#293 = ORIENTED_EDGE ( 'NONE', *, *, #229, .T. ) ;
#294 = AXIS2_PLACEMENT_3D ( 'NONE', #74, #7, #30 ) ;
#295 = DIRECTION ( 'NONE',  ( -0.000000000000000000, -0.000000000000000000, -1.000000000000000000 ) ) ;
#296 = CARTESIAN_POINT ( 'NONE',  ( -2.000000000000000000, 0.000000000000000000, 2.000000000000000000 ) ) ;
#297 =( LENGTH_UNIT ( ) NAMED_UNIT ( * ) SI_UNIT ( .MILLI., .METRE. ) );
#298 = ORIENTED_EDGE ( 'NONE', *, *, #66, .T. ) ;
#299 = LINE ( 'NONE', #5, #47 ) ;
#300 = VERTEX_POINT ( 'NONE', #78 ) ;
#301 = VECTOR ( 'NONE', #234, 1000.000000000000000 ) ;
#302 = DIRECTION ( 'NONE',  ( 1.000000000000000000, 0.000000000000000000, 0.000000000000000000 ) ) ;
#303 = VERTEX_POINT ( 'NONE', #279 ) ;
#304 = DIRECTION ( 'NONE',  ( -5.782411586589356653E-16, 1.000000000000000000, -0.000000000000000000 ) ) ;
#305 = ORIENTED_EDGE ( 'NONE', *, *, #287, .T. ) ;
#306 = ADVANCED_FACE ( 'NONE', ( #272 ), #105, .F. ) ;
#307 = LINE ( 'NONE', #11, #137 ) ;
#308 = STYLED_ITEM ( 'NONE', ( #318 ), #153 ) ;
#309 = DIRECTION ( 'NONE',  ( 1.000000000000000000, -0.000000000000000000, -0.000000000000000000 ) ) ;
#310 = EDGE_CURVE ( 'NONE', #53, #129, #120, .T. ) ;
#311 = CARTESIAN_POINT ( 'NONE',  ( 8.000000000000001776, 0.000000000000000000, 0.000000000000000000 ) ) ;
#312 = EDGE_CURVE ( 'NONE', #273, #20, #96, .T. ) ;
#313 = CARTESIAN_POINT ( 'NONE',  ( 7.999999999999998224, 2.000000000000000000, 0.000000000000000000 ) ) ;
#314 = PLANE ( 'NONE',  #56 ) ;
#315 = VERTEX_POINT ( 'NONE', #218 ) ;
#316 = DIRECTION ( 'NONE',  ( 1.000000000000000000, 1.734723475976807094E-15, -0.000000000000000000 ) ) ;
#317 = UNCERTAINTY_MEASURE_WITH_UNIT (LENGTH_MEASURE( 1.000000000000000082E-05 ), #186, 'distance_accuracy_value', 'NONE');
#318 = PRESENTATION_STYLE_ASSIGNMENT (( #214 ) ) ;
#319 = DIRECTION ( 'NONE',  ( 0.000000000000000000, 1.000000000000000000, -0.000000000000000000 ) ) ;
ENDSEC;
END-ISO-10303-21;
